<svg width="160" height="160" viewBox="0 0 160 160" fill="none" xmlns="http://www.w3.org/2000/svg">
<path d="M158 80C158 123.078 123.078 158 80 158C36.9218 158 2 123.078 2 80C2 36.9218 36.9218 2 80 2C123.078 2 158 36.9218 158 80Z" stroke="#C42D1C" stroke-width="4"/>
<path d="M129.751 85.8947C129.8 85.7224 129.87 85.5872 129.96 85.4888C130.036 85.3864 130.125 85.3496 130.225 85.3785C130.34 85.4115 130.417 85.4957 130.456 85.6311C130.494 85.7666 130.521 85.9451 130.535 86.1666C130.538 86.5871 130.609 86.9882 130.748 87.37C130.887 87.7517 131.165 88.1111 131.581 88.4481C132.345 89.0872 133.074 89.6852 133.769 90.2422C134.478 90.8032 135.176 91.3458 135.865 91.8699C136.553 92.394 137.261 92.9315 137.988 93.4823C138.73 94.0372 139.52 94.6138 140.358 95.212C140.651 95.436 140.897 95.6076 141.096 95.7269C141.309 95.8503 141.499 95.9439 141.668 96.0078C141.657 96.2067 141.651 96.3913 141.648 96.5616C141.66 96.736 141.69 96.9309 141.737 97.1463C141.773 97.3433 141.858 97.5075 141.991 97.639C142.135 97.789 142.234 97.903 142.289 97.981C142.295 98.0138 142.294 98.0446 142.286 98.0733C142.288 98.1205 142.256 98.1502 142.19 98.1624C142.106 98.1848 142.019 98.1908 141.929 98.1804C141.835 98.1844 141.733 98.1863 141.624 98.1861C140.482 98.2152 139.316 98.2452 138.126 98.2763C136.946 98.3258 135.79 98.3743 134.658 98.4218C133.526 98.4694 132.471 98.516 131.495 98.5617C130.533 98.6116 129.69 98.6493 128.968 98.6749C128.449 98.6966 128.03 98.7781 127.71 98.9191C127.404 99.0643 127.151 99.2403 126.952 99.4472C126.767 99.6582 126.605 99.899 126.465 100.17C126.36 100.372 126.25 100.512 126.135 100.588C126.016 100.678 125.899 100.706 125.784 100.673C125.698 100.648 125.657 100.574 125.661 100.451C125.647 100.339 125.663 100.203 125.708 100.045C125.774 99.8157 125.875 99.5184 126.011 99.1535C126.132 98.7844 126.258 98.4011 126.388 98.0033C126.518 97.6056 126.63 97.2416 126.725 96.9115C126.803 96.6388 126.89 96.3374 126.985 96.0073C127.08 95.6772 127.163 95.3594 127.235 95.0538C127.303 94.7627 127.368 94.5094 127.43 94.2941C127.48 94.1219 127.543 93.9846 127.619 93.8821C127.705 93.7982 127.791 93.7685 127.877 93.7933C127.992 93.8263 128.067 93.9177 128.101 94.0675C128.136 94.2173 128.143 94.3824 128.122 94.5629C128.068 95.0756 128.096 95.4644 128.207 95.7291C128.313 96.0083 128.516 96.1675 128.815 96.207C129.063 96.2627 129.379 96.2991 129.763 96.3161C130.161 96.3372 130.577 96.3481 131.012 96.3487C131.461 96.3535 131.872 96.3551 132.246 96.3536C132.369 96.3579 132.455 96.3283 132.504 96.2648C132.554 96.2013 132.603 96.0834 132.652 95.9112L133.797 91.9283C133.817 91.8566 133.807 91.7837 133.766 91.7098C133.74 91.6401 133.663 91.5558 133.536 91.4572C133.376 91.3646 133.174 91.229 132.931 91.0501C132.697 90.8898 132.442 90.7232 132.165 90.5505C131.903 90.3819 131.653 90.2246 131.415 90.0786C131.188 89.9511 131.018 89.8637 130.908 89.8163C130.561 89.6702 130.25 89.6738 129.972 89.8273C129.705 89.9992 129.451 90.2911 129.208 90.703C128.969 91.1006 128.764 91.2747 128.592 91.2252C128.491 91.1963 128.436 91.1183 128.426 90.9911C128.426 90.8824 128.451 90.7419 128.501 90.5697C128.579 90.297 128.677 89.9833 128.794 89.6286C128.912 89.2739 129.028 88.8956 129.144 88.4937C129.276 88.0344 129.382 87.5833 129.463 87.1404C129.543 86.6974 129.639 86.2822 129.751 85.8947ZM134.506 92.7848L133.603 95.928C133.545 96.1289 133.552 96.2397 133.624 96.2603C133.667 96.2727 133.705 96.2758 133.738 96.2697C133.767 96.278 133.812 96.2832 133.873 96.2853L139.434 96.1583C139.684 96.1525 139.815 96.1281 139.827 96.085C139.836 96.0563 139.743 95.9751 139.548 95.8415L134.962 92.4962C134.884 92.4428 134.831 92.4119 134.802 92.4037C134.731 92.3831 134.67 92.4045 134.621 92.468C134.582 92.55 134.543 92.6556 134.506 92.7848Z" fill="#C42D1C"/>
<path d="M122.806 103.986C122.994 103.664 123.206 103.372 123.443 103.113C123.667 102.846 123.887 102.602 124.101 102.381C124.308 102.173 124.494 101.988 124.658 101.824C124.835 101.668 124.946 101.551 124.991 101.474C125.051 101.37 125.082 101.258 125.083 101.138C125.076 101.03 125.063 100.919 125.043 100.804C125.018 100.669 125.021 100.575 125.051 100.524C125.096 100.446 125.163 100.39 125.252 100.356C125.341 100.321 125.418 100.323 125.483 100.36C125.599 100.428 125.791 100.573 126.058 100.798C126.317 101.035 126.615 101.251 126.95 101.446L136.096 106.706C136.432 106.901 136.763 106.999 137.091 106.999C137.432 107.007 137.733 106.906 137.994 106.695C138.057 106.645 138.123 106.606 138.192 106.576C138.273 106.555 138.353 106.566 138.43 106.611C138.495 106.649 138.535 106.698 138.552 106.76C138.56 106.834 138.552 106.907 138.528 106.979C138.447 107.208 138.364 107.514 138.28 107.897C138.208 108.287 138.148 108.658 138.1 109.01C138.043 109.374 138.003 109.636 137.98 109.795C137.966 109.908 137.948 109.984 137.926 110.023C137.896 110.074 137.854 110.102 137.8 110.105C137.759 110.116 137.713 110.106 137.661 110.076C137.597 110.039 137.404 109.91 137.083 109.689C136.768 109.488 136.391 109.261 135.952 109.006L131.934 106.646C131.715 106.519 131.552 106.441 131.447 106.415C131.334 106.401 131.263 106.42 131.233 106.472C131.31 107.052 131.296 107.64 131.192 108.236C131.093 108.852 130.924 109.366 130.684 109.78C130.301 110.438 129.789 110.935 129.145 111.269C128.502 111.604 127.793 111.753 127.019 111.718C126.251 111.703 125.498 111.482 124.762 111.055C123.871 110.537 123.192 109.892 122.726 109.12C122.259 108.348 122.027 107.514 122.029 106.618C122.037 105.742 122.296 104.865 122.806 103.986ZM123.248 104.787C122.993 105.226 122.924 105.687 123.041 106.169C123.163 106.672 123.434 107.157 123.853 107.625C124.265 108.106 124.78 108.526 125.4 108.887C125.917 109.187 126.488 109.406 127.115 109.546C127.742 109.686 128.335 109.676 128.894 109.517C129.465 109.365 129.912 109.012 130.235 108.457C130.475 108.044 130.635 107.619 130.716 107.182C130.797 106.745 130.803 106.334 130.733 105.949L126.84 103.687C126.401 103.432 125.95 103.317 125.487 103.341C125.016 103.379 124.585 103.526 124.194 103.782C123.796 104.052 123.481 104.387 123.248 104.787Z" fill="#C42D1C"/>
<path d="M117.125 111.859C117.697 111.23 118.364 110.786 119.123 110.528C119.884 110.291 120.654 110.255 121.433 110.419C122.213 110.583 122.928 110.961 123.58 111.554C124.066 111.996 124.45 112.517 124.732 113.117C125.014 113.717 125.182 114.354 125.235 115.028C125.288 115.702 125.213 116.361 125.011 117.005C124.82 117.659 124.488 118.245 124.016 118.764C123.423 119.416 122.725 119.861 121.922 120.1C121.131 120.349 120.34 120.397 119.551 120.244C118.761 120.091 118.063 119.738 117.455 119.186C116.792 118.583 116.299 117.871 115.975 117.051C115.651 116.232 115.567 115.369 115.725 114.463C115.885 113.578 116.351 112.71 117.125 111.859ZM117.388 112.735C117.097 113.055 116.896 113.398 116.787 113.762C116.688 114.137 116.706 114.517 116.84 114.902C116.974 115.265 117.203 115.635 117.527 116.011C117.852 116.408 118.208 116.782 118.595 117.134C119.147 117.636 119.747 118.02 120.394 118.286C121.041 118.551 121.654 118.665 122.233 118.627C122.813 118.589 123.294 118.36 123.676 117.94C123.907 117.686 124.074 117.414 124.176 117.124C124.28 116.854 124.307 116.547 124.259 116.2C124.196 115.759 123.99 115.319 123.642 114.881C123.305 114.453 122.898 114.023 122.423 113.591C121.893 113.109 121.305 112.735 120.658 112.469C120.011 112.204 119.397 112.08 118.817 112.097C118.226 112.125 117.75 112.337 117.388 112.735Z" fill="#C42D1C"/>
<path d="M107.151 120.359C107.248 120.289 107.336 120.309 107.414 120.419C107.509 120.552 107.628 120.743 107.769 120.991C107.906 121.26 108.027 121.467 108.132 121.613C108.158 121.649 108.179 121.68 108.197 121.704C108.214 121.728 108.227 121.746 108.236 121.759C108.348 121.017 108.57 120.353 108.902 119.766C109.231 119.199 109.681 118.712 110.252 118.303C110.628 118.033 111.039 117.877 111.486 117.833C111.932 117.789 112.367 117.871 112.793 118.081C113.215 118.311 113.596 118.663 113.935 119.137L116.518 122.742C116.709 123.009 116.922 123.178 117.156 123.249C117.387 123.341 117.673 123.329 118.013 123.214C118.091 123.195 118.174 123.182 118.26 123.175C118.344 123.188 118.42 123.244 118.49 123.341C118.568 123.45 118.596 123.541 118.573 123.612C118.547 123.704 118.502 123.782 118.438 123.846C118.007 124.192 117.662 124.494 117.406 124.751C117.158 125.021 116.887 125.334 116.592 125.692C116.552 125.739 116.514 125.776 116.478 125.802C116.45 125.84 116.418 125.872 116.381 125.898C116.236 126.003 116.108 125.966 115.998 125.787C115.835 125.482 115.696 125.223 115.581 125.011C115.475 124.812 115.321 124.573 115.121 124.293L112.591 120.761C112.382 120.469 112.13 120.246 111.835 120.09C111.536 119.955 111.225 119.893 110.902 119.904C110.58 119.914 110.298 119.996 110.059 120.149C109.78 120.349 109.544 120.546 109.352 120.739C109.168 120.944 109.034 121.205 108.949 121.523C108.901 121.686 108.871 121.928 108.861 122.247C108.839 122.575 108.959 122.922 109.22 123.286L111.502 126.473C111.676 126.715 111.873 126.85 112.094 126.875C112.311 126.922 112.532 126.91 112.758 126.841C112.971 126.78 113.155 126.703 113.31 126.611C113.431 126.524 113.546 126.478 113.653 126.475C113.761 126.471 113.858 126.53 113.945 126.652C114.032 126.773 114.052 126.878 114.005 126.967C113.955 127.076 113.875 127.17 113.766 127.248C113.322 127.603 112.969 127.892 112.708 128.117C112.434 128.35 112.206 128.558 112.026 128.742C111.834 128.935 111.644 129.145 111.457 129.371C111.441 129.4 111.415 129.428 111.379 129.454C111.339 129.501 111.307 129.533 111.282 129.551C111.125 129.664 110.998 129.653 110.902 129.52C110.885 129.496 110.869 129.461 110.855 129.416C110.829 129.379 110.809 129.339 110.795 129.294C110.773 129.236 110.712 129.114 110.615 128.927C110.514 128.76 110.411 128.577 110.304 128.378C110.186 128.187 110.088 128.037 110.01 127.928L106.996 123.721C106.779 123.417 106.592 123.221 106.436 123.131C106.276 123.061 106.154 123.057 106.069 123.118C105.984 123.179 105.867 123.272 105.717 123.397C105.556 123.531 105.439 123.624 105.366 123.676C105.293 123.728 105.214 123.758 105.127 123.765C105.04 123.772 104.958 123.721 104.879 123.612C104.81 123.515 104.782 123.424 104.796 123.341C104.818 123.27 104.867 123.198 104.944 123.125C105.41 122.699 105.79 122.28 106.083 121.868C106.375 121.456 106.628 121.091 106.841 120.773C106.873 120.714 106.922 120.642 106.99 120.557C107.036 120.469 107.09 120.403 107.151 120.359Z" fill="#C42D1C"/>
<path d="M101.03 123.868C101.77 123.512 102.443 123.446 103.047 123.668C103.638 123.898 104.128 124.416 104.516 125.223L106.77 129.906C106.822 130.014 106.905 130.065 107.018 130.06C107.125 130.075 107.306 130.021 107.562 129.898L107.723 129.82C107.804 129.781 107.897 129.803 108.003 129.885C108.115 129.98 108.197 130.081 108.249 130.189C108.262 130.216 108.264 130.256 108.257 130.309C108.242 130.383 108.225 130.432 108.204 130.459C108.006 130.77 107.821 131.091 107.649 131.422C107.47 131.773 107.318 132.112 107.193 132.437C107.054 132.769 106.943 133.055 106.859 133.294C106.811 133.4 106.773 133.493 106.745 133.573C106.717 133.652 106.663 133.712 106.582 133.75C106.501 133.789 106.424 133.802 106.351 133.787C106.264 133.779 106.198 133.711 106.154 133.584L105.799 132.536C105.734 132.368 105.649 132.277 105.542 132.262C105.422 132.254 105.281 132.288 105.12 132.366L102.779 133.493C102.738 133.512 102.675 133.484 102.59 133.41C102.504 133.335 102.438 133.25 102.393 133.156C102.322 133.008 102.274 132.857 102.25 132.703C102.225 132.549 102.24 132.459 102.294 132.433L104.252 131.491C104.588 131.329 104.794 131.189 104.869 131.07C104.931 130.957 104.903 130.78 104.787 130.537L102.902 126.622C102.63 126.057 102.305 125.674 101.928 125.475C101.557 125.289 101.162 125.296 100.745 125.497C100.355 125.685 100.075 125.861 99.9057 126.025C99.7363 126.19 99.5935 126.358 99.4773 126.53C99.4499 126.576 99.4227 126.606 99.3958 126.619C99.3285 126.651 99.272 126.637 99.2261 126.576C99.1669 126.522 99.1178 126.454 99.0789 126.374C99.0401 126.293 99.0932 126.093 99.2382 125.775C99.3833 125.457 99.6089 125.116 99.9149 124.753C100.214 124.377 100.586 124.082 101.03 123.868Z" fill="#C42D1C"/>
<path d="M73.1582 136.431C73.2768 136.446 73.3826 136.503 73.4757 136.605C73.5522 136.719 73.589 136.852 73.586 137.002L73.6482 138.927C73.8718 138.818 74.1426 138.693 74.4605 138.55C74.7635 138.406 75.0823 138.257 75.4168 138.101C75.4666 138.062 75.5221 138.039 75.5832 138.031C75.6443 138.023 75.7045 138.023 75.7638 138.03C75.8824 138.044 75.9891 138.095 76.084 138.181C76.1641 138.266 76.197 138.368 76.1828 138.486C76.1614 138.664 76.0603 138.818 75.8794 138.946L74.2478 139.946C74.4559 140.092 74.6994 140.256 74.9781 140.44C75.2569 140.624 75.5421 140.816 75.8339 141.017C75.9175 141.072 75.9902 141.156 76.0519 141.268C76.0987 141.379 76.1168 141.479 76.1061 141.568C76.083 141.761 75.9863 141.877 75.8161 141.917C75.6459 141.957 75.4902 141.938 75.349 141.861C75.0389 141.688 74.7426 141.525 74.4603 141.371C74.178 141.216 73.9023 141.07 73.633 140.933C73.6271 141.233 73.6202 141.54 73.6125 141.855C73.59 142.168 73.5573 142.503 73.5146 142.859C73.4968 143.007 73.4437 143.136 73.3553 143.246C73.2652 143.37 73.1377 143.43 72.9728 143.425C72.8411 143.395 72.7371 143.322 72.6606 143.207C72.5823 143.108 72.5437 142.99 72.5449 142.855L72.505 140.933C72.2814 141.041 72.018 141.168 71.715 141.312C71.4101 141.471 71.0913 141.62 70.7586 141.761C70.7088 141.8 70.6533 141.823 70.5923 141.831C70.5294 141.854 70.4683 141.861 70.409 141.854C70.2904 141.84 70.1836 141.79 70.0887 141.703C69.9921 141.631 69.9526 141.521 69.9704 141.373C69.99 141.21 70.0902 141.064 70.2711 140.935L71.9054 139.913C71.6824 139.766 71.4381 139.609 71.1724 139.442C70.8919 139.273 70.6066 139.08 70.3166 138.865C70.2182 138.808 70.1455 138.724 70.0987 138.613C70.0352 138.516 70.0097 138.415 70.0222 138.311C70.0435 138.133 70.1393 138.024 70.3095 137.984C70.4797 137.945 70.6372 137.949 70.7819 137.996C71.0903 138.183 71.3865 138.347 71.6706 138.486C71.9547 138.626 72.2305 138.772 72.4979 138.924C72.4985 138.668 72.5119 138.369 72.538 138.026C72.5493 137.682 72.5689 137.331 72.5968 136.973C72.6146 136.825 72.6686 136.688 72.7587 136.564C72.8471 136.454 72.9802 136.41 73.1582 136.431Z" fill="#C42D1C"/>
<path d="M52.0657 120.282C52.196 120.405 52.2841 120.529 52.33 120.655C52.3862 120.769 52.3784 120.865 52.3067 120.941C52.2247 121.028 52.1146 121.057 51.9765 121.03C51.8383 121.002 51.6676 120.944 51.4643 120.854C51.0891 120.665 50.7 120.544 50.297 120.492C49.8941 120.44 49.4475 120.522 48.9573 120.737C48.0388 121.123 47.1729 121.497 46.3594 121.858C45.5357 122.231 44.7331 122.603 43.9516 122.974C43.1701 123.346 42.3678 123.728 41.5447 124.122C40.7114 124.526 39.8367 124.964 38.9208 125.434C38.5873 125.592 38.322 125.731 38.1248 125.853C37.9174 125.986 37.7468 126.113 37.6129 126.233C37.441 126.132 37.2799 126.042 37.1297 125.962C36.9692 125.892 36.7825 125.829 36.5695 125.772C36.3777 125.714 36.1928 125.714 36.0149 125.772C35.8159 125.831 35.6691 125.867 35.5744 125.88C35.5424 125.87 35.5156 125.855 35.4939 125.835C35.451 125.815 35.4392 125.773 35.4585 125.709C35.4772 125.624 35.5118 125.544 35.5624 125.468C35.6022 125.383 35.6471 125.292 35.6971 125.195C36.1954 124.166 36.7036 123.116 37.2218 122.045C37.7188 120.974 38.206 119.925 38.6831 118.897C39.1603 117.869 39.6026 116.91 40.0098 116.022C40.4069 115.144 40.7596 114.378 41.0681 113.725C41.2868 113.254 41.4069 112.844 41.4285 112.494C41.4398 112.156 41.3992 111.851 41.3068 111.579C41.2041 111.318 41.0647 111.063 40.8884 110.814C40.7562 110.628 40.6829 110.467 40.6683 110.33C40.6429 110.183 40.6712 110.065 40.7532 109.979C40.8147 109.913 40.8991 109.911 41.0065 109.971C41.1133 110.01 41.2264 110.086 41.3459 110.199C41.5197 110.363 41.7375 110.589 41.9995 110.877C42.2716 111.155 42.5546 111.442 42.8485 111.74C43.1424 112.038 43.4143 112.305 43.6641 112.54C43.8705 112.735 44.0986 112.95 44.3484 113.186C44.5982 113.422 44.8423 113.642 45.0806 113.846C45.3081 114.04 45.5033 114.214 45.6663 114.368C45.7966 114.491 45.8899 114.609 45.946 114.724C45.981 114.839 45.9678 114.929 45.9063 114.995C45.8243 115.081 45.7089 115.106 45.5599 115.068C45.4109 115.03 45.2609 114.96 45.1101 114.859C44.6793 114.576 44.321 114.423 44.0351 114.399C43.7383 114.366 43.5037 114.473 43.3313 114.721C43.168 114.916 42.9908 115.18 42.7998 115.513C42.5985 115.857 42.3978 116.222 42.1978 116.608C41.9875 117.005 41.7974 117.369 41.6274 117.702C41.5672 117.809 41.5539 117.899 41.5878 117.972C41.6216 118.045 41.7037 118.143 41.834 118.266L44.8482 121.11C44.9025 121.161 44.9719 121.186 45.0563 121.183C45.1305 121.192 45.2405 121.162 45.3865 121.094C45.542 120.995 45.7552 120.878 46.0259 120.743C46.2756 120.609 46.5406 120.459 46.821 120.292C47.0911 120.136 47.3456 119.986 47.5843 119.842C47.802 119.698 47.9573 119.588 48.0501 119.512C48.3389 119.271 48.4787 118.992 48.4695 118.675C48.4392 118.359 48.2966 117.999 48.0419 117.595C47.798 117.2 47.7376 116.938 47.8606 116.808C47.9323 116.731 48.027 116.718 48.1446 116.768C48.2411 116.818 48.3546 116.904 48.4849 117.027C48.6913 117.222 48.9251 117.453 49.1864 117.72C49.4477 117.987 49.7305 118.264 50.0346 118.551C50.3822 118.879 50.7343 119.18 51.0909 119.455C51.4475 119.73 51.7724 120.006 52.0657 120.282ZM43.7617 121.348L41.383 119.103C41.2309 118.96 41.1292 118.915 41.078 118.97C41.0473 119.002 41.0271 119.034 41.0174 119.066C40.9969 119.088 40.9716 119.126 40.9415 119.18L38.504 124.179C38.3943 124.404 38.3558 124.531 38.3883 124.562C38.4101 124.583 38.5249 124.537 38.733 124.425L43.809 121.885C43.8922 121.84 43.9441 121.807 43.9646 121.785C44.0158 121.731 44.0245 121.668 43.9907 121.595C43.9358 121.522 43.8595 121.44 43.7617 121.348Z" fill="#C42D1C"/>
<path d="M39.1567 105.823C39.3582 106.137 39.5203 106.459 39.6429 106.789C39.7781 107.11 39.8949 107.416 39.9933 107.708C40.0836 107.987 40.1641 108.237 40.2348 108.458C40.2929 108.687 40.3461 108.839 40.3945 108.914C40.459 109.015 40.5446 109.093 40.6513 109.149C40.7499 109.192 40.8549 109.231 40.9661 109.266C41.098 109.306 41.18 109.351 41.2123 109.401C41.2606 109.477 41.2799 109.562 41.2699 109.657C41.2599 109.752 41.2235 109.82 41.1607 109.86C41.0475 109.933 40.8303 110.036 40.5089 110.172C40.1795 110.294 39.8514 110.46 39.5246 110.67L30.6683 116.404C30.3415 116.614 30.103 116.864 29.9528 117.156C29.7901 117.455 29.7432 117.769 29.8119 118.098C29.8271 118.177 29.832 118.253 29.8265 118.328C29.8085 118.41 29.7617 118.476 29.6863 118.524C29.6235 118.564 29.5611 118.578 29.4992 118.564C29.4293 118.538 29.3678 118.498 29.3149 118.443C29.1482 118.266 28.9138 118.053 28.6117 117.803C28.297 117.561 27.9944 117.338 27.7039 117.134C27.4053 116.918 27.1906 116.763 27.0597 116.669C26.9655 116.606 26.9064 116.555 26.8822 116.517C26.8499 116.467 26.8446 116.417 26.8662 116.368C26.8752 116.327 26.9048 116.29 26.9551 116.258C27.018 116.217 27.2209 116.105 27.5638 115.92C27.8861 115.731 28.2609 115.5 28.6883 115.226L32.6222 112.729C32.8358 112.592 32.9786 112.483 33.0505 112.401C33.1143 112.307 33.1301 112.235 33.0978 112.184C32.5462 111.988 32.0292 111.708 31.5468 111.343C31.0439 110.974 30.6634 110.588 30.4054 110.186C29.9942 109.545 29.7867 108.862 29.7829 108.137C29.7792 107.412 29.9696 106.713 30.3544 106.04C30.7184 105.363 31.2587 104.795 31.9752 104.335C32.8425 103.779 33.7261 103.469 34.6262 103.407C35.5262 103.344 36.3744 103.518 37.1707 103.93C37.9464 104.337 38.6084 104.968 39.1567 105.823ZM38.2428 105.85C37.9687 105.423 37.5903 105.151 37.1077 105.035C36.6044 104.914 36.049 104.933 35.4414 105.093C34.8257 105.239 34.2162 105.506 33.6129 105.893C33.1101 106.215 32.6534 106.624 32.2429 107.118C31.8323 107.612 31.5703 108.143 31.4566 108.713C31.3304 109.291 31.4407 109.85 31.7874 110.39C32.0454 110.793 32.3501 111.129 32.7016 111.401C33.053 111.672 33.4162 111.865 33.7911 111.979L37.5809 109.548C38.0083 109.274 38.3168 108.925 38.5066 108.502C38.6883 108.066 38.7542 107.616 38.7045 107.151C38.6466 106.674 38.4927 106.24 38.2428 105.85Z" fill="#C42D1C"/>
<path d="M34.78 97.2593C35.079 98.0562 35.1701 98.8515 35.0531 99.645C34.917 100.43 34.5981 101.132 34.0966 101.75C33.5951 102.369 32.9319 102.833 32.107 103.143C31.4918 103.374 30.853 103.478 30.1906 103.455C29.5282 103.433 28.8849 103.291 28.2609 103.031C27.6369 102.771 27.0845 102.404 26.6038 101.93C26.109 101.462 25.7384 100.899 25.4918 100.242C25.1823 99.4171 25.1044 98.593 25.258 97.7698C25.3977 96.9517 25.7156 96.2263 26.2119 95.5935C26.7081 94.9607 27.3408 94.5001 28.1097 94.2115C28.9486 93.8967 29.8068 93.7821 30.6842 93.8676C31.5616 93.953 32.3674 94.2727 33.1016 94.8266C33.8166 95.3718 34.376 96.1827 34.78 97.2593ZM33.8807 97.0943C33.7286 96.6888 33.5153 96.3542 33.2408 96.0903C32.9524 95.8317 32.6063 95.6744 32.2025 95.6186C31.818 95.5715 31.3846 95.6065 30.9022 95.7237C30.4006 95.8322 29.9051 95.9782 29.4157 96.1618C28.7167 96.4241 28.1015 96.7826 27.5703 97.2371C27.039 97.6916 26.6581 98.1855 26.4275 98.7186C26.1969 99.2517 26.1813 99.7839 26.3806 100.315C26.5013 100.637 26.6674 100.909 26.8789 101.133C27.0712 101.348 27.3325 101.513 27.6629 101.628C28.0841 101.773 28.5692 101.791 29.118 101.681C29.6528 101.576 30.2208 101.41 30.822 101.185C31.4931 100.933 32.0943 100.58 32.6255 100.125C33.1568 99.6707 33.5473 99.1812 33.7971 98.6568C34.0417 98.1185 34.0696 97.5976 33.8807 97.0943Z" fill="#C42D1C"/>
<path d="M31.7924 84.5651C31.8098 84.6833 31.7521 84.7522 31.6191 84.7718C31.4566 84.7957 31.2328 84.8136 30.9478 84.8254C30.6458 84.8247 30.4061 84.8374 30.2288 84.8635C30.1845 84.87 30.1476 84.8755 30.118 84.8798C30.0885 84.8842 30.0663 84.8875 30.0515 84.8896C30.6596 85.3283 31.1486 85.8298 31.5186 86.3942C31.8717 86.9459 32.0994 87.569 32.2017 88.2633C32.2692 88.7213 32.2205 89.1587 32.0555 89.5755C31.8905 89.9923 31.6175 90.3419 31.2365 90.6245C30.8386 90.8945 30.3515 91.072 29.7753 91.1569L25.3876 91.8037C25.0625 91.8516 24.8149 91.9636 24.6446 92.1396C24.4574 92.3031 24.3371 92.5623 24.2838 92.9174C24.2651 92.9956 24.2391 93.0749 24.2056 93.1553C24.1552 93.2231 24.071 93.2657 23.9528 93.2831C23.8198 93.3027 23.7268 93.2863 23.6738 93.2337C23.6038 93.1685 23.5549 93.0927 23.527 93.0063C23.4169 92.464 23.3062 92.0199 23.1948 91.6741C23.0687 91.3304 22.9138 90.9457 22.7303 90.5199C22.7068 90.4629 22.6918 90.4123 22.6853 90.368C22.664 90.3259 22.6501 90.2826 22.6435 90.2383C22.6174 90.061 22.7088 89.9645 22.9179 89.9488C23.2642 89.943 23.5577 89.9375 23.7984 89.9322C24.0244 89.9291 24.3073 89.9025 24.6471 89.8524L28.9462 89.2187C29.3008 89.1664 29.6149 89.0447 29.8886 88.8534C30.1454 88.6495 30.3428 88.4015 30.4809 88.1094C30.619 87.8174 30.6747 87.5299 30.6481 87.247C30.598 86.9072 30.5312 86.6076 30.4477 86.3483C30.3494 86.091 30.1783 85.8521 29.9345 85.6314C29.8115 85.5137 29.6102 85.3773 29.3307 85.2223C29.0491 85.0525 28.6867 85.0002 28.2435 85.0656L24.3654 85.6372C24.0699 85.6808 23.8603 85.7947 23.7365 85.979C23.5958 86.1507 23.5048 86.3528 23.4636 86.5853C23.4202 86.803 23.4042 87.0016 23.4156 87.181C23.4373 87.3288 23.4252 87.4513 23.3792 87.5487C23.3332 87.646 23.2363 87.7056 23.0885 87.7274C22.9408 87.7492 22.8382 87.719 22.7808 87.6369C22.7065 87.5422 22.6595 87.4283 22.6399 87.2954C22.5276 86.7383 22.4317 86.2921 22.352 85.9566C22.2702 85.6064 22.1886 85.309 22.1073 85.0644C22.0238 84.805 21.9244 84.5404 21.8092 84.2706C21.79 84.2432 21.7772 84.2074 21.7707 84.1631C21.7472 84.1061 21.7333 84.0629 21.7289 84.0334C21.7006 83.8413 21.7677 83.7333 21.9302 83.7093C21.9597 83.705 21.9978 83.7069 22.0443 83.7152C22.0886 83.7086 22.134 83.7095 22.1805 83.7177C22.2418 83.7238 22.378 83.7264 22.5892 83.7254C22.7834 83.7119 22.9935 83.7035 23.2195 83.7004C23.4433 83.6825 23.6216 83.6638 23.7546 83.6442L28.8737 82.8896C29.243 82.8352 29.5035 82.759 29.6551 82.6612C29.7898 82.5508 29.8495 82.4439 29.8343 82.3405C29.819 82.237 29.7899 82.0904 29.7468 81.9005C29.7015 81.6959 29.6724 81.5492 29.6593 81.4606C29.6462 81.3719 29.6564 81.2874 29.6898 81.207C29.7233 81.1266 29.8065 81.0766 29.9394 81.057C30.0576 81.0396 30.1506 81.0561 30.2184 81.1064C30.2715 81.159 30.313 81.2359 30.343 81.3371C30.5083 81.9468 30.7071 82.476 30.9393 82.9248C31.1715 83.3736 31.3802 83.7655 31.5654 84.1004C31.6037 84.1552 31.6452 84.2321 31.69 84.3311C31.7474 84.4132 31.7815 84.4912 31.7924 84.5651Z" fill="#C42D1C"/>
<path d="M31.4721 77.3907C31.4467 78.2117 31.1958 78.8389 30.7192 79.2724C30.2432 79.691 29.5573 79.8864 28.6618 79.8588L23.4674 79.6983C23.348 79.6946 23.2643 79.7443 23.2163 79.8474C23.1538 79.9352 23.1182 80.1208 23.1095 80.4044L23.1039 80.5835C23.1012 80.6731 23.0392 80.7459 22.9179 80.8019C22.7817 80.8574 22.6539 80.8834 22.5345 80.8797C22.5047 80.8788 22.4678 80.8627 22.424 80.8315C22.3656 80.7848 22.3295 80.7464 22.3155 80.7161C22.1311 80.3966 21.9316 80.0842 21.7169 79.7787C21.4878 79.4579 21.2577 79.1669 21.0267 78.9058C20.7962 78.6298 20.5942 78.3994 20.4206 78.2148C20.3487 78.1229 20.2839 78.0462 20.226 77.9846C20.1681 77.9231 20.1406 77.8475 20.1434 77.758C20.1461 77.6684 20.1708 77.5945 20.2174 77.5362C20.2645 77.4629 20.355 77.4358 20.4889 77.4549L21.5818 77.6231C21.7605 77.6436 21.881 77.61 21.9435 77.5222C22.0064 77.4196 22.0407 77.2787 22.0462 77.0996L22.1264 74.5025C22.1278 74.4577 22.1814 74.4145 22.2873 74.373C22.3931 74.3314 22.4983 74.3122 22.6028 74.3155C22.767 74.3205 22.923 74.3478 23.0709 74.3972C23.2188 74.4465 23.2918 74.5011 23.29 74.5608L23.2229 76.7326C23.2114 77.1057 23.2411 77.3532 23.312 77.4749C23.3834 77.5817 23.5534 77.6392 23.8221 77.6475L28.1656 77.7817C28.7925 77.801 29.2816 77.6891 29.6327 77.446C29.9689 77.2024 30.1442 76.8492 30.1585 76.3865C30.1718 75.9537 30.1447 75.6241 30.0769 75.3979C30.0092 75.1717 29.9259 74.9675 29.8269 74.7851C29.7985 74.7394 29.7847 74.7016 29.7856 74.6718C29.7879 74.5972 29.8266 74.5535 29.9017 74.5409C29.9773 74.5134 30.0598 74.501 30.1494 74.5037C30.2389 74.5065 30.3915 74.6457 30.6071 74.9213C30.8227 75.1969 31.0208 75.5541 31.2015 75.9929C31.3971 76.4322 31.4873 76.8982 31.4721 77.3907Z" fill="#C42D1C"/>
<path d="M32.8839 47.0929C32.8169 47.1918 32.7169 47.2593 32.5841 47.2955C32.4473 47.311 32.3129 47.283 32.1809 47.2115L30.4417 46.3838C30.4356 46.6322 30.4229 46.9303 30.4035 47.2781C30.3926 47.6135 30.3794 47.9655 30.364 48.334C30.376 48.3962 30.3713 48.4562 30.3502 48.514C30.329 48.5719 30.3017 48.6255 30.2681 48.6749C30.2011 48.7738 30.1073 48.8455 29.9868 48.8901C29.8747 48.9224 29.7693 48.905 29.6704 48.8379C29.5221 48.7373 29.4322 48.5771 29.4009 48.3574L29.2608 46.4489C29.0362 46.5672 28.7782 46.7081 28.487 46.8714C28.1958 47.0348 27.8942 47.2001 27.5822 47.3674C27.4948 47.4164 27.3869 47.4425 27.2585 47.4456C27.1385 47.4364 27.0414 47.4066 26.9672 47.3563C26.8065 47.2473 26.7476 47.1081 26.7904 46.9386C26.8331 46.7692 26.9212 46.6394 27.0544 46.5493C27.3501 46.3529 27.6311 46.1646 27.8977 45.9845C28.1642 45.8044 28.4203 45.6262 28.6661 45.4501C28.4022 45.3072 28.132 45.16 27.8557 45.0087C27.5878 44.8451 27.3056 44.6626 27.0089 44.4615C26.8854 44.3776 26.7951 44.2713 26.7381 44.1424C26.6688 44.0052 26.6741 43.8644 26.7539 43.7201C26.8417 43.6172 26.954 43.5581 27.0908 43.5426C27.2153 43.5187 27.3373 43.5384 27.4569 43.6014L29.1836 44.4477C29.1897 44.1993 29.1982 43.9073 29.2092 43.5719C29.2078 43.2281 29.2209 42.8762 29.2487 42.5161C29.2367 42.4538 29.2414 42.3938 29.2625 42.336C29.2713 42.2698 29.2925 42.212 29.326 42.1626C29.3931 42.0637 29.4869 41.992 29.6073 41.9474C29.7155 41.8944 29.8313 41.9098 29.9549 41.9936C30.0908 42.0858 30.1745 42.2418 30.2059 42.4616L30.3645 44.3826C30.5975 44.2519 30.8492 44.1069 31.1197 43.9475C31.3986 43.7758 31.7002 43.6105 32.0246 43.4515C32.1203 43.3901 32.2282 43.3641 32.3483 43.3733C32.4643 43.3618 32.5656 43.3854 32.6521 43.4441C32.8004 43.5447 32.8532 43.6797 32.8104 43.8492C32.7676 44.0187 32.692 44.1568 32.5834 44.2636C32.2754 44.4517 31.9944 44.64 31.7402 44.8285C31.486 45.017 31.2299 45.1951 30.9718 45.3629C31.1986 45.4807 31.4584 45.6298 31.751 45.8102C32.052 45.9783 32.355 46.1567 32.66 46.3456C32.7836 46.4294 32.8801 46.5399 32.9494 46.6771C33.0063 46.806 32.9845 46.9446 32.8839 47.0929Z" fill="#C42D1C"/>
<path d="M56.9256 35.5316C56.7567 35.5914 56.606 35.6131 56.4734 35.5966C56.3459 35.5943 56.2646 35.5438 56.2298 35.4453C56.1899 35.3326 56.2138 35.2212 56.3015 35.111C56.3892 35.0007 56.5192 34.8755 56.6913 34.7354C57.0316 34.4882 57.3167 34.1972 57.5467 33.8623C57.7767 33.5275 57.908 33.0929 57.9406 32.5586C58.0168 31.5653 58.0797 30.6243 58.1295 29.7354C58.1742 28.8324 58.2099 27.9486 58.2364 27.0837C58.263 26.2189 58.2891 25.3305 58.3148 24.4184C58.3356 23.4923 58.3459 22.5144 58.3458 21.4848C58.3579 21.1162 58.3547 20.8163 58.3363 20.5852C58.3129 20.3401 58.2783 20.1305 58.2326 19.9566C58.4006 19.8496 58.5546 19.7476 58.6945 19.6505C58.8295 19.5394 58.971 19.4022 59.1191 19.2389C59.2582 19.0946 59.3425 18.9301 59.3722 18.7454C59.4109 18.5415 59.446 18.3945 59.4774 18.3042C59.5005 18.2801 59.5262 18.2631 59.5544 18.2532C59.5916 18.2241 59.6343 18.2328 59.6824 18.2791C59.7495 18.3346 59.8051 18.402 59.849 18.4815C59.9071 18.556 59.9676 18.6376 60.0307 18.7261C60.7182 19.6392 61.4202 20.5709 62.1368 21.5212C62.8624 22.4524 63.5735 23.3651 64.2701 24.2591C64.9668 25.1531 65.6173 25.9842 66.2219 26.7523C66.8215 27.5064 67.3414 28.1699 67.7818 28.7427C68.1011 29.1525 68.4111 29.4467 68.712 29.6253C69.0079 29.7899 69.2979 29.8932 69.582 29.9352C69.8612 29.9631 70.1515 29.9554 70.453 29.912C70.6791 29.8795 70.8564 29.8881 70.9849 29.9377C71.1274 29.9823 71.2186 30.0609 71.2584 30.1735C71.2883 30.258 71.2519 30.3342 71.1493 30.4022C71.0657 30.4793 70.9465 30.5453 70.7916 30.6001C70.5664 30.6798 70.2658 30.7704 69.8898 30.8718C69.5188 30.9872 69.1337 31.1077 68.7345 31.2331C68.3354 31.3586 67.9739 31.4786 67.6501 31.5932C67.3827 31.6879 67.087 31.7925 66.7632 31.9071C66.4395 32.0217 66.1323 32.1384 65.8416 32.2571C65.565 32.3708 65.3212 32.465 65.11 32.5398C64.9411 32.5996 64.7928 32.6283 64.6653 32.6259C64.5468 32.6045 64.4726 32.5515 64.4427 32.4671C64.4028 32.3544 64.4338 32.2405 64.5356 32.1253C64.6374 32.0101 64.7677 31.9085 64.9267 31.8205C65.3755 31.5666 65.6755 31.3179 65.8269 31.0742C65.9923 30.8255 66.0041 30.5679 65.8622 30.3013C65.7634 30.067 65.6095 29.7888 65.4005 29.4667C65.1865 29.1306 64.9534 28.7854 64.7013 28.4311C64.4442 28.0627 64.2065 27.727 63.9884 27.424C63.9204 27.3214 63.8462 27.2684 63.7659 27.2652C63.6855 27.262 63.5609 27.2902 63.3919 27.35L59.4854 28.7327C59.415 28.7576 59.3616 28.8082 59.3253 28.8844C59.2839 28.9466 59.26 29.058 59.2535 29.2187C59.2711 29.4026 59.2779 29.6457 59.274 29.9481C59.2792 30.2314 59.2919 30.5358 59.3121 30.8613C59.3273 31.1728 59.3445 31.4676 59.3638 31.7459C59.3922 32.0052 59.4193 32.1936 59.4451 32.3112C59.5274 32.6781 59.7116 32.9298 59.9975 33.0662C60.2925 33.1836 60.6781 33.2213 61.1544 33.1795C61.6166 33.1426 61.8775 33.2087 61.9373 33.3776C61.9722 33.4761 61.9408 33.5664 61.8431 33.6485C61.7546 33.7116 61.6258 33.773 61.4569 33.8328C61.1894 33.9274 60.8772 34.03 60.5203 34.1405C60.1634 34.251 59.7878 34.376 59.3936 34.5155C58.9432 34.675 58.5142 34.8505 58.1069 35.0423C57.6995 35.234 57.3057 35.3971 56.9256 35.5316ZM59.7702 27.6577L62.8532 26.5665C63.0503 26.4967 63.1364 26.4266 63.1115 26.3562C63.0965 26.314 63.077 26.2813 63.053 26.2581C63.043 26.23 63.021 26.1902 62.987 26.1389L59.6531 21.6874C59.503 21.4871 59.4068 21.3944 59.3646 21.4093C59.3364 21.4193 59.3245 21.5423 59.3289 21.7784L59.2706 27.4543C59.2723 27.5488 59.2782 27.6101 59.2881 27.6382C59.313 27.7086 59.3657 27.7454 59.446 27.7487C59.5355 27.7328 59.6435 27.7025 59.7702 27.6577Z" fill="#C42D1C"/>
<path d="M75.6927 30.6481C75.3209 30.6826 74.9606 30.6786 74.6117 30.636C74.2642 30.6082 73.9383 30.571 73.634 30.5242C73.3446 30.4761 73.0856 30.4327 72.857 30.3939C72.6271 30.3402 72.4675 30.3176 72.3783 30.3258C72.2593 30.3369 72.1506 30.377 72.052 30.4461C71.9683 30.5139 71.8853 30.5891 71.803 30.6717C71.7072 30.7706 71.6296 30.8228 71.5701 30.8283C71.4809 30.8366 71.3963 30.8144 71.3164 30.7618C71.2366 30.7093 71.1932 30.6458 71.1863 30.5715C71.1739 30.4376 71.1815 30.197 71.2093 29.8494C71.2519 29.5005 71.2552 29.1328 71.2193 28.7462L70.1997 18.2451C70.1638 17.8585 70.051 17.5315 69.8612 17.2642C69.67 16.982 69.4128 16.7959 69.0895 16.7059C69.0124 16.6831 68.942 16.6521 68.8784 16.613C68.8134 16.5591 68.7768 16.4875 68.7685 16.3982C68.7616 16.3239 68.7784 16.2624 68.8188 16.2136C68.8742 16.1635 68.9383 16.1275 69.0113 16.1058C69.2451 16.0391 69.5423 15.929 69.903 15.7755C70.2623 15.6072 70.5993 15.4409 70.914 15.2768C71.2436 15.1112 71.48 14.9918 71.6232 14.9185C71.7231 14.8642 71.7954 14.835 71.84 14.8309C71.8995 14.8254 71.9461 14.8435 71.98 14.8854C72.0125 14.9123 72.0315 14.9556 72.0371 15.0151C72.044 15.0894 72.0505 15.3213 72.0566 15.7106C72.0763 16.0837 72.1095 16.5231 72.1565 17.0286L72.5647 21.67C72.5882 21.9227 72.6196 22.0998 72.659 22.2011C72.7133 22.3011 72.7702 22.3483 72.8297 22.3428C73.2575 21.9431 73.7443 21.613 74.29 21.3524C74.8492 21.0755 75.3667 20.915 75.8425 20.8708C76.6009 20.8004 77.3028 20.9303 77.9483 21.2603C78.5938 21.5903 79.1268 22.0807 79.5471 22.7316C79.981 23.3662 80.2372 24.1073 80.3159 24.9549C80.4111 25.9809 80.2797 26.9079 79.9216 27.736C79.5636 28.5641 79.0186 29.2371 78.2868 29.7549C77.5685 30.2565 76.7038 30.5543 75.6927 30.6481ZM76.0886 29.824C76.5942 29.7771 77.0095 29.5661 77.3346 29.1909C77.6732 28.7996 77.9116 28.2975 78.0497 27.6848C78.2027 27.0707 78.246 26.4068 78.1798 25.6931C78.1246 25.0983 77.972 24.505 77.7221 23.9133C77.4723 23.3216 77.1205 22.8444 76.6669 22.4815C76.2119 22.1038 75.6647 21.9447 75.0253 22.004C74.5495 22.0482 74.1103 22.1639 73.7078 22.3512C73.3053 22.5386 72.967 22.7724 72.6931 23.0528L73.1092 27.536C73.1561 28.0415 73.3239 28.4759 73.6126 28.839C73.9161 29.2008 74.2857 29.4664 74.7214 29.636C75.1719 29.8041 75.6276 29.8668 76.0886 29.824Z" fill="#C42D1C"/>
<path d="M85.4866 30.674C84.6415 30.5726 83.8936 30.2873 83.243 29.8181C82.609 29.3359 82.1328 28.7298 81.8144 27.9997C81.4959 27.2696 81.3892 26.4672 81.4942 25.5924C81.5725 24.94 81.7742 24.325 82.0992 23.7473C82.4243 23.1697 82.846 22.6638 83.3643 22.2297C83.8827 21.7956 84.4628 21.4742 85.1045 21.2654C85.748 21.0419 86.4182 20.9719 87.115 21.0556C87.9898 21.1606 88.7572 21.4708 89.4173 21.9862C90.0792 22.4868 90.5767 23.103 90.91 23.8349C91.2433 24.5668 91.361 25.3405 91.2631 26.1559C91.1563 27.0455 90.863 27.8601 90.3831 28.5997C89.9033 29.3392 89.2485 29.9074 88.4188 30.3041C87.6057 30.6878 86.6283 30.8111 85.4866 30.674ZM86.0471 29.9517C86.4771 30.0033 86.8724 29.968 87.233 29.8459C87.5953 29.7089 87.8943 29.4741 88.1297 29.1414C88.3486 28.8217 88.517 28.4208 88.6351 27.9386C88.7697 27.4434 88.8682 26.9363 88.9305 26.4174C89.0195 25.676 88.9845 24.9649 88.8256 24.2841C88.6667 23.6032 88.4037 23.0377 88.0366 22.5875C87.6695 22.1374 87.2042 21.8785 86.6408 21.8108C86.2998 21.7699 85.9813 21.7918 85.6854 21.8766C85.406 21.9484 85.1391 22.1043 84.8847 22.3445C84.5621 22.6517 84.3233 23.0743 84.1685 23.6122C84.0155 24.1353 83.9007 24.7156 83.8241 25.3532C83.7387 26.0649 83.7754 26.7611 83.9344 27.442C84.0933 28.1229 84.348 28.6949 84.6985 29.1581C85.0638 29.6231 85.5133 29.8876 86.0471 29.9517Z" fill="#C42D1C"/>
<path d="M98.2468 33.8681C98.1339 33.8291 98.0994 33.7461 98.1433 33.619C98.1969 33.4638 98.2842 33.2569 98.405 32.9985C98.5449 32.7308 98.6441 32.5123 98.7026 32.3429C98.7173 32.3006 98.7295 32.2653 98.7392 32.2371C98.749 32.2089 98.7563 32.1877 98.7612 32.1736C98.0916 32.511 97.4211 32.7139 96.7498 32.7821C96.0974 32.8411 95.4395 32.756 94.7761 32.5268C94.3386 32.3756 93.9729 32.1308 93.6791 31.7923C93.3852 31.4538 93.2007 31.0503 93.1255 30.582C93.0694 30.1044 93.1364 29.5903 93.3266 29.0399L94.7749 24.8478C94.8822 24.5373 94.8969 24.2659 94.8192 24.0336C94.7604 23.7922 94.5858 23.5659 94.2953 23.355C94.2345 23.3023 94.1761 23.2427 94.1202 23.176C94.0832 23.1 94.0842 23.0055 94.1232 22.8926C94.1671 22.7656 94.2246 22.6907 94.2957 22.6678C94.3858 22.6358 94.4756 22.6273 94.5652 22.6424C95.0972 22.7946 95.5423 22.901 95.9006 22.9616C96.2637 23.0081 96.6765 23.048 97.1389 23.0814C97.2003 23.0868 97.2521 23.0968 97.2945 23.1114C97.3417 23.1119 97.3865 23.1195 97.4288 23.1341C97.5982 23.1926 97.6417 23.3183 97.5593 23.511C97.4048 23.821 97.2744 24.084 97.1682 24.3001C97.0668 24.5021 96.96 24.7654 96.8478 25.09L95.4288 29.1974C95.3117 29.5361 95.275 29.8711 95.3186 30.2021C95.3812 30.5239 95.5103 30.8134 95.7059 31.0706C95.9014 31.3277 96.1308 31.5097 96.3941 31.6165C96.7188 31.7286 97.0154 31.8074 97.2841 31.8529C97.5577 31.8842 97.8486 31.8425 98.1568 31.7278C98.318 31.6729 98.5318 31.5571 98.7981 31.3806C99.0787 31.2089 99.2921 30.9113 99.4384 30.4879L100.718 26.7828C100.816 26.5005 100.812 26.262 100.705 26.0672C100.618 25.8632 100.48 25.6893 100.293 25.5456C100.12 25.4067 99.9507 25.301 99.7862 25.2283C99.645 25.1796 99.5419 25.1123 99.4767 25.0266C99.4115 24.9409 99.4033 24.8275 99.452 24.6863C99.5008 24.5452 99.5749 24.4681 99.6742 24.455C99.7925 24.4326 99.9151 24.4434 100.042 24.4873C100.588 24.6444 101.029 24.7649 101.363 24.8488C101.711 24.9376 102.013 25.0023 102.268 25.0429C102.536 25.0883 102.817 25.1221 103.109 25.1442C103.143 25.1398 103.18 25.1449 103.223 25.1596C103.284 25.165 103.329 25.1725 103.357 25.1823C103.54 25.2457 103.605 25.355 103.552 25.5103C103.542 25.5385 103.523 25.5713 103.494 25.6088C103.479 25.6512 103.458 25.6911 103.429 25.7285C103.395 25.7801 103.33 25.8998 103.234 26.0877C103.156 26.2663 103.067 26.4566 102.965 26.6585C102.878 26.8654 102.813 27.0323 102.769 27.1594L101.079 32.0501C100.957 32.403 100.905 32.6692 100.921 32.8489C100.957 33.0193 101.025 33.1215 101.124 33.1557C101.222 33.1898 101.366 33.2315 101.554 33.2808C101.757 33.335 101.9 33.3767 101.985 33.4059C102.07 33.4352 102.14 33.4832 102.196 33.5499C102.252 33.6166 102.258 33.7135 102.214 33.8405C102.175 33.9535 102.118 34.0284 102.042 34.0653C101.971 34.0882 101.883 34.0896 101.779 34.0696C101.162 33.9353 100.601 33.8678 100.096 33.867C99.5904 33.8662 99.1464 33.8708 98.7638 33.8808C98.6976 33.8895 98.6102 33.891 98.5016 33.8851C98.4023 33.8981 98.3174 33.8925 98.2468 33.8681Z" fill="#C42D1C"/>
<path d="M104.485 36.7292C103.768 36.3299 103.325 35.819 103.159 35.1966C103.006 34.5815 103.147 33.8825 103.583 33.0996L106.11 28.5585C106.168 28.4541 106.162 28.3569 106.092 28.2669C106.043 28.1712 105.894 28.0543 105.647 27.9163L105.49 27.8292C105.412 27.7856 105.375 27.6971 105.381 27.5637C105.395 27.4172 105.43 27.2918 105.488 27.1874C105.503 27.1613 105.534 27.1359 105.582 27.1113C105.65 27.0809 105.701 27.0664 105.734 27.0679C106.103 27.0507 106.472 27.0169 106.842 26.9664C107.232 26.9101 107.596 26.8393 107.934 26.7539C108.285 26.6758 108.582 26.6021 108.826 26.5326C108.941 26.5109 109.039 26.4885 109.12 26.4654C109.201 26.4422 109.281 26.4524 109.359 26.496C109.438 26.5396 109.492 26.5954 109.522 26.6636C109.566 26.7391 109.548 26.8319 109.47 26.9421L108.819 27.8358C108.719 27.9852 108.693 28.1077 108.742 28.2035C108.805 28.3065 108.914 28.4016 109.071 28.4887L111.341 29.7522C111.38 29.774 111.394 29.8414 111.382 29.9545C111.371 30.0677 111.339 30.1699 111.289 30.2613C111.209 30.4048 111.113 30.5309 111.001 30.6396C110.889 30.7483 110.807 30.7882 110.755 30.7591L108.857 29.7026C108.53 29.5211 108.297 29.4339 108.156 29.441C108.029 29.4555 107.899 29.5801 107.769 29.815L105.656 33.6123C105.351 34.1603 105.226 34.6462 105.28 35.0697C105.343 35.4802 105.576 35.7981 105.98 36.0232C106.359 36.2337 106.664 36.3609 106.896 36.4045C107.128 36.4482 107.348 36.4679 107.555 36.4637C107.609 36.4594 107.649 36.4645 107.675 36.479C107.74 36.5153 107.761 36.5698 107.738 36.6423C107.728 36.722 107.701 36.8011 107.657 36.8794C107.614 36.9576 107.42 37.0293 107.076 37.0943C106.732 37.1594 106.324 37.1714 105.851 37.1305C105.371 37.1026 104.916 36.9688 104.485 36.7292Z" fill="#C42D1C"/>
<path d="M130.958 52.0114C130.9 51.9066 130.886 51.7868 130.914 51.6521C130.963 51.5233 131.049 51.4166 131.173 51.3318L132.704 50.1628C132.486 50.0439 132.226 49.8964 131.926 49.7203C131.633 49.5573 131.325 49.3848 131.005 49.2028C130.944 49.185 130.893 49.1535 130.851 49.1082C130.809 49.063 130.774 49.0142 130.745 48.9618C130.688 48.8569 130.667 48.7408 130.682 48.6132C130.705 48.4988 130.768 48.4129 130.873 48.3556C131.031 48.2696 131.214 48.2629 131.424 48.3353L133.186 49.0825C133.183 48.8287 133.175 48.5349 133.163 48.2012C133.151 47.8675 133.142 47.5237 133.135 47.1697C133.132 47.0696 133.158 46.9617 133.214 46.8461C133.277 46.7435 133.347 46.6707 133.426 46.6277C133.596 46.5346 133.747 46.5458 133.878 46.6612C134.01 46.7767 134.085 46.9143 134.104 47.074C134.144 47.4267 134.183 47.7627 134.221 48.0821C134.26 48.4015 134.301 48.7107 134.346 49.0098C134.593 48.8403 134.848 48.6672 135.109 48.4906C135.377 48.327 135.668 48.1592 135.982 47.9873C136.113 47.9156 136.249 47.8839 136.39 47.8921C136.543 47.8931 136.666 47.9621 136.758 48.0991C136.81 48.2242 136.811 48.3511 136.762 48.4799C136.727 48.6015 136.653 48.7011 136.543 48.7787L135.001 49.928C135.219 50.0469 135.475 50.1879 135.768 50.3509C136.075 50.5067 136.382 50.6792 136.69 50.8683C136.75 50.8862 136.802 50.9177 136.843 50.9629C136.898 51.001 136.94 51.0462 136.969 51.0987C137.026 51.2035 137.047 51.3197 137.032 51.4472C137.029 51.5676 136.963 51.6636 136.832 51.7352C136.688 51.814 136.511 51.8172 136.301 51.7447L134.519 51.0083C134.529 51.2752 134.543 51.5654 134.561 51.8789C134.587 52.2054 134.596 52.5492 134.589 52.9103C134.6 53.0236 134.574 53.1314 134.511 53.234C134.468 53.3425 134.401 53.4218 134.309 53.472C134.152 53.558 134.008 53.5432 133.877 53.4277C133.745 53.3123 133.657 53.1819 133.612 53.0365C133.585 52.6766 133.546 52.3406 133.494 52.0284C133.443 51.7162 133.401 51.4069 133.37 51.1007C133.162 51.2487 132.91 51.4116 132.616 51.5895C132.329 51.7805 132.032 51.9685 131.725 52.1536C131.594 52.2252 131.451 52.2605 131.298 52.2595C131.157 52.2513 131.044 52.1686 130.958 52.0114Z" fill="#C42D1C"/>
</svg>
