<svg width="24" height="24" viewBox="0 0 24 24" fill="none" xmlns="http://www.w3.org/2000/svg">
<path class="colored" fill-rule="evenodd" clip-rule="evenodd" d="M21.8859 12.8782C21.9689 12.6751 22.011 12.4575 22.0097 12.2381C22.0097 12.2338 22.0096 12.2295 22.0096 12.2252C22.0062 11.7876 21.8309 11.3687 21.5213 11.059C21.491 11.0287 21.4596 10.9997 21.4273 10.972L14.8562 4.40095C14.5373 4.12778 14.1269 3.98503 13.7073 4.00124C13.2876 4.01745 12.8895 4.19142 12.5925 4.48839C12.2956 4.78536 12.1216 5.18345 12.1054 5.60311C12.0892 6.02277 12.2319 6.4331 12.5051 6.75209L16.3236 10.5706L3.66747 10.5706C3.22523 10.5706 2.8011 10.7463 2.48839 11.059C2.17568 11.3717 2 11.7959 2 12.2381C2 12.6803 2.17568 13.1045 2.48839 13.4172C2.8011 13.7299 3.22523 13.9056 3.66747 13.9056H16.3286L12.5051 17.7407C12.2319 18.0597 12.0892 18.47 12.1054 18.8897C12.1216 19.3094 12.2956 19.7074 12.5925 20.0044C12.8895 20.3014 13.2876 20.4754 13.7073 20.4916C14.1269 20.5078 14.5373 20.365 14.8562 20.0919L21.5261 13.422C21.6807 13.2662 21.8029 13.0814 21.8859 12.8782Z" />
</svg>
