<svg width="24" height="24" viewBox="0 0 24 24" fill="none" xmlns="http://www.w3.org/2000/svg">
<path fill-rule="evenodd" clip-rule="evenodd" d="M2.11408 11.1218C2.0311 11.3249 1.98904 11.5425 1.99031 11.7619C1.99032 11.7662 1.99036 11.7705 1.99041 11.7748C1.99379 12.2124 2.16908 12.6313 2.47875 12.941C2.50905 12.9713 2.54039 13.0003 2.5727 13.028L9.14376 19.599C9.46275 19.8722 9.87307 20.015 10.2927 19.9988C10.7124 19.9825 11.1105 19.8086 11.4075 19.5116C11.7044 19.2146 11.8784 18.8166 11.8946 18.3969C11.9108 17.9772 11.7681 17.5669 11.4949 17.2479L7.67635 13.4294L20.3325 13.4294C20.7748 13.4294 21.1989 13.2537 21.5116 12.941C21.8243 12.6283 22 12.2041 22 11.7619C22 11.3197 21.8243 10.8955 21.5116 10.5828C21.1989 10.2701 20.7748 10.0944 20.3325 10.0944L7.67136 10.0944L11.4949 6.25928C11.7681 5.94029 11.9108 5.52996 11.8946 5.1103C11.8784 4.69064 11.7044 4.29255 11.4075 3.99558C11.1105 3.69862 10.7124 3.52464 10.2927 3.50843C9.87307 3.49222 9.46275 3.63497 9.14376 3.90814L2.47387 10.578C2.31933 10.7338 2.19706 10.9186 2.11408 11.1218Z" fill="#020405" fill-opacity="0.3"/>
</svg>
