<svg width="200" height="200" viewBox="0 0 200 200" fill="none" xmlns="http://www.w3.org/2000/svg">
<circle cx="100" cy="100" r="100" fill="#C42D1C"/>
<path d="M70.408 133.16C70.152 133.16 69.9493 133.128 69.8 133.064C69.6507 133 69.576 132.904 69.576 132.776C69.576 132.499 69.8853 132.296 70.504 132.168C71.2933 131.997 71.88 131.763 72.264 131.464C72.648 131.144 72.84 130.611 72.84 129.864V115.4C72.84 114.675 72.6907 114.141 72.392 113.8C72.0933 113.459 71.5493 113.235 70.76 113.128C70.44 113.085 70.2053 113.011 70.056 112.904C69.9067 112.776 69.832 112.637 69.832 112.488C69.832 112.36 69.9067 112.264 70.056 112.2C70.2053 112.115 70.408 112.072 70.664 112.072C71.2827 112.072 71.7733 112.083 72.136 112.104C72.4987 112.125 72.84 112.147 73.16 112.168C73.5013 112.168 73.896 112.168 74.344 112.168C74.792 112.168 75.176 112.157 75.496 112.136C75.8373 112.093 76.2107 112.061 76.616 112.04C77.0427 111.997 77.5867 111.976 78.248 111.976C80.7653 111.976 82.6533 112.339 83.912 113.064C85.1707 113.768 85.8 114.995 85.8 116.744C85.8 117.448 85.6613 118.077 85.384 118.632C85.128 119.187 84.84 119.613 84.52 119.912C84.1787 120.232 83.848 120.488 83.528 120.68C83.2293 120.872 82.824 121.053 82.312 121.224C82.2267 121.245 82.184 121.299 82.184 121.384C82.184 121.448 82.2267 121.501 82.312 121.544C82.824 121.693 83.3467 121.885 83.88 122.12C84.4347 122.333 84.9573 122.632 85.448 123.016C85.9387 123.379 86.3227 123.869 86.6 124.488C86.8987 125.085 87.048 125.853 87.048 126.792C87.048 127.965 86.856 128.904 86.472 129.608C86.1093 130.291 85.672 130.813 85.16 131.176C84.648 131.539 84.168 131.837 83.72 132.072C83.0373 132.413 82.2587 132.68 81.384 132.872C80.5093 133.043 79.4533 133.128 78.216 133.128C77.7893 133.128 77.2667 133.107 76.648 133.064C76.0507 133.021 75.4 133 74.696 133C74.184 133 73.704 133.011 73.256 133.032C72.8293 133.053 72.392 133.075 71.944 133.096C71.496 133.139 70.984 133.16 70.408 133.16ZM78.504 131.656C79.3573 131.656 80.136 131.453 80.84 131.048C81.5653 130.643 82.1413 130.088 82.568 129.384C83.016 128.659 83.24 127.859 83.24 126.984C83.24 126.173 83.112 125.512 82.856 125C82.6213 124.467 82.344 124.04 82.024 123.72C81.704 123.4 81.416 123.165 81.16 123.016C80.904 122.845 80.5093 122.675 79.976 122.504C79.4427 122.333 78.7493 122.248 77.896 122.248C77.3413 122.248 76.9147 122.365 76.616 122.6C76.3387 122.835 76.2 123.091 76.2 123.368V129.48C76.2 130.291 76.4027 130.856 76.808 131.176C77.2133 131.496 77.7787 131.656 78.504 131.656ZM77.608 121.16C78.1627 121.16 78.728 121.096 79.304 120.968C79.9013 120.84 80.488 120.595 81.064 120.232C81.2773 120.104 81.544 119.805 81.864 119.336C82.184 118.845 82.344 118.152 82.344 117.256C82.344 116.531 82.2267 115.859 81.992 115.24C81.7787 114.6 81.3627 114.088 80.744 113.704C80.1467 113.299 79.2827 113.096 78.152 113.096C77.384 113.096 76.8613 113.213 76.584 113.448C76.328 113.683 76.2 114.035 76.2 114.504V119.976C76.2 120.488 76.3707 120.819 76.712 120.968C77.0533 121.096 77.352 121.16 77.608 121.16ZM92.0908 133.448C91.6428 133.448 91.2054 133.299 90.7788 133C90.3521 132.723 90.0001 132.371 89.7228 131.944C89.4454 131.496 89.3068 131.059 89.3068 130.632C89.3068 129.928 89.4988 129.363 89.8828 128.936C90.2881 128.509 90.9068 128.125 91.7388 127.784L94.8428 126.472C95.2694 126.301 95.5254 126.152 95.6108 126.024C95.6961 125.875 95.7494 125.587 95.7708 125.16L95.8348 123.208C95.8561 122.632 95.7174 122.152 95.4188 121.768C95.1201 121.384 94.6828 121.192 94.1068 121.192C93.8081 121.192 93.4988 121.256 93.1788 121.384C92.8801 121.491 92.6348 121.619 92.4427 121.768C92.3361 121.853 92.2614 121.971 92.2188 122.12C92.1974 122.269 92.1868 122.429 92.1868 122.6C92.1868 122.707 92.1868 122.835 92.1868 122.984C92.2081 123.112 92.2188 123.219 92.2188 123.304C92.2188 123.432 92.0694 123.592 91.7708 123.784C91.4934 123.955 91.1628 124.115 90.7788 124.264C90.4161 124.413 90.1068 124.488 89.8508 124.488C89.7228 124.488 89.6161 124.456 89.5308 124.392C89.4668 124.307 89.4348 124.2 89.4348 124.072C89.4348 123.731 89.5414 123.379 89.7548 123.016C89.9894 122.632 90.3308 122.248 90.7788 121.864C91.2908 121.416 91.8454 121.021 92.4427 120.68C93.0614 120.317 93.6588 120.04 94.2348 119.848C94.8321 119.656 95.3548 119.56 95.8028 119.56C96.6988 119.56 97.4241 119.869 97.9788 120.488C98.5548 121.085 98.8214 121.864 98.7788 122.824L98.6188 130.056C98.5974 130.525 98.6934 130.909 98.9068 131.208C99.1201 131.507 99.3868 131.656 99.7068 131.656C100.197 131.656 100.581 131.528 100.859 131.272C100.944 131.187 101.019 131.144 101.083 131.144C101.189 131.144 101.275 131.176 101.339 131.24C101.424 131.304 101.467 131.389 101.467 131.496C101.467 131.752 101.317 132.019 101.019 132.296C100.656 132.659 100.261 132.936 99.8348 133.128C99.4294 133.341 99.0348 133.448 98.6508 133.448C97.5841 133.448 96.7308 132.872 96.0908 131.72H95.9948C95.2908 132.317 94.6294 132.755 94.0108 133.032C93.3921 133.309 92.7521 133.448 92.0908 133.448ZM93.7548 131.72C94.1174 131.72 94.4161 131.667 94.6508 131.56C94.9068 131.432 95.1308 131.261 95.3228 131.048C95.4294 130.941 95.5041 130.813 95.5468 130.664C95.6108 130.493 95.6534 130.237 95.6748 129.896L95.7388 128.072C95.7601 127.859 95.7494 127.709 95.7068 127.624C95.6641 127.517 95.5788 127.464 95.4508 127.464C95.4081 127.464 95.3441 127.475 95.2588 127.496C95.1734 127.517 95.0561 127.56 94.9068 127.624C93.9468 127.987 93.2748 128.371 92.8908 128.776C92.5068 129.16 92.3148 129.587 92.3148 130.056C92.3148 130.632 92.4641 131.059 92.7628 131.336C93.0828 131.592 93.4134 131.72 93.7548 131.72ZM108.222 133.48C107.134 133.48 106.152 133.203 105.278 132.648C104.403 132.072 103.71 131.293 103.198 130.312C102.686 129.331 102.43 128.232 102.43 127.016C102.43 125.629 102.739 124.371 103.358 123.24C103.976 122.109 104.808 121.213 105.854 120.552C106.899 119.891 108.051 119.56 109.31 119.56C110.824 119.56 112.126 119.997 113.214 120.872C113.448 121.085 113.566 121.288 113.566 121.48C113.566 121.629 113.48 121.821 113.31 122.056C113.16 122.269 112.968 122.461 112.734 122.632C112.52 122.781 112.318 122.856 112.126 122.856C111.998 122.856 111.859 122.813 111.71 122.728C111.582 122.643 111.454 122.547 111.326 122.44C110.814 122.035 110.27 121.683 109.694 121.384C109.139 121.064 108.659 120.904 108.254 120.904C107.294 120.904 106.526 121.341 105.95 122.216C105.395 123.069 105.118 124.275 105.118 125.832C105.118 126.856 105.31 127.763 105.694 128.552C106.099 129.341 106.643 129.96 107.326 130.408C108.03 130.856 108.83 131.08 109.726 131.08C110.344 131.08 110.878 130.984 111.326 130.792C111.795 130.579 112.286 130.227 112.798 129.736C112.862 129.693 112.926 129.651 112.99 129.608C113.075 129.565 113.15 129.544 113.214 129.544C113.448 129.544 113.566 129.704 113.566 130.024C113.566 130.131 113.534 130.269 113.47 130.44C113.406 130.589 113.31 130.76 113.182 130.952C112.883 131.379 112.488 131.795 111.998 132.2C111.507 132.584 110.942 132.893 110.302 133.128C109.662 133.363 108.968 133.48 108.222 133.48ZM115.686 133.096C115.217 133.096 114.982 132.968 114.982 132.712C114.982 132.541 115.057 132.424 115.206 132.36C115.356 132.296 115.526 132.221 115.718 132.136C116.038 132.029 116.337 131.901 116.614 131.752C116.892 131.603 117.03 131.304 117.03 130.856V115.08C117.03 114.376 116.934 113.843 116.742 113.48C116.55 113.117 116.188 112.872 115.654 112.744C115.462 112.701 115.366 112.552 115.366 112.296C115.366 112.061 115.452 111.923 115.622 111.88C116.177 111.773 116.689 111.635 117.158 111.464C117.649 111.293 118.097 111.133 118.502 110.984C118.929 110.813 119.302 110.664 119.622 110.536C119.772 110.472 119.889 110.44 119.974 110.44C120.06 110.44 120.113 110.472 120.134 110.536C120.177 110.579 120.198 110.653 120.198 110.76C120.198 110.952 120.156 111.325 120.07 111.88C120.006 112.435 119.974 113.245 119.974 114.312V125.32C119.974 125.533 120.038 125.64 120.166 125.64C120.273 125.64 120.412 125.597 120.582 125.512C120.753 125.427 120.924 125.309 121.094 125.16C121.948 124.435 122.673 123.752 123.27 123.112C123.868 122.472 124.273 122.013 124.486 121.736C124.572 121.608 124.636 121.512 124.678 121.448C124.742 121.363 124.774 121.288 124.774 121.224C124.774 121.117 124.678 121.021 124.486 120.936C124.316 120.829 124.113 120.755 123.878 120.712C123.622 120.669 123.494 120.563 123.494 120.392C123.494 120.264 123.558 120.168 123.686 120.104C123.836 120.019 124.006 119.976 124.198 119.976H125.766C126.108 119.976 126.502 119.955 126.95 119.912C127.42 119.848 127.868 119.784 128.294 119.72C128.721 119.656 129.041 119.624 129.254 119.624C129.532 119.624 129.67 119.741 129.67 119.976C129.67 120.104 129.596 120.221 129.446 120.328C129.318 120.435 129.137 120.52 128.902 120.584C128.518 120.669 128.124 120.819 127.718 121.032C127.313 121.224 126.929 121.427 126.566 121.64C126.353 121.768 126.022 122.003 125.574 122.344C125.126 122.685 124.646 123.069 124.134 123.496C123.622 123.923 123.142 124.339 122.694 124.744C122.566 124.851 122.502 124.957 122.502 125.064C122.502 125.107 122.513 125.149 122.534 125.192C122.577 125.235 122.609 125.277 122.63 125.32C123.185 126.003 123.75 126.685 124.326 127.368C124.902 128.051 125.446 128.669 125.958 129.224C126.47 129.779 126.886 130.227 127.206 130.568C127.569 130.931 127.985 131.251 128.454 131.528C128.945 131.805 129.35 132.008 129.67 132.136C129.884 132.2 130.086 132.275 130.278 132.36C130.492 132.424 130.598 132.541 130.598 132.712C130.598 132.968 130.385 133.096 129.958 133.096C128.956 133.096 127.9 133.075 126.79 133.032C125.702 133.011 124.614 133 123.526 133C123.121 133 122.918 132.883 122.918 132.648C122.918 132.52 122.972 132.413 123.078 132.328C123.206 132.221 123.356 132.147 123.526 132.104C123.74 132.019 123.91 131.933 124.038 131.848C124.188 131.741 124.262 131.603 124.262 131.432C124.262 131.368 124.241 131.293 124.198 131.208C124.156 131.123 124.092 131.027 124.006 130.92L120.39 126.568C120.305 126.44 120.22 126.376 120.134 126.376C120.028 126.397 119.974 126.472 119.974 126.6C119.953 126.92 119.942 127.251 119.942 127.592C119.942 127.933 119.942 128.285 119.942 128.648C119.942 128.989 119.942 129.363 119.942 129.768C119.942 130.152 119.953 130.525 119.974 130.888C119.974 131.272 120.07 131.549 120.262 131.72C120.454 131.891 120.71 132.029 121.03 132.136C121.201 132.2 121.361 132.275 121.51 132.36C121.66 132.424 121.734 132.541 121.734 132.712C121.734 132.861 121.649 132.957 121.478 133C121.308 133.064 121.169 133.096 121.062 133.096C120.657 133.096 120.326 133.075 120.07 133.032C119.814 133.011 119.58 132.989 119.366 132.968C119.153 132.947 118.854 132.936 118.47 132.936C118.108 132.936 117.798 132.947 117.542 132.968C117.286 132.989 117.02 133.011 116.742 133.032C116.465 133.075 116.113 133.096 115.686 133.096Z" fill="white"/>
</svg>
