<svg width="160" height="160" viewBox="0 0 160 160" fill="none" xmlns="http://www.w3.org/2000/svg">
<path d="M160 80C160 124.183 124.183 160 80 160C35.8172 160 0 124.183 0 80C0 35.8172 35.8172 0 80 0C124.183 0 160 35.8172 160 80Z" fill="#A72618"/>
<path d="M50.232 116.088C50.0707 116.088 49.9387 116.059 49.836 116C49.7333 115.956 49.682 115.89 49.682 115.802C49.682 115.626 49.8873 115.494 50.298 115.406C50.8407 115.303 51.2 115.142 51.376 114.922C51.552 114.702 51.64 114.343 51.64 113.844V103.878C51.64 103.379 51.574 103.027 51.442 102.822C51.31 102.617 50.9727 102.455 50.43 102.338C50.0047 102.25 49.792 102.111 49.792 101.92C49.792 101.832 49.836 101.759 49.924 101.7C50.0267 101.641 50.166 101.612 50.342 101.612C50.7233 101.612 51.046 101.619 51.31 101.634C51.574 101.649 51.8233 101.663 52.058 101.678C52.3073 101.693 52.5787 101.7 52.872 101.7C53.18 101.7 53.4587 101.7 53.708 101.7C53.972 101.685 54.2433 101.671 54.522 101.656C54.8153 101.641 55.1453 101.634 55.512 101.634C55.8933 101.634 56.084 101.729 56.084 101.92C56.084 102.037 56.0253 102.125 55.908 102.184C55.8053 102.243 55.6513 102.294 55.446 102.338C54.8887 102.47 54.5 102.653 54.28 102.888C54.0747 103.123 53.972 103.453 53.972 103.878V108.08C53.972 108.183 54.0013 108.249 54.06 108.278C54.1333 108.307 54.2067 108.322 54.28 108.322H61.628C61.76 108.322 61.826 108.227 61.826 108.036V103.878C61.826 103.467 61.7233 103.145 61.518 102.91C61.3273 102.661 60.946 102.47 60.374 102.338C60.154 102.294 59.9927 102.243 59.89 102.184C59.7873 102.125 59.736 102.037 59.736 101.92C59.736 101.729 59.9193 101.634 60.286 101.634C60.6527 101.634 60.99 101.641 61.298 101.656C61.606 101.671 61.8993 101.685 62.178 101.7C62.4713 101.7 62.772 101.7 63.08 101.7C63.3587 101.7 63.6007 101.693 63.806 101.678C64.026 101.663 64.2533 101.649 64.488 101.634C64.7373 101.619 65.0527 101.612 65.434 101.612C65.61 101.612 65.7493 101.641 65.852 101.7C65.9547 101.759 66.006 101.832 66.006 101.92C66.006 102.111 65.7933 102.25 65.368 102.338C64.8253 102.455 64.488 102.631 64.356 102.866C64.224 103.086 64.158 103.416 64.158 103.856V113.822C64.158 114.335 64.2313 114.702 64.378 114.922C64.5393 115.142 64.884 115.303 65.412 115.406C65.8227 115.494 66.028 115.626 66.028 115.802C66.028 115.89 65.9693 115.956 65.852 116C65.7493 116.059 65.6173 116.088 65.456 116.088C65.104 116.088 64.7887 116.073 64.51 116.044C64.246 116.029 63.9893 116.015 63.74 116C63.4907 115.985 63.2193 115.978 62.926 115.978C62.618 115.978 62.332 115.985 62.068 116C61.8187 116.015 61.5473 116.029 61.254 116.044C60.9607 116.073 60.6307 116.088 60.264 116.088C60.088 116.088 59.9487 116.059 59.846 116C59.758 115.956 59.714 115.89 59.714 115.802C59.714 115.685 59.758 115.604 59.846 115.56C59.9487 115.501 60.11 115.45 60.33 115.406C60.8287 115.303 61.2027 115.135 61.452 114.9C61.7013 114.665 61.826 114.321 61.826 113.866V109.62C61.826 109.532 61.8187 109.459 61.804 109.4C61.7893 109.327 61.738 109.29 61.65 109.29H54.148C54.0307 109.29 53.972 109.378 53.972 109.554V113.712C53.972 114.152 54.1187 114.519 54.412 114.812C54.7053 115.105 55.1087 115.303 55.622 115.406C55.842 115.45 56.0033 115.501 56.106 115.56C56.2087 115.604 56.26 115.685 56.26 115.802C56.26 115.89 56.2087 115.956 56.106 116C56.0033 116.059 55.864 116.088 55.688 116.088C55.3213 116.088 54.984 116.073 54.676 116.044C54.368 116.029 54.0673 116.015 53.774 116C53.4953 115.985 53.1947 115.978 52.872 115.978C52.5787 115.978 52.3 115.985 52.036 116C51.772 116.015 51.4933 116.029 51.2 116.044C50.9213 116.073 50.5987 116.088 50.232 116.088ZM71.9161 116.308C71.0801 116.308 70.3174 116.117 69.6281 115.736C68.9534 115.34 68.4181 114.805 68.0221 114.13C67.6261 113.455 67.4281 112.685 67.4281 111.82C67.4281 111.175 67.5528 110.551 67.8021 109.95C68.0514 109.349 68.4034 108.806 68.8581 108.322C69.3128 107.838 69.8408 107.457 70.4421 107.178C71.0434 106.885 71.6888 106.738 72.3781 106.738C73.2434 106.738 74.0281 106.951 74.7321 107.376C75.4361 107.787 75.9934 108.329 76.4041 109.004C76.8148 109.679 77.0201 110.419 77.0201 111.226C77.0201 112.106 76.8294 112.935 76.4481 113.712C76.0668 114.489 75.4948 115.12 74.7321 115.604C73.9841 116.073 73.0454 116.308 71.9161 116.308ZM72.3781 115.538C72.8034 115.538 73.1848 115.457 73.5221 115.296C73.8594 115.12 74.1234 114.856 74.3141 114.504C74.4901 114.167 74.6074 113.756 74.6661 113.272C74.7394 112.773 74.7761 112.267 74.7761 111.754C74.7761 111.021 74.6588 110.331 74.4241 109.686C74.1894 109.041 73.8668 108.52 73.4561 108.124C73.0454 107.728 72.5614 107.53 72.0041 107.53C71.6668 107.53 71.3588 107.589 71.0801 107.706C70.8161 107.809 70.5741 107.992 70.3541 108.256C70.0754 108.593 69.8921 109.033 69.8041 109.576C69.7161 110.104 69.6721 110.683 69.6721 111.314C69.6721 112.018 69.7894 112.693 70.0241 113.338C70.2588 113.983 70.5741 114.511 70.9701 114.922C71.3808 115.333 71.8501 115.538 72.3781 115.538ZM78.6491 116.066C78.5318 116.066 78.4291 116.044 78.3411 116C78.2531 115.971 78.2091 115.905 78.2091 115.802C78.2091 115.699 78.2531 115.619 78.3411 115.56C78.4438 115.501 78.5685 115.45 78.7151 115.406C78.9205 115.333 79.1185 115.252 79.3091 115.164C79.5145 115.061 79.6171 114.863 79.6171 114.57V109.73C79.6171 109.363 79.5731 109.048 79.4851 108.784C79.3971 108.505 79.1845 108.337 78.8471 108.278C78.7885 108.263 78.7371 108.234 78.6931 108.19C78.6491 108.146 78.6271 108.073 78.6271 107.97C78.6271 107.794 78.6931 107.691 78.8251 107.662C79.2065 107.559 79.5438 107.449 79.8371 107.332C80.1305 107.215 80.4018 107.09 80.6511 106.958C80.9005 106.811 81.1645 106.657 81.4431 106.496C81.4725 106.481 81.5018 106.467 81.5311 106.452C81.5751 106.423 81.6191 106.408 81.6631 106.408C81.7658 106.408 81.8171 106.467 81.8171 106.584C81.8171 106.701 81.7951 106.914 81.7511 107.222C81.7218 107.515 81.7071 107.765 81.7071 107.97C81.7071 108.117 81.7218 108.205 81.7511 108.234H81.7951C82.1618 107.867 82.6165 107.53 83.1591 107.222C83.7165 106.914 84.3838 106.76 85.1611 106.76C85.6598 106.76 86.0925 106.892 86.4591 107.156C86.8258 107.405 87.1191 107.801 87.3391 108.344H87.4051C87.8598 107.875 88.3805 107.493 88.9671 107.2C89.5538 106.907 90.1991 106.76 90.9031 106.76C91.3871 106.76 91.7978 106.899 92.1351 107.178C92.4725 107.457 92.7291 107.831 92.9051 108.3C93.0958 108.769 93.1911 109.283 93.1911 109.84V114.592C93.1911 114.885 93.2865 115.076 93.4771 115.164C93.6678 115.252 93.8731 115.333 94.0931 115.406C94.2398 115.45 94.3571 115.501 94.4451 115.56C94.5331 115.619 94.5771 115.699 94.5771 115.802C94.5771 115.89 94.5405 115.956 94.4671 116C94.4085 116.044 94.3058 116.066 94.1591 116.066C93.8658 116.066 93.6238 116.051 93.4331 116.022C93.2425 116.007 93.0591 115.993 92.8831 115.978C92.7071 115.963 92.4871 115.956 92.2231 115.956C91.9738 115.956 91.7538 115.963 91.5631 115.978C91.3871 115.993 91.2038 116.007 91.0131 116.022C90.8225 116.051 90.5805 116.066 90.2871 116.066C90.1698 116.066 90.0671 116.044 89.9791 116C89.9058 115.956 89.8691 115.89 89.8691 115.802C89.8691 115.685 89.9131 115.604 90.0011 115.56C90.0891 115.501 90.2065 115.45 90.3531 115.406C90.5731 115.347 90.7638 115.274 90.9251 115.186C91.0865 115.083 91.1671 114.9 91.1671 114.636V110.038C91.1671 109.686 91.0938 109.363 90.9471 109.07C90.8151 108.762 90.6318 108.52 90.3971 108.344C90.1625 108.153 89.8985 108.058 89.6051 108.058C89.2971 108.058 89.0038 108.102 88.7251 108.19C88.4465 108.278 88.1751 108.425 87.9111 108.63C87.5738 108.894 87.4051 109.341 87.4051 109.972V114.592C87.4051 114.885 87.4931 115.083 87.6691 115.186C87.8598 115.274 88.0651 115.347 88.2851 115.406C88.4171 115.45 88.5271 115.501 88.6151 115.56C88.7178 115.619 88.7691 115.699 88.7691 115.802C88.7691 115.89 88.7325 115.956 88.6591 116C88.5858 116.044 88.4831 116.066 88.3511 116.066C88.0578 116.066 87.8158 116.051 87.6251 116.022C87.4345 116.007 87.2511 115.993 87.0751 115.978C86.8991 115.963 86.6791 115.956 86.4151 115.956C86.1658 115.956 85.9458 115.963 85.7551 115.978C85.5791 115.993 85.3958 116.007 85.2051 116.022C85.0145 116.051 84.7725 116.066 84.4791 116.066C84.3765 116.066 84.2811 116.044 84.1931 116C84.1051 115.956 84.0611 115.89 84.0611 115.802C84.0611 115.685 84.1125 115.604 84.2151 115.56C84.3178 115.501 84.4278 115.45 84.5451 115.406C84.7651 115.347 84.9558 115.274 85.1171 115.186C85.2931 115.083 85.3811 114.9 85.3811 114.636V110.038C85.3811 109.686 85.3078 109.363 85.1611 109.07C85.0291 108.777 84.8458 108.535 84.6111 108.344C84.3765 108.153 84.1125 108.058 83.8191 108.058C83.5258 108.058 83.2325 108.102 82.9391 108.19C82.6605 108.278 82.3891 108.425 82.1251 108.63C81.8025 108.865 81.6411 109.305 81.6411 109.95V114.592C81.6411 114.871 81.7218 115.061 81.8831 115.164C82.0445 115.252 82.2351 115.333 82.4551 115.406C82.5725 115.45 82.6825 115.501 82.7851 115.56C82.8878 115.604 82.9391 115.685 82.9391 115.802C82.9391 115.89 82.8951 115.956 82.8071 116C82.7338 116.044 82.6385 116.066 82.5211 116.066C82.2278 116.066 81.9858 116.051 81.7951 116.022C81.6045 116.007 81.4285 115.993 81.2671 115.978C81.1058 115.963 80.8931 115.956 80.6291 115.956C80.3798 115.956 80.1598 115.963 79.9691 115.978C79.7785 115.993 79.5805 116.007 79.3751 116.022C79.1845 116.051 78.9425 116.066 78.6491 116.066ZM99.705 116.33C98.913 116.33 98.209 116.132 97.593 115.736C96.9917 115.325 96.515 114.761 96.163 114.042C95.811 113.309 95.635 112.465 95.635 111.512C95.635 110.647 95.833 109.855 96.229 109.136C96.6397 108.417 97.1823 107.845 97.857 107.42C98.5317 106.98 99.2723 106.76 100.079 106.76C100.68 106.76 101.216 106.885 101.685 107.134C102.169 107.369 102.543 107.706 102.807 108.146C103.086 108.571 103.225 109.063 103.225 109.62C103.225 110.104 102.998 110.346 102.543 110.346H97.989C97.7837 110.346 97.637 110.405 97.549 110.522C97.461 110.639 97.417 110.852 97.417 111.16C97.417 111.805 97.5637 112.399 97.857 112.942C98.1503 113.47 98.539 113.895 99.023 114.218C99.507 114.541 100.042 114.702 100.629 114.702C101.069 114.702 101.465 114.621 101.817 114.46C102.184 114.284 102.521 114.042 102.829 113.734C102.873 113.675 102.91 113.631 102.939 113.602C102.983 113.573 103.027 113.558 103.071 113.558C103.203 113.558 103.269 113.639 103.269 113.8C103.269 114.035 103.166 114.313 102.961 114.636C102.756 114.944 102.492 115.23 102.169 115.494C101.861 115.743 101.494 115.941 101.069 116.088C100.658 116.249 100.204 116.33 99.705 116.33ZM98.011 109.598H99.771C100.152 109.598 100.453 109.591 100.673 109.576C100.893 109.561 101.098 109.532 101.289 109.488C101.362 109.459 101.414 109.4 101.443 109.312C101.472 109.209 101.487 109.085 101.487 108.938C101.487 108.527 101.318 108.183 100.981 107.904C100.644 107.611 100.24 107.464 99.771 107.464C99.4483 107.464 99.1257 107.559 98.803 107.75C98.495 107.941 98.2383 108.183 98.033 108.476C97.8277 108.755 97.7323 109.041 97.747 109.334C97.747 109.51 97.835 109.598 98.011 109.598Z" fill="white"/>
</svg>
