<svg width="160" height="160" viewBox="0 0 160 160" fill="none" xmlns="http://www.w3.org/2000/svg">
<path d="M160 80C160 124.183 124.183 160 80 160C35.8172 160 0 124.183 0 80C0 35.8172 35.8172 0 80 0C124.183 0 160 35.8172 160 80Z" fill="#C42D1C"/>
<path d="M50.056 117.12C49.864 117.12 49.712 117.096 49.6 117.048C49.488 117 49.432 116.928 49.432 116.832C49.432 116.624 49.664 116.472 50.128 116.376C50.72 116.248 51.16 116.072 51.448 115.848C51.736 115.608 51.88 115.208 51.88 114.648V103.8C51.88 103.256 51.768 102.856 51.544 102.6C51.32 102.344 50.912 102.176 50.32 102.096C50.08 102.064 49.904 102.008 49.792 101.928C49.68 101.832 49.624 101.728 49.624 101.616C49.624 101.52 49.68 101.448 49.792 101.4C49.904 101.336 50.056 101.304 50.248 101.304C50.712 101.304 51.08 101.312 51.352 101.328C51.624 101.344 51.88 101.36 52.12 101.376C52.376 101.376 52.672 101.376 53.008 101.376C53.344 101.376 53.632 101.368 53.872 101.352C54.128 101.32 54.408 101.296 54.712 101.28C55.032 101.248 55.44 101.232 55.936 101.232C57.824 101.232 59.24 101.504 60.184 102.048C61.128 102.576 61.6 103.496 61.6 104.808C61.6 105.336 61.496 105.808 61.288 106.224C61.096 106.64 60.88 106.96 60.64 107.184C60.384 107.424 60.136 107.616 59.896 107.76C59.672 107.904 59.368 108.04 58.984 108.168C58.92 108.184 58.888 108.224 58.888 108.288C58.888 108.336 58.92 108.376 58.984 108.408C59.368 108.52 59.76 108.664 60.16 108.84C60.576 109 60.968 109.224 61.336 109.512C61.704 109.784 61.992 110.152 62.2 110.616C62.424 111.064 62.536 111.64 62.536 112.344C62.536 113.224 62.392 113.928 62.104 114.456C61.832 114.968 61.504 115.36 61.12 115.632C60.736 115.904 60.376 116.128 60.04 116.304C59.528 116.56 58.944 116.76 58.288 116.904C57.632 117.032 56.84 117.096 55.912 117.096C55.592 117.096 55.2 117.08 54.736 117.048C54.288 117.016 53.8 117 53.272 117C52.888 117 52.528 117.008 52.192 117.024C51.872 117.04 51.544 117.056 51.208 117.072C50.872 117.104 50.488 117.12 50.056 117.12ZM56.128 115.992C56.768 115.992 57.352 115.84 57.88 115.536C58.424 115.232 58.856 114.816 59.176 114.288C59.512 113.744 59.68 113.144 59.68 112.488C59.68 111.88 59.584 111.384 59.392 111C59.216 110.6 59.008 110.28 58.768 110.04C58.528 109.8 58.312 109.624 58.12 109.512C57.928 109.384 57.632 109.256 57.232 109.128C56.832 109 56.312 108.936 55.672 108.936C55.256 108.936 54.936 109.024 54.712 109.2C54.504 109.376 54.4 109.568 54.4 109.776V114.36C54.4 114.968 54.552 115.392 54.856 115.632C55.16 115.872 55.584 115.992 56.128 115.992ZM55.456 108.12C55.872 108.12 56.296 108.072 56.728 107.976C57.176 107.88 57.616 107.696 58.048 107.424C58.208 107.328 58.408 107.104 58.648 106.752C58.888 106.384 59.008 105.864 59.008 105.192C59.008 104.648 58.92 104.144 58.744 103.68C58.584 103.2 58.272 102.816 57.808 102.528C57.36 102.224 56.712 102.072 55.864 102.072C55.288 102.072 54.896 102.16 54.688 102.336C54.496 102.512 54.4 102.776 54.4 103.128V107.232C54.4 107.616 54.528 107.864 54.784 107.976C55.04 108.072 55.264 108.12 55.456 108.12ZM66.3181 117.336C65.9821 117.336 65.6541 117.224 65.3341 117C65.0141 116.792 64.7501 116.528 64.5421 116.208C64.3341 115.872 64.2301 115.544 64.2301 115.224C64.2301 114.696 64.3741 114.272 64.6621 113.952C64.9661 113.632 65.4301 113.344 66.0541 113.088L68.3821 112.104C68.7021 111.976 68.8941 111.864 68.9581 111.768C69.0221 111.656 69.0621 111.44 69.0781 111.12L69.1261 109.656C69.1421 109.224 69.0381 108.864 68.8141 108.576C68.5901 108.288 68.2621 108.144 67.8301 108.144C67.6061 108.144 67.3741 108.192 67.1341 108.288C66.9101 108.368 66.7261 108.464 66.5821 108.576C66.5021 108.64 66.4461 108.728 66.4141 108.84C66.3981 108.952 66.3901 109.072 66.3901 109.2C66.3901 109.28 66.3901 109.376 66.3901 109.488C66.4061 109.584 66.4141 109.664 66.4141 109.728C66.4141 109.824 66.3021 109.944 66.0781 110.088C65.8701 110.216 65.6221 110.336 65.3341 110.448C65.0621 110.56 64.8301 110.616 64.6381 110.616C64.5421 110.616 64.4621 110.592 64.3981 110.544C64.3501 110.48 64.3261 110.4 64.3261 110.304C64.3261 110.048 64.4061 109.784 64.5661 109.512C64.7421 109.224 64.9981 108.936 65.3341 108.648C65.7181 108.312 66.1341 108.016 66.5821 107.76C67.0461 107.488 67.4941 107.28 67.9261 107.136C68.3741 106.992 68.7661 106.92 69.1021 106.92C69.7741 106.92 70.3181 107.152 70.7341 107.616C71.1661 108.064 71.3661 108.648 71.3341 109.368L71.2141 114.792C71.1981 115.144 71.2701 115.432 71.4301 115.656C71.5901 115.88 71.7901 115.992 72.0301 115.992C72.3981 115.992 72.6861 115.896 72.8941 115.704C72.9581 115.64 73.0141 115.608 73.0621 115.608C73.1421 115.608 73.2061 115.632 73.2541 115.68C73.3181 115.728 73.3501 115.792 73.3501 115.872C73.3501 116.064 73.2381 116.264 73.0141 116.472C72.7421 116.744 72.4461 116.952 72.1261 117.096C71.8221 117.256 71.5261 117.336 71.2381 117.336C70.4381 117.336 69.7981 116.904 69.3181 116.04H69.2461C68.7181 116.488 68.2221 116.816 67.7581 117.024C67.2941 117.232 66.8141 117.336 66.3181 117.336ZM67.5661 116.04C67.8381 116.04 68.0621 116 68.2381 115.92C68.4301 115.824 68.5981 115.696 68.7421 115.536C68.8221 115.456 68.8781 115.36 68.9101 115.248C68.9581 115.12 68.9901 114.928 69.0061 114.672L69.0541 113.304C69.0701 113.144 69.0621 113.032 69.0301 112.968C68.9981 112.888 68.9341 112.848 68.8381 112.848C68.8061 112.848 68.7581 112.856 68.6941 112.872C68.6301 112.888 68.5421 112.92 68.4301 112.968C67.7101 113.24 67.2061 113.528 66.9181 113.832C66.6301 114.12 66.4861 114.44 66.4861 114.792C66.4861 115.224 66.5981 115.544 66.8221 115.752C67.0621 115.944 67.3101 116.04 67.5661 116.04ZM78.4161 117.36C77.6001 117.36 76.8641 117.152 76.2081 116.736C75.5521 116.304 75.0321 115.72 74.6481 114.984C74.2641 114.248 74.0721 113.424 74.0721 112.512C74.0721 111.472 74.3041 110.528 74.7681 109.68C75.2321 108.832 75.8561 108.16 76.6401 107.664C77.4241 107.168 78.2881 106.92 79.2321 106.92C80.3681 106.92 81.3441 107.248 82.1601 107.904C82.3361 108.064 82.4241 108.216 82.4241 108.36C82.4241 108.472 82.3601 108.616 82.2321 108.792C82.1201 108.952 81.9761 109.096 81.8001 109.224C81.6401 109.336 81.4881 109.392 81.3441 109.392C81.2481 109.392 81.1441 109.36 81.0321 109.296C80.9361 109.232 80.8401 109.16 80.7441 109.08C80.3601 108.776 79.9521 108.512 79.5201 108.288C79.1041 108.048 78.7441 107.928 78.4401 107.928C77.7201 107.928 77.1441 108.256 76.7121 108.912C76.2961 109.552 76.0881 110.456 76.0881 111.624C76.0881 112.392 76.2321 113.072 76.5201 113.664C76.8241 114.256 77.2321 114.72 77.7441 115.056C78.2721 115.392 78.8721 115.56 79.5441 115.56C80.0081 115.56 80.4081 115.488 80.7441 115.344C81.0961 115.184 81.4641 114.92 81.8481 114.552C81.8961 114.52 81.9441 114.488 81.9921 114.456C82.0561 114.424 82.1121 114.408 82.1601 114.408C82.3361 114.408 82.4241 114.528 82.4241 114.768C82.4241 114.848 82.4001 114.952 82.3521 115.08C82.3041 115.192 82.2321 115.32 82.1361 115.464C81.9121 115.784 81.6161 116.096 81.2481 116.4C80.8801 116.688 80.4561 116.92 79.9761 117.096C79.4961 117.272 78.9761 117.36 78.4161 117.36ZM84.0147 117.072C83.6627 117.072 83.4867 116.976 83.4867 116.784C83.4867 116.656 83.5427 116.568 83.6547 116.52C83.7667 116.472 83.8947 116.416 84.0387 116.352C84.2787 116.272 84.5027 116.176 84.7107 116.064C84.9187 115.952 85.0227 115.728 85.0227 115.392V103.56C85.0227 103.032 84.9507 102.632 84.8067 102.36C84.6627 102.088 84.3907 101.904 83.9907 101.808C83.8467 101.776 83.7747 101.664 83.7747 101.472C83.7747 101.296 83.8387 101.192 83.9667 101.16C84.3827 101.08 84.7667 100.976 85.1187 100.848C85.4867 100.72 85.8227 100.6 86.1267 100.488C86.4467 100.36 86.7267 100.248 86.9667 100.152C87.0787 100.104 87.1667 100.08 87.2307 100.08C87.2947 100.08 87.3347 100.104 87.3507 100.152C87.3827 100.184 87.3987 100.24 87.3987 100.32C87.3987 100.464 87.3667 100.744 87.3027 101.16C87.2547 101.576 87.2307 102.184 87.2307 102.984V111.24C87.2307 111.4 87.2787 111.48 87.3747 111.48C87.4547 111.48 87.5587 111.448 87.6867 111.384C87.8147 111.32 87.9427 111.232 88.0707 111.12C88.7107 110.576 89.2547 110.064 89.7027 109.584C90.1507 109.104 90.4547 108.76 90.6147 108.552C90.6787 108.456 90.7267 108.384 90.7587 108.336C90.8067 108.272 90.8307 108.216 90.8307 108.168C90.8307 108.088 90.7587 108.016 90.6147 107.952C90.4867 107.872 90.3347 107.816 90.1587 107.784C89.9667 107.752 89.8707 107.672 89.8707 107.544C89.8707 107.448 89.9187 107.376 90.0147 107.328C90.1267 107.264 90.2547 107.232 90.3987 107.232H91.5747C91.8307 107.232 92.1267 107.216 92.4627 107.184C92.8147 107.136 93.1507 107.088 93.4707 107.04C93.7907 106.992 94.0307 106.968 94.1907 106.968C94.3987 106.968 94.5027 107.056 94.5027 107.232C94.5027 107.328 94.4467 107.416 94.3347 107.496C94.2387 107.576 94.1027 107.64 93.9267 107.688C93.6387 107.752 93.3427 107.864 93.0387 108.024C92.7347 108.168 92.4467 108.32 92.1747 108.48C92.0147 108.576 91.7667 108.752 91.4307 109.008C91.0947 109.264 90.7347 109.552 90.3507 109.872C89.9667 110.192 89.6067 110.504 89.2707 110.808C89.1747 110.888 89.1267 110.968 89.1267 111.048C89.1267 111.08 89.1347 111.112 89.1507 111.144C89.1827 111.176 89.2067 111.208 89.2227 111.24C89.6387 111.752 90.0627 112.264 90.4947 112.776C90.9267 113.288 91.3347 113.752 91.7187 114.168C92.1027 114.584 92.4147 114.92 92.6547 115.176C92.9267 115.448 93.2387 115.688 93.5907 115.896C93.9587 116.104 94.2627 116.256 94.5027 116.352C94.6627 116.4 94.8147 116.456 94.9587 116.52C95.1187 116.568 95.1987 116.656 95.1987 116.784C95.1987 116.976 95.0387 117.072 94.7187 117.072C93.9667 117.072 93.1747 117.056 92.3427 117.024C91.5267 117.008 90.7107 117 89.8947 117C89.5907 117 89.4387 116.912 89.4387 116.736C89.4387 116.64 89.4787 116.56 89.5587 116.496C89.6547 116.416 89.7667 116.36 89.8947 116.328C90.0547 116.264 90.1827 116.2 90.2787 116.136C90.3907 116.056 90.4467 115.952 90.4467 115.824C90.4467 115.776 90.4307 115.72 90.3987 115.656C90.3667 115.592 90.3187 115.52 90.2547 115.44L87.5427 112.176C87.4787 112.08 87.4147 112.032 87.3507 112.032C87.2707 112.048 87.2307 112.104 87.2307 112.2C87.2147 112.44 87.2067 112.688 87.2067 112.944C87.2067 113.2 87.2067 113.464 87.2067 113.736C87.2067 113.992 87.2067 114.272 87.2067 114.576C87.2067 114.864 87.2147 115.144 87.2307 115.416C87.2307 115.704 87.3027 115.912 87.4467 116.04C87.5907 116.168 87.7827 116.272 88.0227 116.352C88.1507 116.4 88.2707 116.456 88.3827 116.52C88.4947 116.568 88.5507 116.656 88.5507 116.784C88.5507 116.896 88.4867 116.968 88.3587 117C88.2307 117.048 88.1267 117.072 88.0467 117.072C87.7427 117.072 87.4947 117.056 87.3027 117.024C87.1107 117.008 86.9347 116.992 86.7747 116.976C86.6147 116.96 86.3907 116.952 86.1027 116.952C85.8307 116.952 85.5987 116.96 85.4067 116.976C85.2147 116.992 85.0147 117.008 84.8067 117.024C84.5987 117.056 84.3347 117.072 84.0147 117.072Z" fill="white"/>
</svg>
