<svg width="200" height="200" viewBox="0 0 200 200" fill="none" xmlns="http://www.w3.org/2000/svg">
<path d="M198 100C198 154.124 154.124 198 100 198C45.8761 198 2 154.124 2 100C2 45.8761 45.8761 2 100 2C154.124 2 198 45.8761 198 100Z" stroke="#C42D1C" stroke-width="4"/>
<path d="M161.433 108.481C161.505 108.269 161.601 108.105 161.719 107.987C161.821 107.864 161.933 107.824 162.057 107.866C162.198 107.914 162.289 108.024 162.329 108.195C162.369 108.367 162.391 108.591 162.395 108.869C162.373 109.394 162.438 109.899 162.588 110.384C162.738 110.869 163.062 111.335 163.561 111.781C164.475 112.626 165.349 113.418 166.182 114.155C167.033 114.899 167.872 115.62 168.699 116.316C169.527 117.013 170.378 117.727 171.252 118.46C172.144 119.198 173.095 119.966 174.104 120.764C174.456 121.062 174.753 121.291 174.994 121.453C175.252 121.62 175.484 121.748 175.69 121.838C175.665 122.086 175.646 122.316 175.632 122.529C175.637 122.747 175.662 122.992 175.707 123.264C175.74 123.512 175.836 123.722 175.995 123.895C176.164 124.091 176.281 124.239 176.346 124.34C176.351 124.381 176.348 124.42 176.336 124.455C176.335 124.514 176.294 124.549 176.211 124.56C176.105 124.583 175.995 124.585 175.883 124.567C175.765 124.566 175.639 124.562 175.503 124.555C174.075 124.522 172.617 124.487 171.129 124.453C169.654 124.443 168.207 124.432 166.791 124.422C165.374 124.412 164.055 124.406 162.833 124.403C161.629 124.406 160.575 124.401 159.672 124.389C159.023 124.384 158.494 124.46 158.085 124.617C157.695 124.779 157.368 124.984 157.107 125.23C156.863 125.482 156.646 125.772 156.454 126.102C156.311 126.349 156.165 126.516 156.017 126.603C155.863 126.708 155.715 126.737 155.574 126.689C155.468 126.652 155.421 126.558 155.434 126.404C155.423 126.263 155.451 126.094 155.517 125.9C155.614 125.617 155.758 125.253 155.95 124.805C156.124 124.352 156.305 123.881 156.491 123.392C156.678 122.904 156.84 122.456 156.979 122.05C157.094 121.714 157.22 121.343 157.359 120.937C157.498 120.531 157.621 120.139 157.73 119.762C157.833 119.403 157.93 119.09 158.02 118.825C158.093 118.614 158.18 118.446 158.281 118.323C158.394 118.223 158.503 118.191 158.609 118.228C158.75 118.276 158.838 118.395 158.872 118.584C158.906 118.773 158.905 118.979 158.868 119.203C158.769 119.84 158.78 120.327 158.902 120.665C159.017 121.02 159.261 121.231 159.632 121.299C159.938 121.383 160.33 121.448 160.808 121.493C161.304 121.544 161.823 121.583 162.366 121.61C162.926 121.644 163.44 121.671 163.906 121.692C164.059 121.705 164.169 121.673 164.234 121.597C164.3 121.521 164.369 121.377 164.441 121.165L166.114 116.262C166.144 116.174 166.136 116.082 166.09 115.988C166.061 115.899 165.97 115.789 165.817 115.658C165.624 115.533 165.38 115.351 165.086 115.113C164.805 114.898 164.496 114.675 164.161 114.442C163.844 114.215 163.542 114.004 163.254 113.807C162.978 113.634 162.772 113.514 162.637 113.448C162.213 113.245 161.824 113.23 161.468 113.405C161.124 113.603 160.788 113.952 160.46 114.451C160.138 114.933 159.871 115.137 159.659 115.065C159.535 115.023 159.471 114.922 159.466 114.763C159.473 114.627 159.513 114.453 159.585 114.241C159.7 113.905 159.841 113.52 160.009 113.084C160.178 112.649 160.346 112.183 160.515 111.689C160.708 111.123 160.869 110.567 160.997 110.019C161.124 109.471 161.27 108.958 161.433 108.481ZM166.947 117.375L165.627 121.244C165.543 121.491 165.545 121.63 165.633 121.66C165.686 121.678 165.733 121.685 165.774 121.679C165.81 121.691 165.866 121.7 165.942 121.707L172.892 121.889C173.205 121.897 173.37 121.875 173.388 121.822C173.4 121.787 173.289 121.679 173.054 121.501L167.534 117.043C167.44 116.971 167.376 116.93 167.34 116.917C167.252 116.887 167.175 116.91 167.11 116.987C167.056 117.087 167.002 117.216 166.947 117.375Z" fill="#C42D1C"/>
<path d="M151.739 131.656C151.997 131.267 152.283 130.919 152.598 130.613C152.898 130.296 153.189 130.008 153.473 129.748C153.747 129.504 153.992 129.286 154.209 129.094C154.441 128.912 154.589 128.774 154.65 128.681C154.733 128.556 154.779 128.419 154.789 128.269C154.789 128.134 154.78 127.994 154.764 127.849C154.743 127.679 154.753 127.562 154.794 127.5C154.856 127.406 154.944 127.341 155.058 127.305C155.172 127.268 155.267 127.276 155.345 127.327C155.485 127.42 155.714 127.616 156.03 127.915C156.337 128.23 156.692 128.522 157.097 128.79L168.123 136.025C168.528 136.293 168.934 136.44 169.343 136.464C169.768 136.499 170.151 136.395 170.492 136.15C170.575 136.093 170.66 136.049 170.748 136.018C170.851 135.997 170.95 136.017 171.043 136.079C171.121 136.13 171.168 136.195 171.183 136.273C171.189 136.366 171.174 136.456 171.138 136.544C171.019 136.824 170.894 137.2 170.76 137.672C170.643 138.154 170.541 138.612 170.454 139.047C170.357 139.498 170.288 139.822 170.247 140.018C170.222 140.158 170.194 140.252 170.163 140.298C170.121 140.361 170.067 140.392 170 140.392C169.948 140.403 169.891 140.387 169.829 140.346C169.751 140.294 169.52 140.119 169.136 139.82C168.757 139.547 168.303 139.235 167.774 138.884L162.934 135.645C162.67 135.47 162.473 135.362 162.343 135.321C162.203 135.295 162.113 135.314 162.071 135.376C162.125 136.106 162.065 136.838 161.892 137.574C161.723 138.336 161.474 138.965 161.144 139.463C160.618 140.257 159.942 140.839 159.115 141.209C158.287 141.579 157.392 141.714 156.429 141.613C155.471 141.538 154.548 141.207 153.661 140.62C152.587 139.909 151.787 139.054 151.262 138.056C150.736 137.059 150.507 136.001 150.576 134.882C150.651 133.79 151.038 132.714 151.739 131.656ZM152.232 132.687C151.881 133.216 151.761 133.786 151.872 134.397C151.988 135.033 152.29 135.659 152.778 136.274C153.257 136.904 153.869 137.466 154.616 137.961C155.239 138.373 155.936 138.69 156.708 138.91C157.48 139.13 158.221 139.162 158.929 139.004C159.654 138.857 160.237 138.449 160.681 137.78C161.011 137.282 161.242 136.763 161.375 136.224C161.508 135.686 161.545 135.173 161.487 134.686L156.795 131.579C156.266 131.228 155.711 131.051 155.131 131.048C154.541 131.06 153.993 131.212 153.486 131.503C152.969 131.81 152.551 132.205 152.232 132.687Z" fill="#C42D1C"/>
<path d="M143.862 141.888C144.625 141.146 145.491 140.644 146.458 140.381C147.425 140.144 148.389 140.158 149.349 140.423C150.308 140.688 151.172 141.215 151.939 142.005C152.512 142.594 152.951 143.274 153.256 144.044C153.562 144.814 153.722 145.622 153.736 146.467C153.75 147.312 153.606 148.128 153.304 148.916C153.015 149.717 152.556 150.423 151.927 151.034C151.137 151.802 150.232 152.303 149.212 152.539C148.205 152.789 147.215 152.787 146.242 152.536C145.269 152.284 144.425 151.79 143.709 151.053C142.929 150.25 142.368 149.324 142.027 148.277C141.686 147.229 141.649 146.146 141.916 145.028C142.182 143.936 142.831 142.889 143.862 141.888ZM144.123 143C143.735 143.377 143.458 143.789 143.293 144.236C143.142 144.696 143.135 145.171 143.273 145.661C143.411 146.125 143.668 146.604 144.044 147.098C144.419 147.618 144.834 148.113 145.29 148.581C145.94 149.251 146.658 149.776 147.445 150.157C148.231 150.538 148.988 150.727 149.714 150.725C150.44 150.722 151.057 150.474 151.566 149.979C151.874 149.68 152.103 149.354 152.254 148.999C152.403 148.672 152.462 148.29 152.429 147.853C152.384 147.298 152.161 146.734 151.76 146.161C151.372 145.601 150.899 145.033 150.339 144.457C149.715 143.814 149.01 143.302 148.223 142.921C147.437 142.54 146.681 142.338 145.955 142.314C145.216 142.303 144.605 142.532 144.123 143Z" fill="#C42D1C"/>
<path d="M131.119 151.828C131.247 151.749 131.354 151.782 131.442 151.925C131.55 152.1 131.681 152.348 131.835 152.669C131.983 153.017 132.116 153.286 132.233 153.476C132.263 153.524 132.287 153.564 132.307 153.596C132.326 153.627 132.341 153.651 132.351 153.667C132.555 152.752 132.89 151.943 133.355 151.24C133.815 150.562 134.418 149.994 135.165 149.534C135.658 149.23 136.184 149.07 136.744 149.054C137.305 149.038 137.841 149.179 138.353 149.478C138.86 149.801 139.304 150.273 139.686 150.893L142.593 155.614C142.808 155.964 143.059 156.193 143.345 156.302C143.625 156.436 143.982 156.446 144.416 156.332C144.515 156.315 144.619 156.306 144.728 156.305C144.831 156.329 144.921 156.405 145 156.532C145.088 156.675 145.115 156.79 145.08 156.877C145.04 156.989 144.977 157.083 144.892 157.158C144.323 157.552 143.868 157.898 143.525 158.196C143.193 158.511 142.827 158.878 142.429 159.299C142.375 159.354 142.324 159.396 142.276 159.426C142.239 159.471 142.196 159.508 142.148 159.538C141.957 159.655 141.801 159.598 141.68 159.365C141.503 158.97 141.352 158.636 141.227 158.362C141.112 158.104 140.942 157.792 140.717 157.427L137.868 152.801C137.633 152.42 137.339 152.119 136.984 151.899C136.623 151.705 136.241 151.601 135.837 151.586C135.434 151.571 135.076 151.649 134.764 151.819C134.399 152.044 134.088 152.269 133.831 152.493C133.584 152.733 133.394 153.047 133.261 153.436C133.186 153.635 133.129 153.934 133.088 154.331C133.032 154.738 133.151 155.18 133.445 155.657L136.014 159.829C136.21 160.147 136.444 160.332 136.717 160.383C136.984 160.46 137.26 160.465 137.548 160.398C137.819 160.34 138.055 160.26 138.256 160.159C138.415 160.061 138.562 160.015 138.696 160.019C138.831 160.024 138.947 160.106 139.045 160.265C139.143 160.424 139.158 160.557 139.092 160.663C139.02 160.795 138.913 160.905 138.77 160.993C138.185 161.397 137.72 161.727 137.374 161.984C137.012 162.251 136.711 162.491 136.47 162.706C136.213 162.929 135.958 163.174 135.705 163.44C135.683 163.475 135.648 163.507 135.601 163.537C135.547 163.592 135.504 163.629 135.472 163.649C135.266 163.776 135.109 163.752 135.001 163.577C134.981 163.546 134.965 163.501 134.951 163.443C134.922 163.396 134.901 163.343 134.887 163.286C134.864 163.212 134.8 163.055 134.694 162.812C134.583 162.596 134.47 162.359 134.355 162.101C134.224 161.853 134.114 161.657 134.026 161.514L130.635 156.007C130.39 155.609 130.174 155.348 129.987 155.222C129.794 155.121 129.641 155.106 129.53 155.174C129.419 155.243 129.265 155.348 129.068 155.492C128.855 155.645 128.701 155.75 128.606 155.809C128.51 155.868 128.408 155.898 128.3 155.899C128.191 155.9 128.092 155.829 128.004 155.686C127.926 155.559 127.899 155.444 127.923 155.342C127.958 155.255 128.025 155.169 128.127 155.085C128.745 154.594 129.255 154.105 129.656 153.617C130.057 153.129 130.404 152.696 130.698 152.318C130.742 152.247 130.81 152.161 130.901 152.061C130.967 151.954 131.04 151.877 131.119 151.828Z" fill="#C42D1C"/>
<path d="M122.585 156.271C123.544 155.903 124.388 155.889 125.118 156.229C125.831 156.575 126.388 157.271 126.789 158.317L129.117 164.381C129.17 164.521 129.268 164.593 129.41 164.599C129.542 164.628 129.773 164.58 130.104 164.452L130.313 164.372C130.418 164.332 130.532 164.368 130.655 164.481C130.785 164.611 130.876 164.746 130.93 164.885C130.943 164.92 130.943 164.97 130.928 165.036C130.902 165.126 130.875 165.186 130.847 165.217C130.568 165.584 130.305 165.965 130.056 166.36C129.797 166.779 129.573 167.185 129.384 167.578C129.177 167.977 129.01 168.321 128.881 168.611C128.81 168.738 128.753 168.85 128.71 168.946C128.667 169.043 128.593 169.111 128.488 169.151C128.384 169.191 128.287 169.199 128.197 169.173C128.09 169.154 128.015 169.063 127.972 168.9L127.637 167.559C127.574 167.343 127.477 167.22 127.346 167.191C127.197 167.168 127.018 167.196 126.809 167.277L123.777 168.44C123.724 168.46 123.649 168.42 123.55 168.318C123.451 168.216 123.378 168.104 123.331 167.982C123.257 167.79 123.213 167.597 123.199 167.403C123.184 167.208 123.211 167.098 123.281 167.071L125.817 166.098C126.253 165.931 126.523 165.777 126.629 165.636C126.718 165.502 126.702 165.278 126.582 164.965L124.635 159.893C124.354 159.161 123.989 158.652 123.539 158.365C123.095 158.095 122.603 158.064 122.063 158.271C121.558 158.465 121.191 158.656 120.963 158.843C120.735 159.031 120.54 159.226 120.378 159.428C120.339 159.483 120.302 159.517 120.267 159.53C120.18 159.564 120.111 159.54 120.06 159.46C119.992 159.386 119.938 159.297 119.897 159.192C119.857 159.088 119.944 158.845 120.157 158.463C120.371 158.081 120.687 157.68 121.105 157.259C121.517 156.821 122.01 156.492 122.585 156.271Z" fill="#C42D1C"/>
<path d="M83.1009 169.216C83.2454 169.254 83.3665 169.344 83.4644 169.485C83.5395 169.64 83.5624 169.81 83.533 169.995L83.28 172.39C83.5754 172.294 83.9322 172.185 84.3502 172.063C84.7501 171.936 85.1705 171.806 85.6113 171.671C85.6797 171.631 85.7524 171.611 85.8294 171.612C85.9063 171.613 85.9809 171.623 86.0531 171.642C86.1976 171.68 86.3211 171.761 86.4237 171.884C86.5083 172.003 86.5316 172.135 86.4937 172.279C86.4367 172.496 86.2852 172.668 86.0392 172.796L83.8476 173.755C84.0804 173.97 84.3536 174.216 84.6672 174.491C84.9808 174.767 85.3011 175.054 85.628 175.352C85.7221 175.434 85.7977 175.551 85.8547 175.701C85.8937 175.846 85.899 175.973 85.8705 176.081C85.8088 176.316 85.6692 176.444 85.4516 176.464C85.234 176.484 85.0445 176.434 84.8829 176.314C84.5285 176.047 84.1897 175.794 83.8666 175.555C83.5435 175.315 83.227 175.087 82.9172 174.871C82.8584 175.241 82.7973 175.621 82.7337 176.01C82.6521 176.394 82.5544 176.802 82.4405 177.235C82.393 177.416 82.3052 177.567 82.1769 177.687C82.044 177.826 81.8758 177.878 81.6725 177.844C81.5147 177.783 81.3983 177.676 81.3232 177.521C81.2434 177.384 81.2158 177.232 81.2404 177.065L81.5205 174.677C81.2251 174.773 80.8774 174.885 80.4774 175.011C80.0727 175.156 79.6523 175.287 79.2162 175.403C79.1478 175.443 79.0752 175.463 78.9982 175.462C78.9165 175.479 78.8395 175.478 78.7673 175.459C78.6229 175.421 78.4994 175.341 78.3967 175.217C78.2893 175.112 78.2594 174.969 78.3068 174.788C78.359 174.589 78.5081 174.426 78.7542 174.298L80.9529 173.312C80.702 173.092 80.4264 172.855 80.1261 172.603C79.8078 172.345 79.4875 172.059 79.1653 171.742C79.0532 171.655 78.9776 171.539 78.9386 171.393C78.8769 171.261 78.8626 171.132 78.8958 171.006C78.9527 170.789 79.09 170.671 79.3076 170.651C79.5251 170.631 79.7194 170.662 79.8905 170.746C80.2402 171.031 80.579 171.284 80.9068 171.505C81.2347 171.726 81.5511 171.954 81.8562 172.189C81.9007 171.873 81.9686 171.504 82.0597 171.084C82.1327 170.66 82.2172 170.228 82.313 169.79C82.3604 169.61 82.4507 169.45 82.5836 169.311C82.7119 169.191 82.8843 169.159 83.1009 169.216Z" fill="#C42D1C"/>
<path d="M64.2552 150.671C64.4101 150.833 64.5122 150.993 64.5615 151.153C64.6243 151.299 64.6086 151.418 64.5142 151.508C64.4063 151.612 64.267 151.641 64.0963 151.598C63.9256 151.555 63.7162 151.471 63.4681 151.347C63.0117 151.086 62.5336 150.911 62.0339 150.82C61.5342 150.73 60.9715 150.804 60.3458 151.041C59.1747 151.464 58.0699 151.876 57.0314 152.276C55.9794 152.689 54.9538 153.102 53.9546 153.516C52.9554 153.93 51.9295 154.356 50.877 154.795C49.8109 155.247 48.6912 155.738 47.5179 156.267C47.0916 156.442 46.7515 156.6 46.4976 156.74C46.2302 156.892 46.0091 157.039 45.8344 157.181C45.6262 157.044 45.4308 156.921 45.2484 156.811C45.0524 156.715 44.8234 156.624 44.5612 156.539C44.3254 156.455 44.0946 156.443 43.8688 156.504C43.6166 156.565 43.431 156.6 43.312 156.611C43.2727 156.597 43.2401 156.576 43.2143 156.549C43.1621 156.522 43.15 156.469 43.1782 156.39C43.2069 156.285 43.2552 156.187 43.3232 156.096C43.3783 155.992 43.4401 155.881 43.5087 155.764C44.1961 154.511 44.8973 153.233 45.6123 151.928C46.3009 150.623 46.9757 149.344 47.6367 148.09C48.2978 146.837 48.9107 145.669 49.4757 144.586C50.0271 143.515 50.5161 142.582 50.9428 141.786C51.2458 141.211 51.4218 140.707 51.4709 140.272C51.5065 139.851 51.4752 139.467 51.3771 139.122C51.2656 138.789 51.1077 138.462 50.9034 138.141C50.7502 137.9 50.6689 137.694 50.6595 137.522C50.6371 137.336 50.6799 137.192 50.7877 137.089C50.8686 137.011 50.9742 137.014 51.1044 137.096C51.2353 137.151 51.3717 137.253 51.5137 137.402C51.7202 137.618 51.9778 137.914 52.2864 138.29C52.6086 138.654 52.9436 139.03 53.2916 139.421C53.6395 139.811 53.9619 140.162 54.2588 140.472C54.5041 140.728 54.7752 141.011 55.0721 141.321C55.369 141.631 55.6597 141.922 55.9443 142.192C56.2159 142.449 56.4486 142.678 56.6422 142.88C56.7971 143.042 56.9059 143.196 56.9688 143.343C57.0052 143.489 56.9829 143.601 56.902 143.678C56.7942 143.782 56.6484 143.805 56.4648 143.748C56.2812 143.691 56.0985 143.595 55.9166 143.459C55.3968 143.078 54.9592 142.864 54.6038 142.816C54.2355 142.755 53.9358 142.874 53.7049 143.173C53.4885 143.406 53.2506 143.724 52.9909 144.128C52.7178 144.544 52.4441 144.987 52.1698 145.456C51.882 145.939 51.6215 146.382 51.3883 146.786C51.3062 146.916 51.284 147.028 51.3215 147.121C51.3591 147.214 51.4553 147.342 51.6103 147.504L55.1924 151.246C55.2569 151.313 55.3419 151.348 55.4475 151.35C55.5396 151.365 55.6789 151.335 55.8654 151.26C56.0659 151.146 56.3394 151.013 56.686 150.862C57.0061 150.711 57.3465 150.54 57.7071 150.35C58.0543 150.173 58.3815 150.001 58.6887 149.837C58.9696 149.671 59.1704 149.543 59.2912 149.454C59.667 149.171 59.8592 148.832 59.8679 148.436C59.8501 148.04 59.6951 147.581 59.4028 147.06C59.1234 146.552 59.0646 146.221 59.2264 146.066C59.3208 145.975 59.4399 145.965 59.5836 146.034C59.7009 146.103 59.837 146.218 59.9919 146.38C60.2372 146.636 60.5144 146.939 60.8237 147.289C61.1329 147.639 61.4682 148.003 61.8297 148.38C62.2427 148.812 62.6631 149.21 63.0908 149.576C63.5185 149.942 63.9066 150.307 64.2552 150.671ZM53.8209 151.473L50.994 148.52C50.8133 148.331 50.6892 148.269 50.6218 148.334C50.5813 148.373 50.5541 148.412 50.54 148.451C50.513 148.477 50.479 148.522 50.438 148.587L47.0773 154.673C46.9261 154.947 46.8699 155.104 46.9086 155.145C46.9344 155.172 47.0807 155.122 47.3475 154.996L53.8458 152.147C53.9526 152.097 54.0194 152.058 54.0464 152.033C54.1138 151.968 54.1287 151.889 54.0911 151.796C54.0272 151.702 53.9371 151.594 53.8209 151.473Z" fill="#C42D1C"/>
<path d="M48.1596 131.495C48.388 131.902 48.5666 132.315 48.6953 132.735C48.8404 133.146 48.9636 133.537 49.0649 133.909C49.1571 134.263 49.2392 134.581 49.3111 134.862C49.3668 135.152 49.422 135.346 49.4768 135.443C49.5499 135.574 49.651 135.677 49.7801 135.755C49.9 135.816 50.0281 135.872 50.1643 135.924C50.3259 135.984 50.425 136.046 50.4615 136.111C50.5164 136.208 50.5341 136.316 50.5146 136.434C50.4952 136.552 50.4448 136.634 50.3634 136.68C50.2169 136.762 49.9382 136.875 49.5273 137.02C49.1072 137.149 48.6855 137.332 48.2623 137.57L36.7895 144.074C36.3663 144.311 36.0503 144.606 35.8415 144.959C35.6164 145.321 35.5347 145.709 35.5964 146.124C35.6095 146.224 35.6099 146.32 35.5976 146.412C35.5691 146.514 35.506 146.592 35.4083 146.647C35.3269 146.693 35.2481 146.705 35.1719 146.684C35.0865 146.646 35.0128 146.591 34.9508 146.519C34.7558 146.286 34.479 146.002 34.1204 145.668C33.7454 145.344 33.3842 145.043 33.0367 144.767C32.6801 144.475 32.4235 144.266 32.267 144.14C32.1542 144.053 32.0841 143.986 32.0567 143.937C32.0202 143.872 32.0172 143.809 32.0478 143.749C32.062 143.698 32.1017 143.655 32.1668 143.618C32.2482 143.572 32.5097 143.447 32.9512 143.242C33.3673 143.03 33.852 142.769 34.4055 142.458L39.4978 139.632C39.7745 139.476 39.9607 139.35 40.0564 139.254C40.143 139.141 40.1679 139.052 40.1314 138.987C39.4575 138.702 38.833 138.314 38.2579 137.823C37.6574 137.325 37.211 136.816 36.9186 136.295C36.4526 135.465 36.244 134.597 36.2926 133.692C36.3412 132.788 36.6303 131.93 37.1598 131.119C37.6638 130.301 38.3798 129.631 39.3076 129.11C40.4308 128.48 41.5562 128.159 42.6839 128.146C43.8116 128.134 44.8572 128.414 45.8206 128.987C46.7586 129.552 47.5383 130.388 48.1596 131.495ZM47.0172 131.462C46.7065 130.908 46.2544 130.541 45.6607 130.361C45.0416 130.173 44.3471 130.156 43.5773 130.31C42.7982 130.448 42.0181 130.736 41.2367 131.174C40.5856 131.54 39.9858 132.016 39.4371 132.602C38.8885 133.188 38.5224 133.832 38.3387 134.535C38.1388 135.246 38.2352 135.952 38.6281 136.652C38.9205 137.173 39.276 137.616 39.6946 137.98C40.1132 138.344 40.5522 138.612 41.0117 138.782L45.9194 136.027C46.4729 135.717 46.8835 135.304 47.1514 134.79C47.4102 134.259 47.5256 133.702 47.4977 133.119C47.4606 132.519 47.3004 131.966 47.0172 131.462Z" fill="#C42D1C"/>
<path d="M42.6877 119.918C42.997 120.936 43.047 121.935 42.8376 122.916C42.605 123.884 42.1511 124.734 41.476 125.466C40.8009 126.198 39.9365 126.724 38.8827 127.044C38.0968 127.283 37.2916 127.361 36.4671 127.28C35.6426 127.199 34.8515 126.971 34.0939 126.596C33.3363 126.222 32.6766 125.72 32.1148 125.091C31.5351 124.467 31.1177 123.735 30.8627 122.896C30.5426 121.842 30.5113 120.808 30.7688 119.793C31.0084 118.784 31.4631 117.905 32.1328 117.155C32.8024 116.405 33.6284 115.881 34.6108 115.583C35.6824 115.257 36.7621 115.183 37.8498 115.36C38.9374 115.536 39.9171 116 40.7886 116.749C41.6369 117.487 42.2699 118.543 42.6877 119.918ZM41.5791 119.64C41.4218 119.122 41.1824 118.688 40.8612 118.337C40.5221 117.991 40.1029 117.767 39.6037 117.665C39.1278 117.576 38.5843 117.585 37.9732 117.692C37.3388 117.788 36.709 117.93 36.0839 118.12C35.1909 118.391 34.3948 118.789 33.6958 119.314C32.9967 119.838 32.482 120.424 32.1517 121.07C31.8214 121.717 31.7594 122.38 31.9655 123.058C32.0903 123.469 32.2757 123.823 32.5217 124.118C32.7444 124.402 33.0572 124.629 33.4601 124.799C33.974 125.014 34.5776 125.074 35.271 124.981C35.9465 124.892 36.6683 124.732 37.4363 124.498C38.2936 124.238 39.0718 123.845 39.7709 123.321C40.4699 122.796 40.9963 122.217 41.3499 121.583C41.698 120.931 41.7744 120.283 41.5791 119.64Z" fill="#C42D1C"/>
<path d="M39.6921 104.044C39.703 104.193 39.6247 104.273 39.4571 104.286C39.2524 104.301 38.9717 104.303 38.6153 104.291C38.2389 104.263 37.939 104.257 37.7156 104.273C37.6597 104.277 37.6132 104.281 37.5759 104.283C37.5387 104.286 37.5108 104.288 37.4922 104.29C38.2102 104.892 38.7741 105.562 39.1838 106.299C39.5736 107.019 39.8006 107.817 39.8649 108.692C39.9073 109.269 39.8066 109.81 39.5629 110.314C39.3192 110.819 38.9469 111.23 38.4462 111.547C37.9254 111.847 37.302 112.024 36.576 112.078L31.0469 112.484C30.6373 112.514 30.3184 112.631 30.09 112.835C29.8417 113.021 29.6681 113.333 29.5692 113.771C29.5388 113.867 29.4991 113.964 29.4501 114.061C29.3811 114.141 29.2721 114.186 29.1232 114.197C28.9556 114.209 28.8412 114.18 28.7799 114.11C28.6986 114.022 28.6445 113.923 28.6177 113.813C28.5299 113.127 28.4324 112.563 28.3251 112.122C28.1992 111.682 28.0413 111.188 27.8513 110.641C27.8273 110.568 27.8132 110.503 27.8091 110.447C27.7863 110.393 27.7729 110.338 27.7688 110.282C27.7524 110.058 27.8752 109.946 28.1372 109.946C28.5695 109.97 28.936 109.99 29.2366 110.005C29.5185 110.022 29.8736 110.015 30.3018 109.983L35.7192 109.586C36.166 109.553 36.5687 109.43 36.9274 109.216C37.2661 108.985 37.5348 108.694 37.7336 108.343C37.9324 107.991 38.0281 107.638 38.0208 107.283C37.9893 106.855 37.9334 106.475 37.8529 106.144C37.7539 105.815 37.5624 105.501 37.2785 105.204C37.1359 105.046 36.8975 104.857 36.5632 104.639C36.2276 104.401 35.7805 104.303 35.222 104.344L30.3352 104.703C29.9629 104.73 29.6911 104.853 29.52 105.071C29.3289 105.273 29.197 105.516 29.1245 105.802C29.0505 106.07 29.0124 106.316 29.0102 106.541C29.0239 106.727 28.9976 106.879 28.9313 106.996C28.8651 107.113 28.7389 107.178 28.5527 107.192C28.3665 107.206 28.2414 107.159 28.1774 107.051C28.0933 106.926 28.0452 106.78 28.0329 106.613C27.9437 105.908 27.8648 105.343 27.7961 104.917C27.726 104.473 27.6515 104.095 27.5724 103.783C27.4919 103.452 27.3922 103.113 27.2731 102.766C27.2518 102.73 27.2391 102.684 27.235 102.628C27.2109 102.555 27.1975 102.5 27.1947 102.463C27.177 102.221 27.2705 102.092 27.4752 102.077C27.5125 102.074 27.5597 102.08 27.6169 102.095C27.6728 102.091 27.7293 102.096 27.7865 102.11C27.8624 102.124 28.032 102.139 28.2953 102.157C28.5387 102.158 28.8014 102.167 29.0834 102.184C29.364 102.182 29.5881 102.175 29.7556 102.162L36.2062 101.689C36.6717 101.655 37.0033 101.583 37.2013 101.475C37.3793 101.35 37.4635 101.222 37.4539 101.092C37.4443 100.961 37.4213 100.776 37.385 100.535C37.3472 100.276 37.3242 100.091 37.316 99.9789C37.3078 99.8672 37.3282 99.7628 37.3772 99.6656C37.4263 99.5684 37.5345 99.5137 37.7021 99.5014C37.851 99.4904 37.9655 99.5195 38.0454 99.5885C38.1067 99.6588 38.1515 99.7585 38.1796 99.8874C38.3301 100.662 38.5296 101.34 38.7782 101.921C39.0267 102.502 39.2511 103.009 39.4515 103.444C39.4942 103.516 39.5389 103.615 39.5857 103.743C39.6498 103.85 39.6852 103.951 39.6921 104.044Z" fill="#C42D1C"/>
<path d="M39.6614 94.1504C39.5469 95.1707 39.1709 95.9268 38.5333 96.4187C37.8979 96.8921 37.0237 97.0663 35.9107 96.9414L29.4552 96.2168C29.3068 96.2001 29.1975 96.2536 29.1273 96.3772C29.0406 96.4801 28.9774 96.7079 28.9379 97.0603L28.9129 97.2829C28.9004 97.3942 28.8158 97.4786 28.659 97.5362C28.4838 97.5916 28.3219 97.611 28.1735 97.5944C28.1364 97.5902 28.0921 97.5665 28.0406 97.5231C27.9727 97.4591 27.9315 97.4075 27.9171 97.3684C27.7197 96.9517 27.5027 96.5423 27.2661 96.1401C27.013 95.7172 26.7558 95.3314 26.4944 94.9828C26.2351 94.6155 26.0066 94.3081 25.809 94.0605C25.7287 93.9388 25.6557 93.8367 25.5898 93.7542C25.5239 93.6717 25.4972 93.5747 25.5097 93.4634C25.5222 93.3521 25.5604 93.2625 25.6244 93.1946C25.6905 93.1081 25.806 93.0834 25.9708 93.1207L27.3155 93.4407C27.536 93.4843 27.6896 93.4546 27.7763 93.3516C27.8651 93.2301 27.922 93.058 27.947 92.8354L28.3093 89.6077C28.3156 89.552 28.3867 89.5037 28.5228 89.4626C28.6589 89.4215 28.7919 89.4083 28.9218 89.4228C29.1258 89.4457 29.3175 89.4954 29.4967 89.5719C29.676 89.6484 29.7614 89.7237 29.7531 89.7979L29.4501 92.497C29.3981 92.9607 29.4101 93.272 29.4862 93.4308C29.5643 93.5711 29.7704 93.66 30.1043 93.6974L35.5024 94.3034C36.2815 94.3909 36.9021 94.3009 37.3641 94.0334C37.8076 93.7639 38.0617 93.3416 38.1262 92.7665C38.1866 92.2285 38.186 91.8152 38.1245 91.5266C38.063 91.2379 37.9798 90.975 37.8749 90.7378C37.8441 90.678 37.8308 90.6295 37.8349 90.5924C37.8453 90.4997 37.8979 90.4492 37.9928 90.4411C38.0897 90.4144 38.1938 90.4073 38.3051 90.4198C38.4164 90.4323 38.5924 90.6211 38.8332 90.9863C39.074 91.3514 39.2848 91.8165 39.4655 92.3815C39.6648 92.9486 39.7301 93.5382 39.6614 94.1504Z" fill="#C42D1C"/>
<path d="M45.9739 53.5696C45.8743 53.6808 45.7391 53.7477 45.5685 53.7702C45.3964 53.7664 45.2347 53.7091 45.0832 53.5984L43.0682 52.2807C43.0188 52.5875 42.9529 52.9546 42.8705 53.3821C42.8005 53.7957 42.725 54.2294 42.644 54.6833C42.6484 54.7624 42.6325 54.8359 42.5966 54.904C42.5607 54.972 42.5178 55.0339 42.4679 55.0895C42.3682 55.2006 42.24 55.2737 42.0833 55.3087C41.9391 55.3298 41.8113 55.2905 41.7001 55.1908C41.5334 55.0413 41.449 54.8278 41.4471 54.5503L41.5944 52.1628C41.2963 52.2716 40.9532 52.4027 40.565 52.5561C40.1768 52.7095 39.7754 52.8636 39.3608 53.0184C39.2444 53.0644 39.1063 53.0785 38.9467 53.0608C38.7996 53.0292 38.6843 52.976 38.601 52.9012C38.4203 52.7392 38.3707 52.5569 38.4521 52.3541C38.5336 52.1514 38.6644 52.0055 38.8446 51.9163C39.2439 51.7227 39.6237 51.5367 39.9841 51.3584C40.3445 51.1801 40.6917 51.0026 41.0257 50.8257C40.7228 50.6043 40.413 50.3767 40.0962 50.1428C39.7919 49.895 39.4729 49.6216 39.1393 49.3225C39.0003 49.1979 38.9064 49.051 38.8575 48.8819C38.7947 48.7002 38.8249 48.5267 38.9481 48.3614C39.0741 48.2488 39.2232 48.1944 39.3952 48.1982C39.5534 48.1896 39.7013 48.2344 39.8388 48.3326L41.8352 49.6712C41.8846 49.3644 41.9442 49.0043 42.0142 48.5907C42.0702 48.1646 42.1457 47.7309 42.2406 47.2895C42.2363 47.2104 42.2521 47.1368 42.2881 47.0687C42.3101 46.9882 42.346 46.9202 42.3959 46.8646C42.4956 46.7534 42.6238 46.6803 42.7805 46.6453C42.9233 46.5979 43.0642 46.6364 43.2032 46.761C43.3561 46.8981 43.4335 47.1054 43.4354 47.3829L43.3089 49.789C43.6195 49.6663 43.9557 49.529 44.3175 49.3771C44.6918 49.2113 45.0932 49.0572 45.5217 48.9148C45.6506 48.8549 45.7886 48.8408 45.9358 48.8724C46.0815 48.8777 46.2029 48.9239 46.3002 49.0111C46.467 49.1607 46.5097 49.3368 46.4282 49.5395C46.3467 49.7422 46.2298 49.9006 46.0774 50.0147C45.6643 50.1959 45.2845 50.3818 44.938 50.5726C44.5915 50.7633 44.2442 50.9409 43.8963 51.1053C44.1575 51.2893 44.4542 51.5177 44.7863 51.7904C45.1309 52.0492 45.4762 52.3212 45.8222 52.6063C45.9612 52.7309 46.0621 52.8841 46.1249 53.0657C46.1738 53.2349 46.1235 53.4029 45.9739 53.5696Z" fill="#C42D1C"/>
<path d="M70.8827 45.1722C70.6682 45.2365 70.4786 45.2543 70.3142 45.2256C70.155 45.2148 70.0567 45.1469 70.0192 45.0217C69.9764 44.8787 70.013 44.741 70.1293 44.6087C70.2456 44.4765 70.4155 44.3281 70.639 44.1637C71.0789 43.876 71.4527 43.5301 71.7604 43.1261C72.068 42.7221 72.2586 42.1876 72.3321 41.5225C72.488 40.2871 72.6243 39.116 72.7408 38.0093C72.852 36.8847 72.9507 35.7834 73.0368 34.7053C73.123 33.6272 73.21 32.5196 73.298 31.3825C73.3806 30.2275 73.4534 29.0073 73.5163 27.7217C73.554 27.2623 73.5684 26.8877 73.5596 26.598C73.5454 26.2905 73.5151 26.0268 73.4686 25.8068C73.685 25.6835 73.8835 25.5656 74.0641 25.453C74.2394 25.3225 74.4245 25.1599 74.6194 24.9651C74.8019 24.7935 74.9172 24.5933 74.9656 24.3644C75.0265 24.1124 75.0793 23.9309 75.124 23.8201C75.1544 23.7915 75.1875 23.7718 75.2232 23.7611C75.2715 23.7271 75.3243 23.7405 75.3815 23.8014C75.4619 23.8747 75.5271 23.9623 75.5772 24.0642C75.6451 24.1608 75.7157 24.2663 75.7889 24.3808C76.5914 25.5628 77.4108 26.7691 78.2471 27.9994C79.0961 29.2065 79.928 30.3895 80.7429 31.5484C81.5579 32.7072 82.3192 33.7847 83.0269 34.7808C83.7293 35.759 84.3378 36.6192 84.8525 37.3613C85.2261 37.8924 85.5951 38.2788 85.9598 38.5202C86.3191 38.7438 86.6749 38.8906 87.0271 38.9604C87.3739 39.0124 87.7369 39.0205 88.1159 38.9849C88.4002 38.9581 88.621 38.9797 88.7783 39.0494C88.9535 39.1139 89.0626 39.2176 89.1054 39.3606C89.1376 39.4679 89.0875 39.5609 88.9552 39.6395C88.8461 39.7307 88.6932 39.8057 88.4965 39.8647C88.2104 39.9504 87.8295 40.045 87.3539 40.1486C86.8836 40.27 86.3955 40.3968 85.8895 40.529C85.3834 40.6611 84.9248 40.7888 84.5135 40.9121C84.1738 41.0139 83.7983 41.1264 83.387 41.2496C82.9758 41.3729 82.5851 41.4997 82.2149 41.6301C81.8627 41.7552 81.5524 41.8579 81.2842 41.9383C81.0696 42.0026 80.8828 42.0293 80.7237 42.0185C80.577 41.9845 80.4877 41.9139 80.4555 41.8066C80.4127 41.6635 80.4583 41.5232 80.5924 41.3856C80.7266 41.2479 80.8956 41.1291 81.0994 41.029C81.6752 40.7396 82.0651 40.4473 82.269 40.1524C82.4908 39.8521 82.5213 39.5312 82.3605 39.1896C82.2515 38.891 82.0764 38.5343 81.8352 38.1194C81.5885 37.6866 81.3187 37.2413 81.0256 36.7835C80.7272 36.3079 80.4511 35.8742 80.1973 35.4826C80.1187 35.3502 80.0293 35.2796 79.9292 35.2706C79.8291 35.2616 79.6717 35.2893 79.4571 35.3536L74.4951 36.8406C74.4057 36.8673 74.336 36.9272 74.2859 37.0202C74.2304 37.0953 74.1938 37.2329 74.1758 37.4332C74.1865 37.6638 74.1801 37.9678 74.1568 38.345C74.1459 38.699 74.1431 39.0798 74.1484 39.4875C74.1482 39.8773 74.1517 40.2465 74.1588 40.5951C74.1783 40.9205 74.2006 41.1574 74.2256 41.3059C74.3059 41.769 74.5204 42.0944 74.869 42.2823C75.2301 42.4469 75.7092 42.5176 76.3064 42.4946C76.8857 42.4769 77.2075 42.5753 77.2718 42.7899C77.3093 42.915 77.2646 43.0259 77.1376 43.1224C77.0231 43.1957 76.8586 43.2645 76.6441 43.3288C76.3043 43.4306 75.9083 43.5395 75.4559 43.6556C75.0035 43.7717 74.527 43.9047 74.0263 44.0548C73.4541 44.2262 72.9078 44.4192 72.3875 44.6336C71.8671 44.8479 71.3655 45.0275 70.8827 45.1722ZM74.9166 35.5158L78.8326 34.3423C79.0829 34.2673 79.1947 34.1851 79.1679 34.0957C79.1518 34.0421 79.1295 34 79.1009 33.9696C79.0901 33.9339 79.0651 33.8829 79.0258 33.8167L75.1361 28.0548C74.961 27.7955 74.8466 27.6739 74.7929 27.69C74.7572 27.7007 74.7348 27.8535 74.7258 28.1485L74.3052 35.2313C74.3016 35.3493 74.3052 35.4262 74.3159 35.462C74.3427 35.5514 74.4061 35.6006 74.5062 35.6096C74.6189 35.5953 74.7557 35.564 74.9166 35.5158Z" fill="#C42D1C"/>
<path d="M95.6275 39.5061C95.1611 39.5224 94.7117 39.4913 94.2794 39.4129C93.8478 39.3532 93.4437 39.2832 93.0674 39.2029C92.7097 39.1219 92.3896 39.049 92.1072 38.9841C91.8241 38.9005 91.6266 38.8607 91.5147 38.8646C91.3655 38.8698 91.2269 38.912 91.0989 38.9911C90.9895 39.0696 90.8805 39.1575 90.7718 39.2546C90.6451 39.3711 90.5445 39.4306 90.4698 39.4332C90.3579 39.4371 90.254 39.4034 90.1581 39.332C90.0623 39.2606 90.0127 39.1783 90.0095 39.085C90.0036 38.9171 90.0306 38.6173 90.0903 38.1856C90.1686 37.7533 90.1994 37.2947 90.1825 36.8096L89.6686 23.6315C89.6517 23.1465 89.5345 22.7303 89.317 22.383C89.0988 22.017 88.7913 21.7662 88.3943 21.6306C88.2998 21.5965 88.2142 21.5528 88.1376 21.4994C88.0604 21.4274 88.0198 21.3354 88.016 21.2235C88.0127 21.1302 88.0381 21.0546 88.0921 20.9967C88.1648 20.9381 88.2475 20.8979 88.3401 20.876C88.6366 20.8097 89.0155 20.6938 89.4767 20.5283C89.9372 20.3442 90.3698 20.1611 90.7744 19.9789C91.1976 19.7961 91.5012 19.6641 91.6852 19.583C91.8138 19.5225 91.9062 19.4913 91.9621 19.4894C92.0367 19.4868 92.0937 19.5128 92.1329 19.5675C92.1715 19.6035 92.1921 19.6588 92.1947 19.7334C92.198 19.8267 92.1894 20.1165 92.1689 20.6029C92.1665 21.0699 92.1763 21.6205 92.1983 22.2548L92.3726 28.0763C92.3836 28.3934 92.41 28.6167 92.4519 28.7459C92.5124 28.8746 92.5799 28.9376 92.6546 28.935C93.2173 28.4672 93.8486 28.0904 94.5484 27.8046C95.2663 27.4994 95.9237 27.3365 96.5207 27.3158C97.4721 27.2827 98.3387 27.4954 99.1204 27.9539C99.9021 28.4123 100.532 29.0629 101.009 29.9055C101.505 30.7287 101.771 31.6721 101.808 32.7354C101.853 34.0226 101.622 35.17 101.115 36.1776C100.609 37.1851 99.8799 37.9856 98.9293 38.5789C97.9966 39.153 96.896 39.4621 95.6275 39.5061ZM96.1811 38.5063C96.8154 38.4843 97.3489 38.2509 97.7817 37.8063C98.2326 37.3424 98.5663 36.7331 98.7829 35.9784C99.0181 35.2231 99.1202 34.3978 99.0891 33.5023C99.0631 32.7561 98.9156 32.0048 98.6465 31.2483C98.3774 30.4919 97.9729 29.8709 97.4331 29.3853C96.8926 28.8811 96.2212 28.643 95.4191 28.6709C94.8221 28.6916 94.2657 28.8043 93.7498 29.009C93.2339 29.2137 92.7949 29.4811 92.4329 29.8112L92.6283 35.4358C92.6504 36.0701 92.8284 36.6243 93.1624 37.0983C93.515 37.5717 93.9571 37.9299 94.4885 38.1729C95.0386 38.4153 95.6028 38.5264 96.1811 38.5063Z" fill="#C42D1C"/>
<path d="M108.81 39.9764C107.764 39.781 106.854 39.3643 106.081 38.7261C105.33 38.073 104.785 37.2782 104.447 36.3416C104.109 35.405 104.042 34.3954 104.244 33.3128C104.395 32.5054 104.696 31.7547 105.149 31.0606C105.601 30.3666 106.168 29.7699 106.85 29.2706C107.532 28.7713 108.282 28.4176 109.099 28.2095C109.92 27.983 110.762 27.9503 111.624 28.1114C112.707 28.3136 113.639 28.763 114.42 29.4597C115.205 30.138 115.775 30.9471 116.132 31.8872C116.488 32.8272 116.572 33.8018 116.383 34.811C116.177 35.912 115.745 36.9042 115.087 37.7876C114.428 38.671 113.565 39.3263 112.498 39.7537C111.452 40.166 110.223 40.2403 108.81 39.9764ZM109.568 39.121C110.1 39.2204 110.596 39.2086 111.056 39.0856C111.519 38.9442 111.911 38.6756 112.232 38.2798C112.531 37.8989 112.773 37.4125 112.96 36.8207C113.168 36.214 113.332 35.5895 113.452 34.9472C113.624 34.0298 113.638 33.1399 113.495 32.2777C113.352 31.4155 113.07 30.6887 112.649 30.0973C112.228 29.5059 111.669 29.1451 110.971 29.0149C110.549 28.9361 110.15 28.9375 109.774 29.0192C109.42 29.0859 109.074 29.2587 108.737 29.5376C108.31 29.8945 107.978 30.4022 107.741 31.0605C107.507 31.7005 107.317 32.4151 107.169 33.2041C107.005 34.0848 106.994 34.9563 107.137 35.8185C107.28 36.6807 107.551 37.415 107.95 38.0213C108.368 38.6311 108.907 38.9976 109.568 39.121Z" fill="#C42D1C"/>
<path d="M124.005 44.511C123.868 44.4523 123.832 44.3457 123.898 44.1912C123.979 44.0024 124.106 43.7523 124.28 43.4408C124.478 43.1195 124.621 42.8559 124.709 42.6499C124.731 42.5984 124.75 42.5555 124.764 42.5212C124.779 42.4869 124.79 42.4611 124.797 42.444C123.933 42.8051 123.079 42.9984 122.235 43.0238C121.417 43.0393 120.604 42.8747 119.797 42.5299C119.265 42.3025 118.831 41.9647 118.495 41.5165C118.159 41.0683 117.964 40.5489 117.912 39.9582C117.885 39.3577 118.014 38.7228 118.3 38.0533L120.479 32.9554C120.64 32.5778 120.683 32.2407 120.606 31.9442C120.555 31.6379 120.357 31.3403 120.014 31.0514C119.942 30.9804 119.875 30.9008 119.811 30.8126C119.772 30.7146 119.782 30.597 119.84 30.4596C119.906 30.3052 119.985 30.2168 120.075 30.1947C120.19 30.1627 120.303 30.1601 120.414 30.187C121.063 30.4241 121.609 30.5963 122.05 30.7037C122.499 30.794 123.01 30.8805 123.584 30.9632C123.66 30.9754 123.723 30.9925 123.775 31.0145C123.834 31.0193 123.889 31.0328 123.94 31.0548C124.146 31.1428 124.189 31.3033 124.069 31.5363C123.849 31.9091 123.663 32.2254 123.512 32.4854C123.367 32.7282 123.211 33.047 123.042 33.4418L120.907 38.4367C120.731 38.8487 120.656 39.263 120.68 39.6797C120.73 40.0865 120.865 40.4589 121.086 40.7969C121.307 41.1349 121.577 41.3822 121.896 41.5388C122.29 41.7075 122.653 41.8321 122.984 41.9127C123.323 41.9761 123.689 41.95 124.084 41.8344C124.289 41.7802 124.566 41.6549 124.914 41.4585C125.279 41.2694 125.572 40.9174 125.792 40.4024L127.717 35.8967C127.864 35.5534 127.88 35.2556 127.764 35.0032C127.673 34.741 127.517 34.512 127.297 34.3162C127.093 34.1276 126.892 33.9808 126.693 33.8756C126.522 33.8022 126.399 33.7092 126.325 33.5965C126.252 33.4839 126.251 33.3417 126.325 33.1701C126.398 32.9984 126.497 32.9089 126.622 32.9014C126.772 32.8841 126.924 32.9084 127.078 32.9744C127.745 33.2189 128.283 33.4083 128.693 33.5427C129.12 33.6844 129.49 33.7919 129.804 33.8651C130.135 33.9456 130.481 34.0127 130.844 34.0662C130.886 34.0638 130.932 34.0735 130.984 34.0955C131.06 34.1077 131.115 34.1211 131.149 34.1358C131.373 34.2312 131.444 34.3732 131.363 34.5621C131.348 34.5964 131.322 34.6356 131.282 34.6798C131.26 34.7313 131.23 34.7791 131.191 34.8233C131.144 34.8846 131.052 35.0281 130.915 35.2537C130.803 35.4695 130.674 35.6988 130.53 35.9416C130.403 36.1918 130.306 36.3941 130.24 36.5486L127.698 42.4962C127.515 42.9253 127.426 43.2526 127.431 43.4781C127.46 43.6937 127.535 43.8272 127.656 43.8786C127.776 43.9299 127.951 43.9947 128.181 44.0729C128.429 44.1585 128.604 44.2232 128.707 44.2673C128.81 44.3113 128.894 44.3774 128.958 44.4655C129.021 44.5537 129.02 44.675 128.954 44.8295C128.896 44.9668 128.817 45.0552 128.719 45.0945C128.629 45.1166 128.52 45.1106 128.392 45.0764C127.634 44.8541 126.941 44.72 126.311 44.6741C125.681 44.6282 125.127 44.5944 124.649 44.5728C124.565 44.5778 124.456 44.5718 124.322 44.5548C124.197 44.5623 124.091 44.5477 124.005 44.511Z" fill="#C42D1C"/>
<path d="M132.718 48.9608C131.864 48.3907 131.365 47.7096 131.22 46.9174C131.091 46.1355 131.338 45.2789 131.96 44.3474L135.567 38.9448C135.649 38.8206 135.652 38.6989 135.575 38.5798C135.523 38.4555 135.35 38.2949 135.055 38.0979L134.868 37.9736C134.775 37.9114 134.739 37.7975 134.76 37.6318C134.791 37.4506 134.848 37.2979 134.931 37.1737C134.952 37.1427 134.993 37.1142 135.055 37.0884C135.143 37.0574 135.208 37.0445 135.249 37.0497C135.71 37.0655 136.173 37.0606 136.639 37.0351C137.131 37.0043 137.592 36.9529 138.022 36.8807C138.467 36.8188 138.845 36.7569 139.156 36.695C139.301 36.6796 139.425 36.6615 139.529 36.6409C139.632 36.6203 139.731 36.641 139.824 36.7032C139.917 36.7654 139.979 36.8405 140.01 36.9286C140.056 37.027 140.025 37.1408 139.916 37.2702L139.015 38.318C138.875 38.4939 138.831 38.644 138.883 38.7683C138.95 38.903 139.077 39.0325 139.263 39.1569L141.964 40.9603C142.011 40.9914 142.021 41.0768 141.995 41.2166C141.969 41.3564 141.92 41.4806 141.847 41.5892C141.733 41.76 141.601 41.9075 141.451 42.0316C141.301 42.1558 141.195 42.1971 141.132 42.1557L138.874 40.6476C138.486 40.3885 138.203 40.2563 138.027 40.251C137.867 40.2561 137.693 40.3984 137.507 40.6778L134.491 45.1955C134.055 45.8476 133.851 46.4402 133.876 46.9735C133.912 47.4912 134.171 47.9108 134.652 48.2321C135.102 48.5326 135.469 48.7218 135.754 48.7997C136.039 48.8775 136.311 48.9243 136.57 48.94C136.637 48.94 136.686 48.9504 136.717 48.9712C136.795 49.023 136.815 49.0929 136.779 49.1809C136.758 49.2792 136.717 49.375 136.655 49.4681C136.592 49.5613 136.344 49.631 135.909 49.6773C135.474 49.7236 134.964 49.6974 134.379 49.5987C133.784 49.5154 133.23 49.3028 132.718 48.9608Z" fill="#C42D1C"/>
<path d="M166.133 73.4801C166.08 73.3405 166.083 73.1898 166.141 73.0279C166.224 72.8768 166.349 72.7594 166.517 72.6757L168.613 71.4909C168.363 71.3062 168.067 71.0791 167.725 70.8095C167.39 70.5574 167.039 70.2911 166.673 70.0108C166.601 69.9783 166.543 69.9304 166.499 69.8672C166.455 69.8041 166.42 69.7376 166.393 69.6678C166.34 69.5281 166.334 69.3807 166.375 69.2254C166.423 69.0876 166.516 68.9922 166.656 68.9392C166.865 68.8597 167.094 68.8828 167.341 69.0086L169.394 70.236C169.434 69.9212 169.476 69.5562 169.518 69.1409C169.56 68.7256 169.607 68.2983 169.66 67.859C169.673 67.7344 169.723 67.6053 169.813 67.4717C169.908 67.3555 170.008 67.2775 170.113 67.2378C170.34 67.1517 170.525 67.1914 170.667 67.3569C170.81 67.5223 170.88 67.7056 170.876 67.9066C170.865 68.3502 170.855 68.773 170.848 69.175C170.841 69.577 170.839 69.967 170.843 70.345C171.179 70.1776 171.523 70.0069 171.877 69.8329C172.237 69.6764 172.626 69.5186 173.045 69.3597C173.219 69.2934 173.393 69.2775 173.566 69.3117C173.756 69.3394 173.896 69.4459 173.986 69.6312C174.028 69.7949 174.008 69.9523 173.926 70.1034C173.861 70.2478 173.753 70.3586 173.603 70.4357L171.497 71.5943C171.747 71.779 172.039 71.9974 172.374 72.2495C172.727 72.495 173.078 72.7612 173.426 73.0483C173.499 73.0807 173.557 73.1286 173.601 73.1918C173.662 73.2483 173.706 73.3115 173.732 73.3813C173.785 73.5209 173.791 73.6684 173.751 73.8237C173.727 73.9723 173.628 74.0798 173.454 74.146C173.262 74.2189 173.042 74.1924 172.795 74.0667L170.715 72.8492C170.682 73.1814 170.649 73.5432 170.618 73.9344C170.593 74.343 170.546 74.7703 170.476 75.2163C170.47 75.3583 170.419 75.4874 170.323 75.6036C170.251 75.7306 170.155 75.8173 170.032 75.8636C169.823 75.9431 169.647 75.9001 169.504 75.7346C169.362 75.5692 169.275 75.3925 169.243 75.2048C169.272 74.7546 169.281 74.3318 169.271 73.9364C169.261 73.541 169.263 73.151 169.276 72.7664C168.993 72.9139 168.654 73.0726 168.259 73.2423C167.871 73.4296 167.471 73.6114 167.058 73.7878C166.884 73.8541 166.702 73.8733 166.511 73.8457C166.339 73.8114 166.213 73.6896 166.133 73.4801Z" fill="#C42D1C"/>
</svg>
