<svg width="200" height="200" viewBox="0 0 200 200" fill="none" xmlns="http://www.w3.org/2000/svg">
<circle class="colored" cx="100" cy="100" r="100" fill="#C42D1C"/>
<path d="M68.456 131.104C68.2653 131.104 68.1093 131.069 67.988 131C67.8667 130.948 67.806 130.87 67.806 130.766C67.806 130.558 68.0487 130.402 68.534 130.298C69.1753 130.177 69.6 129.986 69.808 129.726C70.016 129.466 70.12 129.041 70.12 128.452V116.674C70.12 116.085 70.042 115.669 69.886 115.426C69.73 115.183 69.3313 114.993 68.69 114.854C68.1873 114.75 67.936 114.585 67.936 114.36C67.936 114.256 67.988 114.169 68.092 114.1C68.2133 114.031 68.378 113.996 68.586 113.996C69.0367 113.996 69.418 114.005 69.73 114.022C70.042 114.039 70.3367 114.057 70.614 114.074C70.9087 114.091 71.2293 114.1 71.576 114.1C71.94 114.1 72.2693 114.1 72.564 114.1C72.876 114.083 73.1967 114.065 73.526 114.048C73.8727 114.031 74.2627 114.022 74.696 114.022C75.1467 114.022 75.372 114.135 75.372 114.36C75.372 114.499 75.3027 114.603 75.164 114.672C75.0427 114.741 74.8607 114.802 74.618 114.854C73.9593 115.01 73.5 115.227 73.24 115.504C72.9973 115.781 72.876 116.171 72.876 116.674V121.64C72.876 121.761 72.9107 121.839 72.98 121.874C73.0667 121.909 73.1533 121.926 73.24 121.926H81.924C82.08 121.926 82.158 121.813 82.158 121.588V116.674C82.158 116.189 82.0367 115.807 81.794 115.53C81.5687 115.235 81.118 115.01 80.442 114.854C80.182 114.802 79.9913 114.741 79.87 114.672C79.7487 114.603 79.688 114.499 79.688 114.36C79.688 114.135 79.9047 114.022 80.338 114.022C80.7713 114.022 81.17 114.031 81.534 114.048C81.898 114.065 82.2447 114.083 82.574 114.1C82.9207 114.1 83.276 114.1 83.64 114.1C83.9693 114.1 84.2553 114.091 84.498 114.074C84.758 114.057 85.0267 114.039 85.304 114.022C85.5987 114.005 85.9713 113.996 86.422 113.996C86.63 113.996 86.7947 114.031 86.916 114.1C87.0373 114.169 87.098 114.256 87.098 114.36C87.098 114.585 86.8467 114.75 86.344 114.854C85.7027 114.993 85.304 115.201 85.148 115.478C84.992 115.738 84.914 116.128 84.914 116.648V128.426C84.914 129.033 85.0007 129.466 85.174 129.726C85.3647 129.986 85.772 130.177 86.396 130.298C86.8813 130.402 87.124 130.558 87.124 130.766C87.124 130.87 87.0547 130.948 86.916 131C86.7947 131.069 86.6387 131.104 86.448 131.104C86.032 131.104 85.6593 131.087 85.33 131.052C85.018 131.035 84.7147 131.017 84.42 131C84.1253 130.983 83.8047 130.974 83.458 130.974C83.094 130.974 82.756 130.983 82.444 131C82.1493 131.017 81.8287 131.035 81.482 131.052C81.1353 131.087 80.7453 131.104 80.312 131.104C80.104 131.104 79.9393 131.069 79.818 131C79.714 130.948 79.662 130.87 79.662 130.766C79.662 130.627 79.714 130.532 79.818 130.48C79.9393 130.411 80.13 130.35 80.39 130.298C80.9793 130.177 81.4213 129.977 81.716 129.7C82.0107 129.423 82.158 129.015 82.158 128.478V123.46C82.158 123.356 82.1493 123.269 82.132 123.2C82.1147 123.113 82.054 123.07 81.95 123.07H73.084C72.9453 123.07 72.876 123.174 72.876 123.382V128.296C72.876 128.816 73.0493 129.249 73.396 129.596C73.7427 129.943 74.2193 130.177 74.826 130.298C75.086 130.35 75.2767 130.411 75.398 130.48C75.5193 130.532 75.58 130.627 75.58 130.766C75.58 130.87 75.5193 130.948 75.398 131C75.2767 131.069 75.112 131.104 74.904 131.104C74.4707 131.104 74.072 131.087 73.708 131.052C73.344 131.035 72.9887 131.017 72.642 131C72.3127 130.983 71.9573 130.974 71.576 130.974C71.2293 130.974 70.9 130.983 70.588 131C70.276 131.017 69.9467 131.035 69.6 131.052C69.2707 131.087 68.8893 131.104 68.456 131.104ZM94.0827 131.364C93.0947 131.364 92.1933 131.139 91.3787 130.688C90.5813 130.22 89.9487 129.587 89.4807 128.79C89.0127 127.993 88.7787 127.083 88.7787 126.06C88.7787 125.297 88.926 124.561 89.2207 123.85C89.5153 123.139 89.9313 122.498 90.4687 121.926C91.006 121.354 91.63 120.903 92.3407 120.574C93.0513 120.227 93.814 120.054 94.6287 120.054C95.6513 120.054 96.5787 120.305 97.4107 120.808C98.2427 121.293 98.9013 121.935 99.3867 122.732C99.872 123.529 100.115 124.405 100.115 125.358C100.115 126.398 99.8893 127.377 99.4387 128.296C98.988 129.215 98.312 129.96 97.4107 130.532C96.5267 131.087 95.4173 131.364 94.0827 131.364ZM94.6287 130.454C95.1313 130.454 95.582 130.359 95.9807 130.168C96.3793 129.96 96.6913 129.648 96.9167 129.232C97.1247 128.833 97.2633 128.348 97.3327 127.776C97.4193 127.187 97.4627 126.589 97.4627 125.982C97.4627 125.115 97.324 124.301 97.0467 123.538C96.7693 122.775 96.388 122.16 95.9027 121.692C95.4173 121.224 94.8453 120.99 94.1867 120.99C93.788 120.99 93.424 121.059 93.0947 121.198C92.7827 121.319 92.4967 121.536 92.2367 121.848C91.9073 122.247 91.6907 122.767 91.5867 123.408C91.4827 124.032 91.4307 124.717 91.4307 125.462C91.4307 126.294 91.5693 127.091 91.8467 127.854C92.124 128.617 92.4967 129.241 92.9647 129.726C93.45 130.211 94.0047 130.454 94.6287 130.454ZM102.04 131.078C101.901 131.078 101.78 131.052 101.676 131C101.572 130.965 101.52 130.887 101.52 130.766C101.52 130.645 101.572 130.549 101.676 130.48C101.797 130.411 101.945 130.35 102.118 130.298C102.361 130.211 102.595 130.116 102.82 130.012C103.063 129.891 103.184 129.657 103.184 129.31V123.59C103.184 123.157 103.132 122.784 103.028 122.472C102.924 122.143 102.673 121.943 102.274 121.874C102.205 121.857 102.144 121.822 102.092 121.77C102.04 121.718 102.014 121.631 102.014 121.51C102.014 121.302 102.092 121.181 102.248 121.146C102.699 121.025 103.097 120.895 103.444 120.756C103.791 120.617 104.111 120.47 104.406 120.314C104.701 120.141 105.013 119.959 105.342 119.768C105.377 119.751 105.411 119.733 105.446 119.716C105.498 119.681 105.55 119.664 105.602 119.664C105.723 119.664 105.784 119.733 105.784 119.872C105.784 120.011 105.758 120.262 105.706 120.626C105.671 120.973 105.654 121.267 105.654 121.51C105.654 121.683 105.671 121.787 105.706 121.822H105.758C106.191 121.389 106.729 120.99 107.37 120.626C108.029 120.262 108.817 120.08 109.736 120.08C110.325 120.08 110.837 120.236 111.27 120.548C111.703 120.843 112.05 121.311 112.31 121.952H112.388C112.925 121.397 113.541 120.947 114.234 120.6C114.927 120.253 115.69 120.08 116.522 120.08C117.094 120.08 117.579 120.245 117.978 120.574C118.377 120.903 118.68 121.345 118.888 121.9C119.113 122.455 119.226 123.061 119.226 123.72V129.336C119.226 129.683 119.339 129.908 119.564 130.012C119.789 130.116 120.032 130.211 120.292 130.298C120.465 130.35 120.604 130.411 120.708 130.48C120.812 130.549 120.864 130.645 120.864 130.766C120.864 130.87 120.821 130.948 120.734 131C120.665 131.052 120.543 131.078 120.37 131.078C120.023 131.078 119.737 131.061 119.512 131.026C119.287 131.009 119.07 130.991 118.862 130.974C118.654 130.957 118.394 130.948 118.082 130.948C117.787 130.948 117.527 130.957 117.302 130.974C117.094 130.991 116.877 131.009 116.652 131.026C116.427 131.061 116.141 131.078 115.794 131.078C115.655 131.078 115.534 131.052 115.43 131C115.343 130.948 115.3 130.87 115.3 130.766C115.3 130.627 115.352 130.532 115.456 130.48C115.56 130.411 115.699 130.35 115.872 130.298C116.132 130.229 116.357 130.142 116.548 130.038C116.739 129.917 116.834 129.7 116.834 129.388V123.954C116.834 123.538 116.747 123.157 116.574 122.81C116.418 122.446 116.201 122.16 115.924 121.952C115.647 121.727 115.335 121.614 114.988 121.614C114.624 121.614 114.277 121.666 113.948 121.77C113.619 121.874 113.298 122.047 112.986 122.29C112.587 122.602 112.388 123.131 112.388 123.876V129.336C112.388 129.683 112.492 129.917 112.7 130.038C112.925 130.142 113.168 130.229 113.428 130.298C113.584 130.35 113.714 130.411 113.818 130.48C113.939 130.549 114 130.645 114 130.766C114 130.87 113.957 130.948 113.87 131C113.783 131.052 113.662 131.078 113.506 131.078C113.159 131.078 112.873 131.061 112.648 131.026C112.423 131.009 112.206 130.991 111.998 130.974C111.79 130.957 111.53 130.948 111.218 130.948C110.923 130.948 110.663 130.957 110.438 130.974C110.23 130.991 110.013 131.009 109.788 131.026C109.563 131.061 109.277 131.078 108.93 131.078C108.809 131.078 108.696 131.052 108.592 131C108.488 130.948 108.436 130.87 108.436 130.766C108.436 130.627 108.497 130.532 108.618 130.48C108.739 130.411 108.869 130.35 109.008 130.298C109.268 130.229 109.493 130.142 109.684 130.038C109.892 129.917 109.996 129.7 109.996 129.388V123.954C109.996 123.538 109.909 123.157 109.736 122.81C109.58 122.463 109.363 122.177 109.086 121.952C108.809 121.727 108.497 121.614 108.15 121.614C107.803 121.614 107.457 121.666 107.11 121.77C106.781 121.874 106.46 122.047 106.148 122.29C105.767 122.567 105.576 123.087 105.576 123.85V129.336C105.576 129.665 105.671 129.891 105.862 130.012C106.053 130.116 106.278 130.211 106.538 130.298C106.677 130.35 106.807 130.411 106.928 130.48C107.049 130.532 107.11 130.627 107.11 130.766C107.11 130.87 107.058 130.948 106.954 131C106.867 131.052 106.755 131.078 106.616 131.078C106.269 131.078 105.983 131.061 105.758 131.026C105.533 131.009 105.325 130.991 105.134 130.974C104.943 130.957 104.692 130.948 104.38 130.948C104.085 130.948 103.825 130.957 103.6 130.974C103.375 130.991 103.141 131.009 102.898 131.026C102.673 131.061 102.387 131.078 102.04 131.078ZM126.924 131.39C125.988 131.39 125.156 131.156 124.428 130.688C123.717 130.203 123.154 129.535 122.738 128.686C122.322 127.819 122.114 126.823 122.114 125.696C122.114 124.673 122.348 123.737 122.816 122.888C123.301 122.039 123.943 121.363 124.74 120.86C125.537 120.34 126.413 120.08 127.366 120.08C128.077 120.08 128.709 120.227 129.264 120.522C129.836 120.799 130.278 121.198 130.59 121.718C130.919 122.221 131.084 122.801 131.084 123.46C131.084 124.032 130.815 124.318 130.278 124.318H124.896C124.653 124.318 124.48 124.387 124.376 124.526C124.272 124.665 124.22 124.916 124.22 125.28C124.22 126.043 124.393 126.745 124.74 127.386C125.087 128.01 125.546 128.513 126.118 128.894C126.69 129.275 127.323 129.466 128.016 129.466C128.536 129.466 129.004 129.371 129.42 129.18C129.853 128.972 130.252 128.686 130.616 128.322C130.668 128.253 130.711 128.201 130.746 128.166C130.798 128.131 130.85 128.114 130.902 128.114C131.058 128.114 131.136 128.209 131.136 128.4C131.136 128.677 131.015 129.007 130.772 129.388C130.529 129.752 130.217 130.09 129.836 130.402C129.472 130.697 129.039 130.931 128.536 131.104C128.051 131.295 127.513 131.39 126.924 131.39ZM124.922 123.434H127.002C127.453 123.434 127.808 123.425 128.068 123.408C128.328 123.391 128.571 123.356 128.796 123.304C128.883 123.269 128.943 123.2 128.978 123.096C129.013 122.975 129.03 122.827 129.03 122.654C129.03 122.169 128.831 121.761 128.432 121.432C128.033 121.085 127.557 120.912 127.002 120.912C126.621 120.912 126.239 121.025 125.858 121.25C125.494 121.475 125.191 121.761 124.948 122.108C124.705 122.437 124.593 122.775 124.61 123.122C124.61 123.33 124.714 123.434 124.922 123.434Z" fill="white"/>
</svg>
