<svg width="160" height="160" viewBox="0 0 160 160" fill="none" xmlns="http://www.w3.org/2000/svg">
<path d="M158 80C158 123.078 123.078 158 80 158C36.9218 158 2 123.078 2 80C2 36.9218 36.9218 2 80 2C123.078 2 158 36.9218 158 80Z" stroke="#C42D1C" stroke-width="4"/>
<path d="M123.821 91.5511C123.839 91.494 123.92 91.4564 124.066 91.4383C124.198 91.4159 124.344 91.3978 124.504 91.384L137.633 90.0115C138.038 89.9628 138.39 89.8589 138.688 89.6997C139 89.5449 139.265 89.2898 139.482 88.9344C139.614 88.7561 139.729 88.6113 139.825 88.5C139.935 88.3931 140.048 88.3571 140.162 88.3918C140.262 88.4222 140.309 88.4989 140.303 88.6219C140.307 88.7635 140.285 88.9129 140.237 89.07C140.128 89.4273 140.003 89.7873 139.862 90.1501C139.731 90.5315 139.608 90.908 139.495 91.2795C139.37 91.6939 139.255 92.0961 139.152 92.4863C139.064 92.8807 138.974 93.228 138.883 93.5281C138.826 93.7138 138.759 93.8573 138.682 93.9586C138.604 94.0599 138.522 94.0975 138.437 94.0715C138.322 94.0368 138.254 93.9536 138.231 93.8219C138.209 93.6902 138.197 93.4992 138.195 93.2489C138.213 93.0358 138.166 92.8812 138.055 92.785C137.939 92.703 137.803 92.6382 137.646 92.5905C137.46 92.534 137.275 92.5012 137.09 92.492C136.906 92.4828 136.804 92.4831 136.786 92.4931C135.919 92.573 135.101 92.6445 134.333 92.7077C133.579 92.7751 132.839 92.8469 132.113 92.9231C131.402 93.0036 130.667 93.0847 129.909 93.1665C129.165 93.2525 128.364 93.3449 127.507 93.4435C127.328 93.4672 127.232 93.5004 127.219 93.5433C127.202 93.6005 127.256 93.6793 127.382 93.7799L130.377 96.3285C130.464 96.4017 130.541 96.4563 130.608 96.4923C130.685 96.547 130.752 96.5829 130.809 96.6003C130.88 96.622 130.963 96.6316 131.058 96.6291C131.152 96.6265 131.263 96.6212 131.39 96.6131L135.509 96.1554C135.976 96.1098 136.408 95.9446 136.807 95.66C137.201 95.3896 137.507 95.0767 137.724 94.7213C137.856 94.5429 137.968 94.4053 138.06 94.3083C138.166 94.2157 138.277 94.1868 138.391 94.2215C138.491 94.2519 138.54 94.3214 138.538 94.4301C138.546 94.5575 138.527 94.6997 138.479 94.8569C138.401 95.1141 138.316 95.3691 138.223 95.622C138.126 95.8891 138.03 96.1563 137.933 96.4234C137.85 96.6949 137.77 96.9592 137.692 97.2164C137.583 97.5736 137.486 97.9187 137.401 98.2517C137.325 98.6033 137.244 98.922 137.157 99.2078C137.096 99.4078 137.027 99.5585 136.95 99.6597C136.868 99.7753 136.784 99.8201 136.698 99.794C136.584 99.7593 136.51 99.6668 136.478 99.5165C136.456 99.3848 136.43 99.2367 136.402 99.0721C136.37 98.9218 136.298 98.7985 136.187 98.7023C136.17 98.6036 136.128 98.5362 136.061 98.5002C135.99 98.4785 135.914 98.4711 135.834 98.478C135.735 98.4948 135.56 98.5042 135.31 98.5062C135.055 98.5225 134.777 98.5394 134.475 98.5569C134.183 98.5931 133.903 98.6171 133.634 98.6291C133.361 98.6553 133.158 98.6796 133.027 98.7021C132.815 98.7314 132.71 98.7696 132.711 98.8168C132.708 98.8783 132.774 98.9687 132.909 99.0879C133.122 99.2617 133.366 99.4606 133.641 99.6847C133.931 99.9132 134.21 100.123 134.48 100.314C134.764 100.51 134.957 100.646 135.058 100.724C135.121 100.774 135.202 100.814 135.302 100.845C135.488 100.901 135.645 100.871 135.774 100.754C135.903 100.637 136.028 100.511 136.147 100.376C136.276 100.259 136.405 100.22 136.533 100.259C136.619 100.285 136.67 100.347 136.687 100.446C136.7 100.559 136.676 100.716 136.615 100.916C136.515 101.245 136.441 101.464 136.392 101.574C136.338 101.698 136.281 101.86 136.22 102.06C136.151 102.289 136.102 102.5 136.074 102.695C136.047 102.889 135.985 103.144 135.889 103.458C135.837 103.629 135.772 103.766 135.695 103.867C135.613 103.983 135.522 104.025 135.422 103.995C135.308 103.96 135.239 103.877 135.217 103.745C135.194 103.614 135.187 103.432 135.195 103.2C135.23 102.727 135.182 102.369 135.053 102.127C134.934 101.903 134.752 101.653 134.508 101.376C134.349 101.234 134.136 101.037 133.869 100.784C133.598 100.546 133.308 100.294 132.998 100.028C132.689 99.7622 132.397 99.5173 132.121 99.2932C132.01 99.197 131.864 99.1135 131.682 99.0428C131.515 98.9764 131.368 98.9473 131.241 98.9555L125.62 99.4251C125.507 99.4376 125.458 99.4696 125.474 99.5212C125.503 99.577 125.555 99.6394 125.627 99.7083C126.545 100.44 127.639 101.256 128.91 102.157C130.177 103.073 131.468 103.988 132.782 104.902C132.975 105.038 133.133 105.133 133.257 105.187C133.391 105.259 133.509 105.31 133.609 105.34C133.813 105.387 134.002 105.382 134.175 105.325C134.358 105.287 134.506 105.16 134.618 104.945C134.705 104.815 134.807 104.682 134.927 104.547C135.046 104.411 135.162 104.361 135.277 104.396C135.363 104.422 135.409 104.498 135.418 104.626C135.421 104.767 135.397 104.924 135.345 105.095C135.241 105.438 135.149 105.715 135.07 105.925C134.99 106.135 134.914 106.361 134.84 106.604C134.759 106.923 134.68 107.234 134.603 107.539C134.54 107.847 134.461 108.159 134.366 108.473C134.309 108.659 134.24 108.81 134.158 108.925C134.091 109.045 134 109.088 133.885 109.053C133.785 109.023 133.719 108.932 133.687 108.782C133.669 108.636 133.661 108.454 133.665 108.237C133.693 107.887 133.642 107.567 133.512 107.277C133.395 106.992 133.235 106.749 133.032 106.546C132.828 106.344 132.634 106.16 132.45 105.995L122.345 98.3367C122.268 98.282 122.183 98.2016 122.091 98.0955C121.998 97.9893 121.965 97.8934 121.991 97.8076C122.013 97.7362 122.079 97.6706 122.191 97.6109C122.284 97.5612 122.394 97.5323 122.522 97.5241C123.299 97.4324 124.026 97.3491 124.705 97.2742C125.397 97.2037 126.121 97.1347 126.875 97.0672C127.624 97.0141 128.477 96.9298 129.433 96.8144C129.546 96.8019 129.602 96.772 129.601 96.7248C129.595 96.6919 129.537 96.6274 129.425 96.5311C128.792 95.9954 128.21 95.4985 127.678 95.0403C127.16 94.5865 126.628 94.1284 126.082 93.6659C125.531 93.2177 124.93 92.7308 124.278 92.205C124.153 92.1044 124.039 91.9917 123.936 91.8669C123.829 91.7564 123.791 91.6512 123.821 91.5511Z" fill="#C42D1C"/>
<path d="M117.073 105.679C117.561 104.982 118.165 104.457 118.886 104.104C119.61 103.773 120.369 103.639 121.163 103.702C121.957 103.766 122.715 104.05 123.437 104.555C123.975 104.932 124.422 105.4 124.778 105.959C125.134 106.518 125.381 107.129 125.52 107.79C125.658 108.452 125.668 109.115 125.549 109.78C125.443 110.453 125.189 111.076 124.786 111.652C124.281 112.373 123.645 112.904 122.88 113.243C122.126 113.59 121.348 113.738 120.545 113.687C119.743 113.636 119.005 113.375 118.332 112.904C117.598 112.39 117.018 111.747 116.592 110.975C116.167 110.203 115.974 109.358 116.016 108.439C116.061 107.541 116.413 106.621 117.073 105.679ZM117.445 106.514C117.197 106.869 117.042 107.234 116.979 107.61C116.929 107.994 116.995 108.368 117.178 108.733C117.356 109.076 117.63 109.414 118 109.746C118.373 110.098 118.774 110.424 119.202 110.724C119.814 111.152 120.457 111.456 121.132 111.637C121.808 111.818 122.431 111.853 123.001 111.742C123.571 111.63 124.018 111.342 124.344 110.877C124.541 110.596 124.672 110.305 124.736 110.004C124.805 109.723 124.793 109.415 124.701 109.077C124.583 108.648 124.323 108.238 123.921 107.848C123.532 107.466 123.075 107.091 122.549 106.723C121.961 106.312 121.33 106.016 120.655 105.835C119.979 105.654 119.355 105.609 118.781 105.699C118.199 105.802 117.754 106.074 117.445 106.514Z" fill="#C42D1C"/>
<path d="M113.767 110.216C113.863 110.123 113.959 110.061 114.055 110.031C114.139 110.011 114.213 110.033 114.276 110.097C114.359 110.183 114.384 110.273 114.351 110.368C114.317 110.483 114.263 110.609 114.187 110.745C114.014 111.017 113.931 111.243 113.939 111.423C113.937 111.613 114.013 111.788 114.169 111.949L117.603 115.484C117.863 115.752 118.119 115.94 118.371 116.049C118.633 116.169 118.914 116.137 119.212 115.951C119.265 115.92 119.334 115.905 119.419 115.906C119.492 115.918 119.56 115.956 119.623 116.02C119.737 116.138 119.757 116.265 119.681 116.401C119.464 116.778 119.257 117.208 119.06 117.691C118.873 118.185 118.73 118.595 118.63 118.92C118.608 119.026 118.58 119.115 118.547 119.189C118.514 119.262 118.487 119.309 118.466 119.33C118.391 119.403 118.312 119.396 118.229 119.311C118.187 119.268 118.104 119.172 117.979 119.022C117.844 118.883 117.699 118.722 117.543 118.54C117.387 118.358 117.231 118.187 117.075 118.027C117.033 117.984 117.002 117.973 116.98 117.994C117.017 118.374 117.022 118.754 116.996 119.134C116.958 119.524 116.874 119.888 116.742 120.224C116.621 120.57 116.453 120.848 116.239 121.056C115.96 121.326 115.689 121.476 115.425 121.503C115.171 121.542 114.955 121.47 114.778 121.288C114.664 121.17 114.566 120.995 114.485 120.761C114.403 120.549 114.364 120.326 114.368 120.094C114.371 119.883 114.437 119.715 114.565 119.59C114.64 119.517 114.736 119.455 114.853 119.404C114.98 119.364 115.113 119.318 115.251 119.267C115.378 119.227 115.506 119.176 115.634 119.114C115.761 119.074 115.867 119.012 115.953 118.929C116.221 118.669 116.374 118.333 116.411 117.922C116.449 117.511 116.197 117.026 115.656 116.469L112.722 113.449C112.555 113.277 112.356 113.211 112.123 113.25C111.89 113.289 111.593 113.401 111.231 113.585C111.082 113.668 110.954 113.719 110.849 113.738C110.753 113.769 110.669 113.746 110.596 113.671C110.471 113.543 110.51 113.38 110.714 113.182C111.035 112.87 111.329 112.615 111.596 112.418C111.842 112.221 112.104 111.988 112.383 111.717C112.565 111.54 112.72 111.379 112.849 111.233C112.978 111.087 113.112 110.936 113.252 110.779C113.381 110.612 113.553 110.425 113.767 110.216Z" fill="#C42D1C"/>
<path d="M108.815 114.95C109.088 114.767 109.274 114.749 109.374 114.898C109.441 114.997 109.443 115.095 109.382 115.19C109.32 115.286 109.25 115.396 109.172 115.52C109.028 115.707 108.904 115.898 108.802 116.093C108.699 116.289 108.735 116.516 108.91 116.776L115.075 125.938C115.351 126.347 115.615 126.619 115.868 126.755C116.121 126.891 116.428 126.891 116.787 126.757C116.916 126.707 117.03 126.756 117.13 126.905C117.221 127.041 117.226 127.155 117.144 127.247C116.863 127.525 116.62 127.806 116.414 128.088C116.196 128.379 115.998 128.647 115.821 128.892C115.64 129.158 115.482 129.391 115.346 129.59C115.284 129.686 115.229 129.75 115.179 129.784C115.129 129.817 115.086 129.819 115.049 129.79C115.007 129.782 114.966 129.747 114.924 129.685C114.849 129.574 114.728 129.34 114.56 128.985C114.381 128.638 114.083 128.154 113.666 127.535L109.364 121.142C109.28 121.018 109.202 120.981 109.127 121.031C109.065 121.073 109.001 121.152 108.936 121.268C108.87 121.384 108.817 121.519 108.776 121.673C108.564 122.427 108.409 123.107 108.313 123.712C108.216 124.317 108.16 124.742 108.144 124.987C108.145 125.094 108.145 125.175 108.145 125.229C108.141 125.304 108.152 125.359 108.177 125.397C108.219 125.459 108.312 125.477 108.457 125.451C108.598 125.447 108.744 125.411 108.897 125.344C109.063 125.268 109.179 125.28 109.245 125.38C109.296 125.454 109.296 125.535 109.247 125.622C109.193 125.73 109.111 125.821 108.999 125.896L108.089 126.509C107.89 126.642 107.669 126.809 107.426 127.009C107.178 127.229 106.943 127.442 106.72 127.646C106.498 127.85 106.324 127.993 106.2 128.077C106.039 128.185 105.913 128.171 105.821 128.035C105.771 127.96 105.769 127.863 105.814 127.743C105.847 127.631 105.918 127.51 106.03 127.381C106.219 127.182 106.39 126.941 106.542 126.659C106.703 126.389 106.846 126.121 106.974 125.855C107.048 125.698 107.148 125.432 107.275 125.059C107.401 124.685 107.53 124.275 107.661 123.827C107.791 123.379 107.908 122.95 108.009 122.539C108.042 122.427 108.037 122.341 107.996 122.279C107.979 122.254 107.956 122.233 107.927 122.217C107.886 122.209 107.85 122.196 107.821 122.18C107.232 122 106.637 121.825 106.036 121.653C105.435 121.482 104.877 121.335 104.363 121.213C103.849 121.091 103.432 120.994 103.113 120.92C102.761 120.852 102.394 120.828 102.013 120.851C101.62 120.881 101.305 120.922 101.069 120.973C100.92 121.019 100.773 121.055 100.629 121.08C100.48 121.126 100.372 121.1 100.305 121.001C100.205 120.852 100.279 120.695 100.527 120.528C101.109 120.136 101.731 119.736 102.392 119.327C103.032 118.914 103.668 118.495 104.3 118.07C104.535 117.911 104.699 117.9 104.79 118.037C104.84 118.111 104.851 118.194 104.822 118.285C104.79 118.397 104.732 118.499 104.65 118.59C104.559 118.723 104.494 118.839 104.453 118.939C104.407 119.059 104.418 119.169 104.485 119.268C104.51 119.305 104.552 119.34 104.61 119.373C104.668 119.406 104.743 119.437 104.834 119.465L108.635 120.58C108.734 120.621 108.809 120.625 108.858 120.591C108.912 120.537 108.914 120.473 108.864 120.399C108.751 120.204 108.628 120.008 108.495 119.81C108.361 119.612 108.224 119.407 108.082 119.197C107.948 118.998 107.803 118.782 107.644 118.546C107.494 118.323 107.342 118.111 107.188 117.908C107.038 117.685 106.874 117.562 106.695 117.538C106.517 117.514 106.314 117.533 106.087 117.596C105.963 117.626 105.841 117.645 105.721 117.654C105.609 117.675 105.52 117.636 105.453 117.537C105.395 117.45 105.407 117.361 105.489 117.27C105.563 117.166 105.631 117.093 105.693 117.051C105.929 116.893 106.129 116.776 106.294 116.701C106.451 116.613 106.596 116.534 106.728 116.463C106.86 116.392 107.038 116.281 107.261 116.131C107.472 115.989 107.647 115.862 107.787 115.75C107.928 115.637 108.074 115.521 108.227 115.4C108.371 115.267 108.567 115.117 108.815 114.95Z" fill="#C42D1C"/>
<path d="M70.7788 132.135C70.8968 132.154 71.0003 132.215 71.0895 132.32C71.1615 132.438 71.1932 132.571 71.1845 132.721L71.1727 134.647C71.4003 134.547 71.6757 134.432 71.9988 134.302C72.3072 134.17 72.6315 134.033 72.9717 133.89C73.023 133.853 73.0793 133.832 73.1406 133.826C73.202 133.821 73.2621 133.823 73.3211 133.832C73.4391 133.851 73.5439 133.906 73.6353 133.996C73.7121 134.084 73.7411 134.186 73.7223 134.304C73.6941 134.481 73.5872 134.631 73.4015 134.752L71.7327 135.689C71.9352 135.842 72.1721 136.016 72.4436 136.21C72.7151 136.405 72.9928 136.608 73.2766 136.819C73.3581 136.878 73.4275 136.964 73.4848 137.079C73.5273 137.192 73.5416 137.292 73.5275 137.381C73.497 137.573 73.3959 137.685 73.2243 137.718C73.0527 137.751 72.8978 137.727 72.7597 137.644C72.4564 137.46 72.1667 137.285 71.8905 137.12C71.6143 136.955 71.3443 136.799 71.0806 136.651C71.0631 136.951 71.0445 137.258 71.0247 137.572C70.9901 137.884 70.9447 138.217 70.8883 138.571C70.8649 138.719 70.8069 138.846 70.7144 138.952C70.6195 139.073 70.4898 139.128 70.3252 139.117C70.1948 139.081 70.0936 139.004 70.0215 138.887C69.9471 138.784 69.9131 138.665 69.9195 138.53L69.9534 136.608C69.7258 136.708 69.4578 136.824 69.1494 136.956C68.8387 137.103 68.5144 137.241 68.1765 137.368C68.1252 137.406 68.0689 137.427 68.0076 137.432C67.9439 137.452 67.8826 137.458 67.8236 137.448C67.7056 137.429 67.6008 137.375 67.5093 137.285C67.4155 137.209 67.3803 137.098 67.4038 136.95C67.4296 136.788 67.5354 136.646 67.7211 136.525L69.3934 135.566C69.1762 135.41 68.938 135.244 68.679 135.067C68.4051 134.887 68.1275 134.684 67.8459 134.458C67.7497 134.397 67.6804 134.31 67.6378 134.198C67.5782 134.098 67.5565 133.996 67.573 133.893C67.6011 133.716 67.701 133.611 67.8727 133.577C68.0443 133.544 68.2015 133.554 68.3442 133.607C68.6452 133.806 68.935 133.981 69.2135 134.131C69.492 134.281 69.762 134.438 70.0234 134.6C70.0338 134.345 70.0587 134.046 70.0979 133.705C70.1224 133.361 70.1554 133.011 70.197 132.655C70.2205 132.507 70.2797 132.373 70.3745 132.252C70.4671 132.146 70.6018 132.107 70.7788 132.135Z" fill="#C42D1C"/>
<path d="M48.0803 110.776C48.121 110.819 48.1124 110.909 48.0547 111.044C48.0079 111.169 47.9501 111.305 47.8814 111.45L42.467 123.489C42.3055 123.864 42.2185 124.22 42.2063 124.557C42.1831 124.905 42.2705 125.262 42.4685 125.629C42.5562 125.833 42.6239 126.004 42.6717 126.143C42.7085 126.293 42.6832 126.408 42.5957 126.489C42.5191 126.561 42.4292 126.563 42.326 126.495C42.2017 126.427 42.0836 126.333 41.9717 126.213C41.7175 125.94 41.4691 125.651 41.2266 125.346C40.963 125.04 40.699 124.746 40.4346 124.461C40.1397 124.144 39.8495 123.843 39.564 123.558C39.2676 123.283 39.0126 123.031 38.799 122.801C38.6668 122.659 38.5765 122.529 38.5279 122.411C38.4794 122.293 38.4879 122.203 38.5535 122.142C38.641 122.061 38.7473 122.044 38.8724 122.09C38.9975 122.137 39.1688 122.223 39.3861 122.347C39.5613 122.469 39.7185 122.507 39.8576 122.459C39.9865 122.4 40.1111 122.315 40.2314 122.203C40.3736 122.071 40.495 121.928 40.5957 121.773C40.6965 121.618 40.7472 121.53 40.748 121.509C41.1148 120.719 41.4641 119.976 41.7958 119.28C42.1166 118.595 42.4265 117.919 42.7254 117.254C43.0133 116.598 43.3126 115.923 43.6233 115.226C43.9229 114.539 44.2457 113.801 44.5914 113.01C44.6608 112.844 44.6803 112.744 44.6498 112.711C44.6091 112.668 44.5138 112.675 44.3637 112.733L40.6549 114.04C40.5479 114.079 40.4619 114.118 40.3971 114.158C40.3111 114.197 40.2463 114.237 40.2025 114.277C40.1478 114.328 40.0979 114.395 40.0526 114.478C40.0073 114.561 39.9562 114.659 39.8992 114.774L38.224 118.564C38.0289 118.99 37.9541 119.447 37.9998 119.935C38.0353 120.412 38.1521 120.833 38.3501 121.2C38.4378 121.404 38.5004 121.57 38.538 121.698C38.5647 121.836 38.5343 121.946 38.4468 122.027C38.3702 122.099 38.2854 122.106 38.1924 122.05C38.0782 121.993 37.9652 121.904 37.8533 121.784C37.6703 121.587 37.4927 121.385 37.3206 121.178C37.1384 120.96 36.9561 120.742 36.7738 120.524C36.5806 120.316 36.3925 120.114 36.2094 119.917C35.9552 119.644 35.7057 119.387 35.4609 119.145C35.1949 118.903 34.9603 118.673 34.7569 118.454C34.6145 118.301 34.5191 118.165 34.4706 118.047C34.4118 117.918 34.4153 117.823 34.4809 117.762C34.5684 117.681 34.6852 117.664 34.8314 117.712C34.9565 117.758 35.0973 117.811 35.2536 117.87C35.3998 117.917 35.5425 117.917 35.6816 117.869C35.7754 117.904 35.8547 117.902 35.9196 117.862C35.9743 117.811 36.0188 117.75 36.0531 117.677C36.0882 117.583 36.1679 117.427 36.292 117.21C36.406 116.982 36.5312 116.733 36.6678 116.463C36.7833 116.192 36.9035 115.938 37.0284 115.699C37.1432 115.45 37.2239 115.263 37.2708 115.138C37.3519 114.94 37.3718 114.83 37.3303 114.807C37.2787 114.773 37.1673 114.785 36.9962 114.842C36.7391 114.939 36.4445 115.049 36.1124 115.175C35.7693 115.31 35.4474 115.446 35.1466 115.583C34.8348 115.731 34.6199 115.828 34.5019 115.877C34.4269 115.906 34.3511 115.956 34.2745 116.027C34.1324 116.159 34.0793 116.311 34.1154 116.481C34.1515 116.651 34.1981 116.822 34.2553 116.993C34.2913 117.164 34.2602 117.295 34.1617 117.386C34.0961 117.447 34.0164 117.46 33.9226 117.425C33.8186 117.379 33.6954 117.279 33.553 117.126C33.3192 116.875 33.167 116.7 33.0966 116.603C33.016 116.494 32.9045 116.363 32.7622 116.21C32.5995 116.035 32.4411 115.887 32.287 115.765C32.133 115.643 31.9441 115.462 31.7203 115.221C31.5983 115.09 31.513 114.965 31.4645 114.847C31.4058 114.718 31.4147 114.618 31.4913 114.547C31.5787 114.466 31.685 114.448 31.8101 114.495C31.9352 114.542 32.0959 114.627 32.2922 114.751C32.684 115.018 33.0171 115.157 33.2914 115.167C33.5447 115.176 33.8522 115.145 34.2141 115.074C34.4173 115.007 34.6951 114.922 35.0475 114.819C35.3898 114.705 35.7536 114.581 36.1389 114.447C36.5241 114.313 36.8828 114.183 37.2149 114.058C37.354 114.01 37.4997 113.926 37.6521 113.804C37.7935 113.693 37.8927 113.581 37.9497 113.466L40.3697 108.372C40.4157 108.268 40.4125 108.209 40.3602 108.197C40.2968 108.195 40.2171 108.207 40.121 108.236C39.0278 108.661 37.772 109.196 36.3538 109.842C34.9254 110.477 33.4856 111.133 32.0346 111.809C31.8197 111.907 31.658 111.996 31.5494 112.077C31.4197 112.156 31.3165 112.232 31.24 112.303C31.097 112.456 31.0065 112.622 30.9683 112.8C30.909 112.978 30.9443 113.169 31.0742 113.375C31.1431 113.515 31.2061 113.67 31.2633 113.841C31.3205 114.013 31.3053 114.139 31.2178 114.22C31.1522 114.281 31.0623 114.283 30.9482 114.226C30.8239 114.158 30.7007 114.059 30.5786 113.928C30.3346 113.665 30.1418 113.447 30.0002 113.272C29.8586 113.098 29.7013 112.918 29.5285 112.732C29.2938 112.502 29.0643 112.277 28.8398 112.057C28.6043 111.848 28.3748 111.623 28.1511 111.383C28.0189 111.24 27.9234 111.105 27.8647 110.976C27.7951 110.857 27.804 110.757 27.8915 110.676C27.968 110.605 28.0794 110.593 28.2256 110.64C28.3609 110.698 28.5215 110.783 28.7077 110.896C28.9962 111.096 29.2984 111.213 29.6142 111.246C29.9191 111.288 30.2102 111.273 30.4877 111.198C30.7651 111.124 31.0214 111.048 31.2567 110.972L42.9569 106.088C43.0429 106.049 43.155 106.016 43.2933 105.989C43.4317 105.963 43.5313 105.982 43.5924 106.048C43.6432 106.102 43.6663 106.193 43.6617 106.32C43.6579 106.425 43.6275 106.535 43.5705 106.649C43.2591 107.367 42.9653 108.038 42.689 108.662C42.4018 109.296 42.0978 109.956 41.777 110.642C41.446 111.316 41.0902 112.096 40.7093 112.98C40.6633 113.084 40.661 113.148 40.7024 113.17C40.7337 113.182 40.8189 113.164 40.958 113.116C41.7394 112.838 42.4619 112.584 43.1253 112.355C43.7779 112.136 44.4413 111.906 45.1157 111.666C45.78 111.416 46.5032 111.141 47.2854 110.842C47.4354 110.784 47.5902 110.742 47.7496 110.716C47.8989 110.679 48.0091 110.699 48.0803 110.776Z" fill="#C42D1C"/>
<path d="M39.2565 97.8491C39.6142 98.6215 39.7643 99.4077 39.707 100.208C39.6297 101.001 39.3642 101.724 38.9103 102.379C38.4564 103.033 37.8297 103.546 37.0302 103.916C36.4339 104.192 35.8047 104.344 35.1424 104.37C34.4802 104.397 33.8282 104.304 33.1865 104.091C32.5448 103.878 31.9665 103.554 31.4518 103.117C30.9235 102.687 30.5118 102.154 30.2169 101.517C29.8467 100.717 29.7074 99.9014 29.7992 99.069C29.8774 98.2428 30.1403 97.4957 30.5879 96.8276C31.0356 96.1595 31.632 95.6529 32.3773 95.3078C33.1904 94.9313 34.0376 94.7529 34.9189 94.7726C35.8003 94.7923 36.6277 95.051 37.4012 95.5485C38.1549 96.0388 38.7733 96.8057 39.2565 97.8491ZM38.3474 97.7517C38.1654 97.3587 37.9277 97.0409 37.6343 96.7983C37.3274 96.5619 36.9705 96.4309 36.5637 96.4054C36.1767 96.3871 35.7471 96.4544 35.2748 96.6073C34.7827 96.7529 34.2995 96.9355 33.8253 97.1551C33.1477 97.4689 32.561 97.8723 32.0652 98.3652C31.5694 98.8581 31.2264 99.379 31.0362 99.9279C30.8461 100.477 30.8702 101.009 31.1087 101.524C31.253 101.835 31.439 102.095 31.6666 102.302C31.8744 102.502 32.1474 102.647 32.4854 102.737C32.9163 102.851 33.4013 102.832 33.9403 102.681C34.4658 102.536 35.0199 102.329 35.6026 102.059C36.253 101.758 36.8261 101.361 37.322 100.868C37.8178 100.375 38.1707 99.8577 38.3807 99.3161C38.5844 98.761 38.5733 98.2395 38.3474 97.7517Z" fill="#C42D1C"/>
<path d="M37.0112 92.7768C37.0434 92.9073 37.0484 93.0214 37.0264 93.1191C37.0008 93.2023 36.9445 93.2547 36.8575 93.2761C36.7415 93.3047 36.651 93.2809 36.5861 93.2046C36.5031 93.1175 36.4219 93.0067 36.3426 92.8725C36.195 92.5859 36.0417 92.4007 35.8826 92.3169C35.7199 92.2186 35.5298 92.1963 35.3124 92.2499L30.5278 93.4302C30.1653 93.5196 29.8734 93.6454 29.6519 93.8077C29.416 93.9736 29.3029 94.2322 29.3127 94.5836C29.3125 94.6451 29.2905 94.7121 29.2468 94.7844C29.1996 94.8422 29.1324 94.8818 29.0454 94.9033C28.886 94.9426 28.7666 94.8951 28.6873 94.7609C28.4712 94.3835 28.2044 93.9879 27.887 93.574C27.555 93.1637 27.2736 92.8332 27.0426 92.5826C26.9631 92.5099 26.8999 92.4409 26.8531 92.3756C26.8062 92.3102 26.7792 92.2631 26.772 92.2341C26.747 92.1326 26.7924 92.0675 26.9084 92.0389C26.9664 92.0246 27.0915 92.0014 27.2835 91.9694C27.472 91.923 27.684 91.8783 27.9196 91.8356C28.1551 91.7929 28.3817 91.7447 28.5991 91.6911C28.6571 91.6768 28.6826 91.6551 28.6754 91.6261C28.3282 91.4657 27.9974 91.2781 27.683 91.0634C27.3649 90.8342 27.0941 90.5781 26.8704 90.2948C26.6323 90.0152 26.4774 89.7304 26.4059 89.4404C26.3129 89.0635 26.3211 88.7538 26.4305 88.5115C26.5254 88.2728 26.6961 88.123 26.9426 88.0622C27.1021 88.0228 27.3031 88.0271 27.5456 88.0749C27.7701 88.1119 27.9817 88.1904 28.1805 88.3105C28.3613 88.4198 28.4731 88.5614 28.516 88.7353C28.5411 88.8368 28.5461 88.9509 28.5313 89.0777C28.5019 89.208 28.4743 89.3455 28.4485 89.4903C28.4191 89.6206 28.3987 89.7563 28.3874 89.8976C28.3581 90.0279 28.3577 90.151 28.3863 90.267C28.4757 90.6295 28.6884 90.9307 29.0245 91.1708C29.3606 91.4109 29.9056 91.438 30.6595 91.252L34.7482 90.2434C34.9802 90.1862 35.1382 90.0473 35.2221 89.8266C35.3061 89.6059 35.3596 89.2928 35.3826 88.8872C35.3868 88.717 35.4071 88.5812 35.4437 88.4799C35.4657 88.3822 35.5275 88.3208 35.629 88.2958C35.803 88.2529 35.9239 88.3692 35.9919 88.6446C36.0992 89.0796 36.1704 89.4619 36.2056 89.7916C36.2517 90.1033 36.3213 90.4476 36.4142 90.8245C36.475 91.071 36.5359 91.2867 36.5969 91.4716C36.6579 91.6565 36.7207 91.8487 36.7853 92.0481C36.8644 92.2439 36.9397 92.4868 37.0112 92.7768Z" fill="#C42D1C"/>
<path d="M35.4154 86.1507C35.4357 86.4786 35.3564 86.6481 35.1776 86.6591C35.0583 86.6665 34.9731 86.6194 34.922 86.5178C34.8708 86.4163 34.8113 86.3003 34.7433 86.1698C34.655 85.9508 34.5527 85.7477 34.4364 85.5604C34.3201 85.3731 34.1054 85.2891 33.7924 85.3084L22.7702 85.9897C22.2784 86.0201 21.9099 86.1102 21.6648 86.26C21.4197 86.4098 21.264 86.6738 21.1976 87.052C21.176 87.1879 21.0759 87.2615 20.897 87.2725C20.733 87.2827 20.6325 87.229 20.5953 87.1116C20.4968 86.7287 20.3778 86.377 20.2383 86.0564C20.0979 85.721 19.9668 85.4149 19.8449 85.1382C19.7073 84.8474 19.5868 84.593 19.4835 84.375C19.4324 84.2734 19.405 84.1928 19.4013 84.1332C19.3976 84.0736 19.4176 84.035 19.4614 84.0173C19.4894 83.9856 19.5407 83.9675 19.6152 83.9629C19.7493 83.9546 20.012 83.9683 20.4032 84.004C20.7935 84.0247 21.3613 84.0121 22.1065 83.966L29.7974 83.4906C29.9465 83.4814 30.0182 83.4321 30.0127 83.3427C30.0081 83.2681 29.9723 83.1731 29.9053 83.0575C29.8383 82.942 29.749 82.8278 29.6373 82.715C29.0937 82.1502 28.5854 81.6729 28.1124 81.2832C27.6395 80.8935 27.3015 80.6301 27.0986 80.493C27.0055 80.4389 26.9356 80.3984 26.8891 80.3713C26.8267 80.3303 26.7731 80.3111 26.7284 80.3139C26.6539 80.3185 26.591 80.3897 26.5396 80.5276C26.4725 80.6514 26.4291 80.7962 26.4094 80.962C26.3906 81.1427 26.3216 81.2368 26.2024 81.2441C26.113 81.2497 26.0431 81.2091 25.9929 81.1224C25.9268 81.0218 25.8896 80.9044 25.8813 80.7702L25.8136 79.6747C25.7989 79.4363 25.7669 79.1614 25.7178 78.8503C25.6528 78.5251 25.5887 78.2149 25.5256 77.9196C25.4625 77.6242 25.4263 77.402 25.4171 77.253C25.4051 77.0592 25.4811 76.9573 25.645 76.9471C25.7345 76.9416 25.8197 76.9887 25.9006 77.0884C25.9807 77.1733 26.0481 77.2963 26.103 77.4575C26.1792 77.7221 26.3006 77.9913 26.4671 78.2653C26.6188 78.5402 26.777 78.7998 26.9417 79.0439C27.0403 79.1875 27.2185 79.4084 27.4764 79.7066C27.7342 80.0049 28.0232 80.3237 28.3434 80.6629C28.6636 81.0022 28.975 81.3196 29.2775 81.6151C29.3576 81.7 29.4349 81.7401 29.5094 81.7355C29.5392 81.7336 29.5686 81.7243 29.5975 81.7076C29.6254 81.6759 29.6538 81.6517 29.6827 81.635C30.1357 81.218 30.5883 80.7935 31.0404 80.3616C31.4924 79.9297 31.9012 79.5229 32.2666 79.1412C32.632 78.7595 32.9271 78.4496 33.1517 78.2112C33.3894 77.9422 33.5951 77.6377 33.7686 77.2978C33.9411 76.9431 34.0652 76.6511 34.1408 76.422C34.1763 76.2702 34.2197 76.1254 34.2711 75.9875C34.3066 75.8357 34.3839 75.7561 34.5032 75.7488C34.682 75.7377 34.7807 75.8812 34.7991 76.1793C34.8424 76.8799 34.8731 77.6186 34.8912 78.3955C34.9233 79.1565 34.9628 79.9172 35.0098 80.6773C35.0273 80.9605 34.9541 81.1072 34.7901 81.1173C34.7007 81.1228 34.6239 81.0902 34.5596 81.0193C34.4796 80.9345 34.421 80.8334 34.3838 80.716C34.315 80.5706 34.248 80.4551 34.1828 80.3693C34.1019 80.2696 34.0017 80.2234 33.8825 80.2308C33.8378 80.2336 33.7865 80.2517 33.7288 80.2852C33.671 80.3187 33.6067 80.3675 33.5358 80.4318L30.6514 83.1461C30.5657 83.2112 30.5246 83.2736 30.5283 83.3332C30.5478 83.4068 30.6023 83.4409 30.6917 83.4354C30.9162 83.4364 31.1477 83.4296 31.3862 83.4149C31.6247 83.4001 31.8706 83.3849 32.124 83.3693C32.3625 83.3545 32.6233 83.3384 32.9065 83.3209C33.1748 83.3043 33.4352 83.2807 33.6876 83.2502C33.9559 83.2336 34.1455 83.1545 34.2565 83.013C34.3674 82.8715 34.4532 82.6867 34.5139 82.4585C34.5513 82.3365 34.5965 82.2215 34.6497 82.1135C34.688 82.0064 34.7667 81.9491 34.886 81.9418C34.9903 81.9353 35.0611 81.9908 35.0982 82.1082C35.1503 82.2246 35.1787 82.3201 35.1833 82.3947C35.2008 82.6779 35.2002 82.9098 35.1814 83.0905C35.1776 83.2703 35.1728 83.4352 35.1671 83.5851C35.1614 83.7351 35.1668 83.9442 35.1834 84.2125C35.1991 84.4659 35.2199 84.6816 35.2459 84.8595C35.2718 85.0374 35.2982 85.2228 35.3251 85.4157C35.3669 85.6076 35.397 85.8526 35.4154 86.1507Z" fill="#C42D1C"/>
<path d="M39.5547 44.7492C39.4789 44.8415 39.3732 44.8997 39.2376 44.9236C39.1 44.9266 38.9687 44.8865 38.8438 44.8033L37.1872 43.8205C37.1585 44.0673 37.1187 44.3631 37.0677 44.7076C37.0262 45.0406 36.981 45.3899 36.9322 45.7555C36.9384 45.8185 36.9283 45.8779 36.9019 45.9335C36.8756 45.9892 36.8435 46.0401 36.8056 46.0863C36.7298 46.1786 36.6299 46.2415 36.5058 46.2749C36.3913 46.2968 36.2878 46.2699 36.1955 46.1941C36.057 46.0804 35.9821 45.9127 35.9709 45.691L36.0053 43.7777C35.7708 43.8751 35.5011 43.9918 35.1962 44.128C34.8913 44.2641 34.5759 44.4013 34.25 44.5395C34.1585 44.5803 34.0487 44.5964 33.9205 44.5878C33.8018 44.5677 33.7078 44.5292 33.6385 44.4723C33.4885 44.3492 33.4425 44.2052 33.5005 44.0403C33.5585 43.8754 33.658 43.7542 33.7989 43.6767C34.1112 43.508 34.4083 43.3461 34.6901 43.191C34.972 43.0359 35.2433 42.8819 35.5041 42.7289C35.2543 42.5625 34.9987 42.3914 34.7373 42.2155C34.4854 42.0281 34.2209 41.8207 33.9439 41.5933C33.8285 41.4986 33.7483 41.3845 33.7033 41.251C33.6468 41.108 33.6648 40.9683 33.7575 40.8318C33.8543 40.7374 33.9715 40.6887 34.1092 40.6858C34.2353 40.6734 34.355 40.704 34.4684 40.7777L36.1107 41.7778C36.1394 41.531 36.1746 41.241 36.216 40.908C36.246 40.5655 36.2911 40.2162 36.3516 39.8601C36.3454 39.7971 36.3554 39.7377 36.3818 39.6821C36.3966 39.617 36.4229 39.5613 36.4608 39.5152C36.5366 39.4228 36.6365 39.3599 36.7606 39.3265C36.8731 39.2836 36.987 39.3095 37.1025 39.4042C37.2294 39.5084 37.2985 39.6714 37.3098 39.8931L37.2927 41.8206C37.5366 41.7117 37.8005 41.5902 38.0844 41.4561C38.3778 41.3105 38.6932 41.1734 39.0307 41.0446C39.1316 40.9923 39.2414 40.9761 39.3601 40.9963C39.4768 40.9954 39.5755 41.0281 39.6563 41.0944C39.7948 41.2081 39.8351 41.3474 39.777 41.5123C39.719 41.6771 39.6311 41.8078 39.5132 41.9043C39.1894 42.0635 38.8923 42.2254 38.622 42.39C38.3517 42.5545 38.0804 42.7086 37.8081 42.8521C38.0233 42.9901 38.2684 43.1622 38.5433 43.3686C38.8278 43.5634 39.1133 43.7687 39.3998 43.9845C39.5152 44.0793 39.6012 44.1981 39.6577 44.3411C39.7027 44.4746 39.6683 44.6106 39.5547 44.7492Z" fill="#C42D1C"/>
<path d="M63.3571 37.6935C63.3013 37.7147 63.2216 37.673 63.118 37.5686C63.0198 37.4781 62.9163 37.3736 62.8074 37.2552L53.6959 27.7034C53.4098 27.4127 53.1127 27.198 52.8046 27.0594C52.4911 26.9068 52.1273 26.8532 51.7133 26.8985C51.4913 26.9029 51.3069 26.901 51.1601 26.8929C51.0079 26.8707 50.9107 26.8038 50.8683 26.6921C50.8312 26.5944 50.8632 26.5104 50.9643 26.4401C51.074 26.3505 51.2057 26.2766 51.3593 26.2183C51.7083 26.0858 52.0696 25.9647 52.4432 25.8548C52.8255 25.7257 53.1981 25.5923 53.5612 25.4545C53.966 25.3009 54.3543 25.1455 54.726 24.9885C55.0924 24.8175 55.4221 24.6764 55.7153 24.5651C55.8968 24.4962 56.0514 24.4615 56.179 24.461C56.3066 24.4605 56.3863 24.5022 56.418 24.5859C56.4604 24.6976 56.4364 24.8026 56.3459 24.9008C56.2554 24.9991 56.1117 25.1255 55.9148 25.2801C55.7352 25.3961 55.6414 25.5276 55.6332 25.6744C55.639 25.816 55.671 25.9636 55.7293 26.1171C55.7982 26.2986 55.8854 26.4652 55.9909 26.6169C56.0963 26.7685 56.1587 26.8487 56.1779 26.8573C56.7712 27.4947 57.3277 28.0981 57.8473 28.6676C58.3616 29.2231 58.8706 29.7647 59.3743 30.2923C59.8727 30.8059 60.3861 31.3379 60.9143 31.8881C61.4373 32.4244 61.9997 33.0015 62.6017 33.6196C62.7298 33.7467 62.8148 33.8023 62.8567 33.7864C62.9125 33.7652 62.9419 33.6742 62.9447 33.5134L63.1311 29.5853C63.1359 29.4717 63.132 29.3773 63.1195 29.3022C63.1156 29.2078 63.1031 29.1327 63.0819 29.0769C63.0554 29.0071 63.0123 28.9356 62.9526 28.8624C62.8929 28.7892 62.8209 28.7048 62.7366 28.609L59.8566 25.6289C59.5354 25.2876 59.1404 25.0462 58.6714 24.9048C58.2164 24.758 57.7818 24.7073 57.3678 24.7526C57.1458 24.757 56.9684 24.7524 56.8355 24.739C56.6973 24.7116 56.607 24.642 56.5646 24.5303C56.5276 24.4326 56.5526 24.3512 56.6397 24.2862C56.7355 24.2019 56.8602 24.1306 57.0138 24.0723C57.2651 23.977 57.519 23.8886 57.7757 23.8072C58.0462 23.7205 58.3168 23.6337 58.5874 23.547C58.8526 23.4464 59.1109 23.3483 59.3622 23.253C59.7113 23.1205 60.0437 22.9863 60.3595 22.8505C60.684 22.6954 60.9859 22.5649 61.2651 22.4589C61.4606 22.3847 61.6221 22.3474 61.7497 22.3469C61.8912 22.3411 61.9779 22.3801 62.0097 22.4638C62.0521 22.5755 62.0237 22.6901 61.9245 22.8076C61.8341 22.9059 61.7322 23.0164 61.6191 23.1392C61.52 23.2567 61.4663 23.3888 61.4581 23.5357C61.3903 23.6094 61.3626 23.6838 61.3751 23.7589C61.4016 23.8287 61.4421 23.8932 61.4965 23.9524C61.5702 24.0203 61.6843 24.1527 61.8389 24.3496C62.0074 24.5412 62.1909 24.751 62.3893 24.9792C62.5964 25.1881 62.7868 25.3954 62.9607 25.6009C63.1485 25.8012 63.2915 25.9466 63.3897 26.0371C63.5424 26.1868 63.637 26.2467 63.6736 26.2169C63.7241 26.1817 63.7552 26.0741 63.7667 25.894C63.7744 25.6196 63.7827 25.3049 63.7918 24.9501C63.7956 24.5813 63.7907 24.2317 63.7772 23.9015C63.7584 23.5572 63.7487 23.3213 63.7482 23.1937C63.7496 23.1133 63.7318 23.0242 63.6947 22.9265C63.6258 22.745 63.5057 22.6388 63.3343 22.6081C63.1629 22.5773 62.9871 22.5561 62.807 22.5446C62.6356 22.5138 62.5261 22.4356 62.4784 22.3099C62.4466 22.2262 62.4646 22.1474 62.5325 22.0738C62.6144 21.9948 62.753 21.9182 62.9485 21.844C63.2696 21.7222 63.4886 21.647 63.6056 21.6186C63.7366 21.5849 63.8998 21.5309 64.0953 21.4567C64.3186 21.372 64.5158 21.2812 64.6867 21.1844C64.8576 21.0876 65.0966 20.9809 65.4038 20.8643C65.5713 20.8007 65.7189 20.7687 65.8465 20.7682C65.988 20.7624 66.0774 20.8083 66.1145 20.9061C66.1568 21.0178 66.1328 21.1227 66.0423 21.221C65.9518 21.3192 65.8124 21.436 65.6242 21.5713C65.2285 21.8333 64.9743 22.0895 64.8617 22.3399C64.7577 22.571 64.6706 22.8676 64.6004 23.2297C64.5855 23.443 64.5596 23.7323 64.5225 24.0978C64.4995 24.4579 64.4774 24.8416 64.4563 25.249C64.4352 25.6563 64.4201 26.0374 64.411 26.3922C64.4028 26.5391 64.4262 26.7059 64.4811 26.8927C64.5308 27.0655 64.5977 27.1999 64.682 27.2957L68.4895 31.4571C68.5684 31.5389 68.6236 31.5579 68.6548 31.5141C68.6808 31.4563 68.6989 31.3776 68.709 31.2779C68.7271 30.1051 68.7042 28.7401 68.6404 27.183C68.5905 25.6207 68.5257 24.04 68.446 22.4411C68.4363 22.2051 68.4146 22.0217 68.3809 21.8908C68.3558 21.7405 68.3248 21.6166 68.2877 21.5188C68.1995 21.3287 68.0801 21.1823 67.9294 21.0798C67.7873 20.958 67.5967 20.9186 67.3574 20.9615C67.2019 20.9726 67.0341 20.9723 66.854 20.9608C66.6739 20.9493 66.5627 20.8877 66.5203 20.776C66.4885 20.6922 66.5205 20.6082 66.6163 20.5239C66.7261 20.4344 66.8647 20.3578 67.0323 20.2942C67.3673 20.167 67.6423 20.0707 67.857 20.0052C68.0717 19.9396 68.2977 19.8619 68.5351 19.7718C68.8369 19.6412 69.1318 19.5134 69.4197 19.3881C69.7023 19.2489 69.9972 19.1211 70.3044 19.0045C70.4859 18.9356 70.6474 18.8983 70.7889 18.8925C70.9252 18.8727 71.0145 18.9187 71.0569 19.0304C71.094 19.1281 71.063 19.2357 70.9638 19.3532C70.8593 19.4567 70.72 19.5735 70.5457 19.7035C70.2511 19.8952 70.0291 20.1312 69.8799 20.4114C69.7254 20.6777 69.6304 20.9534 69.5948 21.2384C69.5592 21.5234 69.5323 21.7892 69.5141 22.0357L69.6297 34.714C69.6335 34.8084 69.6218 34.9247 69.5943 35.0628C69.5669 35.201 69.5113 35.286 69.4275 35.3178C69.3577 35.3443 69.2651 35.3316 69.1495 35.2796C69.0532 35.2363 68.9629 35.1667 68.8786 35.0709C68.3311 34.512 67.8204 33.9871 67.3466 33.496C66.8674 32.9911 66.3707 32.4608 65.8564 31.9053C65.356 31.3445 64.768 30.7211 64.0924 30.0351C64.0134 29.9532 63.9557 29.9273 63.9191 29.9571C63.8965 29.9817 63.8811 30.0674 63.8729 30.2142C63.836 31.0428 63.7988 31.8077 63.7614 32.5087C63.7186 33.1958 63.6812 33.8968 63.6491 34.6118C63.6309 35.3215 63.613 36.0949 63.5953 36.9322C63.5924 37.093 63.573 37.2522 63.5369 37.4096C63.5148 37.5618 63.4548 37.6564 63.3571 37.6935Z" fill="#C42D1C"/>
<path d="M78.5306 34.361C77.6803 34.4004 76.8956 34.2424 76.1765 33.887C75.4716 33.5161 74.9019 32.9968 74.4674 32.3293C74.0328 31.6617 73.7951 30.8879 73.7543 30.0078C73.7239 29.3514 73.8213 28.7116 74.0466 28.0882C74.2718 27.4648 74.6043 26.8963 75.0439 26.3826C75.4835 25.8689 76.0026 25.4562 76.601 25.1444C77.1988 24.8177 77.8483 24.6381 78.5494 24.6056C79.4295 24.5648 80.2376 24.7442 80.9737 25.1436C81.7091 25.5281 82.3015 26.0538 82.751 26.7206C83.2005 27.3874 83.4442 28.1311 83.4823 28.9515C83.5237 29.8466 83.3689 30.6984 83.0177 31.507C82.6664 32.3156 82.1144 32.984 81.3615 33.5122C80.6228 34.0248 79.6792 34.3077 78.5306 34.361ZM78.9642 33.556C79.3968 33.536 79.7808 33.436 80.1163 33.256C80.4511 33.0611 80.7072 32.7801 80.8845 32.4131C81.0476 32.0617 81.1476 31.6385 81.1845 31.1435C81.2355 30.6328 81.249 30.1164 81.2248 29.5943C81.1902 28.8485 81.0384 28.1529 80.7693 27.5076C80.5002 26.8623 80.1475 26.3479 79.7111 25.9645C79.2748 25.5811 78.7732 25.4025 78.2063 25.4288C77.8632 25.4447 77.5527 25.5189 77.2748 25.6513C77.0112 25.7682 76.7737 25.9661 76.5623 26.245C76.2948 26.6012 76.1291 27.0574 76.0652 27.6134C76.0005 28.1546 75.9831 28.7459 76.0128 29.3874C76.046 30.1034 76.1971 30.7841 76.4662 31.4294C76.7353 32.0747 77.0809 32.5968 77.5031 32.9959C77.9401 33.3942 78.4271 33.5809 78.9642 33.556Z" fill="#C42D1C"/>
<path d="M84.3769 34.1625C84.2439 34.1429 84.1364 34.1044 84.0543 34.047C83.9869 33.9918 83.9598 33.9199 83.9729 33.8312C83.9903 33.713 84.0466 33.6383 84.1418 33.6071C84.2539 33.5632 84.3871 33.53 84.5414 33.5075C84.8625 33.4793 85.092 33.4075 85.2298 33.292C85.3823 33.1786 85.4749 33.0111 85.5076 32.7895L86.2262 27.9142C86.2807 27.5448 86.2747 27.227 86.2083 26.9606C86.1441 26.6794 85.9475 26.4768 85.6186 26.3529C85.5617 26.3294 85.5081 26.2838 85.4577 26.2159C85.4221 26.1503 85.4108 26.0732 85.4239 25.9845C85.4478 25.822 85.5369 25.7295 85.6912 25.707C86.1223 25.6497 86.5895 25.5526 87.0927 25.4154C87.5981 25.2635 88.0105 25.1281 88.33 25.0091C88.4273 24.9631 88.5151 24.9307 88.5933 24.9121C88.6716 24.8934 88.7255 24.8863 88.755 24.8906C88.8584 24.9059 88.9014 24.9726 88.884 25.0908C88.8753 25.1499 88.8494 25.2744 88.8063 25.4642C88.778 25.6563 88.739 25.8694 88.6894 26.1036C88.6398 26.3378 88.5986 26.5657 88.566 26.7873C88.5573 26.8464 88.5677 26.8782 88.5972 26.8825C88.8772 26.6219 89.176 26.3867 89.4937 26.1769C89.8262 25.9693 90.1659 25.8156 90.5127 25.7158C90.8616 25.6012 91.1839 25.5656 91.4793 25.6092C91.8635 25.6658 92.1469 25.7906 92.3298 25.9836C92.5149 26.1618 92.5889 26.3765 92.5519 26.6277C92.5279 26.7902 92.4479 26.9746 92.3118 27.181C92.1927 27.3748 92.0399 27.5409 91.8534 27.6795C91.6839 27.8054 91.5105 27.8553 91.3332 27.8292C91.2298 27.814 91.1223 27.7755 91.0106 27.7137C90.9011 27.6372 90.7843 27.5596 90.66 27.4809C90.5505 27.4044 90.4326 27.3342 90.3062 27.2703C90.1967 27.1937 90.0828 27.1468 89.9647 27.1294C89.5953 27.0749 89.2359 27.1578 88.8865 27.378C88.537 27.5982 88.3057 28.0924 88.1924 28.8606L87.5783 33.0268C87.5435 33.2632 87.6123 33.462 87.7847 33.6233C87.9572 33.7846 88.2268 33.9526 88.5935 34.1274C88.7495 34.1957 88.8674 34.2659 88.9473 34.3381C89.0295 34.3955 89.0629 34.4759 89.0476 34.5793C89.0215 34.7566 88.8681 34.8245 88.5874 34.7831C88.1442 34.7178 87.7633 34.639 87.4448 34.5468C87.139 34.4715 86.7939 34.4056 86.4098 34.3489C86.1587 34.3119 85.936 34.2866 85.7417 34.2731C85.5475 34.2596 85.3459 34.2449 85.1369 34.2292C84.9257 34.2283 84.6724 34.206 84.3769 34.1625Z" fill="#C42D1C"/>
<path d="M91.3046 35.2086C90.9937 35.1024 90.8672 34.9646 90.9251 34.795C90.9636 34.6819 91.0396 34.6211 91.153 34.6124C91.2664 34.6038 91.3964 34.5929 91.5429 34.5798C91.779 34.5815 92.0058 34.5642 92.2233 34.528C92.4408 34.4918 92.6002 34.3253 92.7014 34.0285L96.2683 23.5772C96.4275 23.1108 96.4845 22.7358 96.4393 22.4521C96.3941 22.1684 96.2093 21.9239 95.8849 21.7185C95.7674 21.6468 95.7376 21.5262 95.7954 21.3566C95.8485 21.2011 95.9364 21.1286 96.0591 21.1389C96.4507 21.1936 96.8212 21.2175 97.1707 21.2106C97.5344 21.2085 97.8673 21.2038 98.1696 21.1965C98.4909 21.1799 98.7719 21.1654 99.0129 21.1529C99.1263 21.1443 99.2112 21.1496 99.2678 21.1689C99.3243 21.1882 99.3524 21.2214 99.3521 21.2687C99.3707 21.3066 99.3679 21.3609 99.3438 21.4315C99.3004 21.5587 99.1877 21.7964 99.0058 22.1446C98.838 22.4976 98.6335 23.0274 98.3923 23.734L95.9035 31.0266C95.8552 31.1679 95.8735 31.2531 95.9583 31.282C96.029 31.3061 96.1305 31.3092 96.2628 31.2913C96.3952 31.2733 96.5348 31.2342 96.6816 31.1738C97.4109 30.8863 98.0458 30.598 98.5862 30.3091C99.1266 30.0201 99.4989 29.8079 99.7029 29.6724C99.7884 29.6069 99.8525 29.5578 99.8952 29.525C99.9569 29.483 99.995 29.4408 100.009 29.3984C100.034 29.3277 99.9917 29.2424 99.8838 29.1424C99.7948 29.0332 99.6775 28.9379 99.5316 28.8566C99.3717 28.7704 99.311 28.6708 99.3496 28.5578C99.3785 28.473 99.4426 28.4238 99.5419 28.4104C99.6601 28.3876 99.7828 28.3979 99.91 28.4413L100.949 28.7959C101.175 28.873 101.441 28.9481 101.748 29.0212C102.073 29.0849 102.384 29.1438 102.681 29.1978C102.979 29.2519 103.198 29.3031 103.339 29.3513C103.523 29.414 103.588 29.5231 103.535 29.6785C103.506 29.7633 103.43 29.8242 103.307 29.8611C103.198 29.9028 103.059 29.9183 102.889 29.9077C102.615 29.8774 102.32 29.8871 102.003 29.9368C101.691 29.9723 101.391 30.0198 101.103 30.0791C100.932 30.1157 100.66 30.1964 100.286 30.3212C99.9122 30.446 99.5074 30.5919 99.0718 30.7588C98.6361 30.9257 98.2241 31.0928 97.8356 31.26C97.7267 31.3017 97.6602 31.3579 97.6361 31.4286C97.6264 31.4569 97.6239 31.4875 97.6283 31.5206C97.647 31.5585 97.6585 31.594 97.663 31.6271C97.8761 32.2048 98.0963 32.7849 98.3235 33.3673C98.5508 33.9498 98.7713 34.4827 98.9851 34.9659C99.1988 35.4491 99.3731 35.84 99.508 36.1384C99.6662 36.4607 99.8695 36.7667 100.118 37.0566C100.38 37.3513 100.603 37.5772 100.786 37.7343C100.913 37.8249 101.03 37.9202 101.138 38.0202C101.265 38.1108 101.309 38.2127 101.27 38.3257C101.212 38.4953 101.042 38.5319 100.76 38.4354C100.095 38.2087 99.4005 37.9558 98.6753 37.6767C97.9593 37.4166 97.2409 37.1635 96.5202 36.9176C96.2516 36.8259 96.1439 36.7024 96.197 36.5469C96.2259 36.4621 96.2854 36.4035 96.3753 36.3711C96.4842 36.3293 96.6 36.3136 96.7227 36.324C96.8834 36.3157 97.0157 36.2977 97.1198 36.2701C97.2429 36.2332 97.3237 36.1583 97.3623 36.0452C97.3767 36.0028 97.3795 35.9485 97.3705 35.8823C97.3615 35.8161 97.3409 35.7381 97.3084 35.6481L95.8969 31.9474C95.8693 31.8433 95.8272 31.7817 95.7707 31.7624C95.6952 31.7524 95.643 31.7898 95.6141 31.8746C95.5276 32.0818 95.4457 32.2984 95.3686 32.5245C95.2914 32.7507 95.2118 32.9838 95.1298 33.2241C95.0526 33.4502 94.9682 33.6976 94.8766 33.9661C94.7898 34.2205 94.7124 34.4702 94.6446 34.7153C94.5577 34.9697 94.5586 35.1751 94.6472 35.3316C94.7358 35.4881 94.8741 35.6378 95.062 35.7808C95.1606 35.8618 95.2497 35.9475 95.3293 36.0378C95.4138 36.1139 95.4367 36.2085 95.3981 36.3216C95.3644 36.4205 95.2861 36.4648 95.1634 36.4545C95.0359 36.4583 94.9368 36.4482 94.8661 36.424C94.5976 36.3324 94.3833 36.2435 94.2234 36.1574C94.0586 36.0853 93.908 36.0182 93.7715 35.9558C93.635 35.8934 93.4395 35.8188 93.1851 35.732C92.9449 35.65 92.7375 35.5871 92.5631 35.5434C92.3887 35.4996 92.2072 35.4535 92.0187 35.4049C91.8253 35.3705 91.5873 35.305 91.3046 35.2086Z" fill="#C42D1C"/>
<path d="M128.012 54.7644C127.955 54.6594 127.941 54.5395 127.97 54.4049C128.019 54.2764 128.106 54.1699 128.23 54.0856L129.765 52.9223C129.548 52.8025 129.289 52.6541 128.989 52.4769C128.696 52.3128 128.39 52.1392 128.07 51.956C128.009 51.938 127.958 51.9063 127.916 51.8609C127.875 51.8155 127.84 51.7665 127.811 51.714C127.754 51.609 127.734 51.4927 127.749 51.3652C127.772 51.2509 127.836 51.1652 127.941 51.1083C128.099 51.0229 128.283 51.0168 128.492 51.0901L130.251 51.8438C130.249 51.5899 130.243 51.2961 130.232 50.9624C130.221 50.6287 130.213 50.2848 130.208 49.9308C130.204 49.8307 130.231 49.7229 130.287 49.6075C130.351 49.5051 130.422 49.4326 130.501 49.3899C130.671 49.2974 130.822 49.3091 130.953 49.4251C131.084 49.541 131.158 49.6789 131.177 49.8386C131.215 50.1915 131.253 50.5277 131.291 50.8472C131.328 51.1667 131.368 51.4761 131.411 51.7753C131.66 51.6068 131.915 51.4346 132.176 51.2589C132.445 51.0964 132.737 50.9297 133.052 50.7589C133.183 50.6877 133.319 50.6565 133.46 50.6652C133.613 50.6668 133.736 50.7363 133.827 50.8736C133.878 50.9988 133.879 51.1258 133.83 51.2543C133.794 51.3758 133.72 51.4751 133.609 51.5523L132.063 52.696C132.281 52.8157 132.536 52.9576 132.829 53.1217C133.135 53.2786 133.441 53.4522 133.748 53.6425C133.809 53.6606 133.86 53.6923 133.902 53.7377C133.957 53.776 133.998 53.8214 134.027 53.8739C134.084 53.9789 134.104 54.0952 134.088 54.2226C134.086 54.343 134.019 54.4388 133.887 54.5099C133.743 54.5882 133.566 54.5907 133.356 54.5175L131.578 53.7745C131.587 54.0414 131.6 54.3317 131.617 54.6452C131.641 54.9718 131.649 55.3157 131.641 55.6768C131.651 55.79 131.625 55.8978 131.561 56.0001C131.518 56.1085 131.45 56.1875 131.359 56.2374C131.201 56.3228 131.057 56.3075 130.926 56.1915C130.795 56.0756 130.707 55.9448 130.662 55.7993C130.637 55.4393 130.599 55.1031 130.549 54.7907C130.499 54.4784 130.458 54.169 130.428 53.8626C130.219 54.0098 129.967 54.1719 129.672 54.3487C129.385 54.5386 129.087 54.7255 128.779 54.9094C128.648 54.9806 128.505 55.0154 128.351 55.0138C128.211 55.0051 128.098 54.9219 128.012 54.7644Z" fill="#C42D1C"/>
</svg>
