<svg width="200" height="200" viewBox="0 0 200 200" fill="none" xmlns="http://www.w3.org/2000/svg">
<path d="M200 100C200 155.228 155.228 200 100 200C44.7715 200 0 155.228 0 100C0 44.7715 44.7715 0 100 0C155.228 0 200 44.7715 200 100Z" fill="#FAF7F7"/>
<path d="M200 100C200 155.228 155.228 200 100 200C44.7715 200 0 155.228 0 100C0 44.7715 44.7715 0 100 0C155.228 0 200 44.7715 200 100Z" fill="#020405" fill-opacity="0.3"/>
<path d="M161.304 100.001C161.327 99.7966 161.376 99.6236 161.449 99.4818C161.501 99.3563 161.592 99.3011 161.722 99.3161C161.963 99.3441 162.108 99.6335 162.156 100.184C162.204 100.904 162.35 101.428 162.594 101.757C162.835 102.105 163.281 102.316 163.929 102.391L175.917 103.784C176.696 103.874 177.293 103.831 177.708 103.654C178.121 103.495 178.432 103.08 178.642 102.409C178.732 102.119 178.831 101.914 178.939 101.795C179.046 101.676 179.165 101.624 179.295 101.639C179.406 101.652 179.482 101.727 179.523 101.863C179.58 102.02 179.596 102.2 179.572 102.404C179.516 102.886 179.461 103.284 179.406 103.597C179.369 103.912 179.324 104.217 179.271 104.512C179.218 104.806 179.17 105.139 179.127 105.51C179.082 105.899 179.056 106.281 179.05 106.656C179.044 107.032 179.039 107.397 179.036 107.754C179.03 108.129 179.005 108.502 178.962 108.873C178.71 111.042 178.054 112.723 176.995 113.916C175.936 115.108 174.609 115.612 173.014 115.427C171.883 115.295 170.862 114.942 169.952 114.366C169.04 113.809 168.342 113.023 167.858 112.009C167.393 110.996 167.246 109.758 167.416 108.293C167.465 107.867 167.569 107.54 167.727 107.314C167.883 107.107 168.025 107.011 168.155 107.026C168.266 107.039 168.353 107.105 168.414 107.225C168.494 107.347 168.528 107.454 168.517 107.547C168.502 107.677 168.466 107.823 168.41 107.986C168.37 108.169 168.33 108.427 168.292 108.761C168.175 109.763 168.542 110.566 169.393 111.172C170.241 111.797 171.444 112.2 173.002 112.381C174.559 112.562 175.745 112.305 176.558 111.61C177.388 110.936 177.874 109.987 178.016 108.763C178.077 108.244 178.023 107.815 177.856 107.476C177.705 107.158 177.407 106.973 176.962 106.921L163.81 105.365C163.179 105.292 162.661 105.382 162.256 105.636C161.869 105.892 161.569 106.374 161.355 107.082C161.269 107.335 161.182 107.522 161.093 107.643C161.001 107.783 160.881 107.844 160.733 107.827C160.622 107.814 160.546 107.739 160.505 107.603C160.465 107.467 160.457 107.288 160.483 107.065C160.537 106.601 160.604 106.186 160.684 105.82C160.744 105.47 160.802 105.129 160.859 104.797C160.933 104.486 160.99 104.155 161.031 103.802C161.083 103.357 161.114 102.929 161.124 102.517C161.151 102.125 161.179 101.724 161.208 101.314C161.216 100.921 161.248 100.483 161.304 100.001Z" fill="white"/>
<path d="M157.379 119.6C157.737 118.598 158.293 117.766 159.046 117.104C159.81 116.466 160.681 116.054 161.659 115.869C162.638 115.684 163.645 115.777 164.682 116.149C165.455 116.426 166.149 116.843 166.762 117.399C167.376 117.956 167.875 118.611 168.26 119.363C168.644 120.116 168.875 120.912 168.951 121.752C169.044 122.599 168.943 123.435 168.647 124.261C168.276 125.298 167.684 126.147 166.872 126.808C166.078 127.475 165.189 127.91 164.204 128.112C163.219 128.315 162.244 128.243 161.277 127.897C160.223 127.519 159.312 126.935 158.544 126.144C157.776 125.354 157.266 124.398 157.014 123.276C156.772 122.179 156.894 120.953 157.379 119.6ZM158.103 120.484C157.92 120.994 157.853 121.485 157.902 121.959C157.968 122.438 158.171 122.868 158.511 123.248C158.84 123.603 159.281 123.92 159.836 124.198C160.402 124.5 160.993 124.761 161.608 124.981C162.486 125.296 163.363 125.451 164.237 125.447C165.111 125.443 165.873 125.28 166.524 124.958C167.174 124.636 167.619 124.141 167.858 123.473C168.003 123.069 168.065 122.674 168.044 122.29C168.034 121.93 167.919 121.561 167.697 121.184C167.412 120.706 166.964 120.297 166.351 119.959C165.756 119.627 165.081 119.325 164.325 119.055C163.482 118.753 162.623 118.604 161.749 118.608C160.875 118.612 160.107 118.763 159.445 119.061C158.777 119.377 158.329 119.852 158.103 120.484Z" fill="white"/>
<path d="M154.784 126.988C154.868 126.843 154.962 126.736 155.067 126.667C155.162 126.615 155.259 126.617 155.355 126.673C155.485 126.748 155.545 126.848 155.537 126.973C155.536 127.123 155.513 127.293 155.468 127.483C155.352 127.869 155.329 128.168 155.399 128.382C155.46 128.612 155.611 128.797 155.853 128.937L161.18 132.031C161.584 132.266 161.955 132.406 162.295 132.452C162.652 132.508 162.978 132.374 163.274 132.05C163.328 131.994 163.406 131.953 163.508 131.926C163.6 131.915 163.695 131.938 163.792 131.994C163.97 132.097 164.036 132.244 163.99 132.433C163.857 132.96 163.753 133.548 163.679 134.195C163.621 134.852 163.587 135.394 163.577 135.82C163.586 135.954 163.583 136.071 163.568 136.171C163.553 136.27 163.537 136.336 163.518 136.368C163.452 136.481 163.355 136.5 163.226 136.425C163.161 136.388 163.029 136.3 162.828 136.162C162.618 136.04 162.389 135.896 162.14 135.73C161.891 135.564 161.646 135.41 161.404 135.27C161.339 135.232 161.297 135.23 161.279 135.262C161.452 135.708 161.586 136.164 161.682 136.63C161.769 137.112 161.79 137.577 161.745 138.026C161.717 138.485 161.609 138.875 161.421 139.198C161.177 139.618 160.901 139.889 160.592 140.012C160.299 140.144 160.016 140.13 159.742 139.971C159.564 139.868 159.387 139.689 159.21 139.436C159.041 139.208 158.919 138.953 158.844 138.673C158.777 138.417 158.799 138.193 158.912 137.999C158.977 137.886 159.072 137.779 159.195 137.678C159.335 137.587 159.479 137.487 159.628 137.379C159.767 137.288 159.904 137.183 160.036 137.066C160.176 136.974 160.283 136.864 160.358 136.735C160.593 136.331 160.663 135.876 160.569 135.368C160.476 134.86 160.009 134.363 159.17 133.875L154.618 131.231C154.36 131.081 154.097 131.069 153.83 131.194C153.563 131.32 153.243 131.555 152.87 131.9C152.718 132.049 152.582 132.153 152.461 132.213C152.357 132.281 152.248 132.283 152.135 132.217C151.941 132.105 151.933 131.895 152.111 131.589C152.393 131.104 152.661 130.699 152.915 130.372C153.145 130.052 153.381 129.682 153.625 129.262C153.784 128.988 153.917 128.741 154.023 128.522C154.128 128.302 154.239 128.075 154.354 127.84C154.453 127.595 154.596 127.311 154.784 126.988Z" fill="white"/>
<path d="M146.992 138.28C147.638 137.481 148.362 137.046 149.164 136.975C149.954 136.918 150.785 137.241 151.656 137.945L156.707 142.03C156.823 142.124 156.944 142.137 157.07 142.071C157.198 142.031 157.374 141.873 157.597 141.597L157.738 141.423C157.808 141.336 157.925 141.31 158.088 141.346C158.266 141.393 158.413 141.464 158.529 141.558C158.558 141.582 158.582 141.625 158.602 141.69C158.625 141.78 158.632 141.846 158.623 141.887C158.565 142.344 158.528 142.806 158.511 143.272C158.497 143.765 158.506 144.228 158.539 144.663C158.56 145.112 158.587 145.494 158.62 145.809C158.622 145.955 158.629 146.08 158.64 146.185C158.651 146.29 158.622 146.386 158.551 146.473C158.481 146.561 158.4 146.615 158.31 146.638C158.208 146.676 158.097 146.634 157.978 146.514L157.017 145.521C156.854 145.366 156.709 145.308 156.58 145.348C156.44 145.403 156.3 145.517 156.159 145.691L154.117 148.217C154.081 148.261 153.995 148.263 153.859 148.224C153.722 148.186 153.603 148.125 153.501 148.043C153.341 147.914 153.206 147.769 153.097 147.608C152.987 147.447 152.955 147.338 153.002 147.28L154.71 145.168C155.003 144.805 155.161 144.536 155.182 144.361C155.191 144.201 155.066 144.015 154.804 143.804L150.58 140.389C149.971 139.896 149.399 139.638 148.866 139.614C148.347 139.603 147.906 139.822 147.542 140.272C147.201 140.693 146.98 141.042 146.876 141.318C146.773 141.595 146.701 141.861 146.662 142.117C146.656 142.184 146.641 142.232 146.617 142.261C146.559 142.334 146.487 142.348 146.403 142.304C146.307 142.274 146.215 142.224 146.128 142.154C146.041 142.083 145.994 141.83 145.988 141.392C145.981 140.955 146.054 140.449 146.206 139.876C146.343 139.291 146.605 138.759 146.992 138.28Z" fill="white"/>
<path d="M143.948 142.392C144.072 142.279 144.195 142.206 144.316 142.173C144.423 142.152 144.513 142.183 144.589 142.266C144.689 142.377 144.716 142.49 144.67 142.607C144.637 142.737 144.571 142.873 144.471 143.013C144.2 143.409 144.058 143.726 144.046 143.963C144.034 144.2 144.147 144.45 144.385 144.714L149.696 150.594C149.834 150.469 149.993 150.325 150.173 150.163C150.366 150.014 150.579 149.846 150.814 149.66C150.882 149.624 150.994 149.623 151.151 149.658C151.32 149.706 151.442 149.771 151.517 149.855C151.542 149.882 151.547 149.929 151.53 149.994C151.514 150.059 151.498 150.111 151.483 150.15C151.361 150.461 151.248 150.74 151.143 150.985C151.036 151.257 150.923 151.536 150.803 151.82C151.839 153.023 152.554 154.163 152.948 155.24C153.343 156.318 153.504 157.304 153.432 158.199C153.359 159.121 153.139 159.922 152.774 160.604C152.408 161.312 151.982 161.885 151.497 162.323C150.666 163.074 149.944 163.5 149.331 163.601C148.716 163.728 148.215 163.577 147.827 163.147C147.565 162.857 147.427 162.565 147.416 162.274C147.417 161.997 147.528 161.758 147.75 161.558C147.874 161.445 148.036 161.387 148.234 161.384C148.445 161.395 148.682 161.407 148.946 161.42C149.328 161.453 149.745 161.428 150.199 161.345C150.651 161.289 151.106 161.054 151.563 160.642C152.186 160.079 152.441 159.358 152.327 158.48C152.226 157.616 151.662 156.616 150.636 155.48L149.022 153.692C148.935 153.596 148.851 153.558 148.77 153.581C148.69 153.603 148.615 153.645 148.546 153.708L146.052 155.96C145.969 156.035 145.875 156.07 145.769 156.064C145.664 156.059 145.58 156.022 145.517 155.952C145.417 155.842 145.325 155.711 145.24 155.562C145.154 155.438 145.094 155.316 145.06 155.196C145.016 155.035 145.028 154.923 145.097 154.861L147.321 152.852C147.542 152.652 147.656 152.486 147.663 152.354C147.668 152.249 147.621 152.141 147.521 152.03L142.585 146.565C142.31 146.26 142.027 146.114 141.736 146.125C141.43 146.149 140.956 146.376 140.313 146.806C139.972 147.013 139.72 147.027 139.558 146.847C139.483 146.764 139.455 146.663 139.474 146.545C139.506 146.441 139.577 146.339 139.688 146.239C140.103 145.864 140.531 145.515 140.97 145.194C141.383 144.871 141.77 144.547 142.13 144.222C142.365 144.009 142.574 143.809 142.755 143.62C142.923 143.443 143.097 143.26 143.279 143.071C143.448 142.869 143.671 142.642 143.948 142.392Z" fill="white"/>
<path d="M132.449 151.208C133.355 150.65 134.308 150.347 135.31 150.301C136.305 150.279 137.243 150.502 138.122 150.969C139.002 151.436 139.73 152.138 140.307 153.076C140.738 153.775 141.019 154.534 141.15 155.352C141.281 156.17 141.262 156.993 141.092 157.821C140.923 158.649 140.605 159.415 140.139 160.118C139.683 160.837 139.082 161.427 138.335 161.887C137.397 162.465 136.405 162.758 135.358 162.767C134.321 162.791 133.355 162.575 132.459 162.118C131.564 161.661 130.847 160.996 130.309 160.121C129.722 159.168 129.375 158.142 129.27 157.045C129.164 155.949 129.363 154.883 129.867 153.85C130.364 152.842 131.225 151.961 132.449 151.208ZM132.462 152.35C132.001 152.634 131.641 152.976 131.384 153.376C131.135 153.792 131.025 154.254 131.054 154.763C131.088 155.246 131.235 155.769 131.495 156.333C131.748 156.922 132.046 157.495 132.388 158.052C132.878 158.846 133.465 159.515 134.15 160.058C134.835 160.6 135.532 160.949 136.241 161.104C136.951 161.26 137.607 161.151 138.211 160.779C138.577 160.554 138.872 160.285 139.095 159.972C139.313 159.684 139.453 159.324 139.515 158.891C139.592 158.34 139.497 157.74 139.23 157.094C138.973 156.463 138.634 155.806 138.213 155.122C137.743 154.359 137.166 153.706 136.481 153.164C135.796 152.621 135.102 152.259 134.399 152.078C133.68 151.907 133.034 151.998 132.462 152.35Z" fill="white"/>
<path d="M125.756 155.298C125.877 155.248 126.005 155.216 126.14 155.201C126.258 155.193 126.341 155.25 126.391 155.371C126.447 155.509 126.426 155.629 126.326 155.73C126.234 155.849 126.124 155.974 125.997 156.107C125.773 156.3 125.57 156.494 125.388 156.689C125.206 156.885 125.189 157.164 125.338 157.527L130.594 170.352C130.799 170.853 131.055 171.232 131.362 171.489C131.659 171.771 132.041 171.867 132.509 171.776C132.661 171.754 132.78 171.846 132.865 172.054C132.942 172.244 132.928 172.381 132.821 172.465C132.407 172.735 132.03 173.021 131.69 173.322C131.349 173.623 131.034 173.913 130.745 174.193C130.457 174.473 130.195 174.721 129.961 174.938C129.872 175.015 129.801 175.064 129.749 175.085C129.698 175.107 129.653 175.095 129.614 175.05C129.558 175.012 129.52 174.968 129.498 174.916C129.442 174.778 129.347 174.473 129.215 174.003C129.083 173.533 128.833 172.849 128.465 171.95L122.954 158.504C122.813 158.158 122.605 157.971 122.331 157.942C122.064 157.931 121.783 157.935 121.488 157.955C121.312 157.966 121.149 157.963 121 157.943C120.85 157.924 120.747 157.845 120.691 157.706C120.648 157.603 120.68 157.509 120.787 157.425C120.877 157.348 120.982 157.285 121.103 157.235C121.431 157.101 121.72 156.992 121.968 156.911C122.217 156.829 122.458 156.75 122.689 156.676C122.921 156.601 123.192 156.5 123.503 156.372C123.797 156.252 124.052 156.137 124.27 156.028C124.487 155.919 124.705 155.809 124.922 155.7C125.132 155.574 125.41 155.44 125.756 155.298Z" fill="white"/>
<path d="M119.35 157.874C119.494 157.835 119.627 157.827 119.75 157.851C119.855 157.881 119.922 157.949 119.952 158.057C119.992 158.201 119.965 158.315 119.872 158.399C119.765 158.506 119.645 158.597 119.511 158.672C119.127 158.894 118.853 159.095 118.69 159.276C118.527 159.456 118.489 159.708 118.579 160.032L120.183 165.864C120.331 166.404 120.54 166.811 120.809 167.085C121.083 167.378 121.455 167.498 121.925 167.446C122.02 167.44 122.102 167.456 122.17 167.495C122.226 167.557 122.271 167.651 122.306 167.777C122.365 167.993 122.317 168.132 122.16 168.195C121.417 168.593 120.807 169.012 120.328 169.454C119.836 169.918 119.471 170.28 119.233 170.539C119.069 170.72 118.943 170.822 118.853 170.847C118.709 170.887 118.617 170.834 118.577 170.69C118.523 170.492 118.463 170.17 118.398 169.723C118.315 169.281 118.232 168.801 118.147 168.282C118.044 167.768 117.934 167.295 117.815 166.863L116.122 160.708C116.043 160.42 115.884 160.231 115.647 160.142C115.409 160.052 115.068 160.01 114.625 160.016C114.471 160.02 114.33 160.001 114.202 159.958C114.061 159.939 113.971 159.857 113.932 159.713C113.872 159.497 114.004 159.345 114.328 159.256C114.67 159.162 114.981 159.095 115.261 159.057C115.536 159.001 115.802 158.947 116.059 158.896C116.298 158.85 116.579 158.782 116.903 158.693C117.209 158.608 117.486 158.523 117.733 158.435C117.98 158.348 118.227 158.261 118.474 158.174C118.698 158.073 118.99 157.973 119.35 157.874ZM120.715 172.338C121.165 172.215 121.594 172.261 122.002 172.478C122.397 172.718 122.656 173.063 122.78 173.513C122.909 173.981 122.862 174.41 122.641 174.8C122.406 175.213 122.063 175.481 121.613 175.605C121.145 175.734 120.705 175.681 120.292 175.446C119.884 175.229 119.615 174.887 119.487 174.419C119.363 173.969 119.418 173.537 119.653 173.124C119.893 172.729 120.247 172.467 120.715 172.338Z" fill="white"/>
<path d="M106.907 160.224C107.966 160.118 108.956 160.262 109.877 160.657C110.782 161.073 111.528 161.682 112.116 162.486C112.703 163.29 113.052 164.24 113.162 165.336C113.244 166.153 113.166 166.958 112.927 167.752C112.688 168.545 112.311 169.277 111.797 169.948C111.283 170.618 110.663 171.169 109.937 171.598C109.212 172.046 108.414 172.314 107.541 172.402C106.445 172.512 105.424 172.343 104.479 171.894C103.535 171.463 102.76 170.847 102.154 170.045C101.548 169.243 101.194 168.331 101.091 167.31C100.979 166.195 101.115 165.122 101.499 164.089C101.883 163.056 102.527 162.184 103.431 161.474C104.318 160.785 105.477 160.368 106.907 160.224ZM106.42 161.258C105.882 161.312 105.409 161.463 105.002 161.71C104.598 161.976 104.297 162.344 104.1 162.814C103.92 163.264 103.824 163.799 103.811 164.419C103.782 165.06 103.8 165.705 103.865 166.355C103.959 167.284 104.195 168.142 104.575 168.929C104.954 169.717 105.429 170.335 105.999 170.784C106.57 171.233 107.208 171.422 107.914 171.351C108.341 171.308 108.723 171.195 109.061 171.011C109.383 170.847 109.666 170.584 109.911 170.222C110.221 169.759 110.397 169.179 110.439 168.48C110.483 167.8 110.465 167.061 110.385 166.262C110.295 165.371 110.061 164.532 109.681 163.744C109.302 162.957 108.835 162.328 108.282 161.859C107.709 161.391 107.089 161.191 106.42 161.258Z" fill="white"/>
<path d="M62.8295 160.762C62.9567 160.841 63.0465 160.962 63.099 161.126C63.1259 161.296 63.0983 161.465 63.0163 161.634L62.0783 163.851C62.3889 163.845 62.7619 163.845 63.1972 163.85C63.6167 163.845 64.0569 163.842 64.5179 163.841C64.595 163.823 64.6702 163.825 64.7436 163.848C64.8169 163.872 64.8854 163.903 64.949 163.942C65.0761 164.02 65.1709 164.133 65.2332 164.281C65.2796 164.42 65.2637 164.552 65.1854 164.679C65.0679 164.87 64.8728 164.991 64.6001 165.042L62.2246 165.322C62.3847 165.596 62.5747 165.911 62.7947 166.265C63.0147 166.62 63.2378 166.988 63.4639 167.368C63.5299 167.474 63.5684 167.608 63.5794 167.768C63.5744 167.918 63.5426 168.041 63.4839 168.137C63.3566 168.343 63.186 168.425 62.972 168.38C62.758 168.336 62.5911 168.234 62.4713 168.072C62.2097 167.714 61.9591 167.373 61.7196 167.05C61.48 166.727 61.2434 166.417 61.01 166.12C60.846 166.457 60.6771 166.803 60.5034 167.156C60.3137 167.5 60.1014 167.862 59.8665 168.244C59.7686 168.403 59.6408 168.521 59.483 168.599C59.3154 168.694 59.1393 168.695 58.9547 168.603C58.8215 168.499 58.7414 168.362 58.7145 168.192C58.6779 168.038 58.6957 167.884 58.7679 167.732L59.7298 165.529C59.4192 165.535 59.0541 165.54 58.6347 165.545C58.2054 165.566 57.7652 165.569 57.3139 165.554C57.2369 165.572 57.1617 165.57 57.0883 165.546C57.0052 165.539 56.9318 165.516 56.8682 165.477C56.7411 165.398 56.6463 165.285 56.584 165.137C56.5119 165.005 56.5248 164.86 56.6227 164.701C56.7303 164.526 56.9205 164.413 57.1933 164.361L59.5835 164.058C59.4075 163.774 59.2125 163.467 58.9986 163.138C58.7688 162.8 58.5458 162.432 58.3295 162.036C58.2476 161.92 58.2091 161.786 58.214 161.636C58.1933 161.492 58.2172 161.364 58.2857 161.253C58.4031 161.062 58.5689 160.988 58.7829 161.033C58.9968 161.077 59.1735 161.164 59.3129 161.293C59.5647 161.667 59.8153 162.008 60.0647 162.315C60.314 162.622 60.5506 162.932 60.7742 163.245C60.9089 162.956 61.0808 162.623 61.29 162.248C61.4834 161.863 61.6895 161.474 61.9086 161.083C62.0064 160.924 62.1392 160.798 62.3067 160.704C62.4645 160.625 62.6388 160.645 62.8295 160.762Z" fill="white"/>
<path d="M42.3642 118.74C42.7983 120.012 43.0054 121.312 42.9854 122.641C42.9593 123.951 42.7114 125.19 42.2415 126.356C41.7717 127.522 41.0796 128.557 40.1652 129.461C39.2447 130.347 38.1132 131.019 36.7706 131.478C35.5163 131.906 34.251 132.042 32.9748 131.885C31.681 131.735 30.468 131.331 29.3358 130.672C28.1799 130.001 27.1583 129.117 26.2709 128.02C25.3658 126.928 24.6631 125.649 24.1626 124.183C23.9395 123.529 23.7759 122.934 23.6717 122.398C23.5499 121.867 23.4606 121.346 23.4038 120.832C23.347 120.319 23.3135 119.759 23.3032 119.151C23.2955 118.897 23.3354 118.696 23.4229 118.548C23.5043 118.382 23.6657 118.248 23.907 118.146C24.3482 117.936 24.8101 117.729 25.2927 117.525C25.7693 117.303 26.3049 117.081 26.8995 116.858C27.0585 116.804 27.1975 116.836 27.3164 116.953C27.4292 117.052 27.4951 117.188 27.5141 117.359C27.5153 117.536 27.4278 117.684 27.2516 117.803C26.7229 118.161 26.265 118.525 25.8781 118.893C25.4911 119.262 25.2168 119.701 25.0551 120.21C24.8758 120.725 24.8063 121.33 24.8467 122.026C24.8811 122.705 25.0309 123.433 25.2962 124.21C25.6338 125.2 26.1475 126.04 26.8372 126.732C27.5269 127.423 28.3246 127.94 29.2302 128.282C30.1181 128.63 31.061 128.821 32.0589 128.855C33.0507 128.871 34.0236 128.717 34.9776 128.391C36.0906 128.011 37.1081 127.497 38.0302 126.847C38.9464 126.179 39.7024 125.418 40.2984 124.564C40.8884 123.692 41.2772 122.75 41.4648 121.739C41.6347 120.735 41.5388 119.702 41.177 118.642C40.7429 117.37 40.1015 116.416 39.2528 115.778C38.3865 115.147 37.318 114.733 36.0474 114.535C35.7579 114.496 35.5709 114.353 35.4865 114.105C35.4021 113.858 35.5012 113.686 35.7839 113.589C35.9606 113.529 36.2199 113.48 36.562 113.442C36.8805 113.393 37.2432 113.358 37.6504 113.337C38.0399 113.323 38.4029 113.317 38.7394 113.32C39.0052 113.348 39.1974 113.391 39.3159 113.449C39.4344 113.507 39.58 113.645 39.7527 113.862C40.2645 114.437 40.7478 115.16 41.2026 116.03C41.6515 116.883 42.0387 117.786 42.3642 118.74Z" fill="white"/>
<path d="M39.6444 105.646C39.7264 106.707 39.5593 107.693 39.143 108.605C38.7067 109.5 38.0799 110.232 37.2626 110.801C36.4453 111.369 35.4877 111.696 34.3896 111.781C33.5707 111.844 32.7675 111.747 31.98 111.49C31.1925 111.232 30.4694 110.839 29.8106 110.31C29.1518 109.78 28.6161 109.147 28.2035 108.412C27.7723 107.677 27.5229 106.873 27.4553 105.998C27.3704 104.9 27.5633 103.884 28.034 102.949C28.4861 102.015 29.12 101.255 29.9358 100.667C30.7517 100.08 31.6714 99.7467 32.695 99.6676C33.8117 99.5813 34.8819 99.742 35.9057 100.15C36.9295 100.557 37.7859 101.221 38.4749 102.142C39.1438 103.045 39.5336 104.213 39.6444 105.646ZM38.622 105.135C38.5803 104.595 38.4405 104.119 38.2027 103.707C37.9463 103.296 37.5854 102.987 37.12 102.78C36.6747 102.59 36.1421 102.481 35.5222 102.454C34.8822 102.41 34.2365 102.413 33.5851 102.463C32.6546 102.535 31.7913 102.752 30.9955 103.113C30.1996 103.474 29.5705 103.934 29.1083 104.494C28.6461 105.054 28.4423 105.688 28.497 106.395C28.5301 106.823 28.6347 107.208 28.811 107.55C28.9671 107.875 29.2235 108.164 29.5801 108.418C30.0355 108.738 30.6118 108.928 31.3091 108.986C31.9877 109.046 32.7271 109.045 33.5274 108.983C34.4208 108.914 35.2654 108.699 36.0612 108.338C36.8571 107.977 37.4962 107.525 37.9784 106.982C38.4593 106.421 38.6738 105.805 38.622 105.135Z" fill="white"/>
<path d="M38.2318 98.4315C38.2032 98.5781 38.1508 98.701 38.0744 98.8003C38.0164 98.9031 37.9232 98.942 37.7949 98.917C37.6667 98.892 37.5766 98.8174 37.5247 98.6932C37.4764 98.5507 37.4426 98.3825 37.4233 98.1885C37.3816 97.9142 37.329 97.6472 37.2655 97.3876C37.1871 97.1061 36.9648 96.9297 36.5983 96.8584L30.5519 95.6811C30.0938 95.5919 29.6891 95.5702 29.3379 95.6159C28.9684 95.6581 28.706 95.8827 28.5506 96.2899C28.518 96.3596 28.4689 96.4166 28.4032 96.4609C28.3376 96.5051 28.2406 96.5148 28.1123 96.4898C27.8925 96.447 27.7803 96.3396 27.7757 96.1675C27.7402 95.6662 27.6849 95.218 27.6096 94.823C27.5344 94.428 27.4446 94.0587 27.3404 93.7151C27.2178 93.368 27.0896 93.0007 26.9559 92.6133C26.9447 92.5731 26.9335 92.5329 26.9223 92.4927C26.8964 92.4306 26.8887 92.3721 26.8994 92.3171C26.9244 92.1888 27.0102 92.139 27.1568 92.1675C27.3033 92.1961 27.5637 92.2753 27.9377 92.4051C28.2971 92.5131 28.605 92.5921 28.8615 92.6421C29.0447 92.6777 29.1582 92.6808 29.202 92.6513L29.2127 92.5963C28.8438 92.0491 28.533 91.399 28.2802 90.6462C28.031 89.875 28.0009 89.0039 28.19 88.0328C28.3113 87.4098 28.5814 86.9014 29.0004 86.5075C29.4011 86.1101 29.9672 85.84 30.6986 85.6971L30.7147 85.6147C30.2389 84.9325 29.8892 84.1893 29.6654 83.3851C29.4417 82.5808 29.4154 81.739 29.5867 80.8595C29.7044 80.2548 29.9783 79.7757 30.4085 79.422C30.8387 79.0684 31.3683 78.8387 31.9975 78.733C32.6302 78.609 33.2947 78.6147 33.9909 78.7503L39.9274 79.9061C40.2939 79.9775 40.5553 79.9048 40.7116 79.688C40.8679 79.4712 41.0186 79.2343 41.1637 78.9773C41.2544 78.8048 41.3471 78.6707 41.4418 78.575C41.5364 78.4793 41.6479 78.444 41.7762 78.469C41.8861 78.4904 41.9597 78.5522 41.9968 78.6545C42.0375 78.7385 42.04 78.8722 42.0043 79.0554C41.933 79.4218 41.8558 79.7206 41.7728 79.9516C41.7081 80.1863 41.6451 80.4117 41.584 80.628C41.5229 80.8443 41.4602 81.1174 41.396 81.4472C41.3354 81.7587 41.291 82.0353 41.2629 82.2771C41.2385 82.5005 41.2122 82.7331 41.1841 82.9749C41.1744 83.2202 41.1339 83.5261 41.0625 83.8925C41.034 84.0391 40.9815 84.162 40.9052 84.2613C40.8323 84.3422 40.741 84.3719 40.631 84.3505C40.4845 84.322 40.3944 84.2474 40.3608 84.1268C40.3089 84.0026 40.2733 83.8435 40.2541 83.6496C40.2343 83.3604 40.189 83.1044 40.1183 82.8815C40.0293 82.6549 39.8199 82.5096 39.4901 82.4454L33.746 81.327C33.3062 81.2414 32.8853 81.2545 32.4832 81.3664C32.0663 81.4564 31.7194 81.6265 31.4424 81.8769C31.1471 82.1237 30.9638 82.4303 30.8925 82.7967C30.8176 83.1815 30.8012 83.5587 30.8433 83.9282C30.8855 84.2977 31.0027 84.6724 31.195 85.0521C31.4428 85.5378 31.9606 85.8573 32.7485 86.0107L38.5201 87.1344C38.8866 87.2058 39.1553 87.144 39.3264 86.9491C39.4827 86.7323 39.6242 86.4936 39.751 86.233C39.8381 86.0788 39.929 85.9539 40.0237 85.8582C40.122 85.7443 40.2352 85.6997 40.3635 85.7247C40.4734 85.7461 40.547 85.808 40.5841 85.9103C40.6212 86.0126 40.6237 86.1462 40.5916 86.3111C40.5203 86.6776 40.4431 86.9763 40.3601 87.2074C40.2954 87.442 40.2324 87.6675 40.1713 87.8838C40.1102 88.1001 40.0475 88.3732 39.9833 88.703C39.9227 89.0144 39.8783 89.2911 39.8503 89.5328C39.8258 89.7563 39.7995 89.9889 39.7714 90.2306C39.7617 90.476 39.7212 90.7818 39.6498 91.1483C39.6248 91.2766 39.5742 91.3903 39.4978 91.4895C39.4214 91.5888 39.3283 91.6277 39.2183 91.6063C39.0718 91.5777 38.9835 91.494 38.9535 91.355C38.9052 91.2125 38.8678 91.0626 38.8414 90.9053C38.8216 90.6162 38.7763 90.3602 38.7056 90.1372C38.6202 89.8924 38.4126 89.7378 38.0828 89.6736L32.3386 88.5552C31.8989 88.4696 31.4779 88.4828 31.0758 88.5946C30.6773 88.6882 30.3303 88.8584 30.0351 89.1051C29.7398 89.3519 29.5565 89.6586 29.4851 90.025C29.4138 90.3915 29.3974 90.7686 29.436 91.1565C29.4782 91.526 29.5954 91.9006 29.7877 92.2804C30.0024 92.7406 30.5128 93.0491 31.319 93.2061L37.1181 94.3352C37.4662 94.403 37.724 94.3486 37.8915 94.172C38.0407 93.9919 38.1879 93.7733 38.333 93.5163C38.4165 93.3804 38.5074 93.2555 38.6057 93.1415C38.6856 93.0239 38.7989 92.9794 38.9454 93.008C39.0554 93.0294 39.1271 93.1004 39.1607 93.221C39.1978 93.3233 39.2021 93.4478 39.1736 93.5944C39.1022 93.9608 39.025 94.2596 38.942 94.4906C38.8773 94.7253 38.8162 94.9416 38.7586 95.1395C38.7011 95.3375 38.6402 95.6014 38.576 95.9312C38.5153 96.2427 38.471 96.5193 38.4429 96.7611C38.4148 97.0029 38.385 97.2538 38.3534 97.5139C38.3437 97.7592 38.3031 98.0651 38.2318 98.4315Z" fill="white"/>
<path d="M43.0429 78.0872C42.9817 78.2234 42.9026 78.3311 42.8056 78.4103C42.7162 78.4725 42.6205 78.4806 42.5183 78.4347C42.3821 78.3734 42.3114 78.2803 42.3063 78.1551C42.2918 78.0053 42.2981 77.8547 42.3253 77.7032C42.3992 77.2657 42.4187 76.9265 42.3837 76.6856C42.3487 76.4448 42.178 76.2555 41.8715 76.1177L36.3554 73.6376C35.8447 73.408 35.3978 73.3094 35.0148 73.3419C34.6148 73.3667 34.285 73.5766 34.0256 73.9716C33.9703 74.0491 33.9056 74.1019 33.8316 74.13C33.7482 74.1334 33.6469 74.1083 33.5277 74.0548C33.3234 73.9629 33.2472 73.8365 33.299 73.6757C33.4656 72.85 33.5313 72.1121 33.4962 71.4618C33.4517 70.7869 33.4056 70.2749 33.3578 69.926C33.3228 69.6851 33.3245 69.5222 33.3627 69.437C33.424 69.3008 33.5227 69.2633 33.6589 69.3246C33.8462 69.4088 34.1326 69.5683 34.5183 69.8031C34.9116 70.0208 35.3351 70.2624 35.7888 70.5278C36.2502 70.7762 36.6852 70.9922 37.0938 71.1759L42.9164 73.7938C43.1888 73.9162 43.4352 73.9144 43.6556 73.7884C43.876 73.6624 44.1253 73.4265 44.4035 73.0809C44.4988 72.96 44.6034 72.8638 44.7175 72.7922C44.8221 72.696 44.9425 72.6785 45.0787 72.7398C45.283 72.8316 45.3163 73.0308 45.1785 73.3372C45.0331 73.6607 44.8859 73.9425 44.7371 74.1825C44.6052 74.4303 44.4772 74.6695 44.353 74.9002C44.2365 75.1138 44.1093 75.3739 43.9715 75.6804C43.8414 75.9698 43.7313 76.2375 43.6412 76.4835C43.551 76.7295 43.4609 76.9755 43.3707 77.2215C43.3053 77.4582 43.196 77.7467 43.0429 78.0872ZM31.0266 69.9217C30.8352 70.3473 30.5259 70.6483 30.0987 70.8246C29.6621 70.9762 29.231 70.9564 28.8054 70.765C28.3627 70.566 28.0618 70.2567 27.9025 69.8372C27.7338 69.3929 27.7451 68.958 27.9365 68.5324C28.1355 68.0897 28.4571 67.7841 28.9014 67.6154C29.3286 67.4391 29.7635 67.4504 30.2062 67.6494C30.6318 67.8408 30.9289 68.1586 31.0976 68.6028C31.2493 69.0394 31.2256 69.479 31.0266 69.9217Z" fill="white"/>
<path d="M45.6605 71.5811C45.5767 71.7047 45.4802 71.7971 45.3709 71.8584C45.2617 71.9197 45.1608 71.9189 45.0681 71.856C44.9445 71.7722 44.891 71.6682 44.9075 71.5441C44.919 71.394 44.954 71.226 45.0125 71.0401C45.1078 70.7665 45.1696 70.4926 45.1976 70.2184C45.2257 69.9442 45.0853 69.7023 44.7763 69.4928L39.6783 66.035C39.2921 65.7731 38.9362 65.5994 38.6108 65.5139C38.2803 65.4026 37.943 65.5009 37.5988 65.8087C37.5415 65.8601 37.4739 65.8932 37.3961 65.9081C37.3029 65.9125 37.2099 65.8833 37.1172 65.8204C36.9164 65.6842 36.8554 65.5414 36.9343 65.3918C37.162 64.7568 37.3221 64.155 37.4146 63.5862C37.5177 63.002 37.5713 62.4406 37.5756 61.9022C37.5762 61.8349 37.5767 61.7676 37.5772 61.7003C37.5883 61.6176 37.6095 61.553 37.6409 61.5067C37.6828 61.4449 37.7322 61.422 37.789 61.438C37.8409 61.428 37.8977 61.444 37.9595 61.4859C38.0676 61.5593 38.2605 61.7239 38.538 61.9798C38.826 62.2203 39.0782 62.4138 39.2944 62.5605C39.3562 62.6024 39.418 62.6444 39.4798 62.6863C39.5521 62.7127 39.6012 62.7235 39.6271 62.7185C39.484 61.832 39.475 61.0139 39.6001 60.2642C39.7356 59.4991 40.0497 58.7534 40.5421 58.0274C41.066 57.2549 41.8021 56.8181 42.7504 56.717C43.6986 56.6158 44.6517 56.8901 45.6095 57.5397L50.6148 60.9346C50.9238 61.1441 51.1927 61.1799 51.4216 61.042C51.661 60.8886 51.8979 60.7222 52.1323 60.5429C52.2625 60.4507 52.3951 60.3715 52.5303 60.3053C52.6654 60.2391 52.7948 60.2479 52.9183 60.3317C53.0265 60.405 53.0593 60.5063 53.0169 60.6353C52.9849 60.749 52.9375 60.8522 52.8746 60.9449C52.6651 61.2538 52.4715 61.506 52.2939 61.7013C52.1422 61.8916 51.9906 62.082 51.8389 62.2724C51.6977 62.4473 51.5328 62.6737 51.3442 62.9518C51.1661 63.2144 51.0167 63.4514 50.8959 63.6627C50.7751 63.874 50.6491 64.0931 50.5179 64.3198C50.4126 64.5416 50.2551 64.807 50.0456 65.1159C49.9932 65.1932 49.9148 65.2754 49.8106 65.3626C49.7064 65.4498 49.6002 65.4567 49.492 65.3833C49.3684 65.2995 49.3124 65.1826 49.324 65.0325C49.3355 64.8825 49.36 64.7299 49.3975 64.5749C49.4775 64.2908 49.5392 64.0169 49.5827 63.7532C49.6262 63.4895 49.4935 63.2529 49.1845 63.0433L44.3878 59.7899C43.7389 59.3498 43.1164 59.1869 42.5201 59.3012C41.9342 59.4001 41.445 59.7224 41.0523 60.2681C40.7275 60.747 40.5166 61.2242 40.4196 61.6997C40.3177 62.1493 40.2855 62.6125 40.3231 63.0891C40.343 63.1928 40.3888 63.2915 40.4605 63.3853C40.5323 63.479 40.6068 63.5521 40.684 63.6045L46.2454 67.3766C46.5544 67.5862 46.8311 67.6272 47.0754 67.4997C47.3043 67.3618 47.523 67.2056 47.7315 67.0312C48.0702 66.7647 48.3245 66.6891 48.4944 66.8043C48.5871 66.8672 48.6304 66.953 48.6244 67.0616C48.6183 67.1703 48.5682 67.2942 48.4739 67.4332C48.2643 67.7422 48.0707 67.9943 47.8931 68.1897C47.7415 68.38 47.595 68.5626 47.4539 68.7375C47.3231 68.897 47.1635 69.1158 46.9749 69.3938C46.7968 69.6565 46.6473 69.8934 46.5266 70.1047C46.4058 70.316 46.2798 70.5351 46.1485 70.7618C46.0327 70.9991 45.8701 71.2722 45.6605 71.5811Z" fill="white"/>
<path d="M62.3914 62.798C61.1913 63.9469 60.0342 64.6412 58.9199 64.8809C57.8192 65.1078 56.9203 64.8572 56.2232 64.129C55.8618 63.7515 55.6188 63.3897 55.4943 63.0437C55.3698 62.6978 55.3389 62.301 55.4015 61.8535C55.4623 61.4851 55.5246 61.0508 55.5883 60.5505C55.6655 60.0373 55.7424 59.5373 55.819 59.0505L56.8647 58.3207C56.6206 59.2264 56.5385 59.9639 56.6185 60.5334C56.7114 61.1163 56.9902 61.6505 57.4549 62.1359C57.9841 62.6887 58.659 62.9213 59.4795 62.8336C60.2999 62.7458 61.0607 62.3663 61.7619 61.6951C62.6114 60.8819 63.0843 60.0802 63.1808 59.2902C63.2586 58.7506 63.1976 58.2146 62.998 57.6821C62.8119 57.1367 62.5252 56.6618 62.1379 56.2573C61.8797 55.9876 61.5724 55.8555 61.2158 55.8609C60.8592 55.8663 60.4203 56.0152 59.899 56.3075C59.3777 56.5998 58.734 57.061 57.9677 57.6912C56.5565 58.8355 55.4459 59.511 54.6361 59.7178C53.8262 59.9246 53.1567 59.7516 52.6274 59.1987C52.4983 59.0639 52.4094 58.9035 52.3607 58.7176C52.3254 58.5188 52.3308 58.2681 52.3771 57.9654C52.4402 57.4915 52.4946 57.1164 52.5402 56.8402C52.5858 56.5639 52.6104 56.3466 52.6138 56.1883C52.6179 56.0035 52.5955 55.8182 52.5467 55.6323L53.6647 55.221C53.4848 55.5999 53.3844 55.9674 53.3634 56.3234C53.3425 56.6794 53.3965 56.9249 53.5256 57.0597C53.6934 57.235 53.9363 57.2997 54.2541 57.2538C54.5591 57.1944 54.9461 57.0049 55.4151 56.685C55.8842 56.3652 56.4547 55.9353 57.1266 55.3955C58.5254 54.2114 59.6964 53.4909 60.6393 53.2343C61.5823 52.9776 62.3507 53.1593 62.9445 53.7796C63.4608 54.319 63.8227 54.9804 64.03 55.7638C64.2638 56.5479 64.358 57.3751 64.3126 58.2455C64.2672 59.1158 64.084 59.9502 63.7629 60.7486C63.4418 61.5469 62.9847 62.2301 62.3914 62.798ZM54.309 53.829C54.7944 53.3643 54.9466 52.7405 54.7657 51.9576C54.5982 51.1618 54.1401 50.3728 53.3914 49.5908C52.9783 49.1593 52.5231 48.8457 52.0257 48.65C51.5282 48.4543 51.0479 48.3845 50.5846 48.4404C50.1218 48.4699 49.7287 48.6396 49.405 48.9494C49.1084 49.2333 48.9352 49.6058 48.8856 50.0668C48.8359 50.5278 48.9112 51.0114 49.1114 51.5174C49.2987 52.01 49.5989 52.472 50.012 52.9035C50.4767 53.3889 50.9768 53.7629 51.5124 54.0254C52.0485 54.2616 52.5676 54.3719 53.0697 54.3565C53.5723 54.3146 53.9854 54.1388 54.309 53.829ZM54.883 54.7525C54.3166 55.2946 53.635 55.6758 52.838 55.8961C52.0411 56.1164 51.2482 56.1519 50.4593 56.0027C49.6575 55.8399 48.979 55.4687 48.424 54.8889C47.7915 54.2282 47.4181 53.4873 47.304 52.6662C47.177 51.8317 47.2676 51.0085 47.5757 50.1967C47.8844 49.3585 48.3557 48.636 48.9894 48.0293C49.3939 47.6421 49.8029 47.3539 50.2163 47.1649C50.6303 46.9495 51.0381 46.7141 51.4397 46.4588C51.8273 46.2429 52.1351 46.0515 52.3632 45.8849C52.5918 45.6918 52.8275 45.4791 53.0702 45.2468C53.2455 45.079 53.4413 44.8786 53.6577 44.6457C53.8611 44.3992 54.0167 44.2244 54.1246 44.1211C54.3133 43.9404 54.5239 43.9714 54.7563 44.2141C54.9241 44.3894 55.0113 44.629 55.0178 44.9328C55.0144 45.0911 54.9857 45.1961 54.9318 45.2477L54.3857 45.7705C54.0351 46.1062 53.8777 46.3602 53.9136 46.5326C53.9253 46.5989 53.9564 46.6854 54.0069 46.7921C54.058 46.8724 54.1349 46.9797 54.2376 47.114C54.3537 47.2353 54.5022 47.3904 54.6829 47.5792C55.3541 48.2803 55.8055 49.0757 56.0369 49.9653C56.2684 50.8549 56.289 51.7267 56.0987 52.5808C55.922 53.4219 55.5167 54.1458 54.883 54.7525Z" fill="white"/>
<path d="M74.6615 44.9405C73.9429 45.2539 73.2223 45.4461 72.4996 45.5169C71.7845 45.6049 71.0759 45.5678 70.3738 45.4056C70.2755 45.367 70.1649 45.3236 70.0421 45.2754C69.9289 45.2026 69.8327 45.1223 69.7537 45.0346C69.4623 44.6933 69.1641 44.243 68.859 43.6837C68.5635 43.0998 68.3065 42.5806 68.0878 42.1261C68.0356 42.0063 68.0496 41.8984 68.1299 41.8023C68.2027 41.6891 68.3075 41.6026 68.4444 41.5429C68.5642 41.4906 68.6695 41.4752 68.7603 41.4967C68.8608 41.4936 68.9542 41.5445 69.0407 41.6493C69.9672 42.7929 70.9231 43.5368 71.9082 43.881C72.8858 44.208 73.7853 44.1924 74.6065 43.8341C75.1883 43.5804 75.6285 43.2356 75.9271 42.7998C76.2429 42.3566 76.4273 41.8689 76.4802 41.3366C76.5257 40.7873 76.429 40.2389 76.1902 39.6914C75.9066 39.0412 75.564 38.5593 75.1624 38.2457C74.7609 37.9321 74.2753 37.7061 73.7058 37.5676C73.1362 37.4291 72.4528 37.3097 71.6556 37.2094C70.7921 37.0974 69.9296 36.9644 69.0683 36.8107C68.2241 36.6494 67.4575 36.3627 66.7685 35.9505C66.0796 35.5382 65.5448 34.8958 65.1641 34.0232C64.7611 33.0993 64.6204 32.1933 64.7422 31.3052C64.8735 30.3925 65.2688 29.548 65.9281 28.7717C66.5799 27.9782 67.496 27.324 68.6766 26.809C69.2925 26.5403 69.8785 26.3662 70.4343 26.2866C70.9999 26.1825 71.4665 26.1317 71.8342 26.1342C72.0105 26.1184 72.1676 26.1517 72.3054 26.2341C72.4603 26.3091 72.6008 26.4209 72.7267 26.5696C72.969 26.8916 73.246 27.2698 73.5576 27.7041C73.8693 28.1383 74.1333 28.6036 74.3497 29.0998C74.4318 29.288 74.336 29.4418 74.0623 29.5612C73.9083 29.6284 73.7479 29.6576 73.5812 29.6489C73.4145 29.6401 73.2916 29.5919 73.2126 29.5042C72.4524 28.6953 71.7075 28.1547 70.9777 27.8825C70.2651 27.6027 69.5238 27.6308 68.7539 27.9667C68.2406 28.1906 67.8112 28.4899 67.4655 28.8647C67.1295 29.2149 66.9228 29.6514 66.8453 30.1739C66.7774 30.672 66.8853 31.246 67.1689 31.8962C67.3704 32.3582 67.7147 32.7273 68.2018 33.0036C68.6986 33.2553 69.2942 33.4537 69.9888 33.5987C70.6931 33.7192 71.4647 33.8306 72.3036 33.933C73.1917 34.0548 74.0188 34.2235 74.7849 34.4391C75.5511 34.6548 76.2273 34.9911 76.8136 35.4482C77.3924 35.8881 77.861 36.5187 78.2193 37.3399C78.6895 38.4178 78.853 39.4462 78.7098 40.4251C78.5591 41.387 78.1333 42.2549 77.4324 43.0291C76.7486 43.7958 75.8249 44.4329 74.6615 44.9405Z" fill="white"/>
<path d="M86.3031 40.9319C85.262 41.1512 84.2621 41.1138 83.3036 40.8197C82.3595 40.5034 81.5524 39.9771 80.8823 39.2408C80.2121 38.5044 79.7636 37.5974 79.5366 36.5197C79.3674 35.716 79.3591 34.907 79.5119 34.0927C79.6647 33.2784 79.9608 32.5102 80.4001 31.7882C80.8394 31.0661 81.3969 30.4527 82.0728 29.9479C82.7447 29.4249 83.51 29.073 84.3685 28.8922C85.4462 28.6652 86.4792 28.7243 87.4675 29.0693C88.452 29.3961 89.2884 29.9258 89.9768 30.6583C90.6652 31.3908 91.1152 32.2594 91.3268 33.2641C91.5576 34.36 91.5375 35.4421 91.2664 36.5102C90.9954 37.5783 90.4485 38.5137 89.6256 39.3166C88.8171 40.0973 87.7096 40.6357 86.3031 40.9319ZM86.6766 39.8518C87.2063 39.7402 87.66 39.5397 88.0378 39.2503C88.4118 38.9427 88.6713 38.5446 88.8165 38.0562C88.9472 37.59 88.9856 37.0477 88.9317 36.4296C88.8923 35.7893 88.8052 35.1495 88.6706 34.5102C88.4782 33.5969 88.1513 32.7692 87.6898 32.027C87.2283 31.2849 86.6898 30.721 86.0745 30.3356C85.4592 29.9501 84.8045 29.8305 84.1104 29.9766C83.6903 30.0651 83.3221 30.219 83.0058 30.4382C82.704 30.6353 82.4506 30.9271 82.2459 31.3136C81.9873 31.8068 81.8744 32.4029 81.9071 33.1018C81.936 33.7824 82.0332 34.5155 82.1986 35.3009C82.3832 36.1777 82.7063 36.9871 83.1678 37.7293C83.6294 38.4715 84.1606 39.0463 84.7615 39.4539C85.3806 39.8576 86.019 39.9903 86.6766 39.8518Z" fill="white"/>
<path d="M99.4056 39.3853C98.3416 39.377 97.3729 39.1269 96.4993 38.6348C95.6446 38.1242 94.9685 37.4376 94.4711 36.5751C93.9738 35.7125 93.7294 34.7306 93.7379 33.6293C93.7442 32.808 93.909 32.0159 94.2322 31.2531C94.5555 30.4902 95.0088 29.803 95.5922 29.1915C96.1756 28.58 96.8513 28.0999 97.6194 27.7511C98.3876 27.3837 99.2103 27.2034 100.088 27.2102C101.189 27.2187 102.185 27.497 103.077 28.0453C103.969 28.5748 104.673 29.271 105.189 30.1336C105.705 30.9963 105.959 31.941 105.951 32.9676C105.943 34.0876 105.692 35.1403 105.199 36.1259C104.706 37.1114 103.972 37.9085 102.996 38.517C102.04 39.1069 100.843 39.3964 99.4056 39.3853ZM100.001 38.4098C100.542 38.414 101.029 38.3151 101.459 38.1131C101.891 37.8924 102.229 37.559 102.475 37.1129C102.703 36.6853 102.856 36.1638 102.935 35.5484C103.034 34.9145 103.085 34.2708 103.09 33.6175C103.097 32.6842 102.955 31.8058 102.663 30.9822C102.37 30.1585 101.965 29.4927 101.446 28.9847C100.927 28.4767 100.313 28.2199 99.6038 28.2145C99.1745 28.2111 98.782 28.2828 98.4262 28.4294C98.0892 28.5574 97.7794 28.7884 97.4968 29.1222C97.1388 29.5488 96.9012 30.107 96.7838 30.7968C96.6666 31.4679 96.6049 32.2048 96.5988 33.0074C96.5918 33.9034 96.7345 34.7632 97.0269 35.5868C97.3192 36.4104 97.7153 37.0855 98.2153 37.612C98.7339 38.1387 99.3292 38.4046 100.001 38.4098Z" fill="white"/>
<path d="M107.075 39.1005C106.929 39.067 106.808 39.0103 106.712 38.9306C106.615 38.8509 106.579 38.7564 106.605 38.6473C106.638 38.5018 106.716 38.4143 106.838 38.3849C106.982 38.3415 107.151 38.3135 107.345 38.3009C107.635 38.2911 107.913 38.2497 108.179 38.1769C108.444 38.1041 108.619 37.8858 108.703 37.522L110.087 31.5196C110.192 31.0648 110.226 30.6703 110.188 30.3359C110.172 29.9875 109.959 29.7084 109.548 29.4986C109.479 29.4637 109.424 29.4126 109.382 29.3454C109.344 29.2601 109.338 29.1629 109.363 29.0537C109.417 28.8173 109.529 28.7088 109.696 28.7284C110.371 28.7115 110.99 28.6435 111.554 28.5245C112.136 28.4097 112.679 28.2571 113.182 28.0667C113.245 28.0429 113.308 28.0191 113.371 27.9953C113.452 27.9757 113.52 27.9722 113.575 27.9848C113.647 28.0016 113.687 28.0393 113.692 28.0981C113.72 28.1429 113.726 28.2016 113.709 28.2744C113.68 28.4017 113.596 28.641 113.457 28.9922C113.337 29.3476 113.248 29.6526 113.189 29.9072C113.172 29.98 113.155 30.0528 113.139 30.1255C113.14 30.2025 113.148 30.2521 113.162 30.2745C113.937 29.8211 114.696 29.5173 115.441 29.3633C116.203 29.2135 117.012 29.2371 117.867 29.4342C118.776 29.644 119.449 30.1727 119.886 31.0205C120.323 31.8683 120.411 32.8561 120.151 33.9838L118.792 39.8772C118.708 40.2409 118.772 40.5047 118.983 40.6683C119.213 40.8362 119.453 40.997 119.705 41.1509C119.838 41.239 119.96 41.3341 120.07 41.4363C120.181 41.5384 120.219 41.6622 120.186 41.8077C120.156 41.935 120.074 42.0022 119.938 42.0092C119.821 42.0204 119.707 42.0135 119.598 41.9883C119.234 41.9044 118.929 41.8149 118.683 41.7198C118.451 41.6471 118.219 41.5744 117.986 41.5017C117.772 41.4332 117.501 41.3611 117.174 41.2857C116.865 41.2143 116.59 41.1605 116.349 41.1242C116.109 41.0879 115.859 41.0494 115.6 41.0089C115.355 40.9907 115.051 40.9397 114.687 40.8558C114.596 40.8349 114.491 40.7915 114.372 40.7258C114.253 40.66 114.209 40.5635 114.238 40.4362C114.271 40.2907 114.36 40.1962 114.504 40.1528C114.648 40.1094 114.8 40.0772 114.958 40.0562C115.251 40.0282 115.529 39.9868 115.791 39.9322C116.052 39.8776 116.225 39.6684 116.309 39.3046L117.611 33.6568C117.788 32.8929 117.715 32.2535 117.393 31.7387C117.089 31.228 116.612 30.8881 115.961 30.719C115.397 30.5889 114.876 30.5645 114.398 30.6458C113.942 30.713 113.498 30.8502 113.067 31.0573C112.978 31.1133 112.902 31.1917 112.841 31.2924C112.779 31.3932 112.738 31.489 112.717 31.58L111.207 38.1281C111.123 38.4919 111.185 38.7647 111.392 38.9466C111.603 39.1103 111.828 39.2578 112.066 39.3893C112.436 39.6089 112.599 39.8187 112.553 40.0188C112.527 40.128 112.463 40.1993 112.36 40.2329C112.256 40.2665 112.122 40.2645 111.959 40.2267C111.595 40.1428 111.29 40.0533 111.044 39.9582C110.811 39.8855 110.588 39.8149 110.374 39.7464C110.178 39.682 109.917 39.6121 109.589 39.5366C109.28 39.4653 109.005 39.4115 108.764 39.3752C108.524 39.3388 108.274 39.3004 108.015 39.2599C107.752 39.2375 107.439 39.1844 107.075 39.1005Z" fill="white"/>
<path d="M154.687 54.371C154.592 54.2559 154.546 54.1124 154.549 53.9403C154.579 53.7707 154.659 53.6192 154.791 53.4859L156.394 51.6888C156.098 51.5945 155.744 51.4748 155.334 51.3298C154.935 51.1992 154.517 51.0602 154.081 50.9127C154.002 50.9052 153.931 50.8786 153.869 50.833C153.807 50.7873 153.753 50.7357 153.705 50.6782C153.61 50.5631 153.557 50.4255 153.545 50.2653C153.546 50.1195 153.604 49.999 153.719 49.9039C153.891 49.7611 154.115 49.7094 154.39 49.7487L156.729 50.2489C156.666 49.938 156.587 49.5792 156.493 49.1725C156.399 48.7658 156.306 48.346 156.215 47.9131C156.186 47.7911 156.193 47.6525 156.234 47.4973C156.287 47.3565 156.357 47.2504 156.443 47.179C156.63 47.0244 156.818 47.0024 157.006 47.1131C157.195 47.2237 157.32 47.3748 157.381 47.5662C157.513 47.9898 157.641 48.393 157.764 48.7759C157.886 49.1588 158.01 49.5285 158.136 49.8851C158.4 49.6184 158.671 49.3458 158.949 49.0673C159.239 48.8031 159.557 48.5283 159.902 48.2428C160.046 48.1239 160.205 48.0528 160.38 48.0295C160.569 47.9944 160.736 48.05 160.881 48.1964C160.974 48.3378 161.006 48.4932 160.976 48.6628C160.961 48.8205 160.895 48.9601 160.777 49.0815L159.157 50.857C159.453 50.9514 159.801 51.0639 160.199 51.1945C160.612 51.3132 161.03 51.4522 161.452 51.6116C161.531 51.6191 161.602 51.6456 161.664 51.6913C161.74 51.725 161.802 51.7707 161.849 51.8282C161.945 51.9433 161.998 52.0809 162.009 52.2411C162.035 52.3894 161.976 52.523 161.832 52.642C161.674 52.7728 161.457 52.8186 161.183 52.7793L158.822 52.2969C158.897 52.6223 158.983 52.9751 159.079 53.3555C159.188 53.7503 159.281 54.1701 159.358 54.6149C159.398 54.7513 159.391 54.8899 159.338 55.0307C159.311 55.174 159.248 55.2873 159.147 55.3706C158.974 55.5133 158.794 55.5293 158.605 55.4187C158.417 55.308 158.278 55.1688 158.188 55.0012C158.07 54.5657 157.942 54.1625 157.805 53.7915C157.668 53.4206 157.544 53.0508 157.433 52.6823C157.212 52.9133 156.942 53.1728 156.623 53.4607C156.316 53.7631 155.996 54.0642 155.663 54.364C155.519 54.483 155.352 54.56 155.163 54.5951C154.989 54.6184 154.83 54.5437 154.687 54.371Z" fill="white"/>
</svg>
