<svg width="200" height="200" viewBox="0 0 200 200" fill="none" xmlns="http://www.w3.org/2000/svg">
<path d="M198 100C198 154.124 154.124 198 100 198C45.8761 198 2 154.124 2 100C2 45.8761 45.8761 2 100 2C154.124 2 198 45.8761 198 100Z" stroke="#C42D1C" stroke-width="4"/>
<path d="M153.543 115.667C153.565 115.595 153.668 115.55 153.851 115.53C154.016 115.505 154.199 115.485 154.399 115.471L170.835 114.003C171.342 113.95 171.783 113.827 172.159 113.633C172.552 113.446 172.888 113.132 173.166 112.692C173.334 112.471 173.48 112.293 173.602 112.155C173.742 112.024 173.884 111.981 174.026 112.026C174.15 112.066 174.208 112.163 174.197 112.317C174.2 112.494 174.169 112.68 174.107 112.876C173.964 113.32 173.801 113.768 173.618 114.218C173.446 114.693 173.286 115.161 173.138 115.623C172.973 116.139 172.822 116.639 172.686 117.125C172.568 117.616 172.449 118.049 172.33 118.422C172.256 118.653 172.169 118.831 172.07 118.956C171.971 119.081 171.869 119.127 171.762 119.093C171.62 119.047 171.536 118.942 171.51 118.777C171.485 118.612 171.473 118.373 171.475 118.06C171.502 117.794 171.446 117.6 171.309 117.477C171.166 117.373 170.997 117.289 170.802 117.227C170.57 117.153 170.34 117.108 170.109 117.093C169.879 117.078 169.752 117.077 169.728 117.089C168.643 117.172 167.62 117.246 166.658 117.311C165.715 117.381 164.789 117.456 163.881 117.538C162.99 117.625 162.07 117.713 161.121 117.8C160.189 117.894 159.187 117.994 158.114 118.101C157.89 118.127 157.769 118.167 157.752 118.221C157.729 118.292 157.795 118.391 157.95 118.519L161.645 121.761C161.753 121.854 161.848 121.924 161.931 121.97C162.027 122.04 162.11 122.086 162.181 122.109C162.27 122.138 162.373 122.151 162.491 122.15C162.609 122.148 162.748 122.144 162.907 122.136L168.064 121.642C168.648 121.594 169.192 121.395 169.695 121.047C170.193 120.717 170.581 120.331 170.859 119.891C171.028 119.671 171.171 119.501 171.287 119.382C171.422 119.268 171.56 119.234 171.702 119.279C171.827 119.319 171.887 119.407 171.882 119.543C171.89 119.702 171.863 119.88 171.8 120.075C171.698 120.395 171.586 120.712 171.466 121.026C171.34 121.359 171.214 121.691 171.088 122.023C170.98 122.36 170.874 122.689 170.772 123.009C170.629 123.454 170.502 123.883 170.388 124.298C170.287 124.736 170.18 125.133 170.066 125.488C169.986 125.737 169.897 125.924 169.798 126.049C169.693 126.192 169.588 126.246 169.481 126.212C169.339 126.167 169.249 126.05 169.211 125.861C169.186 125.696 169.157 125.51 169.125 125.304C169.087 125.116 169 124.96 168.863 124.838C168.844 124.714 168.793 124.629 168.709 124.583C168.62 124.555 168.526 124.544 168.426 124.551C168.302 124.57 168.084 124.579 167.771 124.576C167.452 124.592 167.104 124.608 166.726 124.624C166.361 124.664 166.01 124.688 165.673 124.698C165.331 124.726 165.078 124.752 164.913 124.778C164.648 124.811 164.515 124.856 164.516 124.915C164.511 124.992 164.592 125.106 164.759 125.258C165.021 125.479 165.322 125.732 165.662 126.018C166.02 126.309 166.365 126.576 166.699 126.82C167.05 127.07 167.288 127.244 167.413 127.343C167.491 127.407 167.592 127.459 167.716 127.499C167.947 127.573 168.145 127.538 168.308 127.395C168.472 127.251 168.63 127.096 168.781 126.929C168.945 126.785 169.106 126.739 169.266 126.79C169.373 126.824 169.436 126.903 169.455 127.027C169.469 127.169 169.436 127.364 169.356 127.613C169.225 128.022 169.128 128.294 169.064 128.431C168.995 128.585 168.921 128.787 168.841 129.036C168.75 129.32 168.685 129.583 168.647 129.826C168.608 130.068 168.526 130.385 168.401 130.776C168.333 130.99 168.249 131.159 168.15 131.284C168.046 131.427 167.931 131.478 167.807 131.438C167.664 131.393 167.581 131.288 167.555 131.123C167.53 130.958 167.524 130.73 167.538 130.441C167.59 129.85 167.538 129.402 167.381 129.097C167.236 128.815 167.014 128.499 166.714 128.148C166.518 127.968 166.255 127.717 165.926 127.396C165.592 127.093 165.234 126.772 164.853 126.435C164.471 126.097 164.11 125.785 163.77 125.5C163.633 125.377 163.452 125.27 163.226 125.178C163.019 125.092 162.835 125.053 162.676 125.061L155.642 125.542C155.5 125.555 155.439 125.594 155.457 125.659C155.493 125.729 155.556 125.808 155.646 125.896C156.778 126.827 158.131 127.868 159.703 129.019C161.269 130.187 162.865 131.355 164.49 132.522C164.728 132.697 164.924 132.818 165.079 132.887C165.245 132.98 165.39 133.046 165.515 133.086C165.769 133.148 166.006 133.145 166.223 133.077C166.453 133.033 166.64 132.878 166.784 132.61C166.895 132.45 167.026 132.286 167.177 132.119C167.329 131.952 167.476 131.891 167.618 131.937C167.724 131.971 167.782 132.067 167.789 132.227C167.791 132.404 167.758 132.599 167.69 132.812C167.553 133.239 167.433 133.583 167.33 133.844C167.227 134.105 167.127 134.386 167.03 134.688C166.923 135.085 166.818 135.473 166.716 135.852C166.632 136.237 166.527 136.625 166.402 137.016C166.328 137.247 166.239 137.434 166.134 137.577C166.047 137.725 165.933 137.777 165.791 137.731C165.666 137.692 165.585 137.577 165.548 137.389C165.528 137.206 165.522 136.979 165.531 136.707C165.573 136.27 165.515 135.869 165.357 135.505C165.217 135.147 165.022 134.839 164.771 134.582C164.52 134.325 164.281 134.092 164.054 133.882L151.57 124.12C151.474 124.05 151.37 123.948 151.256 123.813C151.142 123.679 151.102 123.558 151.137 123.452C151.165 123.363 151.25 123.282 151.391 123.21C151.508 123.149 151.646 123.115 151.806 123.107C152.778 123.007 153.689 122.917 154.539 122.836C155.406 122.761 156.311 122.689 157.255 122.618C158.193 122.566 159.26 122.477 160.457 122.351C160.598 122.337 160.669 122.301 160.668 122.242C160.662 122.201 160.59 122.119 160.453 121.997C159.671 121.315 158.953 120.683 158.297 120.1C157.658 119.523 157.002 118.941 156.328 118.352C155.648 117.782 154.906 117.162 154.101 116.492C153.946 116.364 153.806 116.221 153.68 116.063C153.549 115.923 153.503 115.791 153.543 115.667Z" fill="#C42D1C"/>
<path d="M144.655 133.484C145.284 132.626 146.054 131.987 146.964 131.566C147.878 131.171 148.83 131.025 149.821 131.126C150.811 131.227 151.751 131.603 152.639 132.254C153.301 132.74 153.847 133.337 154.277 134.045C154.707 134.754 154.999 135.523 155.154 136.354C155.308 137.185 155.302 138.014 155.136 138.841C154.985 139.679 154.65 140.452 154.131 141.159C153.48 142.047 152.671 142.693 151.705 143.096C150.754 143.509 149.777 143.673 148.776 143.587C147.774 143.501 146.859 143.154 146.031 142.547C145.128 141.885 144.421 141.066 143.91 140.09C143.399 139.113 143.182 138.052 143.259 136.904C143.34 135.784 143.805 134.643 144.655 133.484ZM145.098 134.538C144.778 134.974 144.574 135.427 144.485 135.894C144.412 136.373 144.485 136.843 144.703 137.303C144.916 137.738 145.25 138.167 145.702 138.591C146.159 139.042 146.651 139.46 147.178 139.847C147.93 140.398 148.726 140.797 149.565 141.041C150.404 141.286 151.182 141.346 151.897 141.223C152.613 141.099 153.18 140.751 153.599 140.179C153.853 139.833 154.025 139.473 154.114 139.098C154.207 138.75 154.201 138.364 154.096 137.939C153.959 137.4 153.645 136.88 153.155 136.382C152.679 135.894 152.117 135.413 151.47 134.938C150.747 134.409 149.966 134.022 149.127 133.777C148.288 133.532 147.509 133.459 146.79 133.556C146.059 133.669 145.495 133.996 145.098 134.538Z" fill="#C42D1C"/>
<path d="M140.46 140.002C140.583 139.888 140.705 139.813 140.825 139.778C140.932 139.755 141.023 139.785 141.099 139.867C141.201 139.976 141.23 140.09 141.186 140.207C141.141 140.351 141.07 140.507 140.971 140.675C140.747 141.01 140.638 141.29 140.643 141.515C140.635 141.752 140.726 141.973 140.916 142.178L145.111 146.69C145.429 147.031 145.744 147.274 146.055 147.417C146.38 147.574 146.731 147.541 147.109 147.317C147.176 147.28 147.263 147.263 147.368 147.267C147.46 147.283 147.544 147.333 147.621 147.415C147.76 147.565 147.781 147.724 147.682 147.893C147.401 148.358 147.131 148.89 146.872 149.488C146.625 150.099 146.435 150.608 146.301 151.012C146.27 151.143 146.233 151.254 146.19 151.345C146.147 151.436 146.112 151.494 146.084 151.519C145.989 151.608 145.89 151.598 145.788 151.489C145.738 151.434 145.636 151.312 145.485 151.121C145.32 150.944 145.142 150.739 144.952 150.508C144.763 150.276 144.572 150.058 144.382 149.853C144.331 149.798 144.292 149.784 144.265 149.809C144.3 150.286 144.296 150.761 144.252 151.235C144.195 151.722 144.08 152.173 143.906 152.589C143.745 153.019 143.528 153.362 143.254 153.616C142.899 153.946 142.556 154.125 142.224 154.153C141.906 154.194 141.639 154.099 141.423 153.866C141.283 153.716 141.165 153.494 141.07 153.2C140.974 152.932 140.932 152.653 140.942 152.363C140.952 152.099 141.039 151.891 141.203 151.738C141.298 151.649 141.42 151.574 141.568 151.514C141.728 151.467 141.895 151.413 142.069 151.354C142.229 151.307 142.39 151.246 142.551 151.173C142.711 151.126 142.846 151.052 142.955 150.95C143.297 150.632 143.497 150.217 143.555 149.704C143.613 149.191 143.312 148.579 142.651 147.868L139.066 144.013C138.863 143.794 138.615 143.706 138.323 143.748C138.031 143.791 137.657 143.922 137.199 144.143C137.011 144.242 136.85 144.302 136.717 144.324C136.597 144.359 136.493 144.329 136.404 144.233C136.251 144.069 136.305 143.867 136.564 143.625C136.975 143.244 137.349 142.934 137.688 142.695C138 142.455 138.334 142.17 138.69 141.84C138.922 141.624 139.121 141.426 139.286 141.247C139.451 141.069 139.623 140.883 139.801 140.692C139.967 140.486 140.187 140.257 140.46 140.002Z" fill="#C42D1C"/>
<path d="M132.41 146.584C132.754 146.361 132.988 146.344 133.109 146.532C133.19 146.657 133.191 146.779 133.112 146.897C133.033 147.015 132.943 147.151 132.842 147.305C132.658 147.535 132.499 147.771 132.366 148.013C132.233 148.254 132.273 148.539 132.486 148.869L139.982 160.46C140.316 160.978 140.64 161.324 140.954 161.499C141.267 161.674 141.65 161.682 142.103 161.523C142.264 161.463 142.405 161.527 142.527 161.715C142.639 161.888 142.642 162.03 142.537 162.143C142.18 162.485 141.869 162.83 141.606 163.178C141.326 163.537 141.073 163.867 140.846 164.169C140.614 164.498 140.41 164.785 140.236 165.031C140.157 165.149 140.086 165.228 140.023 165.268C139.96 165.309 139.906 165.311 139.86 165.274C139.808 165.263 139.757 165.218 139.707 165.14C139.615 164.999 139.469 164.704 139.268 164.256C139.052 163.818 138.69 163.207 138.183 162.423L132.953 154.335C132.852 154.178 132.754 154.13 132.66 154.191C132.582 154.242 132.5 154.339 132.415 154.483C132.331 154.627 132.261 154.794 132.206 154.985C131.924 155.923 131.715 156.769 131.581 157.523C131.446 158.278 131.366 158.807 131.341 159.112C131.339 159.247 131.338 159.348 131.337 159.415C131.33 159.508 131.342 159.578 131.373 159.625C131.423 159.704 131.539 159.729 131.721 159.7C131.897 159.697 132.081 159.656 132.274 159.576C132.483 159.486 132.627 159.503 132.708 159.628C132.769 159.723 132.768 159.823 132.704 159.931C132.635 160.065 132.53 160.177 132.389 160.269L131.237 161.014C130.986 161.176 130.706 161.379 130.397 161.623C130.083 161.893 129.784 162.153 129.501 162.403C129.218 162.653 128.998 162.828 128.841 162.929C128.637 163.061 128.48 163.041 128.368 162.868C128.307 162.774 128.306 162.653 128.365 162.503C128.409 162.364 128.501 162.215 128.643 162.057C128.885 161.812 129.104 161.514 129.301 161.165C129.507 160.831 129.693 160.5 129.858 160.171C129.954 159.976 130.086 159.646 130.253 159.182C130.42 158.719 130.59 158.209 130.763 157.652C130.937 157.095 131.092 156.561 131.228 156.051C131.272 155.911 131.268 155.803 131.217 155.724C131.197 155.693 131.169 155.667 131.133 155.645C131.082 155.634 131.038 155.618 131.002 155.597C130.27 155.359 129.53 155.126 128.783 154.898C128.035 154.67 127.341 154.474 126.702 154.31C126.062 154.145 125.543 154.014 125.146 153.915C124.707 153.821 124.25 153.783 123.773 153.803C123.281 153.832 122.887 153.876 122.591 153.934C122.403 153.988 122.219 154.029 122.037 154.058C121.85 154.112 121.716 154.077 121.635 153.951C121.513 153.763 121.609 153.568 121.923 153.365C122.66 152.889 123.446 152.403 124.281 151.907C125.091 151.406 125.895 150.897 126.695 150.38C126.992 150.187 127.197 150.177 127.309 150.349C127.369 150.444 127.381 150.547 127.343 150.661C127.3 150.8 127.225 150.926 127.12 151.038C127.004 151.202 126.919 151.346 126.866 151.469C126.807 151.619 126.818 151.756 126.899 151.882C126.929 151.929 126.98 151.973 127.052 152.016C127.124 152.058 127.217 152.098 127.33 152.136L132.055 153.616C132.178 153.669 132.271 153.676 132.334 153.635C132.402 153.569 132.406 153.489 132.345 153.395C132.209 153.149 132.06 152.901 131.897 152.651C131.735 152.4 131.568 152.141 131.396 151.875C131.233 151.624 131.056 151.349 130.864 151.052C130.681 150.769 130.496 150.5 130.308 150.244C130.125 149.962 129.923 149.804 129.701 149.769C129.479 149.735 129.225 149.755 128.939 149.829C128.783 149.863 128.63 149.884 128.48 149.892C128.34 149.916 128.229 149.865 128.148 149.74C128.077 149.63 128.094 149.519 128.199 149.407C128.294 149.279 128.381 149.189 128.459 149.138C128.757 148.946 129.01 148.804 129.219 148.714C129.417 148.608 129.599 148.512 129.766 148.427C129.933 148.341 130.158 148.207 130.44 148.025C130.706 147.852 130.929 147.697 131.107 147.56C131.285 147.423 131.47 147.28 131.664 147.133C131.848 146.97 132.096 146.787 132.41 146.584Z" fill="#C42D1C"/>
<path d="M83.2712 164.304C83.4163 164.339 83.5392 164.426 83.6397 164.566C83.7178 164.719 83.7438 164.889 83.718 165.075L83.5105 167.473C83.8041 167.372 84.1587 167.256 84.5743 167.126C84.9718 166.992 85.3896 166.854 85.8278 166.71C85.8954 166.669 85.9677 166.648 86.0446 166.648C86.1216 166.647 86.1964 166.656 86.2689 166.673C86.4141 166.709 86.5391 166.787 86.6441 166.908C86.7309 167.026 86.7567 167.157 86.7215 167.302C86.6687 167.519 86.5205 167.695 86.2769 167.828L84.1039 168.828C84.3408 169.039 84.6186 169.279 84.9374 169.548C85.2562 169.818 85.5819 170.099 85.9144 170.391C86.01 170.471 86.0878 170.586 86.1477 170.735C86.1894 170.88 86.1971 171.007 86.1707 171.115C86.1135 171.351 85.9763 171.481 85.7591 171.505C85.542 171.53 85.3515 171.483 85.1877 171.367C84.8282 171.107 84.4847 170.86 84.1571 170.627C83.8295 170.394 83.5088 170.172 83.195 169.961C83.1432 170.333 83.0892 170.713 83.0331 171.103C82.9588 171.489 82.8688 171.899 82.7632 172.334C82.7192 172.516 82.6342 172.668 82.5083 172.791C82.378 172.932 82.2108 172.988 82.0069 172.958C81.848 172.9 81.7296 172.794 81.6516 172.641C81.5691 172.506 81.5387 172.354 81.5601 172.186L81.7948 169.794C81.5012 169.896 81.1557 170.014 80.7582 170.148C80.3563 170.3 79.9385 170.439 79.5047 170.564C79.4371 170.605 79.3648 170.626 79.2879 170.627C79.2065 170.645 79.1295 170.646 79.057 170.628C78.9118 170.593 78.7868 170.515 78.6818 170.393C78.5725 170.29 78.5398 170.147 78.5838 169.966C78.6322 169.766 78.7782 169.6 79.0218 169.467L81.2014 168.44C80.9464 168.225 80.6663 167.993 80.3613 167.747C80.0381 167.495 79.7124 167.215 79.3843 166.904C79.2705 166.819 79.1928 166.704 79.151 166.56C79.0867 166.429 79.07 166.3 79.1008 166.173C79.1536 165.955 79.2886 165.834 79.5057 165.81C79.7229 165.786 79.9178 165.814 80.0904 165.894C80.4454 166.173 80.789 166.419 81.121 166.634C81.453 166.849 81.7737 167.071 82.0831 167.3C82.1217 166.983 82.1825 166.613 82.2656 166.192C82.3306 165.766 82.4068 165.333 82.4943 164.893C82.5383 164.712 82.6255 164.55 82.7558 164.409C82.8817 164.286 83.0535 164.251 83.2712 164.304Z" fill="#C42D1C"/>
<path d="M55.3043 133.362C55.3476 133.422 55.3224 133.532 55.2287 133.69C55.1503 133.837 55.0566 133.996 54.9477 134.165L46.27 148.199C46.0086 148.637 45.8427 149.064 45.7723 149.481C45.6867 149.908 45.7366 150.365 45.9221 150.851C45.9974 151.118 46.0533 151.342 46.0898 151.522C46.1111 151.713 46.0608 151.852 45.9391 151.939C45.8326 152.014 45.7209 152.002 45.6039 151.902C45.461 151.797 45.33 151.662 45.211 151.494C44.9407 151.114 44.6801 150.715 44.4294 150.298C44.1526 149.876 43.8736 149.468 43.5924 149.072C43.2788 148.631 42.9684 148.21 42.6612 147.81C42.3388 147.421 42.064 147.067 41.8369 146.747C41.6963 146.549 41.6056 146.373 41.5647 146.219C41.5238 146.065 41.549 145.956 41.6403 145.891C41.7621 145.804 41.8966 145.8 42.044 145.879C42.1914 145.957 42.3896 146.091 42.6387 146.28C42.8357 146.461 43.0244 146.533 43.2046 146.496C43.3739 146.445 43.5423 146.359 43.7097 146.24C43.9075 146.1 44.0814 145.942 44.2316 145.766C44.3817 145.591 44.459 145.49 44.4634 145.464C45.047 144.546 45.6013 143.682 46.1261 142.874C46.6357 142.077 47.1302 141.29 47.6093 140.514C48.0733 139.749 48.5547 138.961 49.0535 138.148C49.5371 137.346 50.0577 136.484 50.6154 135.561C50.7287 135.366 50.7691 135.245 50.7366 135.2C50.6934 135.139 50.5741 135.132 50.3786 135.179L45.5687 136.194C45.4298 136.224 45.3169 136.258 45.23 136.297C45.1171 136.331 45.0302 136.37 44.9693 136.413C44.8933 136.468 44.8204 136.542 44.7507 136.638C44.6811 136.733 44.6016 136.847 44.5123 136.979L41.8167 141.403C41.5053 141.899 41.338 142.453 41.3149 143.065C41.2809 143.661 41.3567 144.203 41.5422 144.689C41.6175 144.956 41.668 145.172 41.6937 145.337C41.7041 145.513 41.6485 145.644 41.5268 145.731C41.4203 145.807 41.314 145.802 41.2078 145.717C41.0757 145.628 40.9501 145.5 40.8311 145.332C40.6365 145.058 40.4494 144.779 40.27 144.494C40.0797 144.194 39.8895 143.895 39.6992 143.595C39.4937 143.306 39.2937 143.024 39.099 142.75C38.8286 142.37 38.5615 142.01 38.2975 141.671C38.0075 141.327 37.7544 141.004 37.5381 140.699C37.3867 140.486 37.2906 140.303 37.2497 140.149C37.198 139.979 37.2178 139.862 37.3091 139.797C37.4308 139.711 37.5784 139.709 37.7518 139.792C37.8992 139.87 38.065 139.958 38.2492 140.056C38.4226 140.139 38.5994 140.163 38.7796 140.126C38.8901 140.185 38.9888 140.195 39.0757 140.156C39.1518 140.102 39.217 140.033 39.2715 139.948C39.3303 139.838 39.4544 139.658 39.6438 139.409C39.8224 139.144 40.0183 138.856 40.2317 138.544C40.4191 138.228 40.6096 137.932 40.8034 137.657C40.9863 137.367 41.117 137.148 41.1955 137C41.3284 136.769 41.371 136.635 41.3234 136.6C41.2649 136.55 41.1249 136.547 40.9035 136.59C40.5691 136.667 40.1859 136.756 39.7539 136.857C39.3066 136.969 38.8854 137.085 38.4902 137.206C38.0797 137.337 37.7974 137.423 37.6433 137.464C37.5456 137.488 37.4435 137.537 37.337 137.613C37.1392 137.754 37.0487 137.933 37.0656 138.15C37.0824 138.367 37.1123 138.586 37.1552 138.807C37.172 139.024 37.112 139.181 36.9751 139.279C36.8838 139.344 36.7829 139.347 36.6723 139.288C36.551 139.214 36.4146 139.07 36.2632 138.857C36.0145 138.507 35.8544 138.266 35.7831 138.134C35.701 137.986 35.5843 137.805 35.4329 137.592C35.2598 137.349 35.0878 137.139 34.9168 136.963C34.7458 136.787 34.5413 136.531 34.3034 136.197C34.1736 136.014 34.0883 135.846 34.0474 135.692C33.9957 135.522 34.0231 135.4 34.1296 135.324C34.2514 135.237 34.3859 135.233 34.5333 135.312C34.6807 135.39 34.8659 135.522 35.089 135.707C35.5307 136.103 35.9208 136.33 36.2592 136.387C36.5715 136.44 36.9577 136.451 37.4178 136.422C37.6805 136.373 38.0387 136.313 38.4924 136.242C38.9353 136.156 39.4064 136.062 39.9057 135.959C40.405 135.856 40.8707 135.754 41.3028 135.653C41.483 135.617 41.6774 135.536 41.886 135.41C42.0794 135.296 42.2207 135.172 42.31 135.04L46.1417 129.122C46.2158 129.001 46.2214 128.928 46.1585 128.904C46.0804 128.891 45.9795 128.894 45.8558 128.913C44.4315 129.261 42.7878 129.72 40.9246 130.288C39.0507 130.841 37.1593 131.419 35.2505 132.02C34.9682 132.106 34.7532 132.19 34.6054 132.272C34.4316 132.35 34.2915 132.426 34.185 132.502C33.9828 132.669 33.8435 132.859 33.767 133.074C33.6646 133.284 33.677 133.527 33.8044 133.803C33.8669 133.988 33.9196 134.191 33.9625 134.412C34.0054 134.634 33.966 134.788 33.8442 134.874C33.753 134.939 33.6412 134.927 33.5091 134.838C33.3661 134.733 33.2297 134.59 33.0999 134.407C32.8404 134.042 32.6371 133.74 32.4901 133.501C32.3431 133.262 32.1777 133.013 31.9938 132.754C31.7407 132.43 31.493 132.114 31.2507 131.805C30.9931 131.507 30.7454 131.191 30.5075 130.856C30.3669 130.659 30.2708 130.475 30.2191 130.306C30.1522 130.147 30.1796 130.024 30.3013 129.938C30.4078 129.862 30.5478 129.866 30.7212 129.949C30.8793 130.042 31.0646 130.174 31.2768 130.344C31.6016 130.64 31.9571 130.834 32.3431 130.926C32.7139 131.029 33.0773 131.056 33.4333 131.01C33.7893 130.963 34.1193 130.911 34.4232 130.856L49.7212 126.715C49.8342 126.681 49.9785 126.658 50.1543 126.648C50.3301 126.637 50.4504 126.678 50.5153 126.769C50.5694 126.845 50.5832 126.961 50.5568 127.117C50.5348 127.247 50.4792 127.379 50.3899 127.511C49.8867 128.349 49.4129 129.133 48.9686 129.861C48.509 130.6 48.0244 131.368 47.5148 132.165C46.9943 132.947 46.4259 133.855 45.8094 134.889C45.7353 135.01 45.7221 135.088 45.7698 135.123C45.8066 135.143 45.9151 135.134 46.0953 135.098C47.1092 134.881 48.046 134.685 48.9057 134.509C49.7502 134.344 50.6099 134.168 51.4849 133.981C52.349 133.779 53.2902 133.556 54.3084 133.314C54.5038 133.266 54.7025 133.24 54.9043 133.234C55.0953 133.212 55.2286 133.255 55.3043 133.362Z" fill="#C42D1C"/>
<path d="M46.4084 115.651C46.7177 116.669 46.7677 117.668 46.5583 118.648C46.3257 119.616 45.8718 120.466 45.1967 121.198C44.5216 121.93 43.6572 122.456 42.6034 122.776C41.8175 123.015 41.0123 123.094 40.1878 123.013C39.3633 122.931 38.5722 122.704 37.8146 122.329C37.057 121.954 36.3973 121.452 35.8355 120.823C35.2558 120.199 34.8384 119.468 34.5834 118.628C34.2633 117.575 34.232 116.54 34.4895 115.526C34.7291 114.516 35.1838 113.637 35.8535 112.887C36.5231 112.138 37.3491 111.614 38.3315 111.315C39.4031 110.99 40.4828 110.915 41.5705 111.092C42.6581 111.269 43.6378 111.732 44.5093 112.482C45.3576 113.219 45.9906 114.275 46.4084 115.651ZM45.2998 115.373C45.1425 114.855 44.9032 114.42 44.5819 114.069C44.2428 113.723 43.8236 113.5 43.3244 113.398C42.8485 113.308 42.305 113.317 41.6939 113.425C41.0595 113.52 40.4297 113.663 39.8046 113.852C38.9116 114.124 38.1155 114.522 37.4165 115.046C36.7174 115.571 36.2027 116.156 35.8724 116.803C35.5421 117.449 35.4801 118.112 35.6862 118.791C35.811 119.202 35.9964 119.555 36.2424 119.851C36.4651 120.134 36.7779 120.361 37.1808 120.532C37.6947 120.746 38.2983 120.807 38.9917 120.713C39.6672 120.625 40.389 120.464 41.157 120.231C42.0143 119.97 42.7925 119.578 43.4916 119.053C44.1906 118.529 44.717 117.949 45.0706 117.315C45.4187 116.663 45.4951 116.016 45.2998 115.373Z" fill="#C42D1C"/>
<path d="M43.5137 108.004C43.5312 108.171 43.5179 108.313 43.4738 108.43C43.4278 108.529 43.3491 108.584 43.2377 108.595C43.0892 108.611 42.9813 108.566 42.9139 108.46C42.8261 108.338 42.7446 108.187 42.6695 108.007C42.536 107.627 42.3779 107.372 42.1953 107.24C42.0107 107.091 41.7792 107.031 41.5007 107.06L35.3741 107.7C34.9099 107.748 34.5269 107.854 34.2248 108.017C33.9042 108.182 33.7198 108.483 33.6716 108.919C33.6608 108.995 33.6221 109.075 33.5556 109.157C33.4872 109.22 33.3973 109.258 33.2859 109.269C33.0816 109.291 32.942 109.211 32.8669 109.031C32.6641 108.527 32.4016 107.991 32.0797 107.425C31.7391 106.86 31.4473 106.402 31.2043 106.052C31.1184 105.948 31.0521 105.852 31.0052 105.763C30.9584 105.674 30.933 105.611 30.9292 105.574C30.9156 105.444 30.9831 105.371 31.1316 105.356C31.2058 105.348 31.3646 105.341 31.6079 105.334C31.8493 105.309 32.1194 105.29 32.4184 105.278C32.7174 105.265 33.0062 105.244 33.2846 105.215C33.3589 105.208 33.3941 105.185 33.3902 105.148C32.9879 104.89 32.6105 104.601 32.258 104.281C31.9036 103.943 31.6122 103.579 31.3839 103.19C31.137 102.803 30.9942 102.424 30.9554 102.052C30.9049 101.57 30.9683 101.188 31.1453 100.906C31.3038 100.627 31.5409 100.471 31.8565 100.438C32.0607 100.417 32.3089 100.456 32.6009 100.557C32.8725 100.641 33.121 100.775 33.3466 100.958C33.5516 101.124 33.6658 101.319 33.6891 101.541C33.7027 101.671 33.6894 101.814 33.6492 101.968C33.5904 102.124 33.5327 102.29 33.4759 102.465C33.4171 102.621 33.3686 102.786 33.3304 102.958C33.2716 103.115 33.25 103.267 33.2655 103.416C33.314 103.88 33.5257 104.289 33.9006 104.644C34.2755 104.999 34.9457 105.126 35.9111 105.025L41.1466 104.478C41.4437 104.447 41.6631 104.303 41.805 104.044C41.9469 103.785 42.0669 103.406 42.165 102.908C42.1993 102.698 42.2478 102.534 42.3105 102.414C42.3545 102.297 42.4415 102.232 42.5715 102.218C42.7943 102.195 42.9241 102.36 42.9609 102.712C43.0191 103.269 43.0417 103.755 43.0287 104.169C43.0323 104.563 43.0593 105.001 43.1097 105.484C43.1427 105.8 43.1811 106.077 43.2249 106.316C43.2686 106.556 43.3134 106.805 43.3591 107.063C43.4234 107.319 43.4749 107.632 43.5137 108.004Z" fill="#C42D1C"/>
<path d="M41.678 97.6973C41.648 98.1068 41.5212 98.3034 41.2978 98.287C41.1489 98.2761 41.0513 98.2034 41.005 98.069C40.9587 97.9346 40.9045 97.7808 40.8423 97.6078C40.7697 97.3217 40.6772 97.0529 40.5646 96.8013C40.4521 96.5497 40.2003 96.4096 39.8094 96.3809L26.0425 95.3701C25.4281 95.325 24.9565 95.3746 24.6278 95.5189C24.299 95.6632 24.0617 95.9639 23.9158 96.4211C23.8662 96.586 23.7298 96.6602 23.5064 96.6438C23.3016 96.6287 23.1861 96.5454 23.1598 96.3937C23.1022 95.9028 23.014 95.4472 22.8952 95.0267C22.7777 94.5876 22.6667 94.1864 22.5624 93.8231C22.4408 93.4398 22.3344 93.1044 22.2432 92.817C22.1969 92.6826 22.1765 92.5781 22.182 92.5037C22.1875 92.4292 22.2188 92.3847 22.276 92.3702C22.316 92.3357 22.3825 92.3219 22.4756 92.3287C22.6431 92.341 22.9662 92.4022 23.4448 92.5122C23.9247 92.6036 24.6301 92.6834 25.5609 92.7518L35.167 93.4571C35.3532 93.4708 35.4504 93.4218 35.4586 93.3101C35.4654 93.217 35.4371 93.0932 35.3735 92.9388C35.31 92.7844 35.2186 92.628 35.0992 92.4695C34.5209 91.6783 33.9716 91.0016 33.4514 90.4394C32.9312 89.8771 32.5569 89.494 32.3286 89.2901C32.2223 89.2074 32.1427 89.1454 32.0895 89.1041C32.0192 89.0427 31.9561 89.01 31.9002 89.0059C31.8071 88.9991 31.7172 89.0767 31.6304 89.2388C31.5264 89.3809 31.4483 89.553 31.396 89.755C31.3424 89.9757 31.2411 90.0805 31.0922 90.0696C30.9805 90.0614 30.9008 89.9994 30.8531 89.8836C30.7882 89.7478 30.7619 89.5962 30.7742 89.4286L30.8747 88.0603C30.8966 87.7624 30.9033 87.4167 30.8947 87.023C30.869 86.6093 30.8418 86.2143 30.8133 85.8378C30.7848 85.4614 30.7774 85.1801 30.791 84.9939C30.8088 84.7519 30.9201 84.6384 31.1249 84.6535C31.2366 84.6617 31.3342 84.7343 31.4177 84.8715C31.5026 84.99 31.5654 85.1537 31.6062 85.3626C31.6561 85.7032 31.7611 86.0572 31.9213 86.4245C32.0629 86.7906 32.2151 87.1386 32.3781 87.4688C32.4761 87.6632 32.6597 87.9668 32.9288 88.3796C33.198 88.7924 33.5024 89.2359 33.8419 89.71C34.1814 90.1841 34.5137 90.6297 34.8387 91.0466C34.9236 91.1651 35.0125 91.2278 35.1056 91.2346C35.1429 91.2374 35.1808 91.2308 35.2194 91.2149C35.2593 91.1804 35.2986 91.1552 35.3372 91.1393C35.9685 90.699 36.6004 90.2495 37.2331 89.7905C37.8657 89.3316 38.4405 88.8966 38.9573 88.4853C39.4741 88.074 39.8917 87.7397 40.2101 87.4824C40.5498 87.1891 40.8557 86.8466 41.1278 86.4548C41.4013 86.0444 41.6041 85.7037 41.7363 85.4326C41.8058 85.2505 41.884 85.0785 41.9707 84.9164C42.0402 84.7343 42.1495 84.6488 42.2984 84.6597C42.5218 84.6761 42.6198 84.8705 42.5925 85.2428C42.5282 86.1178 42.442 87.0379 42.3337 88.0033C42.2453 88.9513 42.1663 89.9001 42.0966 90.8495C42.0706 91.2032 41.9552 91.3726 41.7505 91.3576C41.6388 91.3494 41.5491 91.296 41.4815 91.1974C41.3966 91.0789 41.341 90.9438 41.3147 90.7921C41.2539 90.6005 41.1904 90.4461 41.1241 90.3289C41.0406 90.1918 40.9244 90.1177 40.7754 90.1068C40.7196 90.1027 40.6531 90.1165 40.5759 90.1483C40.4987 90.1801 40.4108 90.2298 40.3122 90.2974L36.2828 93.174C36.1656 93.2403 36.1043 93.3107 36.0988 93.3851C36.1106 93.4796 36.1723 93.5309 36.284 93.5391C36.5619 93.5782 36.8498 93.6087 37.1477 93.6306C37.4455 93.6525 37.7527 93.675 38.0692 93.6983C38.367 93.7201 38.6928 93.7441 39.0465 93.77C39.3816 93.7946 39.7081 93.8092 40.026 93.8139C40.3611 93.8385 40.6092 93.7725 40.7705 93.6159C40.9317 93.4592 41.0691 93.2447 41.1827 92.9723C41.2495 92.8275 41.3249 92.6926 41.4089 92.5678C41.4743 92.4416 41.5815 92.3839 41.7304 92.3949C41.8608 92.4044 41.9391 92.4851 41.9654 92.6367C42.0103 92.7898 42.0293 92.9128 42.0225 93.0059C41.9965 93.3596 41.9567 93.6468 41.9031 93.8675C41.8681 94.0895 41.8344 94.2929 41.8021 94.4777C41.7698 94.6625 41.7414 94.9225 41.7168 95.2576C41.6935 95.574 41.683 95.8447 41.6852 96.0694C41.6875 96.2942 41.689 96.5283 41.6898 96.7716C41.7093 97.0164 41.7054 97.3249 41.678 97.6973Z" fill="#C42D1C"/>
<path d="M58.5047 48.1266C58.3893 48.2213 58.2456 48.2668 58.0735 48.2631C57.904 48.2332 57.7529 48.152 57.62 48.0195L55.8288 46.4107C55.7333 46.7064 55.6124 47.0592 55.4659 47.4692C55.3338 47.8673 55.1933 48.2845 55.0442 48.7208C55.0364 48.7996 55.0096 48.8699 54.9638 48.9317C54.9179 48.9935 54.8661 49.0481 54.8084 49.0955C54.6929 49.1902 54.5551 49.243 54.3949 49.2537C54.2491 49.2526 54.1288 49.1943 54.0341 49.0789C53.892 48.9058 53.8411 48.6819 53.8814 48.4073L54.3901 46.0701C54.0789 46.1323 53.7198 46.2096 53.3128 46.3022C52.9058 46.3947 52.4857 46.486 52.0524 46.576C51.9303 46.6037 51.7917 46.5967 51.6367 46.5549C51.4961 46.5013 51.3902 46.4312 51.3192 46.3446C51.1652 46.157 51.1439 45.9692 51.2553 45.7812C51.3666 45.5933 51.5181 45.4689 51.7098 45.4082C52.1338 45.2776 52.5375 45.1515 52.9208 45.0301C53.3042 44.9087 53.6743 44.786 54.0314 44.662C53.7657 44.3971 53.4941 44.125 53.2165 43.8456C52.9534 43.5545 52.6798 43.2357 52.3955 42.8894C52.2771 42.7451 52.2066 42.5857 52.184 42.411C52.1496 42.2219 52.2058 42.0551 52.3527 41.9104C52.4944 41.8182 52.65 41.7871 52.8195 41.8171C52.9771 41.8326 53.1164 41.8994 53.2374 42.0174L55.007 43.644C55.1025 43.3483 55.2162 43.0014 55.3483 42.6033C55.4685 42.1907 55.609 41.7735 55.7699 41.3516C55.7777 41.2728 55.8045 41.2025 55.8504 41.1407C55.8844 41.0645 55.9303 41.0027 55.988 40.9553C56.1035 40.8606 56.2413 40.8078 56.4015 40.7971C56.5499 40.7719 56.6833 40.8315 56.8017 40.9758C56.932 41.1345 56.9769 41.3511 56.9366 41.6257L56.4457 43.9846C56.7713 43.9106 57.1245 43.826 57.5052 43.7309C57.9004 43.6239 58.3205 43.5326 58.7657 43.4571C58.9022 43.4175 59.0408 43.4245 59.1814 43.4781C59.3246 43.5055 59.4376 43.5697 59.5205 43.6707C59.6626 43.8438 59.678 44.0244 59.5666 44.2124C59.4553 44.4004 59.3156 44.5391 59.1476 44.6287C58.7118 44.7449 58.3081 44.871 57.9366 45.0068C57.5651 45.1426 57.1949 45.2654 56.826 45.3749C57.0562 45.5965 57.3147 45.8674 57.6015 46.1874C57.9027 46.4956 58.2027 46.8169 58.5013 47.1514C58.6197 47.2957 58.6962 47.4624 58.7306 47.6514C58.7532 47.8261 58.6779 47.9845 58.5047 48.1266Z" fill="#C42D1C"/>
<path d="M91.1194 44.9202C91.0453 44.9296 90.9606 44.8558 90.8652 44.6986C90.7722 44.5599 90.6769 44.4028 90.5791 44.2271L82.2908 29.959C82.0279 29.5221 81.7294 29.1745 81.3953 28.9161C81.0588 28.6392 80.6323 28.4679 80.1158 28.4022C79.8448 28.3428 79.6212 28.2867 79.4451 28.2339C79.2666 28.1627 79.1679 28.0529 79.1489 27.9048C79.1324 27.7752 79.1958 27.6824 79.3392 27.6264C79.4987 27.5496 79.6803 27.4981 79.884 27.4721C80.3469 27.4129 80.8214 27.3711 81.3076 27.3466C81.8099 27.3012 82.3017 27.2477 82.7831 27.1861C83.3201 27.1175 83.8374 27.042 84.3349 26.9595C84.8301 26.8586 85.2721 26.7832 85.661 26.7335C85.9017 26.7028 86.0996 26.7057 86.2549 26.7423C86.4101 26.7789 86.4948 26.8528 86.509 26.9638C86.528 27.112 86.4681 27.2325 86.3294 27.3255C86.1908 27.4185 85.9792 27.5303 85.6948 27.6607C85.4427 27.7494 85.2903 27.8818 85.2375 28.0579C85.2033 28.2317 85.1992 28.4204 85.2252 28.6241C85.256 28.8648 85.3133 29.0927 85.3973 29.3078C85.4812 29.5228 85.5337 29.6385 85.5545 29.6546C86.0897 30.6024 86.59 31.4982 87.0555 32.342C87.5185 33.1672 87.9792 33.974 88.4376 34.7622C88.8935 35.532 89.3623 36.3283 89.8439 37.1512C90.3231 37.9556 90.8383 38.8212 91.3897 39.7481C91.5083 39.94 91.5954 40.0323 91.6509 40.0252C91.725 40.0158 91.7872 39.9137 91.8376 39.7191L93.2101 34.9989C93.2491 34.8622 93.2719 34.7464 93.2786 34.6514C93.3014 34.5356 93.3081 34.4407 93.2986 34.3666C93.2868 34.274 93.2553 34.1745 93.204 34.0682C93.1528 33.9618 93.0899 33.8381 93.0154 33.6971L90.3843 29.2347C90.0935 28.7262 89.6837 28.3175 89.1549 28.0087C88.6447 27.6976 88.1313 27.5092 87.6148 27.4435C87.3437 27.3841 87.1294 27.3268 86.9718 27.2716C86.8118 27.198 86.7224 27.0871 86.7034 26.939C86.6869 26.8094 86.741 26.7178 86.8659 26.6642C87.0069 26.5897 87.1793 26.5394 87.383 26.5134C87.7162 26.4708 88.0507 26.4374 88.3864 26.4133C88.7405 26.3869 89.0947 26.3604 89.4489 26.3339C89.8007 26.289 90.1432 26.2452 90.4765 26.2026C90.9394 26.1434 91.3826 26.0773 91.8061 26.0043C92.2458 25.9105 92.6507 25.8399 93.0211 25.7926C93.2803 25.7594 93.4875 25.7612 93.6427 25.7978C93.8165 25.832 93.9105 25.9047 93.9247 26.0158C93.9436 26.1639 93.8757 26.2949 93.7209 26.4088C93.5822 26.5018 93.4262 26.6064 93.2529 26.7227C93.0981 26.8366 92.9943 26.9816 92.9415 27.1577C92.8375 27.2274 92.7822 27.3098 92.7755 27.4047C92.7874 27.4973 92.8177 27.5875 92.8666 27.6754C92.9363 27.7793 93.0364 27.9736 93.1669 28.258C93.3159 28.54 93.4776 28.8487 93.6522 29.1839C93.843 29.4982 94.014 29.8057 94.1653 30.1063C94.3352 30.4045 94.4666 30.6229 94.5596 30.7616C94.7015 30.9881 94.799 31.0885 94.8522 31.0629C94.9239 31.0349 94.993 30.9132 95.0596 30.6976C95.1489 30.3663 95.2509 29.9863 95.3655 29.5577C95.4777 29.1105 95.5737 28.6842 95.6536 28.2788C95.7311 27.8549 95.7882 27.5653 95.8248 27.4101C95.85 27.3127 95.8543 27.1993 95.8378 27.0697C95.807 26.829 95.6919 26.6649 95.4926 26.5775C95.2932 26.4901 95.0858 26.4131 94.8702 26.3465C94.6709 26.2591 94.5605 26.1321 94.5392 25.9654C94.525 25.8543 94.5699 25.7639 94.6739 25.6942C94.7964 25.622 94.9873 25.5694 95.2465 25.5363C95.6724 25.4818 95.9606 25.4544 96.1111 25.454C96.2801 25.4512 96.4942 25.4332 96.7534 25.4001C97.0497 25.3622 97.3158 25.3094 97.5518 25.2415C97.7877 25.1737 98.1094 25.1138 98.5168 25.0617C98.7389 25.0333 98.9277 25.0374 99.0829 25.074C99.2566 25.1083 99.3518 25.1902 99.3684 25.3198C99.3873 25.4679 99.3274 25.5885 99.1888 25.6815C99.0501 25.7745 98.8466 25.8758 98.5784 25.9854C98.021 26.1884 97.6373 26.4256 97.4273 26.6971C97.2336 26.9477 97.0412 27.2828 96.8502 27.7024C96.7699 27.9573 96.6539 28.3015 96.5023 28.7348C96.3692 29.1659 96.2304 29.6258 96.0859 30.1148C95.9414 30.6037 95.8119 31.0625 95.6973 31.4912C95.6446 31.6673 95.6243 31.8769 95.6366 32.12C95.6465 32.3445 95.6887 32.5273 95.7632 32.6683L99.177 38.8372C99.2491 38.9597 99.3106 38.9989 99.3614 38.9548C99.4099 38.8921 99.4548 38.8017 99.4961 38.6835C99.8603 37.2632 100.231 35.5974 100.607 33.6862C101.003 31.7727 101.385 29.8325 101.754 27.8658C101.812 27.5762 101.839 27.3469 101.836 27.1779C101.849 26.988 101.848 26.8282 101.831 26.6986C101.779 26.4418 101.677 26.229 101.524 26.0605C101.387 25.871 101.166 25.7674 100.863 25.7497C100.671 25.7179 100.467 25.6687 100.251 25.6021C100.036 25.5356 99.9185 25.4282 99.8996 25.2801C99.8854 25.169 99.9488 25.0762 100.09 25.0017C100.249 24.9249 100.44 24.8723 100.662 24.8439C101.107 24.787 101.469 24.7501 101.749 24.7331C102.029 24.7162 102.327 24.6875 102.641 24.6473C103.046 24.5767 103.442 24.5073 103.829 24.4391C104.213 24.3523 104.609 24.2829 105.016 24.2308C105.257 24.2 105.464 24.2018 105.638 24.236C105.809 24.2518 105.904 24.3337 105.923 24.4818C105.94 24.6114 105.87 24.7332 105.716 24.8471C105.558 24.9424 105.355 25.0437 105.105 25.1509C104.691 25.2979 104.353 25.52 104.09 25.8171C103.824 26.0957 103.628 26.403 103.502 26.7391C103.375 27.0752 103.265 27.3904 103.171 27.6847L99.6128 43.1286C99.5899 43.2444 99.5417 43.3823 99.4681 43.5423C99.3944 43.7023 99.302 43.7893 99.191 43.8035C99.0984 43.8154 98.9894 43.7728 98.8641 43.676C98.7597 43.5952 98.6703 43.4843 98.5958 43.3433C98.0933 42.5042 97.6257 41.7172 97.193 40.9821C96.7579 40.2286 96.3089 39.4391 95.8458 38.6139C95.4013 37.7862 94.8684 36.8569 94.2474 35.8261C94.1752 35.7035 94.1126 35.6551 94.0594 35.6807C94.0248 35.704 93.981 35.8036 93.9283 35.9798C93.6417 36.9762 93.3733 37.8949 93.1233 38.7361C92.871 39.5587 92.6209 40.3999 92.3733 41.2596C92.1442 42.1169 91.8967 43.0518 91.631 44.0644C91.5806 44.259 91.5105 44.4467 91.4207 44.6276C91.3494 44.8061 91.249 44.9036 91.1194 44.9202Z" fill="#C42D1C"/>
<path d="M111.317 45.3352C110.273 45.1279 109.368 44.7007 108.602 44.0538C107.858 43.3921 107.323 42.5911 106.996 41.6506C106.669 40.7102 106.613 39.6999 106.827 38.6197C106.987 37.8141 107.297 37.0669 107.758 36.3781C108.218 35.6892 108.792 35.0991 109.48 34.6077C110.167 34.1162 110.921 33.7712 111.741 33.5724C112.564 33.3554 113.406 33.3323 114.267 33.5033C115.347 33.7179 116.274 34.178 117.047 34.8835C117.824 35.5708 118.385 36.3864 118.731 37.3305C119.076 38.2745 119.149 39.25 118.949 40.257C118.73 41.3556 118.287 42.3427 117.618 43.2185C116.949 44.0943 116.079 44.7397 115.007 45.1548C113.956 45.5552 112.726 45.6153 111.317 45.3352ZM112.084 44.4886C112.615 44.5941 113.111 44.588 113.572 44.4702C114.037 44.3342 114.432 44.0701 114.758 43.678C115.061 43.3005 115.309 42.817 115.503 42.2273C115.718 41.623 115.889 41.0004 116.016 40.3596C116.198 39.4442 116.223 38.5546 116.09 37.6908C115.957 36.827 115.683 36.097 115.269 35.5008C114.854 34.9046 114.299 34.5374 113.604 34.3992C113.182 34.3156 112.783 34.3124 112.406 34.3898C112.051 34.4525 111.704 34.6213 111.364 34.8963C110.932 35.2483 110.594 35.7521 110.35 36.4077C110.109 37.045 109.91 37.7573 109.754 38.5446C109.579 39.4234 109.559 40.2947 109.691 41.1585C109.824 42.0223 110.087 42.7596 110.479 43.3704C110.89 43.9849 111.425 44.3577 112.084 44.4886Z" fill="#C42D1C"/>
<path d="M119.365 45.8588C119.209 45.7951 119.09 45.7161 119.008 45.6218C118.943 45.5346 118.931 45.4392 118.974 45.3356C119.031 45.1974 119.121 45.1236 119.246 45.1143C119.395 45.0947 119.567 45.0945 119.761 45.1134C120.159 45.1757 120.459 45.1574 120.661 45.0586C120.88 44.9669 121.043 44.7915 121.149 44.5324L123.485 38.8324C123.662 38.4006 123.75 38.0131 123.749 37.6699C123.756 37.3095 123.578 37.0047 123.216 36.7555C123.154 36.7099 123.103 36.6384 123.062 36.541C123.039 36.4507 123.048 36.3537 123.091 36.2501C123.169 36.0601 123.304 35.9746 123.498 35.9935C124.039 36.0536 124.635 36.0759 125.287 36.0606C125.945 36.028 126.487 35.9875 126.91 35.9391C127.042 35.9125 127.158 35.8996 127.259 35.9004C127.359 35.9013 127.427 35.9088 127.461 35.9229C127.582 35.9725 127.614 36.0664 127.558 36.2045C127.529 36.2736 127.46 36.4169 127.351 36.6344C127.259 36.8589 127.148 37.1058 127.017 37.3751C126.887 37.6444 126.768 37.9086 126.662 38.1677C126.634 38.2367 126.637 38.2784 126.672 38.2925C127.09 38.0603 127.523 37.8647 127.971 37.7055C128.437 37.5535 128.895 37.4689 129.346 37.4519C129.804 37.4177 130.206 37.4713 130.551 37.6129C131 37.7969 131.307 38.0335 131.471 38.3226C131.642 38.5944 131.667 38.8771 131.547 39.1708C131.469 39.3608 131.316 39.5605 131.089 39.7701C130.887 39.9694 130.651 40.1251 130.383 40.2373C130.14 40.3392 129.914 40.3477 129.707 40.2628C129.586 40.2132 129.467 40.1342 129.35 40.0258C129.241 39.9001 129.122 39.7708 128.995 39.638C128.885 39.5123 128.763 39.3917 128.629 39.2762C128.519 39.1504 128.395 39.0593 128.257 39.0026C127.825 38.8257 127.364 38.8183 126.874 38.9806C126.384 39.1428 125.955 39.6731 125.586 40.5712L123.59 45.4421C123.477 45.7184 123.501 45.9804 123.662 46.2278C123.823 46.4753 124.099 46.7601 124.492 47.0824C124.66 47.212 124.782 47.3327 124.858 47.4442C124.94 47.5385 124.957 47.6461 124.907 47.767C124.822 47.9743 124.616 48.0107 124.287 47.8762C123.769 47.6638 123.331 47.4539 122.972 47.2463C122.623 47.0632 122.225 46.8795 121.776 46.6955C121.482 46.5752 121.219 46.4776 120.988 46.4029C120.756 46.3281 120.516 46.2498 120.267 46.168C120.011 46.1035 119.71 46.0004 119.365 45.8588Z" fill="#C42D1C"/>
<path d="M127.925 50.9731C127.579 50.7526 127.466 50.5479 127.586 50.3589C127.666 50.2329 127.776 50.1814 127.917 50.2043C128.057 50.2272 128.218 50.2522 128.4 50.2794C128.686 50.351 128.967 50.3968 129.242 50.4168C129.517 50.4368 129.759 50.2815 129.97 49.9507L137.38 38.3043C137.711 37.7846 137.89 37.3458 137.919 36.9879C137.948 36.6299 137.795 36.2785 137.461 35.9335C137.34 35.8118 137.339 35.6565 137.459 35.4675C137.569 35.2942 137.698 35.2319 137.844 35.2806C138.303 35.4624 138.746 35.6005 139.173 35.695C139.615 35.7995 140.021 35.8918 140.391 35.9719C140.786 36.0463 141.132 36.1115 141.428 36.1673C141.568 36.1902 141.67 36.2217 141.733 36.2617C141.796 36.3018 141.82 36.3505 141.806 36.4078C141.817 36.4593 141.798 36.5245 141.748 36.6032C141.658 36.7449 141.451 37.0005 141.127 37.3699C140.82 37.7493 140.415 38.3327 139.914 39.1202L134.743 47.2467C134.643 47.4042 134.64 47.513 134.735 47.5731C134.814 47.6232 134.936 47.6569 135.102 47.674C135.268 47.6912 135.449 47.6847 135.645 47.6547C136.616 47.52 137.472 47.3567 138.214 47.1649C138.955 46.973 139.47 46.8247 139.758 46.7202C139.881 46.6658 139.973 46.625 140.035 46.5978C140.122 46.5649 140.181 46.5248 140.211 46.4775C140.261 46.3988 140.235 46.2828 140.134 46.1296C140.058 45.9707 139.943 45.8204 139.79 45.6787C139.621 45.5269 139.577 45.3881 139.657 45.2621C139.717 45.1676 139.809 45.1268 139.934 45.1396C140.084 45.1468 140.23 45.1955 140.372 45.2856L141.529 46.0222C141.781 46.1825 142.083 46.3521 142.434 46.5311C142.81 46.7043 143.171 46.8674 143.516 47.0206C143.861 47.1738 144.112 47.3005 144.27 47.4007C144.475 47.5309 144.522 47.6827 144.412 47.8559C144.351 47.9504 144.241 48.002 144.081 48.0106C143.936 48.0292 143.762 48.007 143.559 47.944C143.235 47.8267 142.874 47.7515 142.474 47.7186C142.085 47.67 141.706 47.6392 141.338 47.6264C141.121 47.6206 140.767 47.6386 140.275 47.6801C139.784 47.7217 139.25 47.7797 138.671 47.8542C138.093 47.9287 137.543 48.0103 137.022 48.0991C136.877 48.1177 136.78 48.1664 136.73 48.2451C136.71 48.2766 136.698 48.3132 136.693 48.3547C136.705 48.4062 136.708 48.4527 136.704 48.4943C136.793 49.2588 136.89 50.0283 136.994 50.8028C137.099 51.5773 137.21 52.2896 137.327 52.9395C137.445 53.5895 137.541 54.1156 137.617 54.5179C137.715 54.956 137.871 55.3877 138.088 55.8129C138.32 56.2481 138.524 56.5881 138.7 56.8329C138.827 56.9803 138.942 57.1306 139.043 57.2838C139.171 57.4313 139.194 57.568 139.114 57.694C138.994 57.883 138.776 57.8773 138.461 57.6769C137.721 57.2059 136.952 56.6941 136.153 56.1416C135.36 55.6148 134.561 55.0958 133.758 54.5848C133.459 54.3944 133.365 54.2126 133.475 54.0393C133.535 53.9448 133.624 53.8911 133.743 53.8783C133.888 53.8596 134.033 53.8747 134.179 53.9233C134.377 53.9605 134.543 53.9777 134.677 53.9748C134.838 53.9662 134.958 53.8989 135.038 53.7729C135.068 53.7257 135.087 53.6605 135.096 53.5775C135.105 53.4945 135.102 53.3935 135.09 53.2747L134.464 48.3634C134.461 48.2288 134.429 48.1415 134.366 48.1014C134.277 48.0671 134.202 48.0971 134.142 48.1916C133.976 48.4179 133.813 48.657 133.653 48.9089C133.492 49.1609 133.327 49.4208 133.157 49.6885C132.996 49.9405 132.821 50.2161 132.631 50.5153C132.45 50.7988 132.283 51.0794 132.128 51.3572C131.948 51.6407 131.888 51.8905 131.95 52.1067C132.011 52.3229 132.135 52.5455 132.321 52.7745C132.417 52.9019 132.5 53.0322 132.571 53.1654C132.651 53.2828 132.651 53.4044 132.571 53.5304C132.5 53.6407 132.392 53.6715 132.246 53.6228C132.09 53.5899 131.973 53.5484 131.894 53.4983C131.595 53.3079 131.361 53.1368 131.192 52.9851C131.013 52.8491 130.85 52.7231 130.702 52.6071C130.555 52.4912 130.339 52.343 130.056 52.1626C129.788 51.9923 129.555 51.8549 129.356 51.7504C129.157 51.6459 128.95 51.5364 128.735 51.4219C128.51 51.3231 128.24 51.1735 127.925 50.9731Z" fill="#C42D1C"/>
<path d="M165.311 87.8125C165.282 87.666 165.31 87.5178 165.394 87.3678C165.5 87.2325 165.643 87.1375 165.823 87.0828L168.086 86.262C167.87 86.0384 167.616 85.7654 167.324 85.4429C167.035 85.1386 166.733 84.8179 166.419 84.4807C166.353 84.4367 166.304 84.3799 166.271 84.3103C166.238 84.2407 166.214 84.1693 166.2 84.0961C166.171 83.9496 166.189 83.8032 166.255 83.6568C166.325 83.5288 166.433 83.4502 166.58 83.4211C166.799 83.3775 167.021 83.4382 167.244 83.6032L169.065 85.154C169.157 84.8503 169.258 84.4972 169.368 84.0946C169.479 83.6921 169.596 83.2785 169.721 82.8541C169.754 82.7333 169.826 82.6144 169.936 82.4974C170.05 82.3987 170.161 82.3384 170.271 82.3166C170.509 82.2693 170.685 82.3391 170.798 82.526C170.911 82.7128 170.949 82.905 170.913 83.1027C170.828 83.5382 170.749 83.9536 170.675 84.3489C170.601 84.7442 170.535 85.1285 170.476 85.5018C170.835 85.3924 171.203 85.2813 171.58 85.1683C171.961 85.0736 172.371 84.9826 172.81 84.8953C172.993 84.8589 173.167 84.8719 173.332 84.9344C173.515 84.9932 173.635 85.1215 173.694 85.3192C173.708 85.4876 173.662 85.6395 173.556 85.7748C173.468 85.9065 173.343 85.9979 173.182 86.0489L170.913 86.8422C171.129 87.0658 171.381 87.3297 171.67 87.6339C171.977 87.9345 172.279 88.2552 172.575 88.5961C172.641 88.6401 172.69 88.6969 172.723 88.7665C172.774 88.8324 172.807 88.902 172.822 88.9753C172.851 89.1218 172.832 89.2682 172.766 89.4145C172.718 89.5572 172.603 89.6468 172.42 89.6831C172.218 89.7231 172.006 89.6606 171.783 89.4956L169.934 87.9502C169.846 88.2723 169.754 88.6236 169.659 89.0042C169.566 89.4031 169.449 89.8166 169.305 90.2448C169.276 90.3838 169.204 90.5027 169.091 90.6014C168.999 90.7148 168.889 90.7842 168.761 90.8097C168.541 90.8533 168.375 90.7817 168.262 90.5949C168.148 90.408 168.092 90.2194 168.092 90.029C168.195 89.5899 168.274 89.1745 168.33 88.7828C168.385 88.3912 168.452 88.0069 168.529 87.6299C168.225 87.7284 167.864 87.8286 167.447 87.9306C167.033 88.0508 166.608 88.1638 166.173 88.2694C165.989 88.3058 165.806 88.2945 165.623 88.2357C165.459 88.1733 165.355 88.0322 165.311 87.8125Z" fill="#C42D1C"/>
</svg>
