<svg width="160" height="160" viewBox="0 0 160 160" fill="none" xmlns="http://www.w3.org/2000/svg">
<path d="M160 80C160 124.183 124.183 160 80 160C35.8172 160 0 124.183 0 80C0 35.8172 35.8172 0 80 0C124.183 0 160 35.8172 160 80Z" fill="#FAF7F7"/>
<path d="M160 80C160 124.183 124.183 160 80 160C35.8172 160 0 124.183 0 80C0 35.8172 35.8172 0 80 0C124.183 0 160 35.8172 160 80Z" fill="#020405" fill-opacity="0.3"/>
<path d="M129.242 80.0235C129.261 79.8603 129.299 79.722 129.358 79.6085C129.399 79.5081 129.472 79.464 129.576 79.476C129.769 79.4984 129.885 79.7299 129.924 80.1704C129.962 80.7461 130.079 81.1656 130.274 81.4288C130.467 81.7068 130.823 81.8759 131.342 81.9362L140.932 83.0501C141.555 83.1225 142.033 83.0877 142.365 82.9459C142.696 82.8189 142.945 82.487 143.112 81.9502C143.184 81.7181 143.263 81.5544 143.35 81.4592C143.436 81.3639 143.531 81.3224 143.635 81.3344C143.724 81.3448 143.784 81.4044 143.817 81.5134C143.862 81.639 143.876 81.7834 143.857 81.9465C143.812 82.3322 143.767 82.6503 143.723 82.9007C143.694 83.1529 143.658 83.3968 143.616 83.6324C143.573 83.868 143.535 84.1341 143.501 84.4308C143.464 84.7423 143.444 85.0481 143.439 85.3483C143.434 85.6484 143.43 85.9411 143.427 86.2264C143.423 86.5265 143.403 86.8249 143.368 87.1215C143.167 88.8571 142.642 90.2018 141.795 91.1557C140.947 92.1097 139.886 92.5125 138.61 92.3644C137.705 92.2593 136.889 91.9765 136.16 91.5161C135.43 91.0705 134.872 90.4419 134.485 89.6302C134.113 88.8203 133.995 87.8294 134.131 86.6576C134.171 86.3164 134.254 86.0554 134.38 85.8746C134.505 85.7087 134.619 85.6317 134.723 85.6438C134.812 85.6541 134.881 85.7073 134.93 85.8031C134.994 85.9008 135.021 85.9867 135.013 86.0608C135.001 86.1647 134.972 86.2816 134.927 86.4117C134.895 86.5583 134.863 86.7651 134.832 87.0321C134.739 87.8331 135.033 88.4761 135.713 88.961C136.392 89.4608 137.354 89.783 138.6 89.9277C139.846 90.0725 140.794 89.8669 141.445 89.3111C142.109 88.7718 142.498 88.0127 142.612 87.0337C142.66 86.6183 142.617 86.2751 142.483 86.004C142.363 85.7494 142.124 85.6015 141.768 85.5601L131.246 84.3155C130.742 84.2569 130.328 84.329 130.004 84.5319C129.694 84.7365 129.454 85.122 129.283 85.6885C129.214 85.891 129.144 86.0407 129.073 86.1377C129 86.2494 128.904 86.2984 128.785 86.2846C128.696 86.2743 128.635 86.2146 128.603 86.1056C128.571 85.9966 128.565 85.8531 128.585 85.6751C128.628 85.3043 128.682 84.9722 128.746 84.679C128.794 84.3989 128.84 84.1262 128.886 83.8609C128.945 83.6122 128.991 83.3469 129.024 83.0651C129.065 82.7091 129.09 82.3662 129.098 82.0364C129.12 81.7232 129.142 81.4025 129.165 81.0745C129.171 80.7595 129.197 80.4092 129.242 80.0235Z" fill="white"/>
<path d="M126.091 95.7476C126.378 94.9462 126.823 94.2806 127.425 93.7508C128.036 93.2401 128.733 92.9107 129.516 92.7628C130.298 92.6148 131.105 92.6894 131.934 92.9865C132.553 93.2081 133.107 93.5416 133.598 93.987C134.089 94.4325 134.488 94.9562 134.796 95.5582C135.104 96.1602 135.288 96.7972 135.349 97.4693C135.423 98.1464 135.343 98.8154 135.106 99.4761C134.809 100.306 134.335 100.985 133.686 101.514C133.051 102.047 132.339 102.395 131.552 102.557C130.764 102.719 129.983 102.662 129.21 102.385C128.367 102.083 127.638 101.615 127.024 100.983C126.409 100.351 126.001 99.5858 125.799 98.6886C125.606 97.8104 125.703 96.8301 126.091 95.7476ZM126.671 96.4548C126.525 96.8625 126.471 97.2557 126.51 97.6345C126.563 98.0182 126.725 98.3619 126.997 98.6656C127.26 98.9501 127.613 99.2035 128.057 99.426C128.51 99.6675 128.982 99.8763 129.474 100.053C130.177 100.304 130.878 100.429 131.578 100.425C132.277 100.422 132.887 100.291 133.407 100.034C133.928 99.7759 134.284 99.3799 134.475 98.8457C134.591 98.5224 134.64 98.207 134.624 97.8996C134.616 97.6113 134.523 97.3164 134.346 97.0148C134.118 96.6319 133.759 96.3051 133.269 96.0344C132.793 95.7688 132.253 95.5277 131.649 95.3112C130.974 95.0695 130.287 94.9503 129.588 94.9537C128.888 94.9571 128.274 95.0781 127.744 95.3167C127.21 95.5693 126.852 95.9487 126.671 96.4548Z" fill="white"/>
<path d="M124 101.691C124.067 101.575 124.143 101.489 124.227 101.434C124.303 101.392 124.38 101.394 124.457 101.439C124.561 101.499 124.609 101.579 124.603 101.679C124.602 101.799 124.584 101.935 124.547 102.087C124.454 102.395 124.436 102.635 124.492 102.806C124.541 102.99 124.662 103.138 124.856 103.25L129.117 105.726C129.44 105.913 129.737 106.025 130.009 106.062C130.294 106.107 130.555 106 130.792 105.74C130.835 105.696 130.898 105.663 130.979 105.641C131.053 105.633 131.129 105.651 131.207 105.696C131.349 105.778 131.402 105.895 131.365 106.047C131.259 106.469 131.176 106.939 131.116 107.457C131.07 107.982 131.043 108.416 131.035 108.756C131.042 108.864 131.039 108.957 131.028 109.037C131.016 109.117 131.002 109.169 130.987 109.195C130.935 109.286 130.857 109.301 130.754 109.241C130.702 109.211 130.596 109.141 130.436 109.03C130.268 108.933 130.084 108.817 129.885 108.684C129.686 108.552 129.49 108.429 129.296 108.316C129.244 108.286 129.211 108.284 129.196 108.31C129.334 108.667 129.442 109.031 129.519 109.404C129.589 109.79 129.605 110.162 129.569 110.522C129.546 110.888 129.46 111.201 129.31 111.459C129.115 111.795 128.894 112.012 128.647 112.11C128.413 112.216 128.186 112.205 127.966 112.077C127.824 111.995 127.683 111.852 127.542 111.649C127.406 111.467 127.308 111.263 127.249 111.039C127.194 110.834 127.212 110.655 127.302 110.5C127.355 110.41 127.431 110.324 127.529 110.243C127.641 110.17 127.756 110.09 127.875 110.004C127.987 109.931 128.096 109.847 128.202 109.753C128.314 109.68 128.4 109.592 128.46 109.488C128.647 109.166 128.704 108.801 128.629 108.395C128.554 107.989 128.181 107.591 127.509 107.201L123.868 105.085C123.661 104.965 123.451 104.956 123.237 105.056C123.023 105.156 122.767 105.344 122.469 105.62C122.348 105.74 122.239 105.823 122.142 105.871C122.058 105.926 121.971 105.927 121.881 105.874C121.726 105.784 121.72 105.617 121.862 105.371C122.087 104.984 122.302 104.659 122.505 104.398C122.689 104.142 122.878 103.846 123.073 103.51C123.201 103.291 123.307 103.093 123.391 102.918C123.476 102.742 123.564 102.56 123.656 102.372C123.735 102.176 123.85 101.949 124 101.691Z" fill="white"/>
<path d="M117.75 110.749C118.266 110.111 118.845 109.763 119.487 109.705C120.119 109.66 120.784 109.919 121.48 110.482L125.521 113.749C125.614 113.825 125.711 113.836 125.812 113.782C125.914 113.75 126.055 113.624 126.233 113.403L126.346 113.264C126.402 113.194 126.496 113.174 126.626 113.202C126.768 113.241 126.886 113.297 126.979 113.372C127.002 113.391 127.021 113.426 127.038 113.477C127.056 113.55 127.061 113.602 127.054 113.635C127.008 114.001 126.978 114.37 126.964 114.743C126.953 115.138 126.96 115.508 126.987 115.856C127.003 116.215 127.025 116.521 127.052 116.773C127.054 116.89 127.059 116.99 127.068 117.074C127.077 117.158 127.053 117.235 126.997 117.304C126.94 117.374 126.876 117.418 126.804 117.436C126.722 117.466 126.633 117.433 126.538 117.337L125.769 116.542C125.639 116.418 125.523 116.372 125.42 116.404C125.308 116.448 125.195 116.539 125.083 116.679L123.449 118.699C123.421 118.734 123.352 118.736 123.243 118.705C123.133 118.674 123.038 118.626 122.956 118.56C122.829 118.457 122.721 118.341 122.633 118.212C122.545 118.084 122.52 117.996 122.557 117.949L123.924 116.26C124.158 115.97 124.284 115.755 124.301 115.615C124.309 115.486 124.208 115.338 123.999 115.169L120.62 112.437C120.132 112.042 119.675 111.836 119.248 111.817C118.833 111.808 118.48 111.983 118.189 112.343C117.917 112.68 117.739 112.959 117.657 113.18C117.574 113.401 117.517 113.614 117.485 113.82C117.48 113.873 117.468 113.912 117.45 113.935C117.403 113.993 117.346 114.004 117.278 113.969C117.201 113.945 117.128 113.905 117.058 113.849C116.989 113.792 116.951 113.589 116.946 113.239C116.941 112.89 116.999 112.485 117.12 112.026C117.23 111.558 117.44 111.133 117.75 110.749Z" fill="white"/>
<path d="M115.292 114.062C115.392 113.972 115.49 113.913 115.587 113.886C115.672 113.87 115.745 113.895 115.805 113.961C115.885 114.05 115.907 114.141 115.87 114.234C115.844 114.338 115.791 114.447 115.711 114.559C115.494 114.876 115.381 115.129 115.371 115.319C115.361 115.509 115.452 115.709 115.642 115.919L119.89 120.624C120.001 120.524 120.129 120.409 120.273 120.279C120.427 120.16 120.598 120.026 120.785 119.877C120.839 119.848 120.929 119.847 121.055 119.874C121.19 119.913 121.288 119.966 121.348 120.032C121.368 120.054 121.371 120.091 121.358 120.144C121.345 120.196 121.332 120.237 121.32 120.269C121.223 120.517 121.132 120.74 121.048 120.937C120.963 121.154 120.872 121.377 120.776 121.605C121.605 122.567 122.177 123.479 122.493 124.341C122.808 125.203 122.937 125.992 122.88 126.708C122.821 127.445 122.645 128.086 122.353 128.632C122.06 129.198 121.72 129.657 121.332 130.007C120.667 130.608 120.089 130.948 119.599 131.029C119.107 131.131 118.706 131.01 118.396 130.666C118.186 130.434 118.076 130.201 118.067 129.968C118.067 129.746 118.156 129.555 118.334 129.394C118.433 129.304 118.563 129.258 118.721 129.256C118.89 129.264 119.08 129.274 119.291 129.285C119.596 129.311 119.93 129.291 120.293 129.225C120.655 129.18 121.019 128.992 121.384 128.662C121.883 128.211 122.087 127.635 121.996 126.932C121.915 126.241 121.464 125.441 120.643 124.532L119.352 123.102C119.282 123.025 119.215 122.995 119.15 123.013C119.086 123.031 119.026 123.065 118.971 123.115L116.976 124.916C116.909 124.976 116.834 125.004 116.749 125C116.665 124.996 116.598 124.966 116.548 124.91C116.468 124.822 116.394 124.717 116.326 124.598C116.257 124.499 116.209 124.401 116.182 124.305C116.146 124.176 116.156 124.087 116.212 124.037L117.99 122.43C118.168 122.27 118.259 122.137 118.265 122.032C118.269 121.948 118.231 121.861 118.151 121.772L114.202 117.4C113.982 117.156 113.756 117.039 113.522 117.048C113.278 117.068 112.899 117.249 112.385 117.593C112.112 117.759 111.91 117.77 111.78 117.626C111.72 117.559 111.698 117.479 111.713 117.385C111.739 117.301 111.796 117.22 111.884 117.14C112.217 116.839 112.559 116.561 112.91 116.304C113.24 116.046 113.55 115.786 113.838 115.526C114.026 115.356 114.193 115.195 114.338 115.044C114.472 114.903 114.612 114.757 114.757 114.605C114.892 114.443 115.071 114.262 115.292 114.062Z" fill="white"/>
<path d="M106.064 121.136C106.788 120.69 107.551 120.448 108.353 120.411C109.149 120.394 109.899 120.572 110.602 120.946C111.306 121.319 111.889 121.881 112.351 122.631C112.695 123.191 112.92 123.798 113.025 124.452C113.13 125.107 113.114 125.765 112.978 126.427C112.843 127.09 112.589 127.702 112.216 128.265C111.851 128.84 111.37 129.312 110.772 129.68C110.022 130.142 109.228 130.377 108.391 130.384C107.561 130.403 106.788 130.231 106.072 129.865C105.356 129.499 104.782 128.967 104.352 128.267C103.882 127.504 103.605 126.684 103.52 125.807C103.436 124.929 103.595 124.077 103.998 123.25C104.396 122.444 105.084 121.739 106.064 121.136ZM106.074 122.051C105.705 122.278 105.418 122.551 105.211 122.871C105.013 123.204 104.925 123.574 104.948 123.981C104.975 124.367 105.093 124.786 105.3 125.237C105.503 125.708 105.741 126.166 106.015 126.612C106.407 127.247 106.877 127.782 107.425 128.217C107.973 128.651 108.53 128.93 109.098 129.054C109.665 129.178 110.191 129.091 110.674 128.794C110.966 128.614 111.202 128.398 111.381 128.148C111.555 127.918 111.667 127.63 111.717 127.283C111.778 126.842 111.702 126.363 111.489 125.845C111.283 125.341 111.012 124.815 110.675 124.268C110.299 123.658 109.838 123.135 109.29 122.701C108.742 122.267 108.186 121.978 107.624 121.833C107.048 121.696 106.532 121.769 106.074 122.051Z" fill="white"/>
<path d="M100.68 124.423C100.777 124.384 100.879 124.358 100.988 124.346C101.082 124.34 101.149 124.385 101.188 124.481C101.234 124.592 101.216 124.688 101.137 124.769C101.063 124.864 100.975 124.964 100.873 125.071C100.694 125.225 100.532 125.38 100.386 125.536C100.24 125.693 100.227 125.916 100.346 126.207L104.551 136.466C104.715 136.867 104.92 137.17 105.166 137.376C105.403 137.602 105.709 137.678 106.083 137.606C106.204 137.588 106.299 137.662 106.367 137.828C106.43 137.98 106.418 138.09 106.333 138.157C106.002 138.373 105.7 138.602 105.427 138.843C105.155 139.083 104.903 139.316 104.672 139.539C104.441 139.763 104.232 139.962 104.045 140.135C103.973 140.197 103.917 140.236 103.875 140.253C103.834 140.27 103.798 140.261 103.767 140.225C103.722 140.195 103.692 140.159 103.675 140.118C103.629 140.007 103.554 139.764 103.448 139.388C103.342 139.011 103.142 138.464 102.848 137.745L98.4391 126.988C98.3258 126.712 98.1596 126.562 97.9403 126.539C97.7267 126.53 97.5021 126.533 97.2665 126.549C97.1251 126.558 96.9948 126.555 96.8754 126.539C96.756 126.524 96.6737 126.461 96.6284 126.35C96.5944 126.267 96.6201 126.192 96.7055 126.125C96.7771 126.063 96.8613 126.013 96.958 125.973C97.2205 125.865 97.4514 125.779 97.6505 125.713C97.8496 125.648 98.0418 125.585 98.2271 125.526C98.4124 125.466 98.6294 125.385 98.8781 125.283C99.113 125.187 99.3175 125.095 99.4914 125.007C99.6654 124.92 99.8394 124.833 100.013 124.745C100.182 124.644 100.404 124.537 100.68 124.423Z" fill="white"/>
<path d="M95.5328 126.492C95.648 126.461 95.7547 126.455 95.853 126.474C95.9369 126.497 95.9907 126.552 96.0145 126.639C96.0462 126.754 96.0247 126.845 95.9502 126.912C95.8653 126.997 95.7692 127.07 95.6619 127.131C95.3545 127.308 95.1355 127.469 95.0048 127.613C94.8742 127.758 94.8445 127.96 94.9158 128.219L96.199 132.884C96.3178 133.316 96.4849 133.642 96.7001 133.861C96.9194 134.095 97.2169 134.191 97.5927 134.15C97.6687 134.145 97.7342 134.158 97.7893 134.189C97.8339 134.239 97.8701 134.314 97.8978 134.415C97.9453 134.587 97.9063 134.699 97.7806 134.749C97.1867 135.067 96.6983 135.403 96.3153 135.756C95.9219 136.127 95.6298 136.417 95.439 136.624C95.3083 136.769 95.207 136.851 95.135 136.87C95.0198 136.902 94.9464 136.86 94.9147 136.745C94.8711 136.587 94.8234 136.329 94.7716 135.971C94.7053 135.618 94.6383 135.234 94.5706 134.819C94.4885 134.408 94.3999 134.029 94.3049 133.684L92.9504 128.759C92.887 128.529 92.7603 128.378 92.5702 128.306C92.3801 128.235 92.1076 128.201 91.7527 128.206C91.6296 128.209 91.5169 128.193 91.4147 128.16C91.302 128.144 91.2298 128.079 91.1982 127.964C91.1506 127.791 91.2565 127.669 91.5156 127.597C91.7892 127.522 92.0379 127.469 92.2618 127.439C92.4818 127.394 92.6945 127.351 92.9001 127.31C93.0912 127.272 93.3164 127.218 93.5755 127.147C93.8203 127.08 94.0415 127.011 94.2391 126.941C94.4367 126.871 94.6344 126.802 94.832 126.732C95.0112 126.651 95.2449 126.572 95.5328 126.492ZM96.6248 138.064C96.9848 137.965 97.328 138.002 97.6545 138.175C97.9706 138.367 98.1781 138.643 98.2771 139.003C98.3801 139.377 98.3429 139.721 98.1654 140.033C97.9776 140.363 97.7036 140.578 97.3437 140.677C96.9693 140.78 96.6169 140.737 96.2864 140.55C95.9599 140.376 95.7452 140.102 95.6422 139.728C95.5432 139.368 95.5876 139.023 95.7755 138.692C95.9674 138.376 96.2505 138.167 96.6248 138.064Z" fill="white"/>
<path d="M85.5455 128.378C86.3924 128.293 87.1845 128.409 87.9217 128.725C88.6455 129.057 89.2424 129.545 89.7123 130.188C90.1823 130.831 90.4613 131.591 90.5495 132.468C90.6153 133.121 90.5525 133.766 90.3612 134.4C90.1698 135.035 89.8685 135.62 89.4572 136.157C89.046 136.694 88.5499 137.134 87.9691 137.477C87.3898 137.836 86.751 138.05 86.0526 138.12C85.176 138.209 84.3594 138.073 83.6029 137.714C82.8478 137.37 82.2279 136.877 81.7431 136.235C81.2583 135.593 80.9749 134.864 80.8927 134.047C80.803 133.155 80.9117 132.296 81.2188 131.47C81.5259 130.644 82.0411 129.946 82.7644 129.378C83.4744 128.827 84.4014 128.493 85.5455 128.378ZM85.1559 129.205C84.725 129.249 84.3469 129.369 84.0216 129.567C83.6978 129.78 83.4573 130.074 83.3 130.45C83.1561 130.81 83.0791 131.238 83.0689 131.734C83.0455 132.247 83.0599 132.763 83.1122 133.283C83.1869 134.026 83.376 134.713 83.6795 135.342C83.983 135.972 84.3629 136.467 84.8193 136.826C85.2757 137.186 85.7862 137.337 86.3508 137.28C86.6926 137.246 86.9986 137.155 87.269 137.008C87.526 136.877 87.7524 136.666 87.9484 136.376C88.1964 136.006 88.3372 135.542 88.3711 134.983C88.4064 134.439 88.392 133.848 88.3277 133.209C88.256 132.496 88.0684 131.824 87.7649 131.194C87.4614 130.564 87.0881 130.062 86.6451 129.686C86.1872 129.312 85.6908 129.152 85.1559 129.205Z" fill="white"/>
<path d="M50.1589 128.78C50.2606 128.843 50.3325 128.94 50.3745 129.071C50.396 129.207 50.374 129.342 50.3084 129.477L49.5579 131.251C49.8064 131.246 50.1048 131.246 50.4531 131.25C50.7887 131.246 51.1409 131.244 51.5097 131.243C51.5713 131.228 51.6315 131.23 51.6902 131.249C51.7489 131.268 51.8036 131.292 51.8545 131.324C51.9562 131.386 52.032 131.477 52.0819 131.595C52.119 131.706 52.1063 131.812 52.0436 131.914C51.9497 132.066 51.7936 132.163 51.5754 132.204L49.675 132.428C49.8031 132.647 49.9551 132.899 50.1311 133.183C50.3071 133.466 50.4856 133.76 50.6665 134.065C50.7193 134.15 50.75 134.256 50.7588 134.385C50.7549 134.505 50.7294 134.603 50.6824 134.68C50.5806 134.845 50.4441 134.91 50.2729 134.875C50.1017 134.839 49.9682 134.757 49.8724 134.628C49.6631 134.341 49.4626 134.069 49.271 133.81C49.0793 133.552 48.8901 133.304 48.7033 133.066C48.5721 133.336 48.437 133.612 48.298 133.895C48.1463 134.17 47.9765 134.46 47.7885 134.765C47.7102 134.892 47.6079 134.987 47.4817 135.05C47.3477 135.125 47.2068 135.126 47.0591 135.053C46.9525 134.969 46.8884 134.86 46.867 134.724C46.8376 134.601 46.8519 134.478 46.9096 134.356L47.6791 132.593C47.4307 132.598 47.1386 132.602 46.8031 132.606C46.4597 132.623 46.1075 132.625 45.7465 132.613C45.6848 132.628 45.6247 132.626 45.566 132.607C45.4995 132.601 45.4408 132.583 45.3899 132.552C45.2882 132.489 45.2124 132.398 45.1625 132.28C45.1048 132.174 45.1152 132.058 45.1935 131.931C45.2796 131.791 45.4318 131.7 45.6499 131.659L47.5621 131.416C47.4213 131.189 47.2654 130.944 47.0942 130.681C46.9104 130.41 46.7319 130.116 46.5589 129.799C46.4934 129.706 46.4626 129.599 46.4665 129.479C46.4499 129.364 46.4691 129.261 46.5239 129.172C46.6178 129.02 46.7504 128.961 46.9216 128.996C47.0928 129.032 47.2341 129.101 47.3456 129.205C47.5471 129.504 47.7475 129.777 47.947 130.022C48.1465 130.268 48.3358 130.516 48.5147 130.767C48.6224 130.535 48.7599 130.269 48.9273 129.968C49.082 129.66 49.2469 129.35 49.4222 129.037C49.5005 128.91 49.6067 128.808 49.7407 128.733C49.8669 128.67 50.0063 128.686 50.1589 128.78Z" fill="white"/>
<path d="M33.7019 95.0567C34.0492 96.0743 34.2148 97.1144 34.1988 98.1771C34.178 99.2256 33.9796 100.216 33.6038 101.149C33.2279 102.082 32.6742 102.91 31.9427 103.633C31.2063 104.342 30.3011 104.88 29.227 105.247C28.2235 105.589 27.2113 105.698 26.1904 105.573C25.1553 105.453 24.1849 105.129 23.2792 104.602C22.3544 104.066 21.5371 103.358 20.8272 102.48C20.1032 101.607 19.541 100.584 19.1406 99.4109C18.9622 98.888 18.8313 98.412 18.7479 97.9828C18.6504 97.5585 18.579 97.1411 18.5335 96.7305C18.4881 96.32 18.4613 95.8716 18.4531 95.3852C18.4469 95.1822 18.4788 95.0214 18.5488 94.9028C18.614 94.7701 18.7431 94.663 18.9361 94.5813C19.2891 94.4135 19.6586 94.2479 20.0447 94.0846C20.426 93.9072 20.8544 93.7294 21.3301 93.5512C21.4573 93.5078 21.5685 93.533 21.6636 93.6268C21.7539 93.7064 21.8066 93.8146 21.8218 93.9515C21.8228 94.0932 21.7528 94.2117 21.6118 94.3072C21.1888 94.5935 20.8225 94.8842 20.513 95.1792C20.2034 95.4742 19.9839 95.8253 19.8546 96.2323C19.7112 96.6442 19.6556 97.1286 19.6879 97.6857C19.7154 98.2285 19.8353 98.8109 20.0475 99.4328C20.3176 100.224 20.7285 100.897 21.2803 101.45C21.832 102.003 22.4702 102.417 23.1947 102.69C23.905 102.968 24.6593 103.121 25.4576 103.148C26.2511 103.162 27.0294 103.038 27.7926 102.778C28.683 102.474 29.497 102.062 30.2347 101.542C30.9676 101.008 31.5725 100.399 32.0493 99.7154C32.5213 99.0178 32.8323 98.2647 32.9823 97.4561C33.1183 96.6523 33.0415 95.8265 32.7521 94.9785C32.4049 93.9609 31.8917 93.1972 31.2128 92.6873C30.5197 92.1822 29.6649 91.8506 28.6485 91.6926C28.4168 91.6612 28.2673 91.5466 28.1997 91.3487C28.1322 91.1509 28.2115 91.0133 28.4376 90.9362C28.579 90.8879 28.7865 90.8487 29.0602 90.8184C29.3149 90.7788 29.6051 90.7507 29.9309 90.7342C30.2425 90.7226 30.5329 90.7181 30.8021 90.7209C31.0147 90.743 31.1684 90.7774 31.2632 90.8239C31.358 90.8705 31.4745 90.9806 31.6127 91.1543C32.0221 91.6142 32.4088 92.1923 32.7726 92.8886C33.1317 93.5708 33.4414 94.2935 33.7019 95.0567Z" fill="white"/>
<path d="M31.5161 84.5321C31.5817 85.3808 31.448 86.17 31.115 86.8997C30.7659 87.6156 30.2645 88.2011 29.6107 88.656C28.9569 89.111 28.1907 89.3724 27.3123 89.4403C26.6572 89.4909 26.0146 89.4133 25.3846 89.2074C24.7546 89.0014 24.1761 88.6867 23.6491 88.2631C23.1221 87.8395 22.6935 87.3335 22.3634 86.7449C22.0185 86.1575 21.8189 85.5138 21.7648 84.8141C21.6969 83.9356 21.8513 83.1224 22.2278 82.3743C22.5894 81.6274 23.0966 81.0191 23.7493 80.5492C24.4019 80.0794 25.1377 79.8128 25.9566 79.7495C26.8499 79.6805 27.7061 79.809 28.5252 80.1351C29.3442 80.4613 30.0293 80.9924 30.5805 81.7287C31.1156 82.4512 31.4275 83.3857 31.5161 84.5321ZM30.6982 84.1235C30.6648 83.6917 30.553 83.311 30.3628 82.9812C30.1576 82.6525 29.8689 82.4053 29.4966 82.2393C29.1404 82.0871 28.7143 82.0002 28.2183 81.9787C27.7063 81.9434 27.1898 81.9458 26.6687 81.9861C25.9242 82.0437 25.2337 82.2169 24.597 82.5057C23.9603 82.7946 23.457 83.163 23.0873 83.611C22.7175 84.0589 22.5545 84.5658 22.5982 85.1316C22.6247 85.474 22.7084 85.7821 22.8494 86.0558C22.9743 86.3157 23.1794 86.547 23.4647 86.7496C23.829 87.006 24.29 87.1576 24.8478 87.2044C25.3907 87.2523 25.9823 87.2515 26.6225 87.202C27.3372 87.1467 28.0129 86.9747 28.6496 86.6858C29.2863 86.397 29.7975 86.0354 30.1834 85.6012C30.568 85.1521 30.7396 84.6595 30.6982 84.1235Z" fill="white"/>
<path d="M30.3891 78.707C30.3663 78.8243 30.3243 78.9226 30.2632 79.002C30.2168 79.0842 30.1422 79.1154 30.0396 79.0954C29.937 79.0754 29.865 79.0158 29.8235 78.9164C29.7848 78.8024 29.7578 78.6678 29.7423 78.5126C29.709 78.2932 29.6669 78.0796 29.6161 77.8719C29.5534 77.6467 29.3755 77.5056 29.0823 77.4485L24.2452 76.5067C23.8787 76.4353 23.555 76.418 23.274 76.4545C22.9784 76.4883 22.7685 76.668 22.6442 76.9937C22.6181 77.0495 22.5788 77.0951 22.5263 77.1305C22.4737 77.1659 22.3962 77.1736 22.2936 77.1536C22.1177 77.1194 22.0279 77.0335 22.0243 76.8958C21.9959 76.4947 21.9516 76.1362 21.8914 75.8202C21.8312 75.5042 21.7594 75.2088 21.676 74.9339C21.5779 74.6562 21.4754 74.3624 21.3684 74.0525C21.3594 74.0203 21.3505 73.9881 21.3415 73.956C21.3208 73.9063 21.3147 73.8595 21.3232 73.8155C21.3432 73.7129 21.4118 73.673 21.5291 73.6958C21.6464 73.7186 21.8546 73.782 22.1539 73.8859C22.4413 73.9723 22.6877 74.0355 22.8929 74.0754C23.0395 74.104 23.1303 74.1065 23.1653 74.0828L23.1739 74.0389C22.8787 73.6011 22.6301 73.081 22.4279 72.4787C22.2285 71.8618 22.2044 71.1649 22.3557 70.388C22.4527 69.8896 22.6688 69.4829 23.004 69.1678C23.3246 68.8499 23.7774 68.6338 24.3626 68.5195L24.3754 68.4536C23.9948 67.9078 23.715 67.3133 23.536 66.6699C23.357 66.0265 23.336 65.353 23.473 64.6494C23.5672 64.1657 23.7864 63.7823 24.1305 63.4994C24.4746 63.2165 24.8984 63.0328 25.4017 62.9482C25.9078 62.849 26.4394 62.8536 26.9964 62.962L31.7456 63.8867C32.0388 63.9438 32.2479 63.8856 32.373 63.7122C32.498 63.5388 32.6186 63.3492 32.7347 63.1436C32.8072 63.0056 32.8813 62.8983 32.9571 62.8218C33.0328 62.7453 33.122 62.717 33.2246 62.737C33.3126 62.7541 33.3714 62.8036 33.4011 62.8854C33.4337 62.9526 33.4357 63.0595 33.4071 63.2061C33.3501 63.4993 33.2883 63.7383 33.2219 63.9231C33.1701 64.1108 33.1198 64.2912 33.0709 64.4642C33.022 64.6373 32.9719 64.8557 32.9205 65.1196C32.872 65.3688 32.8365 65.5901 32.814 65.7835C32.7945 65.9622 32.7734 66.1483 32.751 66.3417C32.7432 66.538 32.7108 66.7827 32.6537 67.0758C32.6309 67.1931 32.5889 67.2914 32.5278 67.3708C32.4696 67.4355 32.3965 67.4593 32.3085 67.4422C32.1913 67.4194 32.1192 67.3597 32.0923 67.2632C32.0508 67.1638 32.0224 67.0366 32.0069 66.8814C31.9911 66.6502 31.9549 66.4453 31.8984 66.267C31.8271 66.0858 31.6596 65.9695 31.3958 65.9181L26.8005 65.0234C26.4487 64.9549 26.1119 64.9654 25.7902 65.0549C25.4567 65.1269 25.1792 65.263 24.9576 65.4633C24.7214 65.6607 24.5748 65.906 24.5177 66.1992C24.4577 66.507 24.4446 66.8087 24.4784 67.1044C24.5121 67.4 24.6059 67.6997 24.7597 68.0035C24.9579 68.392 25.3722 68.6476 26.0025 68.7703L30.6198 69.6693C30.9129 69.7264 31.1279 69.677 31.2648 69.5211C31.3898 69.3476 31.5031 69.1567 31.6045 68.9482C31.6742 68.8249 31.7469 68.7249 31.8226 68.6484C31.9013 68.5572 31.9919 68.5216 32.0945 68.5416C32.1824 68.5587 32.2412 68.6082 32.271 68.69C32.3007 68.7719 32.3027 68.8788 32.277 69.0107C32.2199 69.3039 32.1582 69.5429 32.0917 69.7277C32.04 69.9154 31.9896 70.0958 31.9407 70.2688C31.8918 70.4419 31.8417 70.6603 31.7903 70.9242C31.7418 71.1734 31.7063 71.3947 31.6839 71.5881C31.6643 71.7668 31.6433 71.9529 31.6208 72.1463C31.6131 72.3426 31.5806 72.5873 31.5235 72.8804C31.5036 72.983 31.463 73.074 31.4019 73.1534C31.3408 73.2328 31.2663 73.2639 31.1784 73.2468C31.0611 73.224 30.9905 73.157 30.9665 73.0458C30.9278 72.9318 30.8979 72.8119 30.8768 72.6861C30.8609 72.4548 30.8248 72.2499 30.7682 72.0716C30.6998 71.8757 30.5337 71.7521 30.2699 71.7007L25.6746 70.806C25.3228 70.7375 24.986 70.748 24.6643 70.8375C24.3455 70.9124 24.068 71.0485 23.8317 71.2459C23.5955 71.4433 23.4489 71.6886 23.3918 71.9818C23.3347 72.275 23.3216 72.5767 23.3525 72.887C23.3862 73.1826 23.48 73.4823 23.6338 73.7861C23.8056 74.1543 24.2139 74.4011 24.8589 74.5267L29.4982 75.43C29.7767 75.4842 29.9829 75.4407 30.1169 75.2994C30.2363 75.1553 30.354 74.9804 30.4701 74.7748C30.5369 74.6661 30.6096 74.5662 30.6882 74.475C30.7522 74.3809 30.8428 74.3453 30.96 74.3682C31.048 74.3853 31.1054 74.4421 31.1322 74.5386C31.1619 74.6205 31.1654 74.72 31.1425 74.8373C31.0855 75.1305 31.0237 75.3695 30.9573 75.5543C30.9055 75.742 30.8566 75.9151 30.8106 76.0734C30.7645 76.2318 30.7158 76.4429 30.6644 76.7068C30.6159 76.956 30.5805 77.1773 30.558 77.3707C30.5356 77.5641 30.5117 77.7648 30.4864 77.9729C30.4786 78.1692 30.4462 78.4139 30.3891 78.707Z" fill="white"/>
<path d="M34.2518 62.3878C34.2028 62.4968 34.1395 62.5829 34.0619 62.6463C33.9905 62.696 33.9139 62.7025 33.8321 62.6657C33.7232 62.6168 33.6666 62.5422 33.6625 62.4421C33.6509 62.3223 33.656 62.2018 33.6777 62.0806C33.7368 61.7306 33.7524 61.4592 33.7244 61.2665C33.6965 61.0738 33.5599 60.9224 33.3147 60.8122L28.9018 58.8281C28.4932 58.6444 28.1357 58.5655 27.8293 58.5915C27.5093 58.6114 27.2455 58.7793 27.0379 59.0953C26.9937 59.1573 26.942 59.1995 26.8827 59.222C26.816 59.2247 26.735 59.2047 26.6396 59.1618C26.4762 59.0883 26.4152 58.9872 26.4567 58.8585C26.59 58.198 26.6425 57.6077 26.6144 57.0875C26.5789 56.5475 26.542 56.138 26.5037 55.8588C26.4757 55.6661 26.4771 55.5357 26.5077 55.4676C26.5567 55.3587 26.6356 55.3287 26.7446 55.3777C26.8944 55.445 27.1236 55.5726 27.4321 55.7605C27.7467 55.9347 28.0856 56.1279 28.4485 56.3402C28.8177 56.5389 29.1657 56.7118 29.4925 56.8587L34.1506 58.953C34.3685 59.051 34.5656 59.0496 34.742 58.9487C34.9183 58.8479 35.1177 58.6592 35.3403 58.3827C35.4165 58.286 35.5002 58.209 35.5915 58.1518C35.6752 58.0748 35.7715 58.0608 35.8805 58.1098C36.0439 58.1833 36.0705 58.3426 35.9603 58.5878C35.844 58.8466 35.7262 59.072 35.6071 59.2641C35.5017 59.4622 35.3993 59.6536 35.2999 59.8382C35.2067 60.0091 35.105 60.2171 34.9947 60.4623C34.8906 60.6938 34.8025 60.908 34.7304 61.1048C34.6583 61.3016 34.5862 61.4984 34.5141 61.6952C34.4617 61.8845 34.3743 62.1154 34.2518 62.3878ZM24.6387 55.8553C24.4856 56.1958 24.2382 56.4366 23.8965 56.5777C23.5472 56.699 23.2023 56.6831 22.8618 56.53C22.5077 56.3708 22.2669 56.1234 22.1395 55.7877C22.0045 55.4324 22.0136 55.0844 22.1667 54.7439C22.3259 54.3898 22.5832 54.1453 22.9386 54.0103C23.2804 53.8693 23.6283 53.8783 23.9824 54.0376C24.3229 54.1906 24.5606 54.4449 24.6956 54.8003C24.8169 55.1495 24.798 55.5012 24.6387 55.8553Z" fill="white"/>
<path d="M36.3628 57.1526C36.2957 57.2515 36.2185 57.3254 36.1311 57.3745C36.0438 57.4235 35.963 57.4228 35.8889 57.3725C35.79 57.3055 35.7472 57.2223 35.7604 57.123C35.7696 57.0029 35.7976 56.8686 35.8444 56.7198C35.9207 56.5009 35.97 56.2818 35.9925 56.0624C36.015 55.8431 35.9026 55.6496 35.6554 55.482L31.577 52.7158C31.2681 52.5062 30.9834 52.3672 30.723 52.2989C30.4586 52.2098 30.1888 52.2884 29.9134 52.5347C29.8675 52.5758 29.8135 52.6023 29.7513 52.6142C29.6767 52.6178 29.6023 52.5944 29.5282 52.5441C29.3675 52.4351 29.3187 52.3208 29.3818 52.2012C29.5639 51.6932 29.692 51.2117 29.7661 50.7567C29.8485 50.2893 29.8914 49.8403 29.8949 49.4095C29.8953 49.3557 29.8957 49.3018 29.8962 49.248C29.905 49.1818 29.922 49.1302 29.9471 49.0931C29.9806 49.0437 30.0201 49.0253 30.0656 49.0381C30.1071 49.0302 30.1525 49.043 30.202 49.0765C30.2885 49.1352 30.4428 49.2669 30.6648 49.4716C30.8952 49.664 31.0969 49.8188 31.2699 49.9362C31.3194 49.9697 31.3688 50.0032 31.4182 50.0368C31.4761 50.0579 31.5153 50.0665 31.5361 50.0625C31.4216 49.3534 31.4144 48.6989 31.5145 48.0991C31.6229 47.487 31.8741 46.8905 32.2681 46.3096C32.6872 45.6917 33.2761 45.3422 34.0347 45.2613C34.7933 45.1804 35.5557 45.3998 36.322 45.9195L40.3262 48.6354C40.5734 48.8031 40.7885 48.8317 40.9717 48.7213C41.1632 48.5986 41.3527 48.4655 41.5402 48.322C41.6444 48.2483 41.7505 48.185 41.8586 48.132C41.9667 48.079 42.0702 48.086 42.1691 48.1531C42.2556 48.2118 42.2818 48.2927 42.2479 48.396C42.2223 48.4869 42.1844 48.5695 42.1341 48.6436C41.9664 48.8908 41.8116 49.0925 41.6695 49.2488C41.5482 49.4011 41.4268 49.5533 41.3055 49.7056C41.1926 49.8455 41.0606 50.0267 40.9098 50.2492C40.7673 50.4593 40.6477 50.6489 40.5511 50.8179C40.4545 50.987 40.3537 51.1622 40.2487 51.3436C40.1644 51.521 40.0385 51.7333 39.8708 51.9805C39.8289 52.0423 39.7663 52.1081 39.6829 52.1778C39.5995 52.2475 39.5145 52.2531 39.428 52.1944C39.3291 52.1273 39.2843 52.0338 39.2936 51.9138C39.3028 51.7937 39.3224 51.6717 39.3524 51.5477C39.4163 51.3204 39.4657 51.1012 39.5005 50.8903C39.5354 50.6793 39.4292 50.49 39.182 50.3224L35.3446 47.7196C34.8255 47.3676 34.3275 47.2373 33.8504 47.3287C33.3818 47.4078 32.9904 47.6656 32.6762 48.1022C32.4164 48.4853 32.2477 48.8671 32.1701 49.2475C32.0885 49.6072 32.0628 49.9777 32.0929 50.359C32.1088 50.442 32.1454 50.5209 32.2028 50.596C32.2602 50.671 32.3198 50.7294 32.3816 50.7713L36.8307 53.789C37.0779 53.9567 37.2992 53.9895 37.4947 53.8875C37.6779 53.7771 37.8528 53.6522 38.0196 53.5127C38.2905 53.2995 38.494 53.239 38.6299 53.3312C38.7041 53.3815 38.7387 53.4501 38.7339 53.5371C38.729 53.624 38.6889 53.7231 38.6135 53.8343C38.4458 54.0815 38.291 54.2832 38.1489 54.4395C38.0276 54.5917 37.9104 54.7378 37.7975 54.8778C37.6929 55.0053 37.5652 55.1803 37.4143 55.4028C37.2718 55.6129 37.1522 55.8025 37.0556 55.9715C36.959 56.1406 36.8582 56.3158 36.7532 56.4972C36.6606 56.687 36.5304 56.9055 36.3628 57.1526Z" fill="white"/>
<path d="M49.7746 50.094C48.8145 51.0131 47.8888 51.5685 46.9974 51.7603C46.1168 51.9418 45.3977 51.7413 44.8401 51.1588C44.5509 50.8568 44.3565 50.5673 44.257 50.2906C44.1574 50.0138 44.1326 49.6964 44.1827 49.3384C44.2313 49.0437 44.2812 48.6962 44.3321 48.296C44.3939 47.8854 44.4554 47.4854 44.5167 47.0959L45.3533 46.5122C45.1579 47.2367 45.0923 47.8267 45.1563 48.2823C45.2306 48.7486 45.4536 49.176 45.8254 49.5643C46.2488 50.0066 46.7887 50.1926 47.4451 50.1224C48.1014 50.0522 48.7101 49.7487 49.271 49.2117C49.9506 48.5611 50.329 47.9198 50.4061 47.2877C50.4684 46.856 50.4196 46.4272 50.2599 46.0013C50.111 45.565 49.8816 45.185 49.5718 44.8614C49.3653 44.6457 49.1194 44.54 48.8341 44.5443C48.5489 44.5487 48.1977 44.6677 47.7807 44.9016C47.3637 45.1354 46.8487 45.5044 46.2356 46.0086C45.1067 46.924 44.2182 47.4644 43.5704 47.6298C42.9225 47.7952 42.3868 47.6568 41.9634 47.2146C41.8602 47.1067 41.789 46.9784 41.75 46.8297C41.7218 46.6706 41.7262 46.47 41.7631 46.2279C41.8137 45.8488 41.8572 45.5487 41.8937 45.3277C41.9302 45.1067 41.9498 44.9329 41.9526 44.8062C41.9558 44.6584 41.9379 44.5101 41.8989 44.3614L42.7933 44.0324C42.6494 44.3355 42.569 44.6295 42.5522 44.9143C42.5355 45.1991 42.5787 45.3955 42.682 45.5033C42.8162 45.6436 43.0105 45.6953 43.2648 45.6586C43.5088 45.6111 43.8184 45.4595 44.1936 45.2036C44.5689 44.9477 45.0252 44.6038 45.5627 44.172C46.6818 43.2247 47.6186 42.6483 48.373 42.443C49.1273 42.2376 49.742 42.3831 50.2171 42.8793C50.6301 43.3108 50.9196 43.8399 51.0855 44.4667C51.2725 45.0939 51.3479 45.7557 51.3116 46.452C51.2753 47.1483 51.1287 47.8157 50.8718 48.4544C50.615 49.0931 50.2492 49.6396 49.7746 50.094ZM43.3087 42.9188C43.697 42.547 43.8188 42.048 43.674 41.4216C43.54 40.785 43.1736 40.1539 42.5746 39.5282C42.2442 39.183 41.88 38.9321 41.482 38.7756C41.0841 38.6191 40.6998 38.5631 40.3291 38.6079C39.959 38.6315 39.6444 38.7672 39.3855 39.0151C39.1482 39.2423 39.0097 39.5402 38.97 39.9091C38.9302 40.2779 38.9905 40.6647 39.1506 41.0695C39.3005 41.4636 39.5406 41.8332 39.8711 42.1784C40.2428 42.5667 40.6429 42.8659 41.0714 43.0759C41.5003 43.2648 41.9156 43.3531 42.3172 43.3407C42.7193 43.3073 43.0498 43.1666 43.3087 42.9188ZM43.7679 43.6575C43.3148 44.0913 42.7695 44.3962 42.1319 44.5725C41.4944 44.7487 40.86 44.7771 40.2289 44.6577C39.5875 44.5275 39.0447 44.2305 38.6007 43.7667C38.0947 43.2381 37.796 42.6454 37.7047 41.9886C37.6031 41.321 37.6755 40.6624 37.9221 40.0129C38.1691 39.3424 38.546 38.7644 39.053 38.279C39.3766 37.9692 39.7038 37.7387 40.0345 37.5875C40.3657 37.4152 40.692 37.2269 41.0133 37.0227C41.3233 36.8499 41.5696 36.6968 41.7521 36.5635C41.935 36.409 42.1235 36.2389 42.3177 36.053C42.4579 35.9187 42.6146 35.7584 42.7876 35.5721C42.9503 35.375 43.0749 35.2351 43.1612 35.1525C43.3122 35.0079 43.4806 35.0327 43.6665 35.2269C43.8008 35.3671 43.8705 35.5587 43.8758 35.8018C43.873 35.9285 43.8501 36.0125 43.8069 36.0538L43.37 36.472C43.0896 36.7405 42.9637 36.9437 42.9924 37.0816C43.0018 37.1347 43.0267 37.2039 43.067 37.2892C43.1079 37.3535 43.1694 37.4393 43.2515 37.5467C43.3445 37.6438 43.4632 37.7679 43.6078 37.9189C44.1448 38.4798 44.5059 39.1161 44.691 39.8278C44.8762 40.5395 44.8927 41.237 44.7405 41.9202C44.5991 42.5931 44.2749 43.1722 43.7679 43.6575Z" fill="white"/>
<path d="M59.6493 35.7691C59.0744 36.0199 58.4979 36.1736 57.9198 36.2303C57.3477 36.3006 56.7808 36.271 56.2192 36.1412C56.1405 36.1104 56.0521 36.0756 55.9538 36.0371C55.8632 35.9788 55.7863 35.9146 55.7231 35.8444C55.49 35.5714 55.2514 35.2112 55.0073 34.7637C54.7709 34.2966 54.5653 33.8812 54.3904 33.5176C54.3486 33.4218 54.3598 33.3354 54.424 33.2585C54.4823 33.168 54.5661 33.0988 54.6756 33.051C54.7715 33.0092 54.8557 32.9969 54.9284 33.0141C55.0087 33.0116 55.0835 33.0523 55.1527 33.1362C55.8939 34.0511 56.6586 34.6462 57.4467 34.9215C58.2288 35.1831 58.9484 35.1706 59.6054 34.884C60.0707 34.681 60.4229 34.4052 60.6618 34.0566C60.9145 33.702 61.062 33.3118 61.1043 32.886C61.1407 32.4466 61.0634 32.0078 60.8723 31.5698C60.6454 31.0497 60.3713 30.6642 60.0501 30.4133C59.7288 30.1624 59.3404 29.9816 58.8848 29.8708C58.4291 29.76 57.8824 29.6645 57.2446 29.5843C56.5538 29.4946 55.8638 29.3883 55.1748 29.2653C54.4994 29.1363 53.8861 28.9069 53.335 28.5771C52.7838 28.2473 52.3559 27.7334 52.0514 27.0353C51.729 26.2962 51.6165 25.5714 51.7139 24.8609C51.819 24.1308 52.1352 23.4552 52.6626 22.8341C53.184 22.1993 53.917 21.6759 54.8614 21.2639C55.3542 21.049 55.8229 20.9097 56.2676 20.846C56.72 20.7627 57.0933 20.7221 57.3875 20.7241C57.5286 20.7114 57.6542 20.7381 57.7645 20.804C57.8884 20.864 58.0007 20.9535 58.1015 21.0725C58.2953 21.33 58.5169 21.6325 58.7662 21.98C59.0155 22.3274 59.2268 22.6996 59.3999 23.0965C59.4656 23.2471 59.3889 23.3701 59.1699 23.4657C59.0467 23.5194 58.9185 23.5428 58.7851 23.5358C58.6517 23.5288 58.5534 23.4902 58.4902 23.4201C57.8821 22.773 57.2861 22.3405 56.7023 22.1227C56.1322 21.8989 55.5392 21.9214 54.9233 22.1901C54.5126 22.3692 54.1691 22.6087 53.8925 22.9085C53.6238 23.1887 53.4583 23.5378 53.3963 23.9559C53.342 24.3543 53.4283 24.8136 53.6552 25.3337C53.8165 25.7033 54.0919 25.9986 54.4816 26.2196C54.879 26.421 55.3555 26.5797 55.9112 26.6957C56.4746 26.7921 57.0919 26.8812 57.763 26.9632C58.4735 27.0606 59.1352 27.1955 59.7481 27.368C60.361 27.5406 60.902 27.8096 61.371 28.1753C61.8341 28.5272 62.2089 29.0317 62.4955 29.6887C62.8717 30.551 63.0025 31.3737 62.8879 32.1568C62.7674 32.9263 62.4268 33.6207 61.866 34.24C61.319 34.8534 60.5801 35.3631 59.6493 35.7691Z" fill="white"/>
<path d="M69.0015 32.5499C68.1686 32.7253 67.3687 32.6953 66.6019 32.46C65.8466 32.2071 65.2009 31.786 64.6648 31.1969C64.1287 30.6078 63.7698 29.8822 63.5883 29.02C63.4529 28.3771 63.4463 27.7299 63.5685 27.0784C63.6908 26.427 63.9276 25.8125 64.279 25.2348C64.6305 24.6572 65.0765 24.1665 65.6172 23.7627C66.1548 23.3442 66.7669 23.0627 67.4537 22.9181C68.3159 22.7365 69.1423 22.7837 69.933 23.0598C70.7206 23.3212 71.3897 23.745 71.9404 24.331C72.4911 24.917 72.8511 25.6119 73.0204 26.4156C73.2051 27.2923 73.189 28.158 72.9721 29.0124C72.7553 29.8669 72.3177 30.6153 71.6594 31.2576C71.0127 31.8821 70.1267 32.3129 69.0015 32.5499ZM69.3002 31.6857C69.724 31.5965 70.087 31.4361 70.3893 31.2046C70.6884 30.9585 70.8961 30.64 71.0122 30.2493C71.1167 29.8763 71.1475 29.4425 71.1044 28.948C71.0728 28.4358 71.0031 27.9239 70.8954 27.4125C70.7416 26.6818 70.48 26.0197 70.1108 25.4259C69.7416 24.8322 69.3109 24.3812 68.8186 24.0728C68.3264 23.7644 67.8026 23.6687 67.2473 23.7856C66.9112 23.8564 66.6167 23.9795 66.3636 24.1549C66.1221 24.3126 65.9195 24.546 65.7557 24.8552C65.5488 25.2497 65.4585 25.7266 65.4847 26.2857C65.5078 26.8303 65.5855 27.4167 65.7179 28.0451C65.8656 28.7465 66.124 29.394 66.4933 29.9878C66.8625 30.5815 67.2874 31.0414 67.7682 31.3674C68.2635 31.6904 68.7742 31.7965 69.3002 31.6857Z" fill="white"/>
<path d="M79.5261 31.3083C78.6749 31.3017 77.8999 31.1016 77.2011 30.7079C76.5173 30.2994 75.9764 29.7501 75.5786 29.0601C75.1807 28.3701 74.9851 27.5846 74.9919 26.7035C74.997 26.0465 75.1288 25.4128 75.3874 24.8025C75.646 24.1922 76.0087 23.6425 76.4754 23.1533C76.9421 22.6641 77.4827 22.2799 78.0971 22.0009C78.7117 21.707 79.3699 21.5628 80.0717 21.5682C80.9528 21.575 81.75 21.7977 82.4634 22.2363C83.177 22.6599 83.7402 23.2168 84.153 23.907C84.5658 24.5971 84.7691 25.3528 84.7627 26.1741C84.7558 27.0701 84.5552 27.9123 84.1608 28.7008C83.7664 29.4892 83.1791 30.1268 82.3988 30.6136C81.6335 31.0856 80.676 31.3171 79.5261 31.3083ZM80.0026 30.5279C80.4356 30.5313 80.8245 30.4521 81.1692 30.2905C81.5141 30.114 81.7849 29.8473 81.9818 29.4904C82.1637 29.1483 82.2864 28.7311 82.3499 28.2388C82.4285 27.7316 82.4698 27.2167 82.4738 26.6941C82.4796 25.9474 82.3655 25.2447 82.1317 24.5858C81.8978 23.9269 81.5734 23.3942 81.1584 22.9878C80.7434 22.5814 80.2522 22.376 79.6847 22.3716C79.3413 22.369 79.0272 22.4263 78.7426 22.5435C78.473 22.646 78.2251 22.8308 77.9991 23.0978C77.7127 23.4391 77.5226 23.8856 77.4287 24.4375C77.335 24.9744 77.2856 25.5639 77.2806 26.206C77.2751 26.9228 77.3893 27.6106 77.6231 28.2695C77.857 28.9284 78.1739 29.4684 78.5738 29.8897C78.9887 30.311 79.465 30.5238 80.0026 30.5279Z" fill="white"/>
<path d="M85.7049 31.0855C85.5885 31.0587 85.4917 31.0134 85.4144 30.9496C85.3372 30.8858 85.3086 30.8102 85.3287 30.7229C85.3556 30.6065 85.4177 30.5366 85.5151 30.513C85.6304 30.4783 85.7658 30.4559 85.9214 30.4458C86.1531 30.4379 86.3752 30.4049 86.5879 30.3466C86.8006 30.2884 86.9404 30.1138 87.0075 29.8227L88.1148 25.0207C88.1987 24.657 88.2255 24.3413 88.1953 24.0738C88.1829 23.7951 88.0122 23.5718 87.6831 23.404C87.6282 23.376 87.584 23.3352 87.5504 23.2814C87.5202 23.2132 87.5151 23.1354 87.5353 23.0481C87.5789 22.8589 87.6679 22.7721 87.8022 22.7878C88.3417 22.7743 88.837 22.7199 89.288 22.6247C89.7536 22.5328 90.1879 22.4107 90.5908 22.2584C90.6412 22.2394 90.6915 22.2204 90.7419 22.2013C90.8068 22.1857 90.8611 22.1828 90.9048 22.1929C90.963 22.2063 90.9943 22.2365 90.9988 22.2836C91.0212 22.3194 91.0257 22.3664 91.0123 22.4246C90.9888 22.5264 90.9216 22.7179 90.8109 22.9988C90.7147 23.2831 90.6431 23.5272 90.5961 23.7309C90.5827 23.7891 90.5693 23.8473 90.5558 23.9055C90.557 23.9671 90.5631 24.0068 90.5743 24.0247C91.1944 23.6619 91.8021 23.419 92.3975 23.2957C93.0075 23.1759 93.6545 23.1948 94.3384 23.3525C95.066 23.5203 95.6045 23.9433 95.9538 24.6215C96.3031 25.2997 96.3738 26.0899 96.1657 26.9921L95.0786 31.7068C95.0115 31.9978 95.0624 32.2088 95.2315 32.3398C95.4151 32.474 95.6076 32.6027 95.8091 32.7258C95.9154 32.7963 96.0128 32.8724 96.1013 32.9541C96.1897 33.0358 96.2205 33.1348 96.1937 33.2513C96.1702 33.3531 96.1042 33.4069 95.9956 33.4125C95.9016 33.4214 95.8109 33.4159 95.7236 33.3957C95.4326 33.3286 95.1885 33.257 94.9915 33.1809C94.8057 33.1228 94.6199 33.0646 94.4341 33.0064C94.2628 32.9516 94.0462 32.894 93.7843 32.8336C93.5369 32.7766 93.317 32.7335 93.1245 32.7044C92.9319 32.6754 92.7321 32.6446 92.5251 32.6122C92.3292 32.5977 92.0857 32.5569 91.7947 32.4898C91.7219 32.473 91.638 32.4383 91.5428 32.3857C91.4477 32.3331 91.4119 32.2559 91.4353 32.154C91.4622 32.0376 91.5332 31.9621 91.6485 31.9273C91.7638 31.8926 91.8847 31.8669 92.0112 31.85C92.2462 31.8276 92.4684 31.7946 92.6777 31.7509C92.887 31.7072 93.0252 31.5398 93.0923 31.2488L94.1342 26.7306C94.2751 26.1194 94.2168 25.6079 93.9593 25.196C93.7163 24.7875 93.3346 24.5156 92.8141 24.3803C92.363 24.2762 91.9461 24.2567 91.5633 24.3217C91.1984 24.3755 90.8436 24.4852 90.4989 24.651C90.4273 24.6957 90.3668 24.7584 90.3176 24.839C90.2684 24.9196 90.2353 24.9963 90.2186 25.0691L89.0106 30.3076C88.9435 30.5986 88.9928 30.8169 89.1585 30.9624C89.3275 31.0933 89.5072 31.2114 89.6975 31.3165C89.9941 31.4922 90.124 31.6601 90.0871 31.8202C90.067 31.9075 90.0155 31.9646 89.9326 31.9914C89.8498 32.0183 89.7429 32.0167 89.612 31.9865C89.3209 31.9193 89.0769 31.8478 88.8799 31.7717C88.6941 31.7135 88.5156 31.657 88.3443 31.6022C88.1876 31.5507 87.9783 31.4948 87.7163 31.4344C87.469 31.3774 87.249 31.3343 87.0565 31.3052C86.864 31.2762 86.6642 31.2454 86.4571 31.213C86.2467 31.1951 85.9959 31.1526 85.7049 31.0855Z" fill="white"/>
<path d="M123.904 43.3694C123.828 43.2773 123.791 43.1625 123.793 43.0248C123.817 42.8891 123.881 42.768 123.987 42.6613L125.269 41.2236C125.032 41.1482 124.749 41.0524 124.421 40.9364C124.102 40.8319 123.768 40.7207 123.418 40.6027C123.355 40.5967 123.299 40.5755 123.25 40.539C123.2 40.5025 123.156 40.4612 123.118 40.4151C123.042 40.3231 122.999 40.213 122.99 40.0848C122.991 39.9682 123.037 39.8718 123.129 39.7957C123.267 39.6815 123.446 39.6401 123.666 39.6716L125.537 40.0717C125.487 39.823 125.424 39.5359 125.348 39.2106C125.273 38.8852 125.199 38.5494 125.126 38.203C125.103 38.1054 125.108 37.9946 125.141 37.8704C125.184 37.7578 125.24 37.6729 125.309 37.6158C125.458 37.4921 125.608 37.4745 125.759 37.563C125.91 37.6516 126.01 37.7724 126.059 37.9256C126.165 38.2644 126.267 38.587 126.365 38.8933C126.463 39.1996 126.562 39.4954 126.663 39.7807C126.874 39.5673 127.091 39.3492 127.313 39.1264C127.545 38.9151 127.8 38.6952 128.076 38.4668C128.191 38.3717 128.318 38.3148 128.458 38.2962C128.609 38.2681 128.743 38.3126 128.859 38.4297C128.933 38.5428 128.958 38.6672 128.935 38.8028C128.923 38.929 128.87 39.0406 128.776 39.1378L127.48 40.5582C127.717 40.6337 127.994 40.7237 128.313 40.8281C128.644 40.9231 128.978 41.0343 129.316 41.1618C129.379 41.1678 129.435 41.1891 129.485 41.2256C129.546 41.2526 129.596 41.2891 129.634 41.3352C129.71 41.4272 129.752 41.5373 129.761 41.6655C129.782 41.7841 129.735 41.891 129.62 41.9862C129.493 42.0908 129.32 42.1274 129.1 42.096L127.212 41.7101C127.272 41.9704 127.34 42.2527 127.418 42.557C127.504 42.8728 127.579 43.2087 127.64 43.5645C127.672 43.6736 127.667 43.7845 127.625 43.8972C127.603 44.0118 127.552 44.1024 127.472 44.169C127.333 44.2832 127.189 44.2961 127.038 44.2075C126.888 44.119 126.776 44.0077 126.704 43.8735C126.61 43.5252 126.508 43.2026 126.398 42.9058C126.288 42.609 126.189 42.3132 126.1 42.0184C125.924 42.2032 125.708 42.4108 125.453 42.6412C125.207 42.883 124.951 43.1239 124.684 43.3638C124.569 43.459 124.436 43.5206 124.285 43.5487C124.145 43.5673 124.018 43.5075 123.904 43.3694Z" fill="white"/>
</svg>
