<svg width="160" height="160" viewBox="0 0 160 160" fill="none" xmlns="http://www.w3.org/2000/svg">
<path class="colored" d="M160 80C160 124.183 124.183 160 80 160C35.8172 160 0 124.183 0 80C0 35.8172 35.8172 0 80 0C124.183 0 160 35.8172 160 80Z" fill="#C42D1C"/>
<path class="colored" d="M137.219 79.4099C137.219 110.78 111.789 136.21 80.4191 136.21C49.0494 136.21 23.6191 110.78 23.6191 79.4099C23.6191 48.0401 49.0494 22.6099 80.4191 22.6099C111.789 22.6099 137.219 48.0401 137.219 79.4099Z" fill="#C42D1C"/>
<path d="M128.461 87.2995C128.609 86.2346 128.93 85.2315 129.424 84.2901C129.915 83.3635 130.538 82.5685 131.294 81.905C132.051 81.2416 132.918 80.752 133.897 80.4363C134.874 80.1354 135.924 80.0633 137.048 80.2202C138.098 80.3668 139.051 80.7259 139.906 81.2976C140.776 81.8713 141.496 82.5976 142.067 83.4765C142.651 84.3721 143.062 85.3719 143.3 86.4756C143.552 87.5814 143.593 88.7481 143.422 89.9757C143.345 90.5229 143.248 91.0069 143.129 91.4275C143.024 91.8502 142.9 92.2551 142.756 92.642C142.611 93.029 142.433 93.4414 142.221 93.8792C142.135 94.0632 142.034 94.1924 141.918 94.2667C141.8 94.3557 141.637 94.3932 141.427 94.3791C141.037 94.3698 140.632 94.351 140.214 94.3228C139.794 94.3094 139.331 94.275 138.826 94.2196C138.693 94.201 138.605 94.1284 138.562 94.0019C138.518 93.8901 138.519 93.7697 138.568 93.6407C138.631 93.5138 138.747 93.4395 138.915 93.4178C139.422 93.3528 139.88 93.2584 140.289 93.1346C140.699 93.0108 141.053 92.7964 141.352 92.4913C141.665 92.1883 141.933 91.7809 142.156 91.2691C142.376 90.7721 142.531 90.1982 142.622 89.5474C142.738 88.7192 142.674 87.9338 142.431 87.1912C142.188 86.4486 141.804 85.792 141.281 85.2213C140.772 84.6527 140.168 84.1763 139.467 83.7921C138.765 83.4227 138.014 83.1822 137.216 83.0708C136.284 82.9407 135.372 82.9415 134.479 83.0732C133.584 83.2197 132.769 83.4906 132.036 83.8857C131.3 84.2957 130.683 84.8278 130.185 85.482C129.701 86.1382 129.397 86.91 129.273 87.7974C129.125 88.8623 129.239 89.7753 129.615 90.5365C130.006 91.2998 130.619 91.981 131.456 92.5802C131.648 92.7126 131.73 92.8824 131.701 93.0894C131.672 93.2965 131.539 93.3835 131.303 93.3505C131.155 93.3298 130.952 93.2714 130.694 93.175C130.449 93.0956 130.177 92.9898 129.879 92.8577C129.595 92.7277 129.334 92.6008 129.095 92.4769C128.915 92.3613 128.794 92.2614 128.73 92.1772C128.666 92.0929 128.612 91.9421 128.567 91.7247C128.409 91.1296 128.324 90.4393 128.313 89.6537C128.3 88.8829 128.349 88.0982 128.461 87.2995Z" fill="white"/>
<path d="M125.104 98.7862C125.165 98.65 125.279 98.5785 125.446 98.5716C125.653 98.5831 125.925 98.5987 126.26 98.6183C126.589 98.6516 126.874 98.6733 127.115 98.6834L138.68 99.2904C139.109 99.3195 139.498 99.2734 139.847 99.1521C140.21 99.0369 140.522 98.8169 140.782 98.492C140.936 98.3319 141.065 98.2097 141.168 98.1252C141.285 98.0469 141.398 98.0322 141.507 98.0812C141.603 98.124 141.642 98.1993 141.627 98.3068C141.619 98.4342 141.581 98.5728 141.514 98.7226C141.403 98.9677 141.277 99.2303 141.135 99.5102C140.987 99.8037 140.832 100.111 140.672 100.432C140.525 100.758 140.384 101.072 140.249 101.371C140.127 101.644 140.005 101.933 139.884 102.239C139.756 102.558 139.629 102.861 139.5 103.147C139.385 103.439 139.285 103.68 139.199 103.871C139.132 104.021 139.053 104.141 138.963 104.232C138.867 104.336 138.778 104.37 138.697 104.333C138.588 104.284 138.52 104.18 138.493 104.02C138.474 103.881 138.494 103.709 138.552 103.507C138.675 103.087 138.728 102.734 138.709 102.447C138.691 102.161 138.566 101.965 138.334 101.861C138.157 101.782 137.984 101.729 137.816 101.702C137.642 101.689 137.501 101.675 137.393 101.659L128.496 101.073C128.416 101.07 128.36 101.085 128.328 101.12C128.296 101.155 128.325 101.217 128.416 101.307L134.197 107.075C134.783 107.665 135.309 107.934 135.775 107.882C136.248 107.849 136.622 107.6 136.897 107.134C137.01 106.955 137.128 106.82 137.251 106.728C137.388 106.642 137.511 106.624 137.62 106.673C137.701 106.71 137.738 106.792 137.73 106.919C137.716 107.06 137.672 107.212 137.599 107.376C137.501 107.594 137.399 107.802 137.293 108C137.202 108.204 137.1 108.412 136.988 108.624C136.89 108.842 136.78 109.087 136.658 109.36C136.48 109.755 136.313 110.162 136.156 110.583C135.994 111.018 135.845 111.385 135.71 111.684C135.631 111.861 135.546 111.995 135.456 112.086C135.374 112.196 135.278 112.227 135.169 112.178C135.074 112.135 135.02 112.037 135.007 111.884C135.001 111.75 135.014 111.576 135.045 111.361C135.151 110.835 135.107 110.332 134.913 109.852C134.727 109.392 134.449 108.972 134.079 108.593L127.024 101.123C126.849 100.93 126.65 100.718 126.427 100.486C126.203 100.255 125.98 100.023 125.757 99.792C125.541 99.5803 125.348 99.371 125.179 99.1641C125.123 99.1062 125.094 99.0439 125.091 98.9772C125.069 98.918 125.073 98.8543 125.104 98.7862Z" fill="white"/>
<path d="M108.404 129.282C108.508 129.222 108.627 129.206 108.762 129.232C108.892 129.278 109 129.362 109.087 129.485L110.285 130.994C110.399 130.773 110.542 130.511 110.713 130.208C110.87 129.911 111.037 129.601 111.213 129.277C111.23 129.216 111.26 129.164 111.305 129.121C111.349 129.079 111.397 129.043 111.449 129.013C111.553 128.954 111.669 128.931 111.797 128.944C111.911 128.964 111.998 129.026 112.058 129.13C112.147 129.286 112.157 129.469 112.088 129.68L111.374 131.455C111.627 131.448 111.921 131.435 112.254 131.417C112.588 131.398 112.931 131.383 113.285 131.37C113.385 131.364 113.493 131.388 113.61 131.442C113.714 131.503 113.788 131.573 113.832 131.65C113.929 131.819 113.92 131.97 113.807 132.103C113.694 132.237 113.558 132.314 113.399 132.337C113.047 132.383 112.711 132.428 112.393 132.472C112.074 132.517 111.766 132.564 111.468 132.614C111.642 132.858 111.819 133.109 112.001 133.367C112.169 133.632 112.342 133.92 112.52 134.231C112.594 134.361 112.628 134.496 112.623 134.637C112.625 134.791 112.558 134.915 112.423 135.009C112.299 135.063 112.172 135.066 112.042 135.02C111.92 134.987 111.819 134.915 111.739 134.806L110.562 133.286C110.447 133.506 110.311 133.765 110.153 134.061C110.003 134.37 109.836 134.68 109.653 134.992C109.636 135.053 109.605 135.105 109.561 135.147C109.524 135.203 109.479 135.245 109.428 135.275C109.324 135.334 109.208 135.357 109.08 135.344C108.96 135.344 108.863 135.279 108.789 135.15C108.707 135.007 108.701 134.83 108.769 134.619L109.473 132.824C109.206 132.839 108.916 132.859 108.603 132.883C108.277 132.914 107.933 132.93 107.572 132.929C107.459 132.942 107.351 132.918 107.247 132.857C107.138 132.816 107.057 132.751 107.006 132.66C106.917 132.504 106.929 132.36 107.042 132.226C107.155 132.093 107.284 132.002 107.428 131.954C107.787 131.921 108.123 131.876 108.434 131.818C108.745 131.761 109.053 131.714 109.359 131.677C109.207 131.471 109.04 131.223 108.856 130.932C108.66 130.649 108.467 130.355 108.276 130.051C108.202 129.922 108.164 129.78 108.162 129.626C108.168 129.485 108.248 129.371 108.404 129.282Z" fill="white"/>
<path d="M73.3302 127.578C74.3977 127.706 75.4068 128.007 76.3575 128.483C77.2934 128.956 78.1002 129.564 78.7781 130.307C79.4559 131.05 79.9621 131.908 80.2965 132.881C80.6162 133.852 80.7083 134.901 80.5731 136.028C80.4467 137.08 80.1059 138.04 79.5508 138.905C78.9938 139.786 78.2815 140.52 77.4138 141.108C76.5295 141.709 75.5378 142.139 74.4389 142.398C73.3381 142.672 72.1724 142.735 70.9418 142.587C70.3932 142.521 69.9074 142.433 69.4846 142.322C69.0599 142.226 68.6528 142.109 68.2631 141.972C67.8735 141.835 67.4578 141.665 67.0159 141.462C66.8303 141.379 66.6992 141.281 66.6227 141.166C66.5314 141.05 66.4908 140.887 66.5009 140.678C66.5027 140.287 66.5137 139.882 66.5338 139.464C66.5392 139.043 66.5647 138.58 66.6104 138.074C66.6264 137.941 66.6973 137.851 66.823 137.806C66.934 137.759 67.0543 137.759 67.1842 137.804C67.3123 137.865 67.3888 137.979 67.4137 138.148C67.4884 138.653 67.5916 139.109 67.7233 139.516C67.8549 139.923 68.0761 140.273 68.3869 140.566C68.6958 140.874 69.1083 141.134 69.6243 141.346C70.1254 141.557 70.7022 141.701 71.3546 141.779C72.1849 141.879 72.9689 141.8 73.7067 141.543C74.4445 141.286 75.0937 140.89 75.6542 140.355C76.2129 139.836 76.6776 139.222 77.0483 138.515C77.4042 137.806 77.6302 137.051 77.7263 136.25C77.8384 135.316 77.8201 134.404 77.6712 133.513C77.5076 132.621 77.2212 131.812 76.812 131.087C76.388 130.359 75.8441 129.752 75.1805 129.266C74.5151 128.795 73.7376 128.506 72.848 128.4C71.7804 128.272 70.8697 128.403 70.1159 128.794C69.3603 129.199 68.691 129.826 68.108 130.673C67.9793 130.868 67.8111 130.954 67.6035 130.929C67.396 130.904 67.3064 130.773 67.3349 130.535C67.3527 130.387 67.4073 130.183 67.4986 129.923C67.5734 129.677 67.6739 129.403 67.8002 129.102C67.9248 128.816 68.0467 128.553 68.1659 128.311C68.278 128.129 68.3756 128.006 68.4586 127.94C68.5416 127.875 68.6914 127.818 68.9079 127.769C69.4998 127.599 70.1883 127.501 70.9736 127.475C71.744 127.447 72.5295 127.482 73.3302 127.578Z" fill="white"/>
<path d="M61.823 124.424C61.9603 124.483 62.0339 124.596 62.0439 124.762C62.0363 124.97 62.0258 125.242 62.0124 125.577C61.9853 125.907 61.9689 126.192 61.9632 126.433L61.572 138.007C61.5509 138.437 61.6042 138.825 61.732 139.172C61.854 139.533 62.0798 139.84 62.4095 140.095C62.5724 140.246 62.697 140.372 62.7834 140.474C62.8639 140.59 62.8807 140.702 62.8337 140.812C62.7926 140.908 62.7182 140.95 62.6103 140.936C62.4828 140.93 62.3436 140.895 62.1925 140.83C61.9454 140.725 61.6805 140.604 61.398 140.467C61.1018 140.324 60.7918 140.175 60.4681 140.02C60.1386 139.88 59.8227 139.745 59.5206 139.615C59.246 139.498 58.9547 139.382 58.6467 139.266C58.325 139.145 58.02 139.023 57.7316 138.9C57.4374 138.79 57.1941 138.694 57.0019 138.612C56.8509 138.548 56.7292 138.471 56.637 138.383C56.531 138.289 56.4956 138.201 56.5308 138.118C56.5777 138.009 56.6806 137.939 56.8394 137.909C56.9786 137.888 57.1502 137.904 57.3542 137.959C57.7759 138.074 58.1299 138.12 58.4161 138.096C58.7024 138.072 58.8954 137.943 58.9952 137.71C59.0715 137.532 59.1213 137.358 59.1446 137.189C59.1543 137.015 59.1659 136.874 59.1795 136.766L59.5999 127.859C59.6018 127.779 59.5851 127.723 59.5497 127.692C59.5144 127.66 59.4527 127.691 59.3645 127.783L53.7056 133.671C53.1258 134.268 52.8665 134.799 52.9278 135.263C52.9695 135.736 53.2257 136.105 53.6966 136.371C53.8771 136.481 54.0145 136.596 54.1087 136.718C54.1971 136.853 54.2178 136.976 54.1709 137.086C54.1356 137.168 54.0543 137.206 53.9269 137.2C53.7857 137.189 53.6327 137.148 53.4679 137.077C53.2482 136.984 53.0383 136.886 52.8382 136.784C52.6322 136.696 52.4223 136.598 52.2084 136.49C51.9887 136.397 51.7415 136.291 51.4669 136.174C51.0687 136.003 50.6577 135.844 50.234 135.695C49.7966 135.541 49.4269 135.399 49.1247 135.27C48.9462 135.194 48.8109 135.111 48.7186 135.023C48.6068 134.943 48.5743 134.848 48.6213 134.738C48.6623 134.642 48.7593 134.586 48.9123 134.57C49.0456 134.562 49.2201 134.572 49.4358 134.599C49.9634 134.695 50.4653 134.641 50.9416 134.439C51.3983 134.244 51.8127 133.958 52.1849 133.582L59.522 126.389C59.712 126.21 59.9206 126.007 60.1478 125.779C60.3751 125.551 60.6023 125.324 60.8295 125.096C61.0371 124.876 61.2428 124.68 61.4466 124.507C61.5034 124.45 61.5651 124.42 61.6318 124.416C61.6906 124.392 61.7543 124.395 61.823 124.424Z" fill="white"/>
<path d="M31.0444 108.26C31.1051 108.363 31.1235 108.483 31.0995 108.618C31.0551 108.748 30.9724 108.858 30.8514 108.947L29.3602 110.166C29.5823 110.278 29.8464 110.416 30.1526 110.582C30.4512 110.736 30.7638 110.898 31.0905 111.069C31.1518 111.085 31.2041 111.115 31.2474 111.158C31.2906 111.202 31.3274 111.25 31.3578 111.301C31.4186 111.404 31.4434 111.52 31.4323 111.648C31.4136 111.763 31.3528 111.851 31.2499 111.911C31.0956 112.003 30.9124 112.015 30.7003 111.95L28.9148 111.262C28.9258 111.515 28.9431 111.809 28.9664 112.142C28.9897 112.475 29.0104 112.818 29.0285 113.172C29.0355 113.272 29.013 113.38 28.961 113.498C28.9013 113.602 28.833 113.677 28.7558 113.723C28.5887 113.822 28.4376 113.816 28.3026 113.705C28.1676 113.594 28.0879 113.459 28.0634 113.3C28.012 112.948 27.9618 112.614 27.9127 112.296C27.8637 111.978 27.812 111.67 27.7577 111.373C27.5157 111.55 27.2673 111.732 27.0125 111.917C26.7501 112.089 26.4646 112.267 26.156 112.449C26.0275 112.525 25.8928 112.561 25.7519 112.558C25.5982 112.562 25.4732 112.497 25.3768 112.363C25.3213 112.24 25.3157 112.113 25.3602 111.983C25.3917 111.86 25.4616 111.758 25.5697 111.677L27.0723 110.477C26.8502 110.365 26.5899 110.233 26.2913 110.08C25.9799 109.934 25.6672 109.772 25.3534 109.593C25.2921 109.577 25.2398 109.547 25.1965 109.504C25.1404 109.467 25.0972 109.424 25.0668 109.372C25.0061 109.269 24.9812 109.154 24.9924 109.026C24.9906 108.905 25.054 108.807 25.1826 108.731C25.324 108.648 25.5008 108.639 25.7129 108.704L27.5177 109.381C27.4991 109.115 27.4754 108.825 27.4468 108.512C27.4107 108.187 27.39 107.844 27.3847 107.482C27.3701 107.37 27.3927 107.261 27.4523 107.156C27.4914 107.047 27.556 106.965 27.646 106.912C27.8003 106.821 27.945 106.831 28.0799 106.942C28.2149 107.053 28.3075 107.18 28.3578 107.324C28.3963 107.683 28.4465 108.017 28.5084 108.328C28.5703 108.638 28.622 108.946 28.6634 109.251C28.8668 109.096 29.1126 108.925 29.4007 108.737C29.6812 108.537 29.972 108.339 30.273 108.144C30.4016 108.068 30.5427 108.028 30.6964 108.024C30.8372 108.027 30.9532 108.106 31.0444 108.26Z" fill="white"/>
<path d="M32.1089 73.4041C32.0013 74.4739 31.7191 75.4886 31.2624 76.4482C30.8072 77.393 30.2146 78.2114 29.4846 78.9034C28.7546 79.5954 27.9066 80.118 26.9405 80.4711C25.9759 80.8093 24.9291 80.9216 23.7998 80.8081C22.7449 80.702 21.7792 80.3797 20.9028 79.8413C20.0116 79.3014 19.2638 78.6033 18.6596 77.7471C18.0419 76.8745 17.593 75.8913 17.3128 74.7975C17.0177 73.7022 16.9322 72.5379 17.0562 71.3047C17.1115 70.7549 17.1906 70.2676 17.2934 69.8427C17.3813 69.4162 17.49 69.0069 17.6195 68.6147C17.749 68.2225 17.9112 67.8036 18.1061 67.3579C18.185 67.1707 18.2809 67.0378 18.3939 66.9591C18.5083 66.8656 18.6703 66.8218 18.8798 66.8279C19.2706 66.8222 19.6755 66.8254 20.0946 66.8375C20.5151 66.8348 20.9787 66.8514 21.4854 66.8873C21.6191 66.9008 21.7097 66.9699 21.7572 67.0948C21.8061 67.2048 21.809 67.3251 21.7659 67.4559C21.7079 67.5851 21.5949 67.6638 21.4269 67.6919C20.9232 67.7763 20.4692 67.8883 20.0649 68.0277C19.6607 68.1672 19.315 68.395 19.0281 68.7114C18.7263 69.0262 18.4742 69.4436 18.2718 69.9636C18.0709 70.4687 17.9376 71.0481 17.8718 71.7019C17.7881 72.5339 17.882 73.3163 18.1535 74.0491C18.425 74.7818 18.8333 75.4232 19.3783 75.9733C19.9084 76.5219 20.5308 76.9747 21.2453 77.3318C21.9613 77.6739 22.7205 77.8854 23.5228 77.9661C24.4589 78.0602 25.3706 78.0244 26.2578 77.8584C27.1464 77.6777 27.9498 77.3757 28.6677 76.9527C29.3871 76.5147 29.9833 75.9594 30.4562 75.2865C30.9143 74.6122 31.1881 73.8292 31.2778 72.9377C31.3854 71.8679 31.2366 70.96 30.8314 70.2138C30.4113 69.4661 29.772 68.809 28.9135 68.2423C28.7159 68.1174 28.6276 67.9509 28.6485 67.7429C28.6694 67.5349 28.7988 67.4428 29.0365 67.4668C29.1851 67.4817 29.3901 67.5323 29.6516 67.6187C29.8997 67.6887 30.1753 67.7839 30.4783 67.9045C30.7665 68.0235 31.0324 68.1403 31.2761 68.2549C31.4603 68.3634 31.5858 68.4586 31.6526 68.5404C31.7194 68.6221 31.7795 68.7708 31.8329 68.9862C32.0138 69.5748 32.1248 70.2613 32.166 71.0459C32.2086 71.8157 32.1896 72.6017 32.1089 73.4041Z" fill="white"/>
<path d="M35.0251 61.754C34.969 61.8924 34.8577 61.9681 34.6913 61.9812C34.4833 61.9775 34.2116 61.972 33.8761 61.9649C33.5462 61.9439 33.2606 61.9329 33.0193 61.9318L21.4398 61.7569C21.01 61.7438 20.6229 61.8043 20.2784 61.9386C19.92 62.0673 19.6167 62.2988 19.3683 62.6331C19.2206 62.7988 19.0966 62.9258 18.9963 63.0141C18.8823 63.0967 18.7699 63.1156 18.6591 63.0707C18.5623 63.0315 18.5196 62.9578 18.5312 62.8497C18.5346 62.7221 18.5671 62.5822 18.6289 62.43C18.7299 62.1809 18.8462 61.9139 18.9779 61.6288C19.1152 61.33 19.258 61.0173 19.4066 60.6908C19.5412 60.3586 19.6703 60.0403 19.7937 59.7359C19.9059 59.4591 20.0168 59.1657 20.1264 58.8556C20.2417 58.5317 20.3582 58.2244 20.476 57.9338C20.58 57.6376 20.6713 57.3926 20.7498 57.1988C20.8116 57.0466 20.8856 56.9236 20.972 56.8297C21.064 56.722 21.1516 56.6849 21.2346 56.7186C21.3453 56.7635 21.4169 56.865 21.4495 57.0233C21.4738 57.162 21.4605 57.3339 21.4096 57.5389C21.3023 57.9626 21.2632 58.3174 21.2923 58.6032C21.3215 58.8889 21.4537 59.0795 21.689 59.1749C21.8689 59.2478 22.0434 59.2944 22.2124 59.3146C22.3871 59.321 22.5285 59.33 22.6366 59.3416L31.5495 59.5955C31.6299 59.5959 31.6854 59.5781 31.7161 59.5422C31.7468 59.5063 31.7152 59.4451 31.6213 59.3587L25.6283 53.8108C25.0209 53.2423 24.4855 52.9929 24.0221 53.0629C23.5504 53.1134 23.1859 53.3765 22.9285 53.8522C22.8223 54.0348 22.7093 54.1743 22.5896 54.2708C22.4561 54.3617 22.334 54.3847 22.2233 54.3398C22.1402 54.3061 22.1004 54.2255 22.1038 54.0979C22.1128 53.9566 22.1509 53.8028 22.2182 53.6368C22.308 53.4153 22.4019 53.2036 22.4999 53.0017C22.5841 52.7941 22.678 52.5824 22.7816 52.3666C22.8714 52.1451 22.9724 51.896 23.0846 51.6193C23.2473 51.2179 23.399 50.8041 23.5396 50.3777C23.6859 49.9374 23.8208 49.5651 23.9442 49.2606C24.0171 49.0807 24.0968 48.9438 24.1832 48.8499C24.2614 48.7366 24.3559 48.7024 24.4666 48.7473C24.5634 48.7866 24.6212 48.8825 24.6399 49.0351C24.6504 49.1683 24.644 49.3429 24.6208 49.5591C24.5351 50.0884 24.598 50.5892 24.8093 51.0616C25.0124 51.5146 25.3058 51.9236 25.6895 52.2887L33.0183 59.4901C33.2004 59.6767 33.4075 59.8815 33.6394 60.1044C33.8713 60.3274 34.1032 60.5503 34.335 60.7732C34.5587 60.9767 34.7588 61.1787 34.9353 61.3792C34.9933 61.4349 35.0249 61.4961 35.0302 61.5627C35.0548 61.621 35.0532 61.6848 35.0251 61.754Z" fill="white"/>
<path d="M50.6225 30.6016C50.5208 30.6643 50.4019 30.6849 50.2659 30.6634C50.1348 30.6214 50.0238 30.5407 49.9327 30.4214L48.6864 28.9528C48.5789 29.1769 48.4449 29.4435 48.2846 29.7527C48.1369 30.0541 47.9805 30.3696 47.8153 30.6994C47.8006 30.761 47.7718 30.8139 47.7287 30.8579C47.6857 30.9019 47.6388 30.9396 47.5879 30.9709C47.4862 31.0336 47.3712 31.0605 47.2431 31.0518C47.1276 31.0352 47.0386 30.976 46.9759 30.8743C46.882 30.7217 46.8658 30.5388 46.9273 30.3255L47.5827 28.5276C47.3293 28.5433 47.0363 28.5659 46.7037 28.5954C46.3711 28.6248 46.0282 28.6518 45.6751 28.6764C45.5753 28.6853 45.4662 28.6647 45.3478 28.6149C45.2421 28.5572 45.1658 28.4902 45.1188 28.4139C45.017 28.2486 45.0204 28.0975 45.1289 27.9605C45.2375 27.8235 45.371 27.7412 45.5295 27.7138C45.8797 27.656 46.2133 27.5996 46.5302 27.5447C46.8472 27.4898 47.1539 27.4325 47.4503 27.3727C47.2682 27.1341 47.0823 26.8891 46.8924 26.6377C46.7153 26.3785 46.5327 26.0963 46.3448 25.7912C46.2665 25.664 46.2278 25.53 46.2287 25.3891C46.2218 25.2355 46.2844 25.1093 46.4164 25.0104C46.5387 24.9527 46.6654 24.9448 46.7965 24.9868C46.9198 25.0161 47.023 25.0841 47.1062 25.1907L48.3335 26.671C48.441 26.4469 48.5686 26.1842 48.7162 25.8828C48.856 25.5688 49.0125 25.2532 49.1855 24.9362C49.2002 24.8745 49.229 24.8217 49.2721 24.7777C49.3073 24.7209 49.3503 24.6769 49.4012 24.6456C49.5029 24.5829 49.6178 24.556 49.746 24.5647C49.8663 24.5608 49.9656 24.6224 50.0439 24.7495C50.1301 24.8894 50.1424 25.066 50.0808 25.2793L49.4372 27.0962C49.7032 27.0727 49.9923 27.0437 50.3044 27.0094C50.6292 26.9672 50.9721 26.9402 51.3331 26.9283C51.4456 26.9117 51.5547 26.9322 51.6603 26.9899C51.7709 27.027 51.8536 27.0901 51.9084 27.1791C52.0024 27.3317 51.9951 27.4765 51.8865 27.6135C51.778 27.7505 51.6523 27.8454 51.5095 27.8983C51.1514 27.9434 50.8178 27.9997 50.5087 28.0673C50.1996 28.1349 49.8929 28.1923 49.5887 28.2393C49.7472 28.4398 49.9229 28.6824 50.1157 28.967C50.3213 29.2438 50.5243 29.5309 50.725 29.8282C50.8033 29.9554 50.8459 30.0958 50.8528 30.2494C50.8519 30.3902 50.7751 30.5077 50.6225 30.6016Z" fill="white"/>
<path d="M85.6112 31.0084C84.5399 30.9173 83.521 30.6508 82.5544 30.2088C81.6027 29.7682 80.7753 29.1883 80.0721 28.469C79.3689 27.7498 78.8334 26.9099 78.4655 25.9494C78.1124 24.9902 77.984 23.9451 78.0802 22.8143C78.17 21.7578 78.4774 20.7873 79.0022 19.9027C79.5284 19.0033 80.2148 18.2449 81.0617 17.6275C81.9246 16.9965 82.9008 16.5325 83.9902 16.2355C85.0808 15.9236 86.2436 15.8201 87.4786 15.9252C88.0292 15.972 88.5177 16.0435 88.9441 16.1397C89.3718 16.2211 89.7827 16.3235 90.1769 16.4469C90.5711 16.5704 90.9924 16.7261 91.4411 16.9141C91.6294 16.9901 91.7638 17.084 91.8442 17.1957C91.9395 17.3087 91.9858 17.47 91.9829 17.6796C91.9947 18.0703 91.9977 18.4752 91.992 18.8944C92.0012 19.3148 91.9918 19.7786 91.9636 20.2858C91.9522 20.4197 91.8845 20.5113 91.7604 20.5607C91.6511 20.6114 91.5308 20.6161 91.3995 20.575C91.2693 20.519 91.1889 20.4072 91.1582 20.2397C91.0661 19.7373 90.9472 19.2851 90.8015 18.883C90.6558 18.481 90.4227 18.1389 90.1019 17.8569C89.7825 17.5599 89.3613 17.3143 88.8383 17.1199C88.3301 16.9268 87.7487 16.8024 87.094 16.7467C86.2607 16.6759 85.4799 16.7818 84.7514 17.0646C84.023 17.3473 83.3879 17.7654 82.8463 18.3188C82.3059 18.8574 81.8627 19.4866 81.5167 20.2065C81.1856 20.9277 80.9859 21.6901 80.9176 22.4936C80.8378 23.431 80.8877 24.342 81.0673 25.2265C81.2617 26.1123 81.576 26.9109 82.01 27.6222C82.459 28.3348 83.0235 28.9224 83.7036 29.3849C84.3849 29.8325 85.1719 30.0943 86.0647 30.1702C87.136 30.2613 88.0416 30.0985 88.7815 29.6819C89.5226 29.2503 90.1698 28.601 90.7231 27.7338C90.845 27.5344 91.0101 27.4435 91.2184 27.4612C91.4267 27.4789 91.5208 27.6068 91.5005 27.8449C91.4879 27.9937 91.4404 28.1995 91.3581 28.4623C91.2919 28.7114 91.2009 28.9884 91.0851 29.2933C90.9705 29.5833 90.8578 29.851 90.747 30.0963C90.6413 30.2822 90.548 30.4091 90.4673 30.4772C90.3866 30.5453 90.2389 30.6077 90.0243 30.6643C89.4386 30.8543 88.7538 30.9759 87.97 31.0292C87.201 31.0837 86.4147 31.0767 85.6112 31.0084Z" fill="white"/>
<path d="M97.1274 33.6568C96.988 33.6033 96.9102 33.4934 96.894 33.3273C96.8938 33.1193 96.8942 32.8475 96.895 32.5119C96.9098 32.1817 96.9155 31.8959 96.9121 31.6547L96.8702 20.0739C96.8752 19.644 96.8074 19.258 96.6667 18.9161C96.5314 18.5603 96.2942 18.2613 95.9552 18.0192C95.7868 17.8746 95.6575 17.753 95.5674 17.6544C95.4826 17.5419 95.4616 17.4299 95.5044 17.3184C95.5419 17.2208 95.6148 17.1768 95.7231 17.1863C95.8506 17.1873 95.9911 17.2172 96.1445 17.2761C96.3954 17.3724 96.6646 17.4837 96.952 17.61C97.2534 17.7417 97.5687 17.8787 97.898 18.0211C98.2326 18.1495 98.5532 18.2726 98.86 18.3903C99.1388 18.4973 99.4342 18.6027 99.7463 18.7065C100.072 18.8156 100.382 18.9264 100.674 19.0387C100.973 19.1372 101.219 19.2238 101.414 19.2987C101.568 19.3576 101.692 19.4293 101.788 19.514C101.897 19.604 101.936 19.6908 101.904 19.7744C101.861 19.886 101.761 19.9595 101.603 19.995C101.465 20.0219 101.293 20.0118 101.087 19.9648C100.661 19.8654 100.306 19.8329 100.021 19.8674C99.7354 19.9019 99.5473 20.0377 99.4563 20.2747C99.3868 20.4559 99.3435 20.6313 99.3264 20.8007C99.3233 20.9754 99.317 21.117 99.3074 21.2253L99.2204 30.1413C99.2216 30.2218 99.2404 30.277 99.2768 30.3069C99.3133 30.3369 99.3739 30.3042 99.4585 30.2087L104.893 24.1129C105.45 23.495 105.69 22.955 105.611 22.4929C105.552 22.0223 105.282 21.6628 104.801 21.4144C104.617 21.3116 104.475 21.2013 104.376 21.0834C104.283 20.9516 104.258 20.8299 104.301 20.7184C104.333 20.6347 104.413 20.5934 104.54 20.5944C104.682 20.6007 104.836 20.636 105.003 20.7002C105.226 20.7858 105.44 20.8757 105.644 20.9699C105.853 21.0502 106.066 21.1401 106.284 21.2396C106.507 21.3253 106.758 21.4216 107.037 21.5286C107.441 21.6838 107.858 21.8277 108.287 21.9603C108.73 22.0983 109.104 22.2262 109.411 22.3439C109.592 22.4135 109.731 22.4906 109.826 22.5752C109.941 22.6512 109.977 22.745 109.934 22.8566C109.897 22.9541 109.802 23.0137 109.65 23.0353C109.517 23.0482 109.342 23.0451 109.125 23.026C108.595 22.9502 108.095 23.0224 107.627 23.2426C107.178 23.4541 106.774 23.7551 106.416 24.1456L99.3534 31.608C99.1701 31.7936 98.9693 32.0044 98.7507 32.2404C98.5322 32.4764 98.3136 32.7125 98.0951 32.9485C97.8958 33.1759 97.6976 33.3798 97.5004 33.56C97.4458 33.619 97.3853 33.6518 97.3188 33.6583C97.2609 33.684 97.1971 33.6835 97.1274 33.6568Z" fill="white"/>
<path d="M128.67 48.7208C128.605 48.6202 128.583 48.5018 128.602 48.3654C128.641 48.2336 128.72 48.121 128.837 48.0278L130.283 46.7547C130.057 46.6513 129.788 46.5223 129.476 46.3677C129.172 46.2256 128.853 46.075 128.521 45.9158C128.459 45.9023 128.405 45.8744 128.36 45.8322C128.316 45.79 128.277 45.7438 128.245 45.6935C128.18 45.5929 128.151 45.4785 128.158 45.3502C128.172 45.2345 128.23 45.1443 128.33 45.0798C128.481 44.9831 128.664 44.9635 128.878 45.0212L130.688 45.6435C130.667 45.3904 130.639 45.0979 130.604 44.7658C130.568 44.4338 130.535 44.0915 130.504 43.7388C130.493 43.6392 130.512 43.5298 130.559 43.4105C130.615 43.3038 130.681 43.2262 130.756 43.1779C130.92 43.073 131.071 43.0736 131.21 43.1797C131.349 43.2857 131.433 43.4177 131.464 43.5756C131.528 43.9247 131.59 44.2572 131.651 44.5731C131.712 44.889 131.775 45.1946 131.84 45.4898C132.075 45.3034 132.317 45.113 132.565 44.9186C132.82 44.7367 133.099 44.549 133.401 44.3555C133.527 44.2749 133.66 44.2337 133.801 44.2321C133.954 44.2223 134.082 44.2826 134.183 44.4128C134.243 44.534 134.253 44.6605 134.213 44.7924C134.186 44.9162 134.12 45.0206 134.015 45.1058L132.558 46.36C132.784 46.4634 133.049 46.5862 133.353 46.7282C133.669 46.8622 133.988 47.0129 134.308 47.1801C134.37 47.1936 134.423 47.2215 134.468 47.2637C134.525 47.2978 134.57 47.34 134.602 47.3903C134.667 47.4909 134.696 47.6053 134.69 47.7336C134.696 47.8538 134.636 47.9543 134.51 48.0349C134.372 48.1236 134.196 48.1391 133.981 48.0815L132.153 47.4713C132.181 47.7369 132.216 48.0254 132.256 48.3368C132.304 48.6608 132.337 49.0031 132.356 49.3638C132.374 49.476 132.356 49.5854 132.3 49.6922C132.265 49.8034 132.203 49.8872 132.115 49.9437C131.965 50.0404 131.82 50.0358 131.681 49.9298C131.542 49.8237 131.444 49.6998 131.389 49.558C131.337 49.2008 131.275 48.8683 131.202 48.5605C131.128 48.2527 131.065 47.9471 131.013 47.6438C130.815 47.806 130.576 47.9861 130.295 48.1841C130.022 48.3947 129.739 48.603 129.445 48.8091C129.319 48.8897 129.18 48.9349 129.026 48.9446C128.885 48.9462 128.767 48.8716 128.67 48.7208Z" fill="white"/>
</svg>
