<svg width="200" height="200" viewBox="0 0 200 200" fill="none" xmlns="http://www.w3.org/2000/svg">
<path d="M200 100C200 155.228 155.228 200 100 200C44.7715 200 0 155.228 0 100C0 44.7715 44.7715 0 100 0C155.228 0 200 44.7715 200 100Z" fill="#C42D1C"/>
<path d="M171 100C171 139.212 139.212 171 100 171C60.7878 171 29 139.212 29 100C29 60.7878 60.7878 29 100 29C139.212 29 171 60.7878 171 100Z" fill="#C42D1C"/>
<path d="M159.804 109.827C159.99 108.496 160.391 107.242 161.008 106.066C161.622 104.907 162.401 103.914 163.346 103.084C164.292 102.255 165.376 101.643 166.599 101.248C167.821 100.872 169.134 100.782 170.539 100.978C171.851 101.162 173.042 101.61 174.111 102.325C175.198 103.042 176.099 103.95 176.812 105.049C177.542 106.168 178.055 107.418 178.353 108.798C178.669 110.18 178.72 111.638 178.505 113.173C178.41 113.857 178.288 114.462 178.139 114.987C178.009 115.516 177.853 116.022 177.673 116.506C177.492 116.989 177.269 117.505 177.005 118.052C176.897 118.282 176.771 118.443 176.626 118.536C176.478 118.648 176.274 118.695 176.013 118.677C175.524 118.665 175.019 118.642 174.496 118.607C173.97 118.59 173.392 118.547 172.761 118.478C172.595 118.454 172.485 118.364 172.431 118.205C172.376 118.066 172.378 117.915 172.438 117.754C172.517 117.595 172.662 117.502 172.873 117.475C173.506 117.394 174.078 117.276 174.59 117.121C175.102 116.967 175.544 116.699 175.918 116.317C176.31 115.938 176.645 115.429 176.923 114.789C177.198 114.168 177.392 113.451 177.506 112.637C177.65 111.602 177.571 110.62 177.267 109.692C176.963 108.764 176.484 107.943 175.829 107.23C175.193 106.519 174.438 105.923 173.562 105.443C172.685 104.981 171.746 104.681 170.748 104.541C169.583 104.379 168.443 104.38 167.327 104.545C166.208 104.728 165.19 105.066 164.273 105.56C163.353 106.073 162.582 106.738 161.959 107.555C161.355 108.376 160.975 109.341 160.82 110.45C160.634 111.781 160.777 112.922 161.247 113.874C161.736 114.828 162.503 115.679 163.548 116.428C163.789 116.594 163.891 116.806 163.855 117.065C163.819 117.324 163.653 117.432 163.357 117.391C163.172 117.365 162.918 117.292 162.596 117.172C162.289 117.072 161.95 116.94 161.577 116.775C161.223 116.613 160.896 116.454 160.597 116.299C160.372 116.155 160.22 116.03 160.141 115.924C160.061 115.819 159.993 115.631 159.937 115.359C159.739 114.615 159.634 113.752 159.62 112.77C159.603 111.807 159.665 110.826 159.804 109.827Z" fill="white"/>
<path d="M155.627 124.118C155.704 123.948 155.847 123.858 156.055 123.85C156.315 123.864 156.654 123.884 157.073 123.908C157.484 123.95 157.84 123.977 158.141 123.989L172.597 124.748C173.134 124.784 173.62 124.727 174.057 124.575C174.51 124.431 174.9 124.156 175.226 123.75C175.418 123.55 175.579 123.397 175.708 123.292C175.855 123.194 175.996 123.175 176.132 123.237C176.251 123.29 176.301 123.384 176.282 123.519C176.271 123.678 176.224 123.851 176.14 124.038C176.002 124.345 175.844 124.673 175.667 125.023C175.481 125.39 175.288 125.774 175.087 126.175C174.904 126.583 174.728 126.975 174.559 127.349C174.406 127.69 174.254 128.051 174.103 128.433C173.944 128.833 173.784 129.211 173.623 129.569C173.479 129.934 173.354 130.235 173.247 130.474C173.162 130.661 173.064 130.811 172.952 130.925C172.832 131.055 172.721 131.097 172.619 131.051C172.482 130.99 172.398 130.86 172.365 130.661C172.341 130.486 172.365 130.272 172.438 130.018C172.592 129.494 172.658 129.053 172.635 128.694C172.611 128.336 172.455 128.092 172.166 127.962C171.944 127.862 171.729 127.796 171.518 127.763C171.3 127.747 171.124 127.729 170.99 127.709L159.868 126.976C159.768 126.972 159.698 126.992 159.658 127.035C159.618 127.079 159.654 127.156 159.768 127.269L166.995 134.478C167.727 135.217 168.384 135.553 168.966 135.488C169.558 135.446 170.025 135.135 170.369 134.553C170.51 134.329 170.658 134.16 170.812 134.046C170.983 133.938 171.137 133.915 171.273 133.976C171.375 134.022 171.421 134.125 171.411 134.284C171.393 134.46 171.338 134.651 171.246 134.855C171.124 135.127 170.997 135.387 170.865 135.635C170.75 135.89 170.623 136.15 170.483 136.415C170.361 136.688 170.223 136.994 170.07 137.335C169.848 137.828 169.639 138.338 169.444 138.864C169.24 139.407 169.055 139.866 168.886 140.241C168.787 140.462 168.681 140.629 168.568 140.743C168.465 140.88 168.346 140.919 168.21 140.858C168.091 140.804 168.023 140.681 168.007 140.49C168 140.323 168.016 140.105 168.055 139.836C168.187 139.179 168.131 138.551 167.89 137.951C167.657 137.375 167.31 136.851 166.847 136.377L158.029 127.039C157.81 126.798 157.561 126.532 157.282 126.243C157.002 125.954 156.723 125.664 156.444 125.375C156.174 125.111 155.933 124.849 155.722 124.59C155.652 124.518 155.616 124.44 155.612 124.357C155.584 124.283 155.589 124.203 155.627 124.118Z" fill="white"/>
<path d="M134.857 162.123C134.987 162.049 135.136 162.028 135.305 162.06C135.468 162.118 135.603 162.224 135.712 162.376L137.208 164.263C137.352 163.987 137.53 163.66 137.743 163.28C137.94 162.91 138.149 162.522 138.369 162.117C138.389 162.04 138.428 161.975 138.483 161.922C138.539 161.869 138.599 161.824 138.664 161.787C138.794 161.713 138.938 161.684 139.098 161.7C139.242 161.726 139.35 161.803 139.424 161.933C139.536 162.127 139.548 162.357 139.462 162.621L138.569 164.84C138.886 164.83 139.253 164.814 139.67 164.791C140.087 164.768 140.516 164.749 140.959 164.733C141.084 164.726 141.219 164.756 141.365 164.823C141.495 164.899 141.587 164.986 141.643 165.084C141.763 165.294 141.753 165.483 141.611 165.65C141.47 165.816 141.3 165.914 141.101 165.941C140.661 165.999 140.242 166.056 139.843 166.111C139.445 166.167 139.06 166.225 138.687 166.288C138.904 166.594 139.127 166.907 139.353 167.229C139.564 167.56 139.78 167.92 140.003 168.309C140.095 168.472 140.138 168.641 140.131 168.817C140.133 169.009 140.05 169.164 139.881 169.282C139.726 169.349 139.567 169.354 139.405 169.296C139.252 169.254 139.126 169.165 139.026 169.028L137.554 167.128C137.411 167.403 137.241 167.726 137.044 168.097C136.856 168.483 136.647 168.871 136.418 169.26C136.397 169.336 136.359 169.401 136.303 169.454C136.257 169.524 136.202 169.577 136.137 169.614C136.007 169.688 135.862 169.717 135.703 169.701C135.552 169.701 135.431 169.62 135.338 169.458C135.236 169.279 135.228 169.058 135.314 168.794L136.193 166.551C135.86 166.569 135.497 166.594 135.106 166.624C134.699 166.663 134.269 166.682 133.818 166.682C133.676 166.698 133.541 166.668 133.411 166.592C133.275 166.541 133.174 166.459 133.109 166.345C132.998 166.151 133.013 165.97 133.155 165.803C133.296 165.637 133.457 165.523 133.637 165.463C134.087 165.422 134.506 165.365 134.895 165.293C135.284 165.222 135.669 165.163 136.051 165.117C135.861 164.86 135.652 164.549 135.423 164.186C135.178 163.831 134.936 163.464 134.697 163.085C134.605 162.922 134.557 162.745 134.555 162.553C134.562 162.377 134.663 162.234 134.857 162.123Z" fill="white"/>
<path d="M91.1686 159.962C92.503 160.122 93.7644 160.499 94.9527 161.093C96.1226 161.684 97.1311 162.445 97.9785 163.373C98.8258 164.302 99.4585 165.375 99.8765 166.591C100.276 167.804 100.391 169.115 100.222 170.524C100.064 171.84 99.6383 173.039 98.9443 174.121C98.2481 175.222 97.3577 176.14 96.2731 176.874C95.1677 177.625 93.9282 178.163 92.5544 178.487C91.1785 178.829 89.7214 178.908 88.1831 178.723C87.4973 178.641 86.8902 178.531 86.3616 178.392C85.8308 178.272 85.3219 178.126 84.8348 177.955C84.3477 177.784 83.8281 177.571 83.2758 177.316C83.0437 177.213 82.8799 177.09 82.7843 176.947C82.6701 176.802 82.6193 176.598 82.632 176.337C82.6342 175.848 82.6479 175.342 82.6732 174.819C82.6799 174.293 82.7118 173.714 82.7689 173.082C82.7889 172.915 82.8775 172.804 83.0347 172.747C83.1733 172.689 83.3238 172.688 83.4862 172.745C83.6463 172.821 83.7419 172.964 83.773 173.174C83.8664 173.806 83.9954 174.376 84.1599 174.885C84.3245 175.393 84.601 175.831 84.9895 176.197C85.3757 176.582 85.8913 176.907 86.5362 177.172C87.1627 177.435 87.8836 177.616 88.6991 177.714C89.737 177.838 90.717 177.74 91.6393 177.418C92.5615 177.096 93.373 176.602 94.0736 175.934C94.772 175.284 95.3528 174.517 95.8162 173.633C96.2611 172.746 96.5436 171.803 96.6637 170.802C96.8039 169.634 96.7809 168.494 96.5949 167.381C96.3904 166.266 96.0323 165.255 95.5208 164.348C94.9908 163.438 94.311 162.679 93.4815 162.072C92.6497 161.484 91.6778 161.122 90.5658 160.989C89.2314 160.829 88.0931 160.993 87.1508 161.481C86.2063 161.988 85.3696 162.772 84.6408 163.831C84.48 164.075 84.2698 164.181 84.0103 164.15C83.7508 164.119 83.6389 163.955 83.6745 163.659C83.6967 163.473 83.765 163.218 83.8791 162.894C83.9726 162.585 84.0982 162.243 84.2562 161.867C84.4119 161.51 84.5642 161.18 84.7133 160.879C84.8534 160.651 84.9753 160.496 85.0791 160.415C85.1829 160.333 85.3701 160.262 85.6407 160.2C86.3806 159.988 87.2413 159.866 88.2228 159.833C89.1859 159.799 90.1678 159.841 91.1686 159.962Z" fill="white"/>
<path d="M76.8529 156.038C77.0246 156.112 77.1166 156.252 77.1291 156.461C77.1195 156.721 77.1064 157.06 77.0897 157.479C77.0558 157.891 77.0353 158.248 77.0283 158.549L76.5392 173.017C76.5128 173.554 76.5795 174.039 76.7392 174.473C76.8917 174.924 77.1739 175.308 77.586 175.626C77.7896 175.815 77.9454 175.973 78.0534 176.1C78.1541 176.245 78.175 176.385 78.1163 176.523C78.065 176.643 77.9719 176.695 77.8371 176.678C77.6778 176.67 77.5037 176.626 77.3149 176.546C77.0059 176.414 76.6749 176.262 76.3217 176.091C75.9514 175.912 75.564 175.726 75.1594 175.533C74.7474 175.357 74.3526 175.188 73.975 175.027C73.6317 174.88 73.2676 174.735 72.8826 174.591C72.4805 174.439 72.0992 174.286 71.7387 174.132C71.3709 173.995 71.0669 173.875 70.8266 173.773C70.6378 173.692 70.4857 173.597 70.3704 173.486C70.2379 173.369 70.1937 173.259 70.2377 173.156C70.2964 173.018 70.425 172.931 70.6235 172.894C70.7975 172.867 71.012 172.888 71.2669 172.956C71.7941 173.1 72.2365 173.157 72.5944 173.128C72.9522 173.098 73.1935 172.937 73.3182 172.645C73.4135 172.422 73.4758 172.205 73.505 171.994C73.517 171.776 73.5316 171.6 73.5486 171.465L74.0741 160.332C74.0764 160.231 74.0555 160.161 74.0114 160.122C73.9672 160.083 73.89 160.121 73.7799 160.236L66.7062 167.597C65.9815 168.342 65.6574 169.006 65.7339 169.587C65.786 170.177 66.1063 170.639 66.6949 170.972C66.9206 171.109 67.0923 171.253 67.2101 171.405C67.3206 171.574 67.3465 171.727 67.2878 171.865C67.2438 171.968 67.1421 172.015 66.9828 172.008C66.8063 171.994 66.615 171.942 66.4091 171.854C66.1344 171.737 65.872 171.615 65.6219 171.488C65.3644 171.377 65.102 171.255 64.8347 171.121C64.5601 171.003 64.2511 170.871 63.9078 170.725C63.4101 170.512 62.8964 170.313 62.3667 170.127C61.82 169.934 61.3578 169.756 60.9801 169.595C60.757 169.5 60.5878 169.397 60.4725 169.287C60.3326 169.186 60.2921 169.068 60.3508 168.93C60.4021 168.81 60.5234 168.74 60.7145 168.72C60.8812 168.71 61.0994 168.722 61.369 168.756C62.0285 168.876 62.6559 168.809 63.2512 168.556C63.8221 168.313 64.3401 167.956 64.8053 167.485L73.9766 158.493C74.2142 158.27 74.4749 158.016 74.759 157.732C75.043 157.447 75.327 157.162 75.6111 156.878C75.8706 156.603 76.1277 156.358 76.3824 156.142C76.4534 156.07 76.5306 156.032 76.6139 156.027C76.6874 155.998 76.7671 156.001 76.8529 156.038Z" fill="white"/>
<path d="M38.4971 135.936C38.5731 136.065 38.5961 136.214 38.5661 136.383C38.5106 136.546 38.4072 136.683 38.256 136.794L36.392 138.318C36.6695 138.457 36.9997 138.631 37.3824 138.838C37.7557 139.03 38.1465 139.233 38.5548 139.447C38.6315 139.467 38.6968 139.504 38.7509 139.559C38.8049 139.613 38.851 139.673 38.8889 139.737C38.9649 139.866 38.9959 140.01 38.982 140.17C38.9586 140.314 38.8826 140.424 38.7541 140.5C38.5612 140.614 38.3322 140.63 38.067 140.548L35.8352 139.687C35.849 140.005 35.8705 140.371 35.8997 140.788C35.9288 141.204 35.9547 141.633 35.9773 142.075C35.9861 142.2 35.9579 142.336 35.8929 142.483C35.8184 142.613 35.7329 142.707 35.6364 142.764C35.4275 142.888 35.2387 142.88 35.07 142.741C34.9012 142.602 34.8015 142.434 34.7709 142.235C34.7067 141.796 34.6439 141.378 34.5826 140.98C34.5213 140.583 34.4567 140.198 34.3888 139.826C34.0863 140.048 33.7759 140.275 33.4573 140.507C33.1293 140.722 32.7725 140.944 32.3867 141.172C32.226 141.267 32.0576 141.312 31.8816 141.308C31.6895 141.313 31.5332 141.232 31.4126 141.064C31.3433 140.91 31.3363 140.752 31.3919 140.589C31.4313 140.435 31.5187 140.308 31.6538 140.206L33.5321 138.707C33.2545 138.567 32.9291 138.401 32.5558 138.21C32.1665 138.028 31.7757 137.825 31.3835 137.602C31.3068 137.582 31.2414 137.545 31.1874 137.49C31.1172 137.445 31.0632 137.39 31.0252 137.326C30.9493 137.197 30.9182 137.053 30.9321 136.893C30.93 136.742 31.0092 136.62 31.17 136.525C31.3467 136.42 31.5677 136.409 31.8329 136.491L34.0889 137.337C34.0655 137.004 34.036 136.642 34.0002 136.251C33.955 135.844 33.9291 135.415 33.9226 134.964C33.9044 134.823 33.9325 134.687 34.007 134.556C34.056 134.419 34.1367 134.317 34.2492 134.25C34.4421 134.136 34.6229 134.149 34.7916 134.288C34.9603 134.426 35.0761 134.586 35.1389 134.765C35.187 135.214 35.2498 135.632 35.3272 136.02C35.4046 136.408 35.4692 136.793 35.521 137.174C35.7752 136.98 36.0824 136.766 36.4426 136.532C36.7932 136.281 37.1567 136.034 37.5329 135.79C37.6936 135.695 37.8701 135.645 38.0622 135.64C38.2382 135.645 38.3832 135.743 38.4971 135.936Z" fill="white"/>
<path d="M39.8615 92.5177C39.7269 93.8549 39.3742 95.1234 38.8033 96.3229C38.2343 97.5039 37.4935 98.5269 36.581 99.3919C35.6685 100.257 34.6085 100.91 33.4009 101.351C32.1952 101.774 30.8866 101.915 29.4751 101.773C28.1564 101.64 26.9493 101.237 25.8538 100.564C24.7398 99.8893 23.8051 99.0168 23.0497 97.9465C22.2777 96.8557 21.7165 95.6267 21.3663 94.2595C20.9975 92.8903 20.8906 91.435 21.0456 89.8935C21.1147 89.2063 21.2135 88.5971 21.342 88.0659C21.4519 87.5329 21.5878 87.0213 21.7497 86.531C21.9115 86.0408 22.1143 85.5171 22.3579 84.96C22.4565 84.726 22.5764 84.5599 22.7176 84.4615C22.8607 84.3446 23.0632 84.2899 23.3251 84.2975C23.8136 84.2903 24.3197 84.2943 24.8435 84.3095C25.3692 84.3061 25.9487 84.3269 26.582 84.3718C26.7492 84.3886 26.8624 84.4751 26.9218 84.6311C26.983 84.7686 26.9866 84.919 26.9327 85.0825C26.8601 85.244 26.7189 85.3424 26.509 85.3776C25.8793 85.4831 25.3118 85.623 24.8064 85.7973C24.3011 85.9716 23.8691 86.2564 23.5104 86.6519C23.1331 87.0454 22.818 87.5672 22.565 88.2171C22.3139 88.8485 22.1472 89.5728 22.065 90.39C21.9604 91.4301 22.0778 92.408 22.4172 93.3239C22.7566 94.2398 23.2669 95.0416 23.9482 95.7292C24.6108 96.415 25.3888 96.981 26.2819 97.4273C27.1769 97.855 28.1259 98.1193 29.1289 98.2202C30.299 98.3379 31.4385 98.2931 32.5475 98.0857C33.6584 97.8597 34.6625 97.4823 35.5599 96.9535C36.4592 96.4061 37.2044 95.7118 37.7956 94.8708C38.3682 94.0278 38.7105 93.0492 38.8226 91.9348C38.9571 90.5975 38.7711 89.4626 38.2645 88.5299C37.7394 87.5953 36.9403 86.7738 35.8671 86.0656C35.6202 85.9094 35.5098 85.7013 35.5359 85.4413C35.5621 85.1813 35.7238 85.0662 36.0209 85.0961C36.2066 85.1148 36.4629 85.1781 36.7898 85.286C37.0999 85.3735 37.4444 85.4925 37.8232 85.6432C38.1835 85.792 38.5159 85.938 38.8204 86.0812C39.0506 86.2169 39.2075 86.3359 39.291 86.4381C39.3746 86.5403 39.4497 86.7261 39.5164 86.9954C39.7426 87.7311 39.8814 88.5893 39.9328 89.57C39.9861 90.5322 39.9623 91.5148 39.8615 92.5177Z" fill="white"/>
<path d="M43.4895 78.024C43.4194 78.197 43.2803 78.2917 43.0722 78.3081C42.8123 78.3034 42.4726 78.2966 42.0532 78.2877C41.6408 78.2615 41.2839 78.2477 40.9823 78.2463L26.5078 78.0276C25.9706 78.0112 25.4867 78.087 25.0561 78.2548C24.6082 78.4156 24.229 78.705 23.9185 79.123C23.7338 79.3301 23.5788 79.4888 23.4535 79.5992C23.3109 79.7025 23.1704 79.7261 23.032 79.67C22.911 79.6209 22.8577 79.5288 22.8722 79.3936C22.8764 79.2342 22.9171 79.0594 22.9942 78.8691C23.1205 78.5577 23.2659 78.2239 23.4305 77.8676C23.6021 77.494 23.7807 77.1032 23.9663 76.695C24.1346 76.2799 24.296 75.882 24.4503 75.5014C24.5905 75.1554 24.7292 74.7886 24.8662 74.4011C25.0102 73.9962 25.1559 73.6121 25.3031 73.2488C25.4331 72.8785 25.5472 72.5723 25.6454 72.3301C25.7226 72.1398 25.8152 71.986 25.9232 71.8686C26.0382 71.734 26.1476 71.6877 26.2514 71.7298C26.3898 71.7859 26.4793 71.9128 26.52 72.1106C26.5504 72.2841 26.5337 72.4989 26.4702 72.7551C26.3359 73.2848 26.2871 73.7283 26.3235 74.0855C26.36 74.4427 26.5253 74.6809 26.8193 74.8002C27.0442 74.8914 27.2623 74.9496 27.4737 74.9748C27.692 74.9828 27.8687 74.994 28.0038 75.0085L39.1449 75.3259C39.2455 75.3264 39.3149 75.3042 39.3532 75.2593C39.3916 75.2144 39.3521 75.138 39.2347 75.03L31.7435 68.0951C30.9843 67.3844 30.315 67.0727 29.7357 67.1601C29.1461 67.2232 28.6905 67.5521 28.3688 68.1468C28.236 68.375 28.0948 68.5494 27.9452 68.67C27.7783 68.7836 27.6256 68.8124 27.4872 68.7563C27.3834 68.7142 27.3336 68.6134 27.3378 68.454C27.3491 68.2772 27.3968 68.0851 27.4809 67.8775C27.5931 67.6007 27.7105 67.3361 27.833 67.0836C27.9382 66.8241 28.0556 66.5595 28.1851 66.2898C28.2973 66.013 28.4236 65.7016 28.5639 65.3556C28.7673 64.8539 28.9569 64.3366 29.1327 63.8036C29.3155 63.2533 29.4841 62.7879 29.6384 62.4073C29.7296 62.1824 29.8291 62.0113 29.9372 61.894C30.0349 61.7523 30.1529 61.7095 30.2913 61.7656C30.4124 61.8147 30.4847 61.9347 30.508 62.1254C30.5211 62.2919 30.5131 62.5102 30.4842 62.7804C30.3771 63.442 30.4556 64.0681 30.7197 64.6586C30.9736 65.2248 31.3404 65.7361 31.82 66.1924L40.981 75.1941C41.2087 75.4274 41.4675 75.6834 41.7573 75.9621C42.0472 76.2408 42.3371 76.5194 42.6269 76.7981C42.9065 77.0525 43.1566 77.3049 43.3773 77.5555C43.4498 77.6252 43.4893 77.7017 43.4958 77.7849C43.5267 77.8578 43.5246 77.9375 43.4895 78.024Z" fill="white"/>
<path d="M62.8858 39.2025C62.7586 39.2808 62.6101 39.3065 62.4401 39.2797C62.2762 39.2271 62.1374 39.1263 62.0236 38.9771L60.4657 37.1415C60.3312 37.4216 60.1638 37.7548 59.9634 38.1413C59.7788 38.5181 59.5833 38.9125 59.3767 39.3247C59.3584 39.4017 59.3224 39.4678 59.2686 39.5228C59.2148 39.5779 59.1561 39.625 59.0925 39.6641C58.9654 39.7424 58.8217 39.7761 58.6615 39.7651C58.5172 39.7444 58.4059 39.6705 58.3276 39.5433C58.2101 39.3526 58.1899 39.1239 58.2668 38.8573L59.0861 36.6099C58.7693 36.6296 58.4031 36.6579 57.9873 36.6947C57.5715 36.7315 57.1429 36.7653 56.7015 36.796C56.5767 36.807 56.4404 36.7814 56.2924 36.7191C56.1603 36.647 56.0649 36.5632 56.0062 36.4678C55.8789 36.2612 55.8831 36.0723 56.0188 35.901C56.1545 35.7298 56.3214 35.627 56.5195 35.5927C56.9573 35.5204 57.3742 35.45 57.7704 35.3814C58.1666 35.3127 58.55 35.2411 58.9205 35.1664C58.693 34.8681 58.4605 34.5618 58.2232 34.2476C58.0017 33.9236 57.7735 33.5709 57.5386 33.1894C57.4407 33.0304 57.3924 32.8629 57.3936 32.6868C57.3849 32.4948 57.4631 32.3371 57.6282 32.2135C57.781 32.1413 57.9394 32.1315 58.1033 32.184C58.2574 32.2206 58.3864 32.3056 58.4904 32.4388L60.0245 34.2892C60.1589 34.0091 60.3184 33.6807 60.503 33.304C60.6777 32.9114 60.8732 32.517 61.0896 32.1207C61.1079 32.0436 61.1439 31.9776 61.1977 31.9225C61.2417 31.8516 61.2955 31.7965 61.3591 31.7574C61.4863 31.6791 61.6299 31.6454 61.7901 31.6564C61.9406 31.6514 62.0647 31.7284 62.1626 31.8874C62.2703 32.0622 62.2856 32.2829 62.2087 32.5496L61.4041 34.8207C61.7367 34.7913 62.0981 34.7551 62.4882 34.7122C62.8941 34.6594 63.3228 34.6257 63.774 34.6109C63.9146 34.59 64.051 34.6157 64.1831 34.6878C64.3213 34.7342 64.4246 34.813 64.4932 34.9243C64.6106 35.115 64.6015 35.296 64.4658 35.4673C64.3301 35.6385 64.173 35.7572 63.9945 35.8233C63.5469 35.8797 63.13 35.9501 62.7436 36.0346C62.3571 36.1191 61.9738 36.1908 61.5935 36.2496C61.7917 36.5002 62.0113 36.8035 62.2523 37.1592C62.5092 37.5052 62.7631 37.8641 63.0139 38.2358C63.1118 38.3947 63.165 38.5702 63.1737 38.7622C63.1725 38.9383 63.0765 39.085 62.8858 39.2025Z" fill="white"/>
<path d="M106.469 39.7472C105.13 39.6333 103.856 39.3002 102.648 38.7478C101.459 38.197 100.424 37.472 99.5453 36.573C98.6663 35.6739 97.9969 34.6241 97.537 33.4235C97.0957 32.2244 96.9351 30.9181 97.0553 29.5045C97.1677 28.184 97.5519 26.9708 98.2079 25.8651C98.8656 24.7408 99.7237 23.7928 100.782 23.0211C101.861 22.2323 103.081 21.6523 104.443 21.281C105.806 20.8912 107.26 20.7619 108.803 20.8932C109.492 20.9517 110.102 21.0411 110.635 21.1614C111.17 21.2631 111.684 21.3911 112.176 21.5454C112.669 21.6997 113.196 21.8944 113.756 22.1294C113.992 22.2244 114.16 22.3417 114.26 22.4814C114.38 22.6226 114.437 22.8243 114.434 23.0862C114.448 23.5746 114.452 24.0807 114.445 24.6047C114.457 25.1302 114.445 25.7099 114.41 26.3439C114.395 26.5113 114.311 26.6259 114.156 26.6876C114.019 26.7509 113.869 26.7569 113.704 26.7054C113.542 26.6354 113.441 26.4957 113.403 26.2864C113.288 25.6584 113.139 25.0931 112.957 24.5905C112.775 24.0879 112.483 23.6603 112.083 23.3078C111.683 22.9366 111.157 22.6295 110.503 22.3866C109.868 22.1452 109.141 21.9897 108.323 21.9201C107.281 21.8315 106.305 21.964 105.394 22.3174C104.484 22.6708 103.69 23.1934 103.013 23.8852C102.338 24.5584 101.784 25.345 101.351 26.2449C100.937 27.1464 100.688 28.0993 100.602 29.1037C100.502 30.2754 100.565 31.4142 100.789 32.5198C101.032 33.6271 101.425 34.6253 101.968 35.5145C102.529 36.4052 103.235 37.1397 104.085 37.7178C104.936 38.2773 105.92 38.6045 107.036 38.6995C108.375 38.8134 109.507 38.6099 110.432 38.0891C111.358 37.5496 112.167 36.7379 112.859 35.654C113.011 35.4047 113.218 35.2911 113.478 35.3132C113.739 35.3354 113.856 35.4953 113.831 35.7928C113.815 35.9788 113.756 36.2361 113.653 36.5645C113.57 36.876 113.456 37.2223 113.311 37.6033C113.168 37.9658 113.027 38.3004 112.889 38.6071C112.757 38.8394 112.64 38.9981 112.539 39.0832C112.438 39.1683 112.254 39.2463 111.985 39.3171C111.253 39.5546 110.397 39.7066 109.418 39.7732C108.456 39.8413 107.474 39.8326 106.469 39.7472Z" fill="white"/>
<path d="M120.796 43.042C120.622 42.9751 120.524 42.8378 120.504 42.6301C120.504 42.3701 120.504 42.0303 120.506 41.6109C120.524 41.1981 120.531 40.8409 120.527 40.5394L120.474 26.0634C120.481 25.5259 120.396 25.0435 120.22 24.6161C120.051 24.1713 119.754 23.7976 119.331 23.495C119.12 23.3142 118.959 23.1622 118.846 23.039C118.74 22.8984 118.714 22.7584 118.767 22.6189C118.814 22.4969 118.905 22.4419 119.041 22.4539C119.2 22.4551 119.376 22.4925 119.567 22.5661C119.881 22.6865 120.218 22.8256 120.577 22.9835C120.954 23.1481 121.348 23.3194 121.759 23.4973C122.177 23.6579 122.578 23.8117 122.962 23.9588C123.31 24.0926 123.68 24.2244 124.07 24.3541C124.477 24.4905 124.864 24.6289 125.23 24.7694C125.603 24.8924 125.911 25.0008 126.155 25.0944C126.347 25.168 126.502 25.2577 126.621 25.3635C126.758 25.4759 126.806 25.5845 126.766 25.689C126.713 25.8284 126.588 25.9203 126.391 25.9647C126.218 25.9983 126.003 25.9857 125.745 25.927C125.213 25.8027 124.769 25.7621 124.412 25.8053C124.056 25.8484 123.821 26.0181 123.707 26.3144C123.62 26.5409 123.566 26.7601 123.545 26.9719C123.541 27.1903 123.533 27.3672 123.521 27.5026L123.412 38.6477C123.414 38.7482 123.437 38.8172 123.483 38.8547C123.528 38.8922 123.604 38.8512 123.71 38.7319L130.503 31.1121C131.2 30.3397 131.499 29.6647 131.4 29.0872C131.326 28.4989 130.989 28.0495 130.388 27.739C130.158 27.6105 129.981 27.4726 129.857 27.3252C129.741 27.1605 129.709 27.0084 129.763 26.869C129.803 26.7644 129.902 26.7127 130.062 26.714C130.239 26.7219 130.432 26.766 130.641 26.8462C130.92 26.9532 131.187 27.0656 131.441 27.1834C131.703 27.2837 131.97 27.3961 132.242 27.5206C132.52 27.6276 132.834 27.748 133.183 27.8817C133.688 28.0757 134.209 28.2556 134.745 28.4214C135.299 28.5939 135.767 28.7537 136.151 28.9009C136.377 28.9878 136.55 29.0842 136.669 29.19C136.813 29.285 136.858 29.4023 136.804 29.5417C136.758 29.6637 136.639 29.7381 136.449 29.7651C136.283 29.7813 136.064 29.7774 135.793 29.7535C135.13 29.6588 134.505 29.749 133.92 30.0242C133.359 30.2886 132.854 30.6649 132.407 31.153L123.578 40.4809C123.349 40.7129 123.098 40.9765 122.825 41.2715C122.552 41.5665 122.279 41.8616 122.006 42.1566C121.756 42.4409 121.509 42.6957 121.262 42.921C121.194 42.9948 121.118 43.0357 121.035 43.0438C120.963 43.076 120.883 43.0754 120.796 43.042Z" fill="white"/>
<path d="M160.103 61.7736C160.022 61.6479 159.994 61.4998 160.017 61.3294C160.067 61.1646 160.165 61.0239 160.312 60.9074L162.119 59.316C161.837 59.1868 161.5 59.0255 161.11 58.8322C160.73 58.6546 160.332 58.4663 159.916 58.2674C159.839 58.2505 159.772 58.2157 159.716 58.1629C159.66 58.1101 159.612 58.0523 159.572 57.9895C159.491 57.8638 159.455 57.7207 159.463 57.5603C159.481 57.4157 159.553 57.303 159.678 57.2224C159.867 57.1015 160.095 57.077 160.363 57.1491L162.625 57.9269C162.6 57.6106 162.565 57.2449 162.52 56.8299C162.476 56.4149 162.434 55.987 162.395 55.5462C162.382 55.4216 162.405 55.2848 162.465 55.1357C162.534 55.0023 162.616 54.9054 162.711 54.8449C162.915 54.7139 163.104 54.7147 163.278 54.8472C163.451 54.9797 163.557 55.1447 163.595 55.3421C163.675 55.7785 163.754 56.1941 163.829 56.589C163.905 56.9838 163.984 57.3658 164.065 57.7349C164.36 57.5019 164.661 57.2639 164.971 57.0208C165.291 56.7935 165.64 56.5588 166.017 56.317C166.174 56.2162 166.34 56.1647 166.517 56.1627C166.708 56.1505 166.868 56.2258 166.994 56.3886C167.069 56.5401 167.082 56.6982 167.032 56.8631C166.999 57.0178 166.916 57.1484 166.785 57.2548L164.963 58.8226C165.245 58.9519 165.576 59.1053 165.957 59.2829C166.352 59.4504 166.75 59.6387 167.15 59.8477C167.228 59.8646 167.294 59.8994 167.351 59.9522C167.422 59.9949 167.478 60.0477 167.519 60.1105C167.599 60.2362 167.636 60.3792 167.628 60.5396C167.635 60.6899 167.561 60.8155 167.403 60.9162C167.231 61.0271 167.01 61.0465 166.742 60.9745L164.457 60.2117C164.492 60.5437 164.535 60.9044 164.585 61.2936C164.645 61.6986 164.687 62.1265 164.71 62.5774C164.733 62.7176 164.71 62.8544 164.641 62.9878C164.597 63.1268 164.52 63.2316 164.41 63.3022C164.221 63.4231 164.04 63.4173 163.866 63.2848C163.693 63.1523 163.571 62.9974 163.502 62.8201C163.437 62.3736 163.359 61.958 163.267 61.5732C163.176 61.1884 163.097 60.8065 163.031 60.4273C162.784 60.6301 162.485 60.8552 162.134 61.1027C161.793 61.3659 161.439 61.6263 161.072 61.8839C160.915 61.9847 160.74 62.0412 160.548 62.0533C160.372 62.0554 160.224 61.9622 160.103 61.7736Z" fill="white"/>
</svg>
