<svg width="48" height="48" viewBox="0 0 48 48" fill="none" xmlns="http://www.w3.org/2000/svg">
<circle cx="24" cy="24" r="24" fill="#C42D1C"/>
<path d="M23.9993 27.9991C23.8677 27.9998 23.7372 27.9746 23.6154 27.9248C23.4935 27.8751 23.3827 27.8017 23.2893 27.7091L19.2893 23.7091C19.1255 23.5177 19.0399 23.2717 19.0496 23.02C19.0593 22.7683 19.1636 22.5296 19.3417 22.3515C19.5198 22.1734 19.7586 22.0691 20.0102 22.0593C20.2619 22.0496 20.508 22.1352 20.6993 22.2991L23.9993 25.5891L27.2893 22.2991C27.4806 22.1352 27.7267 22.0496 27.9783 22.0593C28.23 22.0691 28.4688 22.1734 28.6469 22.3515C28.8249 22.5296 28.9293 22.7683 28.939 23.02C28.9487 23.2717 28.8631 23.5177 28.6993 23.7091L24.6993 27.7091C24.513 27.8938 24.2616 27.9979 23.9993 27.9991Z" fill="white"/>
<path d="M24 28C23.7348 28 23.4804 27.8946 23.2929 27.7071C23.1054 27.5196 23 27.2652 23 27V17C23 16.7348 23.1054 16.4804 23.2929 16.2929C23.4804 16.1054 23.7348 16 24 16C24.2652 16 24.5196 16.1054 24.7071 16.2929C24.8946 16.4804 25 16.7348 25 17V27C25 27.2652 24.8946 27.5196 24.7071 27.7071C24.5196 27.8946 24.2652 28 24 28ZM31 32H17C16.7348 32 16.4804 31.8946 16.2929 31.7071C16.1054 31.5196 16 31.2652 16 31C16 30.7348 16.1054 30.4804 16.2929 30.2929C16.4804 30.1054 16.7348 30 17 30H31C31.2652 30 31.5196 30.1054 31.7071 30.2929C31.8946 30.4804 32 30.7348 32 31C32 31.2652 31.8946 31.5196 31.7071 31.7071C31.5196 31.8946 31.2652 32 31 32Z" fill="white"/>
</svg>
