<svg width="200" height="200" viewBox="0 0 200 200" fill="none" xmlns="http://www.w3.org/2000/svg">
<path d="M200 100C200 155.228 155.228 200 100 200C44.7715 200 0 155.228 0 100C0 44.7715 44.7715 0 100 0C155.228 0 200 44.7715 200 100Z" fill="#C42D1C"/>
<path d="M172 100C172 139.765 139.765 172 100 172C60.2355 172 28 139.765 28 100C28 60.2355 60.2355 28 100 28C139.765 28 172 60.2355 172 100Z" fill="#C42D1C"/>
<path d="M164.602 99.8195C164.629 99.6308 164.673 99.4814 164.733 99.3715C164.777 99.2741 164.849 99.2326 164.951 99.2472C165.053 99.2618 165.117 99.3303 165.144 99.4527C165.183 99.5917 165.216 99.7742 165.243 100C165.28 100.361 165.42 100.678 165.662 100.95C165.903 101.236 166.265 101.451 166.748 101.594C167.816 101.896 168.893 102.184 169.98 102.458C171.081 102.735 172.126 102.988 173.116 103.219C174.119 103.452 175.011 103.639 175.791 103.781C175.893 103.795 176.009 103.812 176.139 103.831C176.27 103.85 176.394 103.86 176.513 103.862C176.672 103.885 176.822 103.877 176.961 103.838C177.112 103.815 177.25 103.731 177.375 103.586C177.597 103.381 177.761 103.167 177.867 102.945C177.987 102.725 178.097 102.474 178.197 102.192C178.249 102.037 178.318 101.914 178.406 101.822C178.505 101.748 178.606 101.718 178.707 101.732C178.838 101.751 178.909 101.828 178.919 101.963C178.929 102.097 178.92 102.267 178.891 102.47C178.866 102.644 178.824 102.883 178.766 103.185C178.707 103.488 178.638 103.819 178.557 104.178C178.49 104.539 178.427 104.878 178.366 105.195C178.304 105.527 178.257 105.802 178.226 106.019C178.211 106.121 178.161 106.21 178.076 106.287C178.006 106.366 177.91 106.411 177.79 106.424C177.518 106.459 177.239 106.493 176.953 106.526C176.665 106.573 176.368 106.627 176.063 106.687L167.241 108.844C167.148 108.875 167.088 108.933 167.061 109.018C167.032 109.117 167.057 109.195 167.138 109.251L174.923 114.324C175.244 114.459 175.553 114.578 175.85 114.68C176.159 114.798 176.418 114.902 176.627 114.991C176.81 115.062 176.892 115.163 176.873 115.293L176.754 116.121C176.683 116.614 176.637 117.141 176.616 117.701C176.61 118.263 176.585 118.689 176.544 118.98C176.529 119.081 176.492 119.187 176.432 119.297C176.386 119.409 176.312 119.458 176.211 119.443C176.094 119.427 176.014 119.371 175.968 119.275C175.922 119.18 175.877 119.032 175.831 118.833C175.796 118.665 175.756 118.482 175.71 118.282C175.665 118.083 175.617 117.899 175.568 117.729C175.499 117.482 175.387 117.28 175.232 117.125C175.091 116.971 174.882 116.882 174.604 116.857C173.573 116.709 172.626 116.595 171.763 116.516C170.915 116.439 170.104 116.359 169.33 116.278C168.555 116.211 167.778 116.151 167 116.099C166.222 116.047 165.395 115.98 164.518 115.898C164.092 115.867 163.737 115.972 163.45 116.212C163.178 116.455 162.955 116.823 162.781 117.316C162.708 117.513 162.635 117.658 162.563 117.752C162.488 117.859 162.392 117.905 162.276 117.888C162.189 117.876 162.131 117.816 162.102 117.708C162.073 117.6 162.071 117.459 162.096 117.285C162.148 116.922 162.211 116.59 162.283 116.289C162.342 115.986 162.4 115.684 162.458 115.381C162.514 115.092 162.565 114.789 162.611 114.469C162.653 114.179 162.684 113.909 162.705 113.66C162.726 113.411 162.749 113.148 162.774 112.87C162.785 112.59 162.817 112.261 162.871 111.884C162.894 111.724 162.936 111.589 162.996 111.48C163.039 111.382 163.112 111.341 163.214 111.355C163.315 111.37 163.395 111.433 163.453 111.545C163.509 111.672 163.537 111.839 163.537 112.046C163.543 112.521 163.642 112.861 163.835 113.067C164.042 113.274 164.385 113.412 164.864 113.481C165.868 113.61 166.801 113.722 167.661 113.816C168.52 113.924 169.366 114.016 170.2 114.091C171.048 114.169 171.94 114.252 172.875 114.342C173.006 114.361 173.069 114.333 173.065 114.258C173.074 114.2 173.018 114.125 172.897 114.034L163.468 107.88C163.358 107.82 163.319 107.733 163.35 107.619C163.366 107.503 163.428 107.437 163.533 107.423C165.322 107.042 167.086 106.621 168.826 106.16C170.579 105.715 172.41 105.244 174.319 104.748C174.412 104.716 174.458 104.656 174.456 104.567C174.452 104.492 174.4 104.441 174.3 104.411C173.4 104.179 172.528 103.957 171.684 103.747C170.838 103.552 169.997 103.372 169.161 103.207C168.323 103.058 167.454 102.918 166.554 102.789C166.148 102.731 165.774 102.803 165.434 103.006C165.106 103.226 164.857 103.568 164.687 104.032C164.612 104.244 164.537 104.403 164.462 104.511C164.386 104.634 164.289 104.686 164.173 104.67C164.086 104.657 164.029 104.59 164.002 104.467C163.975 104.345 163.974 104.197 163.999 104.022C164.055 103.63 164.113 103.335 164.171 103.136C164.214 102.935 164.255 102.755 164.292 102.598C164.315 102.438 164.348 102.213 164.389 101.923C164.429 101.647 164.457 101.399 164.474 101.179C164.488 100.974 164.504 100.761 164.521 100.541C164.535 100.336 164.563 100.095 164.602 99.8195Z" fill="white"/>
<path d="M160.457 120.236C160.565 119.948 160.767 119.702 161.062 119.5C161.344 119.292 161.655 119.151 161.997 119.075C162.352 119.005 162.667 119.021 162.942 119.124C163.395 119.294 163.712 119.554 163.894 119.905C164.071 120.269 164.169 120.759 164.188 121.377L164.282 123.692C164.289 124.008 164.323 124.209 164.385 124.295C164.461 124.386 164.633 124.49 164.903 124.607L166.144 125.119C166.509 125.272 166.852 125.299 167.171 125.199C167.49 125.1 167.72 124.865 167.859 124.494C167.931 124.302 167.964 124.087 167.959 123.85C167.963 123.632 167.94 123.443 167.89 123.284C167.861 123.194 167.803 123.118 167.717 123.054C167.626 123.005 167.526 122.959 167.416 122.918C167.348 122.892 167.265 122.861 167.169 122.825C167.081 122.808 167.01 122.789 166.955 122.768C166.873 122.738 166.806 122.603 166.755 122.364C166.712 122.144 166.689 121.893 166.685 121.61C166.677 121.34 166.703 121.123 166.765 120.958C166.796 120.876 166.842 120.815 166.904 120.775C166.975 120.755 167.051 120.76 167.133 120.791C167.353 120.873 167.554 121.027 167.736 121.252C167.926 121.496 168.091 121.808 168.23 122.189C168.395 122.627 168.515 123.079 168.59 123.546C168.674 124.032 168.708 124.484 168.693 124.901C168.672 125.332 168.608 125.691 168.5 125.98C168.283 126.556 167.909 126.949 167.377 127.156C166.853 127.383 166.288 127.366 165.68 127.107L161.063 125.257C160.766 125.13 160.496 125.099 160.252 125.164C160.009 125.23 159.848 125.365 159.771 125.571C159.652 125.887 159.642 126.165 159.74 126.405C159.774 126.481 159.783 126.539 159.768 126.58C159.742 126.649 159.701 126.696 159.644 126.722C159.583 126.762 159.517 126.768 159.449 126.743C159.284 126.681 159.148 126.52 159.042 126.261C158.896 125.94 158.813 125.619 158.792 125.298C158.753 124.986 158.78 124.706 158.872 124.459C159.13 123.772 159.707 123.362 160.603 123.228L160.626 123.166C160.412 122.569 160.29 122.038 160.261 121.572C160.232 121.107 160.297 120.662 160.457 120.236ZM161.167 121.724C161.08 121.958 161.042 122.163 161.054 122.34C161.074 122.536 161.13 122.721 161.221 122.896C161.264 122.991 161.328 123.069 161.414 123.133C161.508 123.215 161.663 123.305 161.877 123.401L163.036 123.883C163.168 123.948 163.267 123.977 163.332 123.97C163.411 123.969 163.466 123.926 163.497 123.844C163.507 123.817 163.516 123.773 163.523 123.713C163.53 123.653 163.531 123.567 163.525 123.455C163.524 122.75 163.439 122.224 163.271 121.879C163.116 121.539 162.888 121.313 162.586 121.199C162.215 121.06 161.905 121.053 161.654 121.179C161.412 121.323 161.25 121.505 161.167 121.724Z" fill="white"/>
<path d="M158 127.162C158.063 127.046 158.134 126.96 158.215 126.903C158.288 126.859 158.364 126.858 158.441 126.9C158.544 126.955 158.595 127.032 158.592 127.131C158.595 127.249 158.581 127.383 158.55 127.533C158.469 127.839 158.459 128.075 158.52 128.241C158.574 128.42 158.697 128.561 158.891 128.665L163.155 130.956C163.478 131.129 163.773 131.23 164.042 131.257C164.323 131.292 164.576 131.178 164.8 130.915C164.841 130.871 164.901 130.836 164.98 130.813C165.053 130.802 165.128 130.817 165.205 130.858C165.347 130.935 165.403 131.048 165.372 131.198C165.281 131.615 165.215 132.079 165.174 132.59C165.146 133.107 165.133 133.534 165.136 133.868C165.146 133.974 165.147 134.066 165.138 134.144C165.129 134.223 165.118 134.275 165.104 134.301C165.055 134.391 164.979 134.408 164.876 134.353C164.824 134.325 164.718 134.26 164.557 134.157C164.389 134.066 164.205 133.959 164.005 133.835C163.806 133.711 163.609 133.597 163.415 133.493C163.363 133.465 163.331 133.464 163.317 133.49C163.464 133.836 163.582 134.19 163.669 134.554C163.75 134.93 163.779 135.295 163.755 135.649C163.745 136.009 163.67 136.319 163.531 136.577C163.351 136.913 163.141 137.133 162.901 137.238C162.675 137.349 162.452 137.346 162.232 137.228C162.09 137.152 161.947 137.016 161.801 136.822C161.662 136.647 161.56 136.45 161.494 136.232C161.434 136.033 161.446 135.857 161.529 135.702C161.578 135.611 161.649 135.525 161.744 135.442C161.851 135.366 161.961 135.284 162.076 135.196C162.183 135.12 162.287 135.035 162.388 134.939C162.495 134.864 162.577 134.774 162.632 134.671C162.806 134.348 162.849 133.988 162.762 133.592C162.676 133.196 162.296 132.817 161.625 132.456L157.981 130.499C157.774 130.388 157.568 130.385 157.361 130.49C157.155 130.596 156.91 130.789 156.626 131.069C156.511 131.19 156.406 131.276 156.313 131.326C156.233 131.382 156.147 131.386 156.057 131.338C155.902 131.255 155.89 131.09 156.022 130.845C156.23 130.457 156.43 130.132 156.622 129.868C156.793 129.611 156.969 129.314 157.15 128.978C157.268 128.758 157.365 128.561 157.443 128.386C157.52 128.211 157.601 128.03 157.685 127.842C157.756 127.647 157.861 127.421 158 127.162Z" fill="white"/>
<path d="M151.849 136.965C152.287 136.358 152.837 135.923 153.498 135.658C154.171 135.403 154.884 135.329 155.637 135.439C156.39 135.548 157.105 135.848 157.783 136.337C158.556 136.895 159.133 137.574 159.515 138.374C159.896 139.174 160.061 139.998 160.009 140.847C159.957 141.696 159.678 142.471 159.171 143.172C158.562 144.017 157.794 144.566 156.869 144.821C156.655 144.866 156.495 144.85 156.388 144.772C156.305 144.712 156.232 144.587 156.17 144.398C156.111 144.229 156.082 144.044 156.081 143.845C156.083 143.666 156.123 143.523 156.201 143.416C156.252 143.345 156.332 143.284 156.439 143.235C156.538 143.198 156.643 143.166 156.754 143.137C157.186 143.015 157.601 142.853 158 142.653C158.401 142.472 158.684 142.269 158.847 142.043C159.233 141.508 159.298 140.904 159.043 140.231C158.79 139.578 158.23 138.938 157.362 138.312C156.791 137.9 156.208 137.642 155.614 137.538C155.01 137.447 154.447 137.501 153.922 137.701C153.389 137.914 152.942 138.269 152.582 138.769C152.333 139.114 152.172 139.45 152.099 139.777C152.029 140.124 152.027 140.539 152.095 141.022C152.093 141.075 152.091 141.128 152.089 141.181C152.079 141.245 152.06 141.296 152.035 141.331C151.94 141.462 151.804 141.463 151.625 141.334C151.566 141.291 151.502 141.218 151.432 141.113C151.375 141.018 151.318 140.895 151.263 140.747C151.145 140.409 151.072 140.021 151.043 139.585C151.027 139.157 151.082 138.717 151.209 138.266C151.335 137.815 151.549 137.381 151.849 136.965Z" fill="white"/>
<path d="M149.26 141.127C149.467 140.919 149.633 140.876 149.758 141C149.862 141.104 149.836 141.316 149.682 141.639C149.579 141.846 149.497 142.054 149.435 142.262C149.374 142.469 149.452 142.682 149.671 142.899L157.368 150.54C157.649 150.819 157.935 151.02 158.226 151.144C158.527 151.277 158.833 151.23 159.143 151C159.257 150.927 159.382 150.958 159.517 151.092C159.621 151.196 159.647 151.304 159.596 151.419C159.472 151.647 159.328 151.917 159.163 152.229C158.988 152.551 158.823 152.873 158.669 153.195C158.525 153.528 158.407 153.813 158.314 154.052C158.273 154.135 158.237 154.193 158.206 154.224C158.165 154.266 158.118 154.281 158.066 154.271C158.025 154.271 157.983 154.251 157.942 154.209C157.889 154.158 157.817 154.065 157.723 153.93C157.639 153.806 157.488 153.615 157.269 153.356C157.061 153.108 156.744 152.772 156.317 152.348L153.288 149.341C153.142 149.197 153.023 149.088 152.929 149.016C152.836 148.965 152.747 148.929 152.664 148.908C152.624 149.199 152.568 149.536 152.497 149.92C152.415 150.314 152.287 150.714 152.112 151.119C151.927 151.535 151.669 151.909 151.338 152.242C150.811 152.773 150.18 153.014 149.443 152.965C148.696 152.926 148 152.586 147.355 151.945L144.029 148.644C143.821 148.437 143.608 148.35 143.391 148.382C143.173 148.434 142.961 148.513 142.754 148.617C142.609 148.68 142.484 148.722 142.381 148.743C142.288 148.775 142.205 148.754 142.132 148.682C142.007 148.558 142.053 148.387 142.27 148.168C142.487 147.95 142.668 147.788 142.813 147.684C142.947 147.569 143.076 147.46 143.2 147.356C143.324 147.252 143.484 147.101 143.681 146.903C143.877 146.705 144.027 146.544 144.13 146.419C144.223 146.305 144.326 146.18 144.44 146.045C144.533 145.909 144.693 145.727 144.92 145.498C145.137 145.28 145.308 145.232 145.433 145.356C145.516 145.439 145.543 145.527 145.512 145.621C145.481 145.714 145.435 145.833 145.373 145.979C145.27 146.166 145.203 146.368 145.173 146.586C145.143 146.804 145.237 147.022 145.455 147.239L148.609 150.37C148.859 150.618 149.15 150.772 149.482 150.833C149.825 150.905 150.151 150.898 150.462 150.814C150.763 150.74 151.016 150.599 151.223 150.391C151.409 150.204 151.595 149.965 151.78 149.674C151.956 149.393 152.058 149.113 152.088 148.832C152.119 148.594 152.097 148.386 152.024 148.21C151.951 148.055 151.779 147.843 151.508 147.574L148.245 144.335C148.027 144.139 147.819 144.057 147.622 144.088C147.435 144.131 147.244 144.199 147.047 144.293C146.913 144.366 146.793 144.413 146.69 144.434C146.586 144.455 146.498 144.43 146.425 144.357C146.3 144.233 146.341 144.067 146.548 143.859C146.754 143.651 146.935 143.489 147.09 143.375C147.225 143.26 147.359 143.146 147.494 143.031C147.618 142.927 147.773 142.781 147.959 142.594C148.134 142.417 148.284 142.256 148.408 142.11C148.522 141.975 148.646 141.829 148.78 141.673C148.893 141.517 149.053 141.335 149.26 141.127Z" fill="white"/>
<path d="M137.605 151.384C138.245 150.918 138.931 150.664 139.662 150.622C140.39 150.6 141.108 150.777 141.815 151.151C142.531 151.537 143.169 152.115 143.73 152.886C144.239 153.586 144.545 154.343 144.648 155.157C144.738 155.98 144.636 156.762 144.34 157.502C144.054 158.255 143.584 158.869 142.932 159.343C142.446 159.697 141.939 159.911 141.413 159.985C140.884 160.08 140.383 160.028 139.91 159.827C139.435 159.647 139.033 159.332 138.705 158.881C138.421 158.49 138.462 158.16 138.83 157.893L142.513 155.214C142.679 155.093 142.763 154.959 142.765 154.813C142.767 154.666 142.677 154.468 142.496 154.219C142.117 153.697 141.649 153.303 141.092 153.037C140.544 152.782 139.98 152.667 139.399 152.691C138.817 152.715 138.29 152.899 137.815 153.244C137.459 153.503 137.187 153.801 136.997 154.139C136.804 154.497 136.673 154.891 136.606 155.321C136.604 155.394 136.601 155.452 136.594 155.493C136.576 155.542 136.549 155.58 136.513 155.606C136.407 155.683 136.306 155.657 136.211 155.527C136.073 155.337 135.992 155.051 135.968 154.669C135.953 154.3 135.998 153.913 136.104 153.51C136.206 153.127 136.386 152.751 136.644 152.382C136.881 152.01 137.201 151.677 137.605 151.384ZM142.935 155.832L141.511 156.867C141.203 157.091 140.964 157.274 140.795 157.415C140.626 157.557 140.477 157.701 140.349 157.849C140.307 157.916 140.3 157.993 140.328 158.082C140.364 158.182 140.426 158.292 140.512 158.41C140.754 158.742 141.093 158.922 141.529 158.949C141.975 158.987 142.387 158.869 142.767 158.593C143.028 158.403 143.233 158.136 143.381 157.792C143.518 157.457 143.583 157.11 143.577 156.752C143.579 156.406 143.488 156.118 143.304 155.89C143.2 155.748 143.077 155.728 142.935 155.832Z" fill="white"/>
<path d="M133.721 154.594C133.825 154.541 133.927 154.514 134.025 154.513C134.124 154.512 134.193 154.551 134.233 154.63C134.286 154.734 134.283 154.826 134.225 154.905C134.16 155.004 134.072 155.106 133.961 155.212C133.792 155.364 133.646 155.529 133.522 155.707C133.399 155.885 133.404 156.105 133.537 156.366L135.732 160.68C135.899 161.007 136.077 161.261 136.269 161.443C136.454 161.645 136.723 161.706 137.077 161.625C137.136 161.611 137.195 161.614 137.254 161.633C137.32 161.665 137.373 161.721 137.413 161.799C137.499 161.969 137.487 162.091 137.376 162.164C136.979 162.514 136.64 162.867 136.36 163.224C136.068 163.586 135.818 163.952 135.611 164.321C135.585 164.367 135.559 164.413 135.533 164.459C135.494 164.512 135.455 164.549 135.416 164.568C135.363 164.595 135.321 164.592 135.288 164.56C135.248 164.547 135.215 164.514 135.189 164.462C135.142 164.37 135.072 164.184 134.978 163.903C134.871 163.628 134.771 163.399 134.678 163.216C134.651 163.164 134.625 163.111 134.598 163.059C134.558 163.014 134.529 162.987 134.509 162.981C134.271 163.645 133.967 164.212 133.596 164.68C133.213 165.155 132.714 165.549 132.099 165.861C131.446 166.194 130.774 166.215 130.083 165.925C129.392 165.635 128.84 165.085 128.428 164.274L126.272 160.039C126.139 159.778 125.968 159.651 125.758 159.659C125.535 159.674 125.309 159.698 125.08 159.733C124.955 159.747 124.834 159.751 124.716 159.745C124.598 159.74 124.512 159.684 124.459 159.58C124.412 159.488 124.428 159.406 124.506 159.334C124.571 159.268 124.643 159.215 124.721 159.175C124.983 159.042 125.212 158.942 125.408 158.875C125.585 158.801 125.761 158.728 125.938 158.654C126.101 158.588 126.301 158.494 126.536 158.375C126.758 158.261 126.951 158.155 127.114 158.056C127.277 157.956 127.447 157.853 127.624 157.747C127.78 157.634 127.989 157.511 128.251 157.378C128.316 157.345 128.401 157.318 128.506 157.298C128.611 157.277 128.686 157.313 128.733 157.404C128.786 157.509 128.78 157.611 128.715 157.71C128.651 157.808 128.576 157.904 128.491 157.996C128.328 158.162 128.182 158.327 128.052 158.492C127.922 158.656 127.924 158.87 128.057 159.131L130.122 163.19C130.402 163.739 130.768 164.087 131.222 164.234C131.663 164.389 132.121 164.353 132.599 164.126C133.004 163.92 133.33 163.672 133.577 163.381C133.818 163.111 134.016 162.804 134.171 162.462C134.196 162.383 134.202 162.298 134.189 162.206C134.175 162.114 134.151 162.036 134.118 161.97L131.723 157.265C131.59 157.004 131.415 156.87 131.199 156.865C130.989 156.873 130.779 156.898 130.569 156.939C130.235 156.994 130.032 156.949 129.959 156.805C129.919 156.727 129.921 156.651 129.967 156.579C130.012 156.506 130.094 156.44 130.211 156.38C130.473 156.247 130.702 156.147 130.898 156.08C131.074 156.007 131.244 155.937 131.408 155.87C131.558 155.81 131.751 155.72 131.987 155.6C132.209 155.487 132.401 155.381 132.565 155.281C132.728 155.182 132.898 155.079 133.074 154.973C133.244 154.853 133.459 154.727 133.721 154.594Z" fill="white"/>
<path d="M123.376 159.738C123.685 159.645 123.865 159.682 123.916 159.85C123.95 159.963 123.925 160.055 123.839 160.127C123.754 160.199 123.656 160.282 123.547 160.376C123.358 160.51 123.187 160.654 123.034 160.808C122.882 160.962 122.85 161.186 122.94 161.481L126.092 171.858C126.233 172.321 126.403 172.653 126.602 172.853C126.8 173.053 127.088 173.142 127.464 173.12C127.599 173.11 127.692 173.189 127.743 173.357C127.79 173.511 127.762 173.62 127.658 173.682C127.315 173.863 127.005 174.056 126.731 174.262C126.442 174.473 126.179 174.668 125.943 174.847C125.696 175.044 125.48 175.217 125.295 175.365C125.21 175.437 125.139 175.482 125.083 175.499C125.027 175.516 124.985 175.505 124.959 175.468C124.922 175.448 124.893 175.403 124.872 175.333C124.833 175.207 124.787 174.953 124.732 174.571C124.663 174.193 124.522 173.653 124.309 172.952L122.109 165.711C122.067 165.57 122.003 165.513 121.919 165.538C121.849 165.56 121.766 165.615 121.671 165.706C121.576 165.796 121.487 165.907 121.405 166.04C120.988 166.687 120.648 167.281 120.383 167.822C120.118 168.362 119.943 168.745 119.858 168.97C119.827 169.071 119.804 169.147 119.789 169.198C119.764 169.267 119.758 169.322 119.771 169.364C119.792 169.434 119.874 169.478 120.018 169.496C120.151 169.532 120.299 169.541 120.462 169.522C120.639 169.499 120.745 169.543 120.779 169.656C120.804 169.74 120.781 169.816 120.71 169.883C120.629 169.969 120.525 170.032 120.399 170.07L119.367 170.383C119.143 170.452 118.887 170.544 118.601 170.662C118.305 170.798 118.023 170.93 117.756 171.057C117.488 171.184 117.284 171.269 117.143 171.312C116.961 171.367 116.846 171.318 116.799 171.164C116.774 171.079 116.799 170.987 116.876 170.887C116.939 170.791 117.041 170.699 117.183 170.61C117.418 170.477 117.648 170.3 117.872 170.079C118.101 169.871 118.313 169.661 118.509 169.449C118.623 169.322 118.794 169.101 119.02 168.787C119.247 168.473 119.486 168.125 119.737 167.742C119.989 167.359 120.222 166.989 120.435 166.633C120.498 166.537 120.519 166.454 120.498 166.384C120.489 166.356 120.474 166.33 120.451 166.306C120.414 166.287 120.385 166.265 120.362 166.241C119.861 165.903 119.353 165.567 118.837 165.233C118.322 164.899 117.841 164.601 117.393 164.338C116.945 164.076 116.582 163.864 116.303 163.704C115.992 163.537 115.655 163.41 115.291 163.321C114.912 163.237 114.605 163.185 114.369 163.164C114.216 163.165 114.068 163.156 113.924 163.139C113.771 163.139 113.678 163.083 113.644 162.971C113.592 162.803 113.707 162.676 113.988 162.591C114.647 162.39 115.346 162.193 116.085 162C116.805 161.796 117.522 161.586 118.238 161.368C118.505 161.287 118.662 161.324 118.708 161.478C118.734 161.563 118.72 161.643 118.667 161.721C118.604 161.817 118.521 161.896 118.417 161.958C118.294 162.056 118.199 162.147 118.132 162.228C118.055 162.328 118.033 162.435 118.067 162.547C118.08 162.589 118.109 162.634 118.154 162.681C118.199 162.729 118.261 162.779 118.338 162.832L121.586 164.973C121.668 165.04 121.737 165.065 121.793 165.048C121.859 165.012 121.879 164.953 121.854 164.869C121.804 164.654 121.745 164.434 121.676 164.21C121.608 163.985 121.538 163.753 121.465 163.515C121.397 163.29 121.323 163.045 121.242 162.778C121.165 162.526 121.083 162.282 120.997 162.048C120.92 161.795 120.801 161.632 120.641 161.558C120.481 161.484 120.285 161.444 120.053 161.438C119.928 161.43 119.807 161.413 119.692 161.386C119.581 161.374 119.509 161.312 119.475 161.2C119.445 161.101 119.482 161.021 119.585 160.959C119.685 160.883 119.77 160.834 119.84 160.813C120.106 160.732 120.328 160.68 120.505 160.657C120.678 160.619 120.836 160.587 120.981 160.558C121.126 160.529 121.324 160.477 121.577 160.4C121.815 160.328 122.017 160.259 122.181 160.194C122.345 160.128 122.516 160.061 122.694 159.992C122.868 159.908 123.096 159.824 123.376 159.738Z" fill="white"/>
<path d="M108.861 163.085C109.69 162.979 110.47 163.071 111.203 163.362C111.922 163.67 112.521 164.133 112.999 164.752C113.478 165.371 113.772 166.109 113.881 166.968C113.963 167.608 113.919 168.242 113.748 168.87C113.577 169.498 113.296 170.081 112.907 170.619C112.517 171.157 112.042 171.602 111.48 171.954C110.921 172.322 110.3 172.549 109.616 172.636C108.758 172.746 107.952 172.635 107.2 172.302C106.45 171.984 105.828 171.516 105.335 170.899C104.842 170.282 104.544 169.573 104.442 168.773C104.331 167.9 104.415 167.054 104.694 166.235C104.974 165.415 105.461 164.717 106.157 164.14C106.839 163.58 107.74 163.228 108.861 163.085ZM108.5 163.907C108.078 163.961 107.71 164.09 107.396 164.293C107.084 164.51 106.855 164.805 106.711 165.179C106.579 165.536 106.515 165.958 106.518 166.445C106.508 166.949 106.536 167.456 106.601 167.965C106.694 168.692 106.898 169.361 107.213 169.972C107.527 170.582 107.913 171.058 108.371 171.398C108.828 171.739 109.334 171.874 109.886 171.803C110.221 171.761 110.519 171.663 110.781 171.512C111.029 171.376 111.246 171.164 111.431 170.874C111.665 170.504 111.791 170.044 111.809 169.495C111.83 168.96 111.8 168.38 111.72 167.754C111.63 167.056 111.428 166.401 111.114 165.791C110.799 165.181 110.42 164.697 109.975 164.34C109.515 163.985 109.024 163.84 108.5 163.907Z" fill="white"/>
<path d="M99.7679 180.44C99.3865 180.44 99.0565 180.301 98.7779 180.022C98.4992 179.743 98.3599 179.413 98.3599 179.032C98.3599 178.621 98.4992 178.284 98.7779 178.02C99.0565 177.741 99.3865 177.602 99.7679 177.602C100.164 177.602 100.494 177.741 100.758 178.02C101.037 178.284 101.176 178.621 101.176 179.032C101.176 179.413 101.037 179.743 100.758 180.022C100.494 180.301 100.164 180.44 99.7679 180.44Z" fill="white"/>
<path d="M90.1158 162.838C90.1449 162.842 90.191 162.885 90.2542 162.967C90.3173 163.049 90.3469 163.105 90.3431 163.134C90.3056 163.307 90.256 163.515 90.1943 163.758C90.1327 164.001 90.0904 164.21 90.0674 164.385L90.0501 164.516C90.3471 164.17 90.7649 163.863 91.3033 163.593C91.8253 163.337 92.428 163.253 93.1115 163.343C93.9403 163.453 94.6323 163.758 95.1875 164.26C95.7407 164.777 96.1468 165.4 96.4057 166.13C96.6501 166.857 96.7216 167.606 96.62 168.377C96.5032 169.264 96.1914 170.059 95.6846 170.761C95.1778 171.464 94.5167 171.99 93.7011 172.341C92.8837 172.707 91.9661 172.823 90.9482 172.689C90.6864 172.654 90.4213 172.59 90.1527 172.495C89.8676 172.413 89.6489 172.333 89.4966 172.254C89.3424 172.189 89.2508 172.155 89.2217 172.151C89.1199 172.137 89.0489 172.283 89.0087 172.589L88.6264 175.49C88.5517 176.057 88.5872 176.461 88.733 176.702C88.8788 176.943 89.115 177.115 89.4418 177.217C89.5834 177.265 89.6427 177.377 89.6197 177.551C89.6005 177.696 89.5226 177.782 89.386 177.809C88.7561 177.874 88.2126 177.957 87.7552 178.06C87.2979 178.162 86.9317 178.247 86.6566 178.314C86.5471 178.359 86.4633 178.378 86.4051 178.37C86.3451 178.377 86.3005 178.379 86.2714 178.375C86.1551 178.359 86.1046 178.294 86.1199 178.177C86.1256 178.134 86.1482 178.018 86.1877 177.831C86.2271 177.644 86.2844 177.378 86.3595 177.033C86.4345 176.688 86.5056 176.26 86.5726 175.752L87.9698 165.484C88.0349 164.99 88.0455 164.629 88.0015 164.401C87.9576 164.173 87.8483 164.048 87.6739 164.025C87.6011 164.015 87.4911 164.008 87.3438 164.004C87.1965 163.999 86.9983 163.988 86.7491 163.97C86.5146 163.954 86.4078 163.866 86.4289 163.706C86.4423 163.604 86.4921 163.507 86.5782 163.415C86.6624 163.337 86.7408 163.303 86.8135 163.312C87.272 163.314 87.7415 163.287 88.2222 163.232C88.6883 163.175 89.1901 163.071 89.7278 162.92C89.8518 162.877 89.9366 162.851 89.9821 162.842C90.0276 162.834 90.0722 162.832 90.1158 162.838ZM92.0505 164.491C91.7306 164.448 91.3856 164.484 91.0156 164.598C90.6291 164.725 90.294 164.91 90.0104 165.154L89.45 169.407C89.406 169.741 89.471 170.09 89.645 170.453C89.8026 170.829 90.0498 171.143 90.3865 171.394C90.7212 171.66 91.1213 171.824 91.5866 171.885C91.921 171.929 92.2926 171.86 92.7014 171.677C93.1082 171.509 93.4769 171.18 93.8076 170.691C94.1383 170.202 94.3621 169.514 94.479 168.627C94.5767 167.886 94.5563 167.254 94.4179 166.733C94.2775 166.226 94.0729 165.815 93.8039 165.498C93.5204 165.18 93.2191 164.94 92.9 164.78C92.5809 164.62 92.2977 164.523 92.0505 164.491Z" fill="white"/>
<path d="M81.8519 161.049C82.6105 161.277 83.2281 161.668 83.7045 162.225C84.1626 162.791 84.4571 163.468 84.588 164.258C84.7147 165.061 84.6412 165.92 84.3676 166.833C84.1192 167.662 83.7021 168.364 83.1165 168.938C82.5168 169.509 81.8328 169.901 81.0644 170.115C80.2919 170.343 79.5192 170.341 78.7465 170.109C78.1705 169.936 77.6934 169.663 77.3154 169.29C76.9192 168.926 76.6577 168.496 76.5312 167.998C76.3863 167.511 76.3939 167 76.5539 166.466C76.6928 166.003 76.98 165.836 77.4156 165.967L81.7779 167.274C81.9746 167.333 82.1319 167.319 82.2499 167.232C82.3679 167.145 82.4711 166.953 82.5595 166.658C82.7448 166.04 82.7748 165.429 82.6496 164.825C82.5201 164.235 82.2699 163.716 81.8989 163.268C81.5279 162.82 81.0614 162.512 80.4994 162.343C80.078 162.217 79.6755 162.181 79.292 162.234C78.8902 162.298 78.4976 162.433 78.1142 162.639C78.0552 162.683 78.0074 162.714 77.9709 162.734C77.9203 162.75 77.874 162.751 77.8318 162.738C77.7054 162.7 77.6653 162.604 77.7116 162.45C77.779 162.225 77.9573 161.987 78.2466 161.737C78.5317 161.501 78.8667 161.303 79.2516 161.143C79.6182 160.992 80.0263 160.908 80.4758 160.89C80.9155 160.853 81.3742 160.906 81.8519 161.049ZM81.5421 167.984L79.8562 167.479C79.4909 167.37 79.2008 167.29 78.9858 167.241C78.7709 167.192 78.5658 167.161 78.3705 167.149C78.2918 167.156 78.2258 167.197 78.1725 167.273C78.1149 167.363 78.0651 167.478 78.023 167.619C77.9051 168.012 77.9677 168.391 78.2108 168.754C78.4498 169.132 78.794 169.388 79.2436 169.523C79.5527 169.616 79.8892 169.617 80.253 169.527C80.6027 169.433 80.9181 169.275 81.199 169.053C81.4757 168.845 81.6491 168.598 81.7192 168.313C81.7698 168.144 81.7107 168.035 81.5421 167.984Z" fill="white"/>
<path d="M74.735 158.499C75.1624 158.693 75.5424 158.938 75.8751 159.234C76.1944 159.524 76.4428 159.846 76.6201 160.201C76.6348 160.417 76.5772 160.721 76.4475 161.113C76.3178 161.505 76.1832 161.855 76.0437 162.162C75.9831 162.295 75.8526 162.317 75.6523 162.226C75.5722 162.189 75.5145 162.139 75.4793 162.075C75.4246 162.018 75.4027 161.959 75.4136 161.9C75.4983 161.181 75.4332 160.58 75.2181 160.096C75.0031 159.611 74.6819 159.272 74.2546 159.078C73.8807 158.908 73.5189 158.889 73.1694 159.02C72.8138 159.165 72.5572 159.411 72.3995 159.758C72.2358 160.119 72.2262 160.477 72.3708 160.832C72.5093 161.201 72.7662 161.664 73.1415 162.221C73.4536 162.669 73.7087 163.083 73.9067 163.463C74.0986 163.856 74.208 164.236 74.2348 164.602C74.2556 164.982 74.1781 165.366 74.0022 165.753C73.79 166.221 73.4885 166.583 73.0977 166.84C72.6936 167.092 72.2294 167.227 71.705 167.247C71.1807 167.267 70.618 167.14 70.0171 166.867C69.5897 166.673 69.2504 166.463 68.999 166.236C68.7283 166.016 68.5473 165.829 68.4562 165.675C68.4161 165.48 68.4385 165.2 68.5233 164.836C68.5948 164.465 68.7063 164.113 68.8579 163.78C68.9064 163.673 69.0175 163.659 69.1911 163.738C69.2712 163.774 69.3489 163.833 69.4242 163.916C69.4861 163.992 69.5153 164.07 69.5117 164.149C69.473 164.695 69.5327 165.149 69.6906 165.511C69.8352 165.866 70.0945 166.129 70.4684 166.299C70.7889 166.444 71.1215 166.475 71.4662 166.39C71.8048 166.318 72.056 166.102 72.2197 165.741C72.3592 165.434 72.3767 165.112 72.2721 164.774C72.1482 164.444 71.9065 164.036 71.547 163.551C70.9459 162.746 70.5493 162.059 70.3573 161.489C70.1459 160.925 70.1887 160.317 70.4859 159.662C70.8376 158.888 71.4 158.394 72.1731 158.181C72.9329 157.963 73.7869 158.068 74.735 158.499Z" fill="white"/>
<path d="M69.5078 156.268C69.6086 156.328 69.6855 156.399 69.7386 156.482C69.7791 156.558 69.7768 156.633 69.7318 156.709C69.6717 156.809 69.5927 156.856 69.4945 156.849C69.3763 156.847 69.2593 156.828 69.1435 156.793C68.8086 156.696 68.5456 156.651 68.3545 156.656C68.1633 156.662 68.0002 156.778 67.8651 157.005L65.4331 161.088C65.2079 161.466 65.0907 161.805 65.0816 162.107C65.065 162.422 65.1992 162.698 65.4842 162.936C65.5397 162.986 65.5751 163.041 65.5904 163.102C65.5855 163.167 65.5568 163.244 65.5043 163.332C65.4142 163.483 65.3087 163.532 65.1878 163.477C64.5584 163.272 63.9883 163.155 63.4775 163.124C62.9467 163.098 62.543 163.088 62.2663 163.093C62.0752 163.099 61.9481 163.083 61.8851 163.046C61.7843 162.986 61.7639 162.905 61.824 162.804C61.9065 162.666 62.0568 162.456 62.2748 162.177C62.4801 161.889 62.7068 161.58 62.9547 161.25C63.1901 160.912 63.3979 160.592 63.578 160.29L66.1452 155.98C66.2653 155.779 66.286 155.586 66.2075 155.403C66.1289 155.22 65.9673 155.004 65.7225 154.756C65.6367 154.67 65.571 154.58 65.5254 154.485C65.4598 154.394 65.4569 154.299 65.517 154.198C65.6071 154.047 65.7655 154.039 65.9923 154.174C66.2317 154.316 66.4384 154.456 66.6124 154.594C66.7939 154.719 66.9691 154.841 67.138 154.959C67.2943 155.069 67.4858 155.191 67.7127 155.327C67.9269 155.454 68.1259 155.564 68.3098 155.657C68.4937 155.749 68.6776 155.842 68.8616 155.934C69.0404 156.007 69.2558 156.118 69.5078 156.268ZM62.0532 164.913C62.3682 165.1 62.5753 165.369 62.6745 165.718C62.7536 166.073 62.6994 166.407 62.5117 166.722C62.3165 167.05 62.0481 167.257 61.7062 167.344C61.3443 167.435 61.0059 167.387 60.6909 167.2C60.3632 167.004 60.1536 166.726 60.0619 166.364C59.9627 166.015 60.0107 165.676 60.2058 165.349C60.3935 165.034 60.6683 164.83 61.0302 164.739C61.3846 164.659 61.7256 164.718 62.0532 164.913Z" fill="white"/>
<path d="M65.4216 146.107C66.4514 146.909 67.123 147.73 67.4363 148.569C67.738 149.399 67.6455 150.126 67.1589 150.751C66.9065 151.075 66.6529 151.305 66.3982 151.441C66.1434 151.577 65.8384 151.647 65.4834 151.649C65.1901 151.644 64.8454 151.645 64.4492 151.652C64.0414 151.651 63.6439 151.648 63.2567 151.644L62.5703 150.914C63.3022 151 63.8849 150.98 64.3185 150.853C64.7611 150.715 65.1446 150.437 65.4691 150.02C65.8386 149.546 65.9425 148.995 65.7809 148.367C65.6192 147.739 65.2376 147.191 64.6359 146.722C63.9069 146.154 63.2298 145.878 62.6047 145.893C62.1763 145.894 61.7665 146.003 61.3753 146.218C60.9726 146.425 60.636 146.702 60.3656 147.049C60.1854 147.281 60.1177 147.535 60.1625 147.811C60.2073 148.088 60.373 148.412 60.6596 148.784C60.9462 149.156 61.3781 149.604 61.9554 150.128C63.0056 151.095 63.6573 151.881 63.9103 152.487C64.1633 153.093 64.105 153.633 63.7355 154.108C63.6454 154.224 63.5308 154.311 63.3919 154.37C63.2413 154.42 63.0458 154.444 62.8052 154.443C62.4296 154.448 62.1318 154.448 61.9119 154.444C61.6919 154.44 61.5202 154.446 61.3967 154.461C61.2526 154.479 61.1111 154.518 60.9721 154.577L60.525 153.755C60.8401 153.851 61.1372 153.887 61.4164 153.863C61.6955 153.839 61.8802 153.769 61.9703 153.653C62.0875 153.503 62.1101 153.307 62.0382 153.065C61.9573 152.834 61.7659 152.555 61.4638 152.227C61.1617 151.899 60.7626 151.504 60.2664 151.043C59.1865 150.091 58.4931 149.262 58.1861 148.559C57.8792 147.855 57.933 147.237 58.3476 146.704C58.7081 146.242 59.181 145.885 59.7665 145.635C60.3494 145.364 60.9818 145.196 61.6636 145.132C62.3454 145.068 63.0149 145.116 63.6721 145.274C64.3293 145.433 64.9125 145.711 65.4216 146.107ZM59.3695 153.412C58.9529 153.088 58.4506 153.04 57.8626 153.27C57.263 153.491 56.7018 153.937 56.1791 154.608C55.8907 154.979 55.6988 155.368 55.6033 155.777C55.5078 156.186 55.5082 156.568 55.6045 156.921C55.6801 157.278 55.8568 157.564 56.1345 157.78C56.3891 157.979 56.6984 158.071 57.0624 158.057C57.4264 158.043 57.7938 157.929 58.1644 157.716C58.526 157.514 58.851 157.228 59.1394 156.858C59.4638 156.442 59.6976 156.01 59.8407 155.564C59.9632 155.12 59.9899 154.704 59.9207 154.316C59.8309 153.93 59.6472 153.628 59.3695 153.412ZM60.022 152.861C60.508 153.239 60.882 153.726 61.144 154.32C61.406 154.915 61.5239 155.527 61.4978 156.157C61.4626 156.799 61.2512 157.369 60.8637 157.867C60.4221 158.434 59.8886 158.808 59.2634 158.99C58.629 159.184 57.9788 159.208 57.3126 159.06C56.6257 158.916 56.0104 158.632 55.4666 158.208C55.1194 157.938 54.8489 157.653 54.6548 157.353C54.4402 157.056 54.2108 156.765 53.9666 156.482C53.7545 156.205 53.5707 155.988 53.4152 155.83C53.2391 155.674 53.0469 155.515 52.8386 155.353C52.6882 155.235 52.5101 155.106 52.3044 154.964C52.0897 154.834 51.936 154.733 51.8434 154.661C51.6814 154.535 51.6816 154.368 51.8438 154.16C51.9609 154.009 52.1372 153.914 52.3727 153.874C52.4962 153.859 52.5811 153.869 52.6273 153.905L53.096 154.27C53.3968 154.505 53.6122 154.598 53.7422 154.551C53.7923 154.534 53.856 154.5 53.9333 154.448C53.9899 154.4 54.0646 154.328 54.1572 154.233C54.2383 154.128 54.342 153.995 54.4682 153.833C54.9368 153.232 55.5038 152.79 56.169 152.509C56.8342 152.228 57.5096 152.112 58.1952 152.163C58.8693 152.205 59.4782 152.437 60.022 152.861Z" fill="white"/>
<path d="M56.6743 147.324C56.7539 147.411 56.8073 147.501 56.8347 147.596C56.862 147.69 56.8434 147.767 56.7787 147.827C56.6925 147.906 56.6034 147.929 56.5114 147.894C56.3986 147.858 56.2763 147.802 56.1445 147.724C55.9522 147.602 55.7537 147.506 55.5489 147.435C55.3441 147.365 55.134 147.429 54.9184 147.628L51.362 150.911C51.0926 151.16 50.8961 151.401 50.7726 151.635C50.6283 151.868 50.6433 152.143 50.8174 152.461C50.8464 152.515 50.8596 152.572 50.8572 152.634C50.8439 152.706 50.8049 152.772 50.7403 152.832C50.6002 152.961 50.48 152.983 50.3796 152.895C49.9345 152.608 49.5026 152.378 49.0839 152.205C48.6553 152.022 48.2354 151.881 47.8242 151.781C47.7728 151.769 47.7214 151.756 47.67 151.744C47.6087 151.721 47.5631 151.693 47.5332 151.661C47.4934 151.618 47.4847 151.576 47.5071 151.535C47.5088 151.494 47.5312 151.453 47.5743 151.413C47.6497 151.344 47.8101 151.225 48.0555 151.059C48.2909 150.881 48.4841 150.723 48.635 150.584C48.6781 150.544 48.7212 150.504 48.7643 150.464C48.7975 150.414 48.8145 150.378 48.8153 150.357C48.1115 150.309 47.4839 150.169 46.9326 149.94C46.3714 149.699 45.857 149.326 45.3894 148.819C44.892 148.28 44.6893 147.639 44.7813 146.896C44.8733 146.152 45.2534 145.472 45.9216 144.855L49.4133 141.632C49.6289 141.433 49.7043 141.233 49.6397 141.034C49.565 140.823 49.4801 140.612 49.3847 140.401C49.3375 140.285 49.3006 140.169 49.2741 140.054C49.2475 139.938 49.2774 139.841 49.3636 139.761C49.439 139.692 49.5223 139.685 49.6135 139.74C49.6948 139.785 49.7652 139.84 49.8249 139.904C50.0239 140.12 50.1822 140.313 50.3 140.484C50.4185 140.634 50.5371 140.784 50.6556 140.934C50.7642 141.073 50.908 141.24 51.0871 141.434C51.2562 141.617 51.4108 141.774 51.5509 141.904C51.691 142.034 51.8361 142.17 51.9862 142.311C52.1371 142.431 52.312 142.599 52.5109 142.814C52.5607 142.868 52.6096 142.943 52.6577 143.038C52.7058 143.133 52.6921 143.216 52.6166 143.286C52.5304 143.365 52.431 143.387 52.3182 143.351C52.2055 143.316 52.0931 143.27 51.9812 143.213C51.7781 143.102 51.5796 143.005 51.3856 142.925C51.1916 142.845 50.9868 142.904 50.7713 143.103L47.425 146.192C46.9724 146.61 46.7365 147.057 46.7175 147.533C46.6884 147.999 46.8476 148.431 47.195 148.829C47.5034 149.163 47.8308 149.41 48.1774 149.569C48.5032 149.727 48.8518 149.835 49.2232 149.891C49.3061 149.894 49.3898 149.877 49.4743 149.839C49.5589 149.801 49.6281 149.757 49.682 149.707L53.5617 146.126C53.7773 145.927 53.8581 145.722 53.8042 145.513C53.7396 145.313 53.6591 145.118 53.563 144.927C53.4196 144.62 53.4071 144.412 53.5257 144.303C53.5903 144.243 53.6637 144.225 53.7458 144.249C53.8278 144.273 53.9136 144.334 54.0032 144.431C54.2021 144.646 54.3605 144.84 54.4782 145.01C54.5968 145.16 54.7103 145.305 54.8189 145.444C54.9176 145.573 55.0564 145.734 55.2355 145.928C55.4046 146.111 55.5592 146.268 55.6993 146.398C55.8394 146.528 55.9845 146.664 56.1346 146.805C56.2954 146.936 56.4753 147.109 56.6743 147.324Z" fill="white"/>
<path d="M29.7019 115.782C29.7269 115.897 29.7074 116.014 29.6434 116.133C29.5619 116.241 29.4511 116.318 29.3109 116.363L27.5451 117.042C27.7179 117.214 27.9216 117.425 28.1562 117.674C28.3876 117.909 28.6294 118.156 28.8814 118.416C28.9338 118.45 28.9734 118.494 29.0003 118.548C29.0271 118.602 29.0468 118.658 29.0593 118.715C29.0844 118.83 29.0721 118.945 29.0224 119.061C28.9695 119.163 28.8858 119.226 28.7711 119.251C28.5992 119.289 28.4244 119.244 28.2466 119.118L26.7928 117.927C26.7251 118.167 26.651 118.446 26.5703 118.764C26.4897 119.082 26.4034 119.408 26.3116 119.744C26.2874 119.839 26.233 119.933 26.1483 120.027C26.0606 120.106 25.9737 120.155 25.8877 120.174C25.7015 120.215 25.5624 120.163 25.4707 120.017C25.3789 119.872 25.346 119.722 25.372 119.566C25.4321 119.223 25.4881 118.895 25.5401 118.584C25.5921 118.272 25.6385 117.969 25.6793 117.675C25.399 117.766 25.1115 117.859 24.8169 117.953C24.5191 118.034 24.1983 118.111 23.8544 118.186C23.7111 118.218 23.5743 118.21 23.444 118.163C23.2994 118.12 23.2027 118.021 23.1539 117.867C23.1401 117.735 23.1739 117.615 23.2554 117.507C23.3226 117.402 23.4191 117.328 23.5449 117.286L25.3154 116.628C25.1426 116.456 24.9405 116.253 24.709 116.018C24.4633 115.786 24.2215 115.539 23.9838 115.276C23.9314 115.242 23.8918 115.198 23.865 115.144C23.8238 115.093 23.7969 115.039 23.7844 114.981C23.7593 114.867 23.7717 114.751 23.8214 114.636C23.8568 114.523 23.9461 114.451 24.0894 114.419C24.247 114.385 24.4147 114.431 24.5924 114.557L26.0678 115.743C26.1323 115.489 26.1993 115.212 26.2687 114.911C26.335 114.597 26.4213 114.27 26.5274 113.931C26.5485 113.822 26.6029 113.727 26.6907 113.648C26.761 113.558 26.8463 113.501 26.9466 113.48C27.1185 113.442 27.2504 113.496 27.3422 113.641C27.4339 113.786 27.4811 113.933 27.4838 114.083C27.4094 114.429 27.3534 114.757 27.3157 115.065C27.2781 115.374 27.2317 115.677 27.1766 115.974C27.4139 115.892 27.6958 115.808 28.0222 115.722C28.3455 115.621 28.6775 115.526 29.0182 115.436C29.1615 115.405 29.3055 115.411 29.4501 115.454C29.5804 115.501 29.6643 115.61 29.7019 115.782Z" fill="white"/>
<path d="M35.6965 93.6071C35.6501 93.7921 35.5913 93.9361 35.5201 94.0392C35.4667 94.1317 35.3902 94.1654 35.2906 94.1404C35.191 94.1155 35.1341 94.0407 35.12 93.9162C35.0952 93.7739 35.0811 93.5889 35.0777 93.3613C35.0779 92.9984 34.9714 92.6693 34.7582 92.3739C34.5485 92.0643 34.2108 91.8133 33.7449 91.6209C32.7136 91.2111 31.6716 90.8138 30.6189 90.4289C29.552 90.0405 28.5385 89.6805 27.5783 89.349C26.6038 89.014 25.736 88.736 24.975 88.5149C24.8754 88.4899 24.7616 88.4614 24.6335 88.4293C24.5055 88.3972 24.3828 88.374 24.2654 88.3597C24.1089 88.3205 23.9595 88.3132 23.8172 88.338C23.6642 88.3451 23.5184 88.4143 23.3795 88.5458C23.1375 88.7271 22.9524 88.9226 22.8242 89.1324C22.6818 89.3386 22.5465 89.5769 22.4182 89.8471C22.3505 89.9965 22.2686 90.112 22.1725 90.1938C22.0658 90.2577 21.9626 90.2772 21.863 90.2523C21.735 90.2202 21.6728 90.1365 21.6764 90.0014C21.6801 89.8662 21.7069 89.699 21.7568 89.4999C21.7996 89.3291 21.8656 89.0962 21.9547 88.801C22.0438 88.5058 22.1472 88.184 22.2648 87.8354C22.3682 87.4833 22.4663 87.1526 22.559 86.8432C22.6552 86.5195 22.7301 86.251 22.7836 86.0376C22.8086 85.938 22.8673 85.8545 22.9599 85.787C23.0382 85.7159 23.1378 85.6804 23.2587 85.6804C23.5327 85.6735 23.8137 85.6684 24.1018 85.665C24.3935 85.6474 24.6941 85.6245 25.0036 85.5962L34.0006 84.3591C34.0966 84.3378 34.1625 84.2863 34.1981 84.2045C34.2373 84.1084 34.2196 84.0284 34.1449 83.9643L26.9242 78.1168C26.6184 77.9494 26.3232 77.7998 26.0387 77.668C25.7436 77.5184 25.4965 77.3884 25.2973 77.278C25.1231 77.1889 25.052 77.0804 25.0841 76.9523L25.2874 76.1414C25.4087 75.6577 25.5086 75.1384 25.5873 74.5836C25.6517 74.0251 25.7196 73.6037 25.7909 73.3191C25.8159 73.2196 25.8639 73.1182 25.9352 73.0151C25.9921 72.9084 26.0704 72.8676 26.17 72.8925C26.2838 72.9211 26.3585 72.9851 26.394 73.0848C26.4295 73.1844 26.4596 73.3356 26.4844 73.5384C26.5021 73.7091 26.5233 73.8959 26.548 74.0987C26.5728 74.3014 26.6011 74.49 26.633 74.6643C26.6756 74.9169 26.7661 75.1286 26.9047 75.2995C27.0291 75.4667 27.2283 75.5771 27.5021 75.6307C28.5122 75.8839 29.4423 76.0944 30.2923 76.2622C31.1281 76.4264 31.9266 76.5888 32.6878 76.7494C33.4524 76.8957 34.2189 77.035 34.9872 77.1671C35.7555 77.2992 36.5717 77.451 37.436 77.6223C37.8557 77.6973 38.2204 77.6299 38.53 77.4203C38.8254 77.207 39.0853 76.8639 39.3097 76.391C39.4023 76.2025 39.4896 76.0656 39.5714 75.9803C39.6569 75.8808 39.7565 75.8453 39.8703 75.8738C39.9557 75.8952 40.0072 75.961 40.0249 76.0713C40.0426 76.1816 40.0301 76.3221 39.9873 76.4928C39.8981 76.8485 39.8018 77.1721 39.6985 77.4637C39.6094 77.7589 39.5202 78.0541 39.4311 78.3493C39.3455 78.6303 39.2635 78.9272 39.1851 79.2402C39.1137 79.5247 39.0549 79.7897 39.0084 80.0351C38.962 80.2805 38.9121 80.5402 38.8585 80.814C38.8192 81.0915 38.7532 81.4151 38.6604 81.785C38.6212 81.9415 38.566 82.0713 38.4948 82.1744C38.4413 82.2669 38.3648 82.3006 38.2653 82.2756C38.1657 82.2507 38.0928 82.1795 38.0466 82.0621C38.004 81.9304 37.9935 81.7615 38.015 81.5551C38.058 81.0821 37.9942 80.7334 37.8236 80.5092C37.6388 80.2814 37.3116 80.1087 36.8421 79.991C35.857 79.7591 34.9411 79.5522 34.0946 79.3702C33.2517 79.174 32.4195 78.9955 31.5978 78.8349C30.762 78.6707 29.8835 78.4958 28.9623 78.3102C28.8343 78.2781 28.7685 78.2994 28.7649 78.3741C28.7506 78.431 28.7986 78.5111 28.9088 78.6143L37.6547 85.7061C37.7578 85.7774 37.788 85.8681 37.7452 85.9783C37.7167 86.0921 37.649 86.1508 37.5423 86.1543C35.7245 86.3487 33.9261 86.5858 32.1474 86.8656C30.3579 87.1277 28.4884 87.4074 26.5389 87.7049C26.4428 87.7262 26.3912 87.7813 26.384 87.8702C26.3804 87.9449 26.4266 88.0019 26.5227 88.0411C27.3939 88.3654 28.2386 88.6754 29.0565 88.9712C29.878 89.2528 30.696 89.5183 31.5104 89.7679C32.3284 90.0032 33.1785 90.2314 34.0605 90.4526C34.4588 90.5524 34.8377 90.5189 35.1971 90.352C35.5458 90.1672 35.8288 89.8526 36.0461 89.4081C36.1423 89.2054 36.2331 89.0543 36.3185 88.9547C36.4075 88.841 36.509 88.7984 36.6228 88.8269C36.7081 88.8483 36.7579 88.9212 36.772 89.0458C36.7862 89.1703 36.7718 89.3179 36.729 89.4886C36.6327 89.8727 36.5454 90.1608 36.467 90.3528C36.4028 90.5484 36.344 90.7227 36.2906 90.8756C36.2513 91.0321 36.196 91.2526 36.1247 91.5371C36.0569 91.8074 36.0034 92.0511 35.9641 92.268C35.9284 92.4708 35.8909 92.6806 35.8517 92.8976C35.816 93.1003 35.7642 93.3368 35.6965 93.6071Z" fill="white"/>
<path d="M41.9344 73.6754C41.7967 73.9509 41.5705 74.174 41.2557 74.3446C40.954 74.5218 40.6293 74.6301 40.2817 74.6695C39.921 74.7024 39.6094 74.6533 39.347 74.5222C38.914 74.3058 38.6254 74.014 38.481 73.6467C38.3431 73.2664 38.2971 72.7679 38.3429 72.1513L38.4899 69.8392C38.516 69.5243 38.5029 69.321 38.4504 69.2292C38.3848 69.1308 38.224 69.0095 37.9682 68.8653L36.7874 68.226C36.4397 68.0359 36.1019 67.9737 35.7739 68.0394C35.446 68.105 35.1935 68.315 35.0165 68.6692C34.9247 68.8529 34.869 69.0628 34.8494 69.2989C34.8232 69.5154 34.8266 69.7056 34.8594 69.8696C34.8791 69.9614 34.9283 70.0434 35.007 70.1155C35.0923 70.1745 35.1874 70.2303 35.2924 70.2827C35.358 70.3155 35.4367 70.3548 35.5286 70.4007C35.6138 70.4269 35.6827 70.4531 35.7352 70.4794C35.8139 70.5187 35.8664 70.6597 35.8927 70.9024C35.9125 71.1254 35.9092 71.3779 35.8831 71.66C35.8635 71.9289 35.8143 72.1421 35.7356 72.2995C35.6963 72.3782 35.6439 72.434 35.5783 72.4668C35.5061 72.48 35.4307 72.4669 35.352 72.4275C35.1421 72.3226 34.9584 72.1489 34.8009 71.9062C34.6368 71.6439 34.5056 71.316 34.4071 70.9224C34.2889 70.4699 34.2166 70.0075 34.1903 69.5352C34.1574 69.0433 34.1704 68.5907 34.2293 68.1775C34.2948 67.7511 34.3964 67.4002 34.534 67.1247C34.8094 66.5736 35.2225 66.2226 35.7735 66.0716C36.3178 65.9009 36.8787 65.9762 37.4559 66.2975L41.8544 68.6183C42.1365 68.7757 42.4021 68.8347 42.6514 68.7952C42.9006 68.7558 43.0744 68.6377 43.1728 68.4409C43.3235 68.1392 43.3628 67.8637 43.2906 67.6144C43.2644 67.5357 43.2611 67.4767 43.2807 67.4373C43.3135 67.3717 43.3594 67.3291 43.4184 67.3094C43.484 67.2766 43.5496 67.2766 43.6152 67.3094C43.7727 67.388 43.8908 67.5618 43.9695 67.8307C44.0811 68.1652 44.1304 68.4932 44.1174 68.8146C44.124 69.1294 44.0683 69.4049 43.9503 69.641C43.6225 70.297 43.006 70.6448 42.1009 70.6844L42.0714 70.7434C42.2224 71.36 42.2881 71.9011 42.2686 72.3668C42.249 72.8325 42.1376 73.2687 41.9344 73.6754ZM41.383 72.121C41.4945 71.898 41.5534 71.6979 41.56 71.5208C41.5599 71.3241 41.5238 71.1338 41.4516 70.9502C41.4188 70.8518 41.363 70.7666 41.2843 70.6944C41.199 70.6026 41.0547 70.4977 40.8513 70.3797L39.7492 69.7798C39.6246 69.7011 39.5295 69.6618 39.4639 69.6618C39.3852 69.6553 39.3261 69.6914 39.2868 69.7701C39.2737 69.7963 39.2606 69.839 39.2475 69.898C39.2344 69.957 39.2245 70.0423 39.218 70.1538C39.146 70.8557 39.1757 71.387 39.307 71.7477C39.4251 72.1018 39.6285 72.351 39.9171 72.4953C40.2714 72.6723 40.5797 72.7116 40.842 72.6131C41.0978 72.495 41.2781 72.331 41.383 72.121Z" fill="white"/>
<path d="M44.8872 67.3672C44.8135 67.4767 44.7338 67.5557 44.6482 67.6041C44.5708 67.6404 44.4955 67.634 44.4225 67.5848C44.3252 67.5193 44.2828 67.4378 44.2954 67.3402C44.3041 67.2223 44.3311 67.0902 44.3765 66.9439C44.4876 66.6475 44.5211 66.4137 44.4771 66.2427C44.4413 66.0595 44.3321 65.9065 44.1496 65.7836L40.1341 63.0815C39.8299 62.8768 39.5457 62.7474 39.2816 62.6934C39.0052 62.6312 38.7425 62.7196 38.4933 62.9585C38.4484 62.999 38.3852 63.0272 38.3038 63.0431C38.2305 63.0469 38.1574 63.0242 38.0844 62.975C37.9505 62.885 37.9063 62.7668 37.9517 62.6206C38.0836 62.2143 38.1954 61.7592 38.2871 61.2552C38.3666 60.743 38.4213 60.3202 38.4512 59.9868C38.4517 59.881 38.4602 59.7895 38.4768 59.7123C38.4934 59.6351 38.5099 59.5843 38.5263 59.56C38.5836 59.4748 38.6609 59.4649 38.7583 59.5304C38.8069 59.5632 38.9063 59.6389 39.0563 59.7575C39.2145 59.8639 39.3868 59.9888 39.5733 60.1319C39.7598 60.2751 39.9443 60.4081 40.1268 60.5309C40.1755 60.5637 40.208 60.5679 40.2244 60.5436C40.1121 60.1851 40.0302 59.8207 39.979 59.4503C39.9359 59.0677 39.9435 58.7017 40.002 58.3521C40.0483 57.9943 40.1533 57.6937 40.3171 57.4504C40.53 57.134 40.7607 56.9357 41.0092 56.8554C41.2455 56.7669 41.4671 56.7923 41.6739 56.9315C41.8078 57.0216 41.9373 57.1706 42.0625 57.3786C42.1837 57.5662 42.2662 57.772 42.31 57.9959C42.3498 58.1995 42.3206 58.3743 42.2223 58.5203C42.165 58.6055 42.0853 58.6845 41.9833 58.7573C41.8692 58.8218 41.7509 58.8925 41.6285 58.9693C41.5143 59.0339 41.4021 59.1086 41.2919 59.1936C41.1778 59.2582 41.0879 59.3392 41.0224 59.4365C40.8177 59.7407 40.7389 60.0943 40.786 60.4972C40.833 60.9001 41.173 61.3145 41.8057 61.7402L45.2371 64.0493C45.4318 64.1803 45.6371 64.2036 45.8531 64.1191C46.0691 64.0346 46.3322 63.8669 46.6424 63.6161C46.769 63.5068 46.8812 63.432 46.979 63.3918C47.0646 63.3433 47.15 63.3478 47.2352 63.4051C47.3812 63.5033 47.3764 63.6681 47.2208 63.8992C46.9752 64.2643 46.744 64.5684 46.5274 64.8115C46.3311 65.0507 46.1265 65.3284 45.9136 65.6448C45.7744 65.8517 45.6577 66.0383 45.5634 66.2047C45.4691 66.371 45.3708 66.5435 45.2683 66.722C45.178 66.9088 45.051 67.1238 44.8872 67.3672Z" fill="white"/>
<path d="M51.926 58.2463C51.4308 58.8069 50.8412 59.1863 50.1573 59.3844C49.4624 59.5729 48.7456 59.5757 48.0069 59.3928C47.2683 59.2099 46.5857 58.8416 45.9592 58.2881C45.2447 57.6569 44.737 56.9246 44.4361 56.0912C44.1352 55.2578 44.0522 54.4213 44.1873 53.5816C44.3224 52.742 44.6764 51.998 45.2494 51.3495C45.9388 50.5691 46.7565 50.0977 47.7024 49.9353C47.9192 49.9115 48.077 49.9433 48.1759 50.0306C48.2528 50.0986 48.3129 50.23 48.3561 50.4247C48.3981 50.5988 48.4096 50.7851 48.3907 50.9837C48.3706 51.1616 48.3168 51.3 48.2294 51.3989C48.1711 51.4649 48.086 51.5169 47.9741 51.555C47.8718 51.5821 47.7641 51.6043 47.6509 51.6217C47.209 51.701 46.78 51.8211 46.3639 51.9819C45.9466 52.122 45.6457 52.2965 45.4611 52.5053C45.0242 52.9999 44.8999 53.5947 45.0884 54.2896C45.2755 54.9638 45.7703 55.6554 46.5727 56.3643C47.1003 56.8304 47.6548 57.1442 48.2363 57.3056C48.8275 57.4561 49.3939 57.4574 49.9354 57.3096C50.4867 57.1508 50.9663 56.8406 51.3741 56.379C51.6557 56.0602 51.849 55.7417 51.954 55.4235C52.0578 55.0846 52.0997 54.6716 52.08 54.1844C52.0872 54.132 52.0943 54.0796 52.1015 54.0272C52.1183 53.9638 52.1413 53.9157 52.1704 53.8827C52.2773 53.7618 52.4131 53.7742 52.578 53.9198C52.6329 53.9684 52.6898 54.048 52.7486 54.1586C52.7964 54.2596 52.8406 54.3867 52.8813 54.5401C52.9652 54.8882 52.9999 55.2809 52.9854 55.7182C52.9599 56.1458 52.8619 56.5779 52.6915 57.0144C52.5211 57.451 52.2659 57.8616 51.926 58.2463Z" fill="white"/>
<path d="M54.9889 54.2295C54.7622 54.4156 54.593 54.4406 54.4813 54.3045C54.3883 54.1912 54.4349 53.9821 54.6212 53.6774C54.7448 53.4812 54.8477 53.2829 54.9299 53.0826C55.0122 52.8822 54.9556 52.663 54.7602 52.4249L47.8795 44.0409C47.6283 43.7348 47.3643 43.5056 47.0875 43.3533C46.8014 43.1897 46.4923 43.2061 46.1603 43.4027C46.0397 43.4637 45.9189 43.4206 45.7979 43.2732C45.7049 43.1598 45.6898 43.0489 45.7526 42.9405C45.8988 42.7256 46.0697 42.4715 46.2653 42.1781C46.4723 41.8754 46.6689 41.5718 46.8552 41.2671C47.0323 40.951 47.1789 40.6789 47.2952 40.4506C47.3446 40.3721 47.3863 40.3189 47.4203 40.291C47.4657 40.2538 47.5136 40.2429 47.5642 40.2583C47.6055 40.2624 47.6448 40.2871 47.682 40.3324C47.7285 40.3891 47.7916 40.4891 47.8713 40.6324C47.9416 40.7644 48.0725 40.9701 48.2638 41.2495C48.4459 41.5175 48.7276 41.8839 49.1091 42.3488L51.8167 45.6479C51.947 45.8067 52.055 45.9267 52.1408 46.0081C52.2286 46.0689 52.3127 46.1136 52.3933 46.1424C52.463 45.8575 52.5528 45.5277 52.6627 45.1529C52.7839 44.7688 52.952 44.3842 53.1671 43.9989C53.3935 43.6044 53.6882 43.2582 54.051 42.9605C54.6292 42.486 55.2821 42.3106 56.0098 42.4344C56.7489 42.5488 57.4068 42.9575 57.9837 43.6604L60.9565 47.2827C61.1426 47.5095 61.3456 47.6181 61.5653 47.6084C61.7872 47.5782 62.0064 47.5216 62.2229 47.4387C62.3735 47.391 62.5015 47.3619 62.6067 47.3515C62.7026 47.3297 62.7832 47.3584 62.8483 47.4378C62.96 47.5738 62.8967 47.7396 62.6587 47.935C62.4206 48.1303 62.2242 48.2725 62.0695 48.3615C61.9242 48.4618 61.7845 48.5575 61.6505 48.6485C61.5165 48.7395 61.3418 48.8734 61.1264 49.0502C60.9109 49.227 60.7455 49.3722 60.6301 49.4859C60.5261 49.5903 60.4106 49.704 60.2839 49.827C60.1778 49.952 60 50.1169 59.7506 50.3216C59.5125 50.517 59.3377 50.5466 59.226 50.4106C59.1516 50.3199 59.1344 50.2296 59.1745 50.1398C59.2146 50.0499 59.2728 49.9358 59.3489 49.7974C59.4704 49.6218 59.5573 49.4272 59.6096 49.2135C59.6619 48.9998 59.5904 48.7739 59.395 48.5358L56.5757 45.1006C56.3524 44.8285 56.0787 44.6452 55.7545 44.5507C55.421 44.445 55.0954 44.4181 54.7777 44.4702C54.4712 44.5129 54.2046 44.6274 53.9779 44.8135C53.7738 44.9809 53.5647 45.2 53.3504 45.4707C53.1475 45.7321 53.0169 46.0006 52.9585 46.2762C52.9041 46.5106 52.9044 46.719 52.9594 46.9016C53.0164 47.0635 53.1659 47.2919 53.4078 47.5866L56.3248 51.1409C56.5222 51.3584 56.7205 51.4613 56.9196 51.4496C57.1095 51.4266 57.307 51.3783 57.5123 51.3048C57.6535 51.2457 57.7768 51.211 57.8821 51.2005C57.9873 51.19 58.0725 51.2245 58.1376 51.3038C58.2493 51.4399 58.1917 51.6009 57.965 51.787C57.7382 51.9731 57.5419 52.1153 57.3759 52.2136C57.2305 52.3139 57.0852 52.4142 56.9398 52.5145C56.8058 52.6056 56.6367 52.7348 56.4327 52.9023C56.2399 53.0605 56.0745 53.2057 55.9364 53.338C55.8097 53.461 55.6716 53.5933 55.5222 53.7349C55.3934 53.8785 55.2157 54.0434 54.9889 54.2295Z" fill="white"/>
<path d="M67.7401 45.0921C67.0552 45.4899 66.347 45.6722 65.6155 45.6392C64.8892 45.5861 64.1934 45.3373 63.5281 44.8926C62.8554 44.4353 62.2796 43.7945 61.8008 42.9701C61.3662 42.2219 61.1396 41.4376 61.121 40.6172C61.1152 39.7895 61.2971 39.0223 61.6669 38.3157C62.0293 37.5963 62.5593 37.0341 63.2568 36.6289C63.7768 36.3269 64.3023 36.1658 64.8334 36.1457C65.3698 36.1055 65.8626 36.2094 66.3119 36.4572C66.7665 36.6851 67.1337 37.0399 67.4137 37.5219C67.6568 37.9404 67.5817 38.2638 67.1886 38.4922L63.2507 40.7795C63.0731 40.8827 62.9758 41.0071 62.9586 41.1527C62.9414 41.2984 63.0102 41.5044 63.1649 41.7707C63.489 42.3287 63.9142 42.7687 64.4404 43.0906C64.9593 43.3999 65.509 43.5724 66.0896 43.6083C66.6702 43.6443 67.2141 43.5149 67.7214 43.2202C68.1019 42.9992 68.4038 42.7306 68.6271 42.4143C68.8558 42.0779 69.0259 41.6992 69.1376 41.2782C69.1462 41.2054 69.1558 41.1489 69.1664 41.1088C69.1897 41.0613 69.2204 41.0266 69.2584 41.0045C69.3726 40.9382 69.4702 40.9748 69.5512 41.1143C69.6691 41.3172 69.7202 41.6097 69.7048 41.9919C69.6819 42.3613 69.5973 42.7412 69.4509 43.1316C69.3098 43.5019 69.0921 43.8573 68.798 44.1977C68.5239 44.5435 68.1713 44.8416 67.7401 45.0921ZM62.894 40.1217L64.4159 39.2377C64.7456 39.0461 65.002 38.8888 65.1848 38.7656C65.3677 38.6424 65.5305 38.5139 65.6733 38.3801C65.722 38.3179 65.7369 38.2414 65.7181 38.1506C65.6918 38.0471 65.6419 37.9319 65.5682 37.8051C65.362 37.45 65.043 37.2366 64.6114 37.1651C64.1723 37.0809 63.7499 37.1567 63.3441 37.3924C63.065 37.5544 62.8339 37.799 62.6507 38.1259C62.4801 38.4455 62.3797 38.7836 62.3495 39.1404C62.3119 39.4845 62.3731 39.7797 62.5331 40.026C62.6215 40.1782 62.7418 40.2101 62.894 40.1217Z" fill="white"/>
<path d="M71.8223 42.3126C71.7128 42.3547 71.609 42.3709 71.5111 42.3614C71.4132 42.3518 71.3485 42.306 71.3169 42.2238C71.2749 42.1143 71.2871 42.0232 71.3535 41.9506C71.4283 41.859 71.5263 41.7665 71.6474 41.6728C71.8318 41.5392 71.9946 41.3903 72.1358 41.2262C72.277 41.062 72.2951 40.843 72.19 40.5691L70.4557 36.0505C70.3243 35.7082 70.1729 35.4364 70.0014 35.2352C69.8383 35.015 69.5767 34.9269 69.2166 34.9708C69.1565 34.9782 69.0981 34.9692 69.0413 34.9439C68.9792 34.9049 68.9323 34.8443 68.9008 34.7621C68.8325 34.5841 68.8573 34.4646 68.9753 34.4036C69.4072 34.0964 69.7808 33.7803 70.0958 33.4551C70.4246 33.1247 70.7113 32.7869 70.9558 32.4417C70.9864 32.3985 71.0169 32.3554 71.0475 32.3122C71.0918 32.2638 71.1344 32.2317 71.1755 32.216C71.2303 32.195 71.2724 32.2024 71.3019 32.2382C71.3398 32.255 71.3692 32.2909 71.3902 32.3456C71.427 32.4415 71.4774 32.6342 71.5415 32.9239C71.6192 33.2082 71.6948 33.4462 71.7684 33.6379C71.7894 33.6927 71.8105 33.7475 71.8315 33.8023C71.8662 33.8518 71.893 33.8808 71.912 33.8892C72.2178 33.2534 72.5793 32.7219 72.9966 32.2947C73.4276 31.8622 73.9649 31.5224 74.6085 31.2754C75.2931 31.0127 75.9638 31.0616 76.6206 31.4222C77.2775 31.7828 77.7688 32.3875 78.0946 33.2365L79.7974 37.6729C79.9025 37.9468 80.0598 38.0906 80.2693 38.1045C80.4926 38.1131 80.72 38.1122 80.9517 38.1018C81.077 38.1008 81.1981 38.1093 81.3149 38.1273C81.4318 38.1453 81.5113 38.2091 81.5533 38.3186C81.5901 38.4145 81.5658 38.4945 81.4805 38.5587C81.4088 38.6176 81.3319 38.6628 81.2498 38.6943C80.9759 38.7994 80.7379 38.8751 80.5357 38.9213C80.3524 38.9759 80.1692 39.0305 79.9859 39.0852C79.8163 39.1345 79.6083 39.2065 79.3618 39.3011C79.1291 39.3904 78.9263 39.4761 78.7536 39.5581C78.5808 39.6401 78.4012 39.7248 78.2148 39.8121C78.0473 39.9078 77.8266 40.0082 77.5527 40.1133C77.4843 40.1396 77.3969 40.1574 77.2905 40.1668C77.1841 40.1762 77.1126 40.133 77.0758 40.0371C77.0337 39.9276 77.0501 39.827 77.125 39.7355C77.1998 39.6439 77.2841 39.5566 77.3779 39.4735C77.557 39.3262 77.7198 39.1773 77.8662 39.0268C78.0127 38.8763 78.0334 38.6642 77.9283 38.3903L76.2965 34.1387C76.0758 33.5636 75.7475 33.179 75.3117 32.985C74.8896 32.7856 74.4294 32.7737 73.9312 32.9492C73.5068 33.1121 73.1565 33.3251 72.8804 33.5882C72.6128 33.8323 72.3841 34.1164 72.1943 34.4406C72.1606 34.5164 72.1458 34.6007 72.1499 34.6933C72.1541 34.786 72.1693 34.8666 72.1955 34.935L74.0875 39.8644C74.1926 40.1383 74.3525 40.289 74.5673 40.3165C74.7769 40.3303 74.988 40.3279 75.2007 40.3091C75.5387 40.2893 75.7367 40.3547 75.7945 40.5053C75.826 40.5875 75.8154 40.6622 75.7627 40.7296C75.71 40.797 75.6221 40.8543 75.4988 40.9016C75.225 41.0067 74.9869 41.0823 74.7847 41.1285C74.6015 41.1832 74.425 41.2352 74.2555 41.2845C74.0996 41.3286 73.8984 41.398 73.652 41.4926C73.4192 41.5819 73.2164 41.6676 73.0437 41.7496C72.8709 41.8316 72.6913 41.9163 72.5049 42.0035C72.3237 42.1045 72.0962 42.2075 71.8223 42.3126Z" fill="white"/>
<path d="M82.5271 38.2541C82.2104 38.3157 82.0352 38.2602 82.0016 38.0874C81.9792 37.9722 82.0141 37.8833 82.1065 37.8204C82.1989 37.7576 82.3042 37.6848 82.4226 37.602C82.6245 37.488 82.8093 37.3624 82.9768 37.2252C83.1443 37.0879 83.1986 36.8682 83.1398 36.5659L81.067 25.9198C80.9745 25.4447 80.8396 25.0974 80.6624 24.8779C80.4852 24.6584 80.2082 24.5405 79.8315 24.5242C79.6963 24.5206 79.6119 24.4324 79.5783 24.2597C79.5475 24.1013 79.5868 23.9965 79.6964 23.9453C80.0567 23.8005 80.384 23.6396 80.6783 23.4628C80.987 23.2831 81.2683 23.1163 81.5222 22.9623C81.7877 22.791 82.02 22.6412 82.2191 22.5128C82.3115 22.45 82.3864 22.413 82.444 22.4017C82.5016 22.3905 82.5418 22.4051 82.5646 22.4455C82.599 22.4687 82.6232 22.5163 82.6372 22.5883C82.6625 22.7178 82.6827 22.9754 82.698 23.3609C82.7277 23.7436 82.8126 24.2949 82.9528 25.0147L84.3991 32.4432C84.4271 32.5872 84.4843 32.6507 84.5707 32.6339C84.6427 32.6199 84.7307 32.5729 84.8346 32.4929C84.9386 32.4129 85.0383 32.3113 85.1339 32.1881C85.6144 31.5865 86.0142 31.0305 86.3332 30.5201C86.6522 30.0097 86.8655 29.647 86.973 29.4318C87.0138 29.3342 87.0444 29.261 87.0648 29.2122C87.0967 29.1462 87.1085 29.0916 87.1001 29.0484C87.0861 28.9764 87.0087 28.9243 86.8679 28.8919C86.7387 28.8424 86.5922 28.8186 86.4282 28.8206C86.2498 28.8255 86.1494 28.7703 86.127 28.6551C86.1102 28.5688 86.1408 28.4956 86.2187 28.4356C86.3083 28.3584 86.4179 28.3071 86.5474 28.2819L87.6056 28.0759C87.8359 28.0311 88.0994 27.9648 88.3962 27.8772C88.7045 27.7723 88.9984 27.6702 89.2779 27.571C89.5574 27.4717 89.7692 27.4081 89.9131 27.3801C90.1003 27.3436 90.2093 27.4046 90.2401 27.563C90.2569 27.6493 90.2219 27.7383 90.1352 27.8299C90.0628 27.9187 89.9517 28.0001 89.8017 28.0742C89.5538 28.1822 89.3071 28.3348 89.0616 28.5321C88.8133 28.7149 88.5808 28.9021 88.3641 29.0937C88.2369 29.2081 88.0446 29.4099 87.7871 29.6991C87.5297 29.9883 87.2562 30.3105 86.9667 30.6657C86.6773 31.0209 86.408 31.3647 86.159 31.6971C86.0866 31.7859 86.0574 31.8663 86.0714 31.9383C86.077 31.9671 86.0898 31.9945 86.1099 32.0205C86.1442 32.0436 86.1714 32.0682 86.1915 32.0942C86.6555 32.482 87.1266 32.8684 87.605 33.2534C88.0834 33.6384 88.5318 33.9845 88.9502 34.2915C89.3686 34.5985 89.7082 34.8462 89.969 35.0345C90.2614 35.2316 90.5842 35.3929 90.9373 35.5183C91.3049 35.641 91.605 35.7245 91.8378 35.7689C91.9902 35.784 92.1367 35.8078 92.2775 35.8401C92.4299 35.8553 92.5173 35.9205 92.5397 36.0356C92.5733 36.2084 92.4462 36.3228 92.1583 36.3789C91.4816 36.5106 90.7662 36.635 90.012 36.7519C89.275 36.8805 88.5394 37.0162 87.8052 37.1592C87.5316 37.2124 87.3795 37.1599 87.3486 37.0015C87.3318 36.9151 87.3538 36.8362 87.4146 36.7646C87.4869 36.6758 87.5779 36.6057 87.6874 36.5545C87.8202 36.4689 87.9242 36.3889 87.9993 36.3145C88.0861 36.2229 88.1182 36.1195 88.0958 36.0043C88.0874 35.9612 88.0632 35.9136 88.0232 35.8616C87.9832 35.8096 87.9274 35.7532 87.8558 35.6925L84.8438 33.2307C84.7694 33.1556 84.7034 33.1236 84.6458 33.1348C84.5766 33.1632 84.5505 33.2206 84.5673 33.307C84.5949 33.5257 84.6312 33.7503 84.676 33.9806C84.7209 34.2109 84.7671 34.4485 84.8148 34.6932C84.8596 34.9236 84.9087 35.1755 84.9619 35.449C85.0124 35.7082 85.0686 35.9587 85.1307 36.2006C85.1811 36.4598 85.2824 36.6343 85.4344 36.7243C85.5863 36.8142 85.7773 36.8741 86.0073 36.9041C86.1309 36.9248 86.2486 36.9542 86.3606 36.9922C86.4698 37.0157 86.5356 37.0851 86.558 37.2003C86.5777 37.3011 86.5327 37.377 86.4231 37.4283C86.3164 37.4939 86.227 37.5337 86.155 37.5477C85.8815 37.601 85.6555 37.63 85.4772 37.6349C85.3016 37.6541 85.1404 37.6705 84.9937 37.6842C84.8469 37.6978 84.644 37.7298 84.3848 37.7803C84.1401 37.8279 83.9327 37.8758 83.7628 37.9238C83.5928 37.9719 83.4157 38.0213 83.2313 38.0721C83.0498 38.1374 82.8151 38.198 82.5271 38.2541Z" fill="white"/>
<path d="M97.2011 36.3597C96.3654 36.3823 95.5978 36.2123 94.8984 35.8497C94.2133 35.4721 93.6637 34.9514 93.2496 34.2877C92.8356 33.6239 92.6168 32.8596 92.5935 31.9945C92.576 31.3494 92.6838 30.723 92.9168 30.1151C93.1498 29.5073 93.487 28.9553 93.9284 28.4592C94.3699 27.9631 94.8874 27.5676 95.481 27.2728C96.0741 26.9633 96.7153 26.7993 97.4044 26.7807C98.2694 26.7573 99.0595 26.9487 99.7747 27.3549C100.49 27.7464 101.061 28.2738 101.49 28.9371C101.919 29.6004 102.144 30.3353 102.166 31.1416C102.19 32.0213 102.021 32.8548 101.661 33.6422C101.301 34.4295 100.746 35.0754 99.997 35.5799C99.262 36.0692 98.33 36.3292 97.2011 36.3597ZM97.6421 35.5775C98.0673 35.566 98.4463 35.475 98.7791 35.3047C99.1116 35.1196 99.3684 34.8486 99.5495 34.4915C99.7163 34.1496 99.8225 33.7359 99.868 33.2505C99.9279 32.75 99.9509 32.2432 99.937 31.7301C99.9172 30.997 99.7813 30.3111 99.5293 29.6723C99.2772 29.0336 98.9406 28.5218 98.5194 28.1371C98.0982 27.7523 97.609 27.5674 97.0519 27.5825C96.7147 27.5916 96.4084 27.6586 96.133 27.7834C95.8719 27.8932 95.6349 28.083 95.4221 28.3528C95.1527 28.6975 94.9813 29.1423 94.908 29.6872C94.8343 30.2174 94.8059 30.7977 94.823 31.4281C94.842 32.1319 94.9775 32.8031 95.2295 33.4419C95.4815 34.0806 95.811 34.5999 96.218 34.9997C96.6396 35.3992 97.1143 35.5917 97.6421 35.5775Z" fill="white"/>
<path d="M105.84 36.701C105.461 36.6628 105.146 36.4912 104.897 36.186C104.648 35.8809 104.542 35.5386 104.58 35.1592C104.621 34.7506 104.794 34.4289 105.097 34.1941C105.403 33.9447 105.745 33.8391 106.124 33.8773C106.518 33.9169 106.833 34.0885 107.068 34.3922C107.318 34.6828 107.423 35.0324 107.382 35.441C107.344 35.8204 107.172 36.1348 106.867 36.3842C106.577 36.635 106.234 36.7406 105.84 36.701Z" fill="white"/>
<path d="M116.057 38.4474C116.028 38.4406 115.987 38.3931 115.932 38.3047C115.878 38.2163 115.854 38.1579 115.861 38.1294C115.916 37.9616 115.987 37.7598 116.073 37.5241C116.16 37.2884 116.223 37.0849 116.264 36.9138L116.295 36.7854C115.964 37.0984 115.517 37.3611 114.953 37.5735C114.408 37.775 113.799 37.7958 113.129 37.6358C112.316 37.4417 111.659 37.0664 111.159 36.5097C110.661 35.9387 110.322 35.2771 110.139 34.5249C109.971 33.7761 109.977 33.0236 110.158 32.2675C110.365 31.3973 110.758 30.6389 111.334 29.9924C111.91 29.3459 112.622 28.89 113.47 28.6248C114.321 28.3453 115.245 28.3247 116.244 28.563C116.501 28.6243 116.758 28.7158 117.015 28.8375C117.29 28.9484 117.5 29.0511 117.643 29.1456C117.79 29.2259 117.877 29.2694 117.906 29.2762C118.006 29.3 118.091 29.1621 118.163 28.8625L118.842 26.0165C118.975 25.4601 118.981 25.0545 118.861 24.7996C118.741 24.5448 118.523 24.3497 118.209 24.2143C118.073 24.1517 118.026 24.0349 118.066 23.8637C118.1 23.721 118.187 23.6436 118.325 23.6314C118.959 23.6317 119.508 23.6045 119.973 23.5497C120.439 23.4949 120.812 23.4482 121.092 23.4096C121.206 23.3764 121.291 23.3666 121.348 23.3802C121.409 23.3795 121.453 23.3826 121.482 23.3894C121.596 23.4167 121.639 23.4874 121.612 23.6015C121.602 23.6443 121.567 23.7567 121.509 23.9388C121.45 24.1208 121.366 24.3796 121.256 24.7152C121.146 25.0508 121.031 25.4682 120.912 25.9676L118.464 36.0364C118.348 36.5214 118.3 36.8794 118.321 37.1105C118.341 37.3415 118.437 37.4774 118.608 37.5182C118.679 37.5353 118.788 37.5537 118.934 37.5734C119.08 37.5932 119.276 37.6249 119.522 37.6685C119.754 37.7087 119.851 37.8073 119.813 37.9642C119.789 38.0641 119.73 38.1554 119.635 38.2383C119.543 38.3068 119.461 38.3326 119.39 38.3156C118.934 38.2671 118.464 38.2455 117.981 38.2507C117.511 38.2593 117.001 38.311 116.451 38.4059C116.323 38.4357 116.236 38.4526 116.19 38.4567C116.144 38.4607 116.099 38.4577 116.057 38.4474ZM114.302 36.604C114.616 36.6789 114.963 36.6787 115.343 36.6035C115.741 36.5174 116.093 36.3678 116.4 36.1546L117.396 31.9817C117.474 31.6536 117.445 31.3 117.31 30.9208C117.192 30.5307 116.978 30.1933 116.669 29.9085C116.364 29.6094 115.983 29.4053 115.526 29.2964C115.198 29.2181 114.821 29.2488 114.396 29.3886C113.974 29.5141 113.573 29.803 113.194 30.2553C112.814 30.7076 112.521 31.3688 112.313 32.2391C112.14 32.9666 112.095 33.5968 112.179 34.1295C112.266 34.6479 112.427 35.0784 112.662 35.421C112.911 35.7669 113.186 36.0361 113.487 36.2285C113.788 36.421 114.06 36.5461 114.302 36.604Z" fill="white"/>
<path d="M123.809 40.9256C123.077 40.6225 122.502 40.1702 122.085 39.5686C121.686 38.9591 121.462 38.255 121.412 37.4563C121.367 36.6441 121.527 35.7976 121.892 34.9168C122.223 34.1174 122.709 33.4614 123.35 32.949C124.005 32.4421 124.725 32.1213 125.511 31.9865C126.303 31.8382 127.071 31.9184 127.816 32.227C128.372 32.4572 128.819 32.7772 129.157 33.1871C129.514 33.5891 129.731 34.0439 129.806 34.5515C129.901 35.051 129.842 35.5583 129.628 36.0732C129.443 36.5204 129.141 36.657 128.721 36.483L124.513 34.7404C124.323 34.6618 124.166 34.6599 124.039 34.7346C123.913 34.8093 123.791 34.989 123.673 35.2735C123.426 35.8697 123.334 36.4747 123.398 37.0883C123.467 37.6883 123.663 38.23 123.987 38.7133C124.311 39.1966 124.743 39.5505 125.285 39.775C125.692 39.9434 126.089 40.0204 126.476 40.0061C126.882 39.9838 127.286 39.8893 127.688 39.7226C127.751 39.6852 127.802 39.6586 127.84 39.6427C127.892 39.6324 127.939 39.6357 127.979 39.6526C128.101 39.7031 128.131 39.8029 128.07 39.9519C127.98 40.1687 127.778 40.3869 127.465 40.6064C127.158 40.8124 126.804 40.9756 126.405 41.0961C126.025 41.2086 125.611 41.2512 125.162 41.2239C124.72 41.2158 124.269 41.1164 123.809 40.9256ZM124.82 34.0577L126.446 34.7312C126.798 34.8771 127.079 34.9854 127.288 35.056C127.496 35.1267 127.697 35.1781 127.89 35.2104C127.969 35.2114 128.039 35.1768 128.1 35.1068C128.166 35.0231 128.228 34.9136 128.284 34.7781C128.441 34.3987 128.417 34.0157 128.212 33.6291C128.012 33.229 127.696 32.9392 127.262 32.7596C126.964 32.6361 126.63 32.6007 126.259 32.6534C125.901 32.7117 125.571 32.8371 125.269 33.0295C124.973 33.2084 124.776 33.4362 124.677 33.7128C124.609 33.8754 124.657 33.9904 124.82 34.0577Z" fill="white"/>
<path d="M130.797 44.2202C130.391 43.9845 130.038 43.7027 129.736 43.375C129.447 43.0545 129.232 42.7092 129.091 42.3389C129.098 42.1225 129.186 41.8256 129.354 41.4484C129.522 41.0712 129.691 40.7368 129.861 40.4451C129.934 40.3182 130.066 40.3101 130.256 40.4206C130.333 40.4648 130.385 40.5206 130.413 40.5881C130.462 40.6503 130.478 40.7105 130.461 40.7686C130.305 41.4752 130.31 42.0801 130.476 42.5834C130.641 43.0866 130.927 43.4561 131.333 43.6919C131.688 43.8981 132.046 43.9534 132.407 43.8577C132.775 43.7494 133.055 43.5303 133.247 43.2006C133.446 42.8582 133.491 42.5028 133.382 42.1346C133.281 41.7536 133.072 41.2673 132.754 40.6757C132.488 40.199 132.276 39.7618 132.117 39.364C131.965 38.9536 131.894 38.5647 131.904 38.1973C131.921 37.8172 132.037 37.4433 132.25 37.0755C132.508 36.6316 132.844 36.3011 133.259 36.0839C133.686 35.874 134.161 35.7855 134.685 35.8184C135.209 35.8512 135.756 36.0333 136.327 36.3648C136.733 36.6005 137.049 36.8438 137.277 37.0947C137.524 37.3402 137.686 37.5442 137.761 37.7066C137.781 37.9051 137.731 38.1812 137.61 38.5351C137.502 38.8964 137.356 39.2356 137.172 39.5526C137.113 39.6541 137.001 39.6569 136.836 39.5612C136.76 39.517 136.689 39.45 136.622 39.3604C136.568 39.2782 136.547 39.198 136.558 39.1198C136.651 38.5802 136.637 38.1226 136.516 37.7469C136.408 37.3787 136.176 37.0914 135.821 36.8852C135.517 36.7084 135.189 36.6451 134.837 36.6954C134.493 36.733 134.222 36.923 134.023 37.2654C133.853 37.5571 133.804 37.876 133.874 38.2222C133.964 38.563 134.164 38.9928 134.473 39.5117C134.991 40.3722 135.317 41.0958 135.451 41.6826C135.606 42.264 135.502 42.8654 135.141 43.4869C134.714 44.2224 134.105 44.6575 133.315 44.792C132.537 44.9338 131.698 44.7432 130.797 44.2202Z" fill="white"/>
<path d="M135.707 46.8846C135.613 46.8149 135.543 46.7362 135.499 46.6485C135.466 46.5696 135.476 46.4947 135.528 46.4239C135.598 46.3295 135.681 46.2908 135.778 46.3077C135.895 46.3215 136.01 46.3515 136.122 46.3976C136.445 46.5272 136.702 46.5987 136.893 46.612C137.084 46.6252 137.258 46.5257 137.415 46.3133L140.238 42.491C140.499 42.1371 140.65 41.8104 140.688 41.5109C140.736 41.1996 140.63 40.9114 140.37 40.6464C140.319 40.591 140.29 40.5326 140.28 40.471C140.292 40.4064 140.328 40.3328 140.389 40.2502C140.493 40.1087 140.603 40.0712 140.718 40.1378C141.324 40.4033 141.88 40.5767 142.385 40.6581C142.911 40.7364 143.311 40.7862 143.587 40.8077C143.778 40.821 143.903 40.8494 143.962 40.893C144.056 40.9627 144.069 41.0447 143.999 41.1391C143.903 41.2689 143.733 41.4622 143.488 41.7192C143.256 41.9849 143 42.2699 142.72 42.5741C142.453 42.887 142.214 43.185 142.005 43.4681L139.025 47.5028C138.886 47.6916 138.846 47.8811 138.906 48.0713C138.966 48.2615 139.106 48.4922 139.325 48.7634C139.402 48.8568 139.458 48.9531 139.494 49.0526C139.55 49.149 139.544 49.2444 139.474 49.3388C139.369 49.4803 139.211 49.4727 138.999 49.3158C138.774 49.1503 138.583 48.9903 138.423 48.836C138.255 48.6935 138.093 48.5554 137.936 48.4216C137.791 48.2965 137.613 48.1555 137.401 47.9987C137.2 47.8505 137.013 47.7214 136.839 47.6112C136.665 47.501 136.491 47.3908 136.317 47.2806C136.146 47.1909 135.943 47.0589 135.707 46.8846ZM143.979 39.0184C143.684 38.8005 143.505 38.5129 143.44 38.1555C143.397 37.795 143.484 37.4673 143.702 37.1724C143.928 36.8656 144.216 36.6861 144.565 36.6336C144.934 36.5781 145.266 36.6593 145.561 36.8772C145.867 37.1037 146.049 37.4016 146.104 37.7708C146.168 38.1282 146.087 38.4603 145.861 38.767C145.643 39.062 145.349 39.2372 144.98 39.2927C144.619 39.3364 144.286 39.2449 143.979 39.0184Z" fill="white"/>
<path d="M139.056 57.6232C138.113 56.7205 137.529 55.836 137.302 54.9696C137.086 54.1133 137.252 53.3991 137.8 52.827C138.084 52.5303 138.36 52.3272 138.627 52.2177C138.894 52.1081 139.205 52.0702 139.558 52.104C139.849 52.1391 140.192 52.1732 140.587 52.206C140.993 52.2491 141.388 52.2923 141.773 52.3358L142.381 53.1316C141.662 52.971 141.08 52.9318 140.636 53.0141C140.182 53.107 139.772 53.3441 139.407 53.7255C138.991 54.1599 138.832 54.6976 138.929 55.3387C139.025 55.9797 139.349 56.5639 139.9 57.0913C140.568 57.7303 141.213 58.0741 141.837 58.1227C142.263 58.1653 142.682 58.0991 143.093 57.9242C143.514 57.7594 143.877 57.5181 144.182 57.2002C144.385 56.9884 144.478 56.7425 144.461 56.4628C144.445 56.1831 144.313 55.8437 144.066 55.4445C143.818 55.0453 143.434 54.5558 142.913 53.9758C141.967 52.9073 141.398 52.0587 141.208 51.4301C141.018 50.8014 141.131 50.2699 141.547 49.8355C141.649 49.7296 141.771 49.6543 141.916 49.6097C142.07 49.5752 142.267 49.5709 142.507 49.5968C142.881 49.6301 143.177 49.66 143.395 49.6863C143.614 49.7127 143.785 49.7245 143.91 49.7218C144.055 49.7186 144.2 49.6947 144.344 49.6501L144.705 50.5136C144.401 50.3853 144.109 50.3191 143.829 50.3148C143.549 50.3106 143.358 50.3614 143.257 50.4673C143.125 50.6051 143.083 50.7979 143.129 51.0458C143.187 51.2832 143.349 51.5805 143.616 51.9377C143.883 52.295 144.24 52.7281 144.687 53.237C145.664 54.2945 146.27 55.189 146.503 55.9204C146.737 56.6518 146.621 57.2612 146.154 57.7485C145.749 58.1723 145.242 58.479 144.634 58.6686C144.026 58.8789 143.38 58.9812 142.696 58.9754C142.011 58.9696 141.35 58.8543 140.712 58.6296C140.074 58.4049 139.522 58.0695 139.056 57.6232ZM145.82 50.9716C146.201 51.3368 146.696 51.4349 147.304 51.266C147.923 51.1073 148.527 50.7207 149.115 50.1062C149.44 49.7672 149.67 49.3991 149.807 49.0019C149.943 48.6048 149.982 48.2253 149.922 47.8635C149.883 47.5013 149.736 47.1985 149.482 46.9551C149.249 46.732 148.951 46.6088 148.587 46.5856C148.224 46.5624 147.847 46.638 147.456 46.8125C147.076 46.9764 146.724 47.2279 146.399 47.5669C146.034 47.9483 145.757 48.3537 145.57 48.7831C145.403 49.2121 145.334 49.6233 145.363 50.0169C145.413 50.41 145.565 50.7282 145.82 50.9716ZM145.115 51.4538C144.67 51.0278 144.347 50.5058 144.147 49.8878C143.947 49.2697 143.892 48.6485 143.982 48.0242C144.082 47.3892 144.35 46.844 144.786 46.3884C145.283 45.8693 145.852 45.5508 146.493 45.4331C147.143 45.3048 147.793 45.3477 148.44 45.5618C149.109 45.7755 149.692 46.1206 150.19 46.5973C150.508 46.9016 150.748 47.2127 150.911 47.5308C151.094 47.8484 151.293 48.1604 151.507 48.4669C151.69 48.7638 151.85 48.9989 151.989 49.1722C152.148 49.3451 152.323 49.5228 152.514 49.7053C152.652 49.8372 152.816 49.984 153.006 50.1459C153.206 50.2971 153.349 50.4133 153.434 50.4944C153.582 50.6364 153.565 50.8028 153.382 50.9935C153.251 51.1312 153.066 51.2078 152.827 51.2234C152.703 51.2261 152.619 51.2072 152.577 51.1666L152.148 50.7559C151.873 50.4921 151.668 50.3773 151.534 50.4114C151.482 50.4229 151.415 50.4503 151.333 50.4935C151.272 50.5364 151.19 50.6004 151.088 50.6856C150.997 50.7809 150.88 50.9028 150.738 51.0511C150.211 51.602 149.602 51.9835 148.912 52.1957C148.221 52.4078 147.538 52.4539 146.861 52.3338C146.195 52.2238 145.612 51.9305 145.115 51.4538Z" fill="white"/>
<path d="M147.786 57.1506C147.715 57.0567 147.671 56.9613 147.654 56.8645C147.636 56.7677 147.663 56.6929 147.733 56.6401C147.827 56.5698 147.918 56.5566 148.006 56.6006C148.114 56.6475 148.23 56.7164 148.353 56.8074C148.532 56.9482 148.72 57.064 148.917 57.155C149.113 57.2459 149.329 57.2034 149.563 57.0274L153.435 54.1234C153.729 53.9034 153.949 53.6834 154.095 53.4634C154.263 53.2463 154.276 52.9706 154.135 52.6362C154.112 52.5805 154.104 52.5218 154.113 52.4602C154.134 52.3898 154.179 52.3282 154.249 52.2754C154.402 52.161 154.524 52.1522 154.615 52.249C155.028 52.5805 155.434 52.8533 155.833 53.0674C156.241 53.2933 156.644 53.4766 157.043 53.6174C157.093 53.635 157.143 53.6526 157.193 53.6702C157.252 53.6995 157.294 53.7318 157.321 53.767C157.356 53.8139 157.36 53.8565 157.334 53.8946C157.328 53.9357 157.302 53.9738 157.255 54.009C157.172 54.0706 157.001 54.1718 156.74 54.3126C156.488 54.4651 156.279 54.603 156.115 54.7262C156.068 54.7614 156.021 54.7966 155.974 54.8318C155.936 54.8787 155.916 54.9125 155.913 54.933C156.608 55.0533 157.218 55.2557 157.743 55.5402C158.277 55.8365 158.751 56.2603 159.164 56.8118C159.604 57.3985 159.741 58.057 159.573 58.7874C159.406 59.5178 158.959 60.1558 158.231 60.7014L154.43 63.5526C154.195 63.7286 154.1 63.9193 154.144 64.1246C154.197 64.3417 154.26 64.5602 154.333 64.7802C154.368 64.9005 154.393 65.0193 154.408 65.1366C154.422 65.2539 154.383 65.3478 154.289 65.4182C154.207 65.4798 154.123 65.4783 154.038 65.4138C153.962 65.361 153.897 65.2994 153.845 65.229C153.669 64.9943 153.531 64.7861 153.431 64.6042C153.328 64.4428 153.226 64.2815 153.123 64.1202C153.029 63.9706 152.903 63.7902 152.745 63.579C152.595 63.3795 152.457 63.2079 152.331 63.0642C152.205 62.9204 152.074 62.7708 151.939 62.6154C151.801 62.4804 151.645 62.2956 151.469 62.061C151.425 62.0023 151.383 61.9231 151.345 61.8234C151.307 61.7236 151.329 61.643 151.411 61.5814C151.505 61.511 151.606 61.4992 151.715 61.5462C151.823 61.5931 151.931 61.6503 152.036 61.7178C152.227 61.8498 152.415 61.9656 152.599 62.0654C152.784 62.1651 152.994 62.127 153.229 61.951L156.872 59.2186C157.365 58.849 157.645 58.4281 157.712 57.9558C157.788 57.4953 157.674 57.0494 157.369 56.6182C157.096 56.2545 156.796 55.9758 156.467 55.7822C156.159 55.5915 155.823 55.4493 155.459 55.3554C155.377 55.3437 155.292 55.3525 155.204 55.3818C155.116 55.4111 155.043 55.4478 154.984 55.4918L150.76 58.6598C150.525 58.8358 150.424 59.0308 150.457 59.245C150.501 59.4503 150.561 59.6527 150.637 59.8522C150.748 60.1719 150.74 60.3802 150.611 60.477C150.54 60.5298 150.465 60.54 150.386 60.5078C150.307 60.4755 150.228 60.4066 150.149 60.301C149.973 60.0663 149.835 59.858 149.735 59.6762C149.632 59.5148 149.534 59.3594 149.44 59.2098C149.355 59.0719 149.233 58.8974 149.075 58.6862C148.925 58.4867 148.788 58.3151 148.661 58.1714C148.535 58.0276 148.405 57.878 148.27 57.7226C148.123 57.5759 147.962 57.3852 147.786 57.1506Z" fill="white"/>
<path d="M169.908 82.5779C169.88 82.4638 169.897 82.3466 169.958 82.226C170.037 82.1163 170.146 82.037 170.285 81.9882L172.035 81.2693C171.859 81.1009 171.65 80.8949 171.41 80.6513C171.173 80.422 170.926 80.1802 170.668 79.9259C170.615 79.8935 170.574 79.8505 170.546 79.7969C170.518 79.7434 170.497 79.6881 170.483 79.6311C170.455 79.5171 170.465 79.4015 170.512 79.2845C170.563 79.1817 170.645 79.1164 170.759 79.0887C170.93 79.0472 171.106 79.0876 171.286 79.2098L172.767 80.3673C172.829 80.1258 172.897 79.8453 172.97 79.5256C173.044 79.206 173.123 78.8775 173.207 78.5401C173.229 78.4442 173.281 78.3485 173.363 78.2531C173.449 78.1718 173.535 78.1208 173.621 78.1001C173.806 78.0551 173.946 78.1041 174.041 78.2471C174.136 78.39 174.173 78.5397 174.15 78.696C174.098 79.0407 174.049 79.3695 174.005 79.6822C173.96 79.9949 173.92 80.2988 173.886 80.5938C174.164 80.4961 174.45 80.3967 174.742 80.2956C175.038 80.2087 175.357 80.1238 175.699 80.0408C175.841 80.0062 175.978 80.0107 176.11 80.0543C176.255 80.0944 176.354 80.1912 176.406 80.3445C176.423 80.4762 176.392 80.5969 176.313 80.7067C176.248 80.8129 176.154 80.8888 176.029 80.9341L174.274 81.6317C174.45 81.8001 174.657 81.9989 174.894 82.2282C175.145 82.4541 175.392 82.6959 175.636 82.9537C175.689 82.9861 175.73 83.0291 175.758 83.0826C175.8 83.1327 175.828 83.1863 175.842 83.2433C175.87 83.3573 175.86 83.4729 175.813 83.5899C175.78 83.7035 175.693 83.7776 175.55 83.8122C175.393 83.8503 175.225 83.8082 175.044 83.686L173.542 82.5337C173.483 82.7894 173.423 83.0682 173.36 83.3702C173.301 83.6864 173.222 84.0149 173.124 84.3557C173.105 84.4658 173.053 84.5615 172.967 84.6427C172.899 84.7347 172.815 84.7929 172.715 84.8171C172.544 84.8586 172.411 84.8078 172.316 84.6649C172.221 84.5219 172.17 84.3757 172.164 84.2263C172.231 83.8781 172.279 83.5494 172.31 83.2402C172.34 82.9309 172.38 82.627 172.428 82.3285C172.193 82.4158 171.913 82.5064 171.588 82.6002C171.268 82.7082 170.938 82.8109 170.599 82.9081C170.457 82.9427 170.313 82.94 170.167 82.8998C170.036 82.8562 169.949 82.7489 169.908 82.5779Z" fill="white"/>
</svg>
