<svg width="36" height="37" viewBox="0 0 36 37" fill="none" xmlns="http://www.w3.org/2000/svg">
<rect width="36" height="37" rx="4" fill="black" fill-opacity="0.2"/>
<path d="M24 15H23V13C23 10.24 20.76 8 18 8C15.24 8 13 10.24 13 13V15H12C10.895 15 10 15.895 10 17V27C10 28.105 10.895 29 12 29H24C25.105 29 26 28.105 26 27V17C26 15.895 25.105 15 24 15ZM18 24C16.895 24 16 23.105 16 22C16 20.895 16.895 20 18 20C19.105 20 20 20.895 20 22C20 23.105 19.105 24 18 24ZM21.1 15H14.9V13C14.9 11.29 16.29 9.9 18 9.9C19.71 9.9 21.1 11.29 21.1 13V15Z" fill="white" fill-opacity="0.5"/>
</svg>
