<svg width="200" height="200" viewBox="0 0 200 200" fill="none" xmlns="http://www.w3.org/2000/svg">
<path d="M200 100C200 155.228 155.228 200 100 200C44.7715 200 0 155.228 0 100C0 44.7715 44.7715 0 100 0C155.228 0 200 44.7715 200 100Z" fill="#C42D1C"/>
<path fill-rule="evenodd" clip-rule="evenodd" d="M54.878 134.134C55.4633 134.347 56.2315 134.454 57.1827 134.454C59.1581 134.454 60.6214 134.383 61.5726 134.241C62.5237 134.17 63.3651 134.098 64.0967 134.027C64.8284 133.956 65.8527 133.921 67.1697 133.921C68.5598 133.921 69.6207 133.956 70.3523 134.027C71.1572 134.098 72.0351 134.17 72.9863 134.241C74.0106 134.383 75.5105 134.454 77.4859 134.454C78.437 134.454 79.2053 134.347 79.7906 134.134C80.3759 133.992 80.6686 133.708 80.6686 133.281C80.6686 132.784 80.3759 132.393 79.7906 132.109C79.2053 131.825 78.2907 131.576 77.0469 131.363C74.7788 130.936 73.0229 129.942 71.7791 128.378C70.5352 126.744 69.9133 124.968 69.9133 123.049C69.9133 118.217 70.0597 113.776 70.3523 109.726C70.645 105.675 71.0474 101.59 71.5596 97.4682C72.1449 93.2758 72.7668 88.6926 73.4253 83.7185C73.4984 83.3632 73.7179 83.1856 74.0837 83.1856C74.4496 83.1856 74.7056 83.3632 74.852 83.7185C78.9492 93.0271 82.6074 101.732 85.8267 109.832C89.1191 117.862 92.192 126.033 95.0455 134.347C95.1918 134.845 95.521 135.058 96.0332 134.987C96.5453 134.987 96.8746 134.809 97.0209 134.454L122.263 84.4646C122.629 83.754 122.994 83.3988 123.36 83.3988C123.726 83.3277 123.946 83.683 124.019 84.4646C124.238 89.2255 124.458 93.6311 124.677 97.6814C124.897 101.661 125.043 105.711 125.116 109.832C125.263 113.954 125.336 118.572 125.336 123.688C125.336 126.176 124.933 128.023 124.128 129.231C123.324 130.368 121.86 131.078 119.739 131.363C118.495 131.505 117.58 131.754 116.995 132.109C116.41 132.393 116.117 132.784 116.117 133.281C116.117 133.708 116.41 133.992 116.995 134.134C117.58 134.347 118.348 134.454 119.3 134.454C121.275 134.454 122.812 134.383 123.909 134.241C125.08 134.17 126.141 134.098 127.092 134.027C128.116 133.956 129.36 133.921 130.823 133.921C132.506 133.921 133.933 133.956 135.103 134.027C136.274 134.098 137.481 134.17 138.725 134.241C140.042 134.383 141.688 134.454 143.663 134.454C144.615 134.454 145.383 134.347 145.968 134.134C146.553 133.992 146.846 133.708 146.846 133.281C146.846 132.784 146.553 132.393 145.968 132.109C145.383 131.825 144.468 131.576 143.224 131.363C140.517 130.865 138.505 130.048 137.188 128.911C135.871 127.703 135.14 125.998 134.993 123.795C134.774 119.745 134.518 115.766 134.225 111.857C133.933 107.949 133.676 104.006 133.457 100.026C133.237 95.976 133.018 91.7836 132.799 87.4491C132.652 83.0435 132.579 78.3537 132.579 73.3796C132.579 72.598 132.835 71.8874 133.347 71.2479C133.859 70.5373 134.481 70.0399 135.213 69.7557C136.237 69.3293 137.335 68.903 138.505 68.4766C139.676 68.0503 140.737 67.6595 141.688 67.3042C142.786 66.8778 143.517 66.5225 143.883 66.2383C144.322 65.9541 144.541 65.5633 144.541 65.0659C144.541 64.5685 144.249 64.2842 143.663 64.2132C143.078 64.0711 142.603 64 142.237 64C140.993 64 139.127 64.1421 136.64 64.4263C134.225 64.7106 131.921 64.8527 129.726 64.8527H125.775C125.263 64.8527 124.897 65.3146 124.677 66.2383C124.458 67.3752 124.165 68.6898 123.799 70.182C123.433 71.6742 123.068 73.0243 122.702 74.2323L113.183 93.4732H89.8333C89.4184 93.4732 89.0571 93.4613 88.7494 93.4376L81.2173 74.8718C80.7052 73.5217 80.2662 72.1361 79.9003 70.715C79.5345 69.2938 79.1687 67.9437 78.8029 66.6647C78.6565 66.0962 78.4005 65.6699 78.0346 65.3856C77.6688 65.1014 77.2298 64.9593 76.7177 64.9593C75.986 64.9593 74.852 64.9238 73.3155 64.8527C71.8522 64.7816 70.2426 64.675 68.4866 64.5329C66.7307 64.3908 65.0845 64.2842 63.548 64.2132C62.0847 64.1421 60.9872 64.1066 60.2556 64.1066C59.1581 64.1066 58.2436 64.1776 57.5119 64.3198C56.8534 64.3908 56.5242 64.7106 56.5242 65.279C56.5242 65.7764 56.7437 66.2383 57.1827 66.6647C57.6217 67.0199 58.207 67.2687 58.9386 67.4108C60.6214 67.695 62.0847 68.0503 63.3285 68.4766C64.5723 68.8319 65.8527 69.5425 67.1697 70.6084C67.9013 71.1768 68.3403 71.7808 68.4866 72.4203C68.633 72.9888 68.7427 73.5573 68.8159 74.1257C68.889 74.6231 68.9256 75.1916 68.9256 75.8311V77.6431C68.9256 80.6275 68.7061 84.4646 68.2671 89.1544C67.9013 93.7732 67.3892 98.9959 66.7307 104.823C66.0722 110.578 65.304 116.654 64.426 123.049C64.0602 125.536 63.2919 127.455 62.1213 128.805C60.9507 130.155 59.4508 131.007 57.6217 131.363C56.3779 131.576 55.4633 131.825 54.878 132.109C54.2927 132.393 54 132.784 54 133.281C54 133.708 54.2927 133.992 54.878 134.134ZM90.2445 97.1228L98.5574 117.613C98.7769 118.11 99.1793 118.43 99.7646 118.572C100.35 118.643 100.789 118.43 101.082 117.933L111.239 97.4026C110.888 97.3646 110.548 97.332 110.262 97.3045C109.893 97.2691 109.615 97.2425 109.525 97.2246C109.082 97.151 108.492 97.1142 107.755 97.1142L90.6077 97.1142C90.4785 97.1142 90.3575 97.1171 90.2445 97.1228Z" fill="white"/>
</svg>
